<svg width="249" height="162" viewBox="0 0 249 162" fill="none" xmlns="http://www.w3.org/2000/svg">
<path d="M249 113.441H0L15.9872 81L0 48.5589H249L233.013 81L249 113.441Z" fill="#99D7AD"/>
<path d="M6.11499 101.025H242.885L233.013 81L242.685 61.3751H6.31483L15.9871 81L6.11499 101.025Z" fill="#66C485"/>
<path d="M124.5 7.22651L130.855 0.0974731L136.011 8.14768L143.405 2.10001L147.242 10.8311L155.475 6.02499L157.913 15.2767L166.826 11.7923L167.785 21.3244L177.098 19.2818L176.578 28.8139L186.091 28.2932L184.052 37.625L193.565 38.5862L190.087 47.5176L199.32 49.9607L194.524 58.2111L203.237 62.056L197.202 69.4654L205.235 74.6319L198.121 81L205.235 87.3681L197.202 92.5346L203.237 99.944L194.524 103.789L199.32 112.039L190.087 114.482L193.565 123.414L184.052 124.375L186.091 133.707L176.578 133.186L177.098 142.718L167.785 140.676L166.826 150.208L157.913 146.723L155.475 155.975L147.242 151.169L143.405 159.9L136.011 153.852L130.855 161.903L124.5 154.774L118.145 161.903L112.989 153.852L105.595 159.9L101.758 151.169L93.5249 155.975L91.0869 146.723L82.174 150.208L81.2148 140.676L71.9023 142.718L72.4219 133.186L62.9095 133.707L64.9479 124.375L55.4355 123.414L58.9127 114.482L49.6801 112.039L54.4763 103.789L45.7633 99.944L51.7984 92.5346L43.7649 87.3681L50.8792 81L43.7649 74.6319L51.7984 69.4654L45.7633 62.056L54.4763 58.2111L49.6801 49.9607L58.9127 47.5176L55.4355 38.5862L64.9479 37.625L62.9095 28.2932L72.4219 28.8139L71.9023 19.2818L81.2148 21.3244L82.174 11.7923L91.0869 15.2767L93.5249 6.02499L101.758 10.8311L105.595 2.10001L112.989 8.14768L118.145 0.0974731L124.5 7.22651Z" fill="#007D29"/>
<path d="M124.5 151.089C163.129 151.089 194.444 119.709 194.444 81C194.444 42.291 163.129 10.9112 124.5 10.9112C85.8711 10.9112 54.5562 42.291 54.5562 81C54.5562 119.709 85.8711 151.089 124.5 151.089Z" fill="url(#paint0_linear)"/>
<path d="M124.5 142.478C90.6871 142.478 63.1492 114.883 63.1492 81C63.1492 47.1171 90.6871 19.5221 124.5 19.5221C158.313 19.5221 185.851 47.1171 185.851 81C185.851 114.883 158.313 142.478 124.5 142.478ZM124.5 24.3282C93.3249 24.3282 67.9453 49.7604 67.9453 81C67.9453 112.24 93.3249 137.672 124.5 137.672C155.675 137.672 181.054 112.24 181.054 81C181.054 49.7604 155.675 24.3282 124.5 24.3282Z" fill="#99D7AD"/>
<path d="M114.508 70.4666L124.46 50.1208L134.492 70.4266L156.874 73.6306L140.727 89.4507L144.604 111.759L124.58 101.266L104.596 111.879L108.353 89.5308L92.126 73.7908L114.508 70.4666Z" fill="#E6F5EB"/>
<defs>
<linearGradient id="paint0_linear" x1="54.5562" y1="81" x2="194.444" y2="81" gradientUnits="userSpaceOnUse">
<stop offset="1.68566e-05" stop-color="#4DBA71"/>
<stop offset="0.9989" stop-color="#007D29"/>
</linearGradient>
</defs>
</svg>
