<svg width="193" height="139" viewBox="0 0 193 139" fill="none" xmlns="http://www.w3.org/2000/svg">
<path d="M141.685 49.707V93.5884C141.685 93.5884 137.402 92.8636 133.745 96.8169C130.055 100.803 115.033 104.328 108.115 93.5884C101.196 82.8487 106.83 71.3841 115.033 68.9792C129.759 64.7294 131.11 48.9822 141.685 49.707Z" fill="#80CE99"/>
<path d="M105.542 67.8245C111.46 66.9266 115.273 59.7094 114.059 51.7043C112.844 43.6993 107.062 37.9378 101.144 38.8357C95.2255 39.7336 91.4123 46.9508 92.6267 54.9559C93.8412 62.9609 99.6235 68.7224 105.542 67.8245Z" fill="#80CE99"/>
<path d="M127.586 44.9709C133.562 44.6337 138.037 37.8073 137.581 29.7238C137.125 21.6402 131.911 15.3605 125.934 15.6976C119.958 16.0348 115.483 22.8612 115.939 30.9448C116.395 39.0284 121.609 45.3081 127.586 44.9709Z" fill="#80CE99"/>
<path d="M103.272 34.9151C104.527 34.9151 105.545 32.9681 105.545 30.5664C105.545 28.1648 104.527 26.2178 103.272 26.2178C102.016 26.2178 100.999 28.1648 100.999 30.5664C100.999 32.9681 102.016 34.9151 103.272 34.9151Z" fill="#80CE99"/>
<path d="M126.761 9.18575C128.016 9.18575 129.034 7.23881 129.034 4.83714C129.034 2.43546 128.016 0.488525 126.761 0.488525C125.506 0.488525 124.488 2.43546 124.488 4.83714C124.488 7.23881 125.506 9.18575 126.761 9.18575Z" fill="#80CE99"/>
<path d="M141.685 49.707V93.5884C141.685 93.5884 145.968 92.8636 149.624 96.8169C153.314 100.803 168.337 104.328 175.255 93.5884C182.173 82.8487 176.54 71.3841 168.337 68.9792C153.643 64.7294 152.293 48.9822 141.685 49.707Z" fill="#80CE99"/>
<path d="M190.801 54.9486C192.016 46.9436 188.202 39.7263 182.284 38.8284C176.366 37.9305 170.583 43.692 169.369 51.6971C168.154 59.7021 171.968 66.9194 177.886 67.8173C183.804 68.7152 189.587 62.9537 190.801 54.9486Z" fill="#80CE99"/>
<path d="M167.465 30.9602C167.921 22.8766 163.446 16.0502 157.469 15.713C151.493 15.3758 146.278 21.6555 145.822 29.7391C145.366 37.8227 149.841 44.6491 155.818 44.9863C161.794 45.3235 167.009 39.0438 167.465 30.9602Z" fill="#80CE99"/>
<path d="M180.13 34.9151C181.386 34.9151 182.403 32.9681 182.403 30.5664C182.403 28.1648 181.386 26.2178 180.13 26.2178C178.875 26.2178 177.857 28.1648 177.857 30.5664C177.857 32.9681 178.875 34.9151 180.13 34.9151Z" fill="#80CE99"/>
<path d="M156.641 9.18575C157.896 9.18575 158.914 7.23881 158.914 4.83714C158.914 2.43546 157.896 0.488525 156.641 0.488525C155.386 0.488525 154.368 2.43546 154.368 4.83714C154.368 7.23881 155.386 9.18575 156.641 9.18575Z" fill="#80CE99"/>
<path d="M39.1312 99.2904V132.791C39.1312 132.791 35.8616 132.238 33.0699 135.256C30.2531 138.299 18.7845 140.99 13.5029 132.791C8.22126 124.592 12.522 115.839 18.7845 114.003C30.0267 110.759 31.0579 98.7371 39.1312 99.2904Z" fill="#4DBA71"/>
<path d="M11.5386 113.122C16.0568 112.436 18.968 106.927 18.0408 100.815C17.1136 94.704 12.6993 90.3055 8.18101 90.9909C3.66276 91.6764 0.751622 97.1863 1.67879 103.298C2.60597 109.409 7.02035 113.807 11.5386 113.122Z" fill="#4DBA71"/>
<path d="M28.3676 95.6748C32.9302 95.4174 36.3466 90.2059 35.9984 84.0346C35.6502 77.8634 31.6693 73.0692 27.1067 73.3267C22.5442 73.5841 19.1277 78.7955 19.4759 84.9668C19.8241 91.1381 23.805 95.9322 28.3676 95.6748Z" fill="#4DBA71"/>
<path d="M9.80569 87.9978C10.7641 87.9978 11.5411 86.5115 11.5411 84.678C11.5411 82.8444 10.7641 81.3581 9.80569 81.3581C8.84727 81.3581 8.07031 82.8444 8.07031 84.678C8.07031 86.5115 8.84727 87.9978 9.80569 87.9978Z" fill="#4DBA71"/>
<path d="M27.7378 68.3553C28.6962 68.3553 29.4732 66.8689 29.4732 65.0354C29.4732 63.2019 28.6962 61.7156 27.7378 61.7156C26.7794 61.7156 26.0024 63.2019 26.0024 65.0354C26.0024 66.8689 26.7794 68.3553 27.7378 68.3553Z" fill="#4DBA71"/>
<path d="M39.1311 99.2904V132.791C39.1311 132.791 42.4007 132.238 45.1924 135.256C48.0092 138.299 59.4778 140.99 64.7594 132.791C70.041 124.592 65.7403 115.839 59.4778 114.003C48.2607 110.759 47.2296 98.7371 39.1311 99.2904Z" fill="#4DBA71"/>
<path d="M76.628 103.292C77.5551 97.1808 74.644 91.6709 70.1258 90.9854C65.6075 90.2999 61.1931 94.6984 60.266 100.81C59.3388 106.921 62.2499 112.431 66.7682 113.116C71.2864 113.802 75.7008 109.403 76.628 103.292Z" fill="#4DBA71"/>
<path d="M58.8124 84.9785C59.1606 78.8073 55.7441 73.5958 51.1816 73.3384C46.619 73.081 42.638 77.8751 42.2899 84.0463C41.9417 90.2176 45.3581 95.4291 49.9207 95.6865C54.4833 95.9439 58.4642 91.1498 58.8124 84.9785Z" fill="#4DBA71"/>
<path d="M68.4817 87.9978C69.4401 87.9978 70.2171 86.5115 70.2171 84.678C70.2171 82.8444 69.4401 81.3581 68.4817 81.3581C67.5233 81.3581 66.7463 82.8444 66.7463 84.678C66.7463 86.5115 67.5233 87.9978 68.4817 87.9978Z" fill="#4DBA71"/>
<path d="M50.5494 68.3553C51.5078 68.3553 52.2847 66.8689 52.2847 65.0354C52.2847 63.2019 51.5078 61.7156 50.5494 61.7156C49.5909 61.7156 48.814 63.2019 48.814 65.0354C48.814 66.8689 49.5909 68.3553 50.5494 68.3553Z" fill="#4DBA71"/>
</svg>
