<svg width="246" height="176" viewBox="0 0 246 176" fill="none" xmlns="http://www.w3.org/2000/svg">
<path d="M15.1513 142.859C20.9372 141.982 24.6651 134.935 23.4778 127.12C22.2905 119.304 16.6376 113.679 10.8517 114.555C5.06587 115.432 1.33798 122.479 2.52528 130.294C3.71258 138.11 9.36546 143.735 15.1513 142.859Z" fill="#4DBA71"/>
<path d="M36.7044 120.546C42.547 120.217 46.922 113.552 46.4761 105.66C46.0303 97.7673 40.9324 91.6361 35.0898 91.9653C29.2471 92.2946 24.8722 98.9595 25.318 106.852C25.7639 114.744 30.8617 120.875 36.7044 120.546Z" fill="#4DBA71"/>
<path d="M12.9034 110.728C14.1307 110.728 15.1257 108.827 15.1257 106.482C15.1257 104.137 14.1307 102.236 12.9034 102.236C11.6761 102.236 10.6812 104.137 10.6812 106.482C10.6812 108.827 11.6761 110.728 12.9034 110.728Z" fill="#4DBA71"/>
<path d="M35.899 85.6071C37.1263 85.6071 38.1213 83.7063 38.1213 81.3614C38.1213 79.0165 37.1263 77.1156 35.899 77.1156C34.6717 77.1156 33.6768 79.0165 33.6768 81.3614C33.6768 83.7063 34.6717 85.6071 35.899 85.6071Z" fill="#4DBA71"/>
<path d="M76.5752 144.018C62.1789 139.837 60.8906 124.462 50.52 125.17C40.1495 124.462 38.8612 139.837 24.4649 144.018C16.4454 146.334 10.938 157.528 17.7014 168.046C24.4649 178.531 39.1511 175.09 42.7582 171.198C46.3654 167.306 50.52 168.046 50.52 168.046C50.52 168.046 54.7069 167.338 58.2819 171.198C61.889 175.09 76.5752 178.531 83.3386 168.046C90.102 157.528 84.5625 146.334 76.5752 144.018Z" fill="#4DBA71"/>
<path d="M98.49 130.291C99.6773 122.475 95.9494 115.429 90.1635 114.552C84.3777 113.675 78.7248 119.301 77.5375 127.116C76.3502 134.932 80.0781 141.979 85.864 142.855C91.6498 143.732 97.3027 138.107 98.49 130.291Z" fill="#4DBA71"/>
<path d="M75.6773 106.872C76.1232 98.9791 71.7482 92.3142 65.9056 91.985C60.0629 91.6558 54.9651 97.7869 54.5192 105.679C54.0734 113.572 58.4483 120.237 64.291 120.566C70.1336 120.895 75.2314 114.764 75.6773 106.872Z" fill="#4DBA71"/>
<path d="M88.0733 110.728C89.3007 110.728 90.2956 108.827 90.2956 106.482C90.2956 104.137 89.3007 102.236 88.0733 102.236C86.846 102.236 85.8511 104.137 85.8511 106.482C85.8511 108.827 86.846 110.728 88.0733 110.728Z" fill="#4DBA71"/>
<path d="M65.1104 85.6071C66.3378 85.6071 67.3327 83.7063 67.3327 81.3614C67.3327 79.0165 66.3378 77.1156 65.1104 77.1156C63.8831 77.1156 62.8882 79.0165 62.8882 81.3614C62.8882 83.7063 63.8831 85.6071 65.1104 85.6071Z" fill="#4DBA71"/>
<path d="M135.527 84.6648C142.978 83.5359 147.779 74.4612 146.25 64.3959C144.721 54.3307 137.441 47.0865 129.99 48.2154C122.538 49.3444 117.738 58.4191 119.267 68.4843C120.796 78.5496 128.075 85.7938 135.527 84.6648Z" fill="#80CE99"/>
<path d="M163.283 55.9308C170.807 55.5069 176.441 46.9236 175.867 36.7597C175.293 26.5957 168.728 18.6999 161.203 19.1238C153.679 19.5478 148.045 28.131 148.619 38.295C149.193 48.4589 155.759 56.3548 163.283 55.9308Z" fill="#80CE99"/>
<path d="M132.631 43.2865C134.211 43.2865 135.493 40.8385 135.493 37.8187C135.493 34.799 134.211 32.351 132.631 32.351C131.05 32.351 129.769 34.799 129.769 37.8187C129.769 40.8385 131.05 43.2865 132.631 43.2865Z" fill="#80CE99"/>
<path d="M162.245 10.9355C163.826 10.9355 165.107 8.48752 165.107 5.46776C165.107 2.448 163.826 0 162.245 0C160.665 0 159.383 2.448 159.383 5.46776C159.383 8.48752 160.665 10.9355 162.245 10.9355Z" fill="#80CE99"/>
<path d="M214.63 86.1587C196.09 80.7738 194.431 60.9738 181.075 61.8851C167.72 60.9738 166.061 80.7738 147.521 86.1587C137.193 89.1411 130.101 103.556 138.811 117.101C147.521 130.605 166.434 126.173 171.079 121.161C175.725 116.149 181.075 117.101 181.075 117.101C181.075 117.101 186.467 116.19 191.071 121.161C195.716 126.173 214.63 130.605 223.34 117.101C232.05 103.556 224.916 89.1411 214.63 86.1587Z" fill="#80CE99"/>
<path d="M242.851 68.4802C244.38 58.415 239.579 49.3403 232.128 48.2113C224.677 47.0824 217.397 54.3266 215.868 64.3918C214.339 74.457 219.14 83.5317 226.591 84.6607C234.042 85.7897 241.322 78.5454 242.851 68.4802Z" fill="#80CE99"/>
<path d="M213.472 38.3201C214.047 28.1561 208.413 19.5729 200.888 19.1489C193.364 18.7249 186.799 26.6208 186.225 36.7848C185.651 46.9487 191.285 55.532 198.809 55.9559C206.333 56.3799 212.898 48.484 213.472 38.3201Z" fill="#80CE99"/>
<path d="M229.437 43.2865C231.017 43.2865 232.298 40.8385 232.298 37.8187C232.298 34.799 231.017 32.351 229.437 32.351C227.856 32.351 226.575 34.799 226.575 37.8187C226.575 40.8385 227.856 43.2865 229.437 43.2865Z" fill="#80CE99"/>
<path d="M199.864 10.9355C201.445 10.9355 202.726 8.48752 202.726 5.46776C202.726 2.448 201.445 0 199.864 0C198.284 0 197.002 2.448 197.002 5.46776C197.002 8.48752 198.284 10.9355 199.864 10.9355Z" fill="#80CE99"/>
</svg>
