<svg width="235" height="178" viewBox="0 0 235 178" fill="none" xmlns="http://www.w3.org/2000/svg">
<path d="M30.2308 177.146C17.5414 173.912 12.7972 156.779 12.0112 148.618L30.2308 100.321L53.5948 81.676C66.813 98.3739 93.335 134.87 93.678 147.27C94.1067 162.77 79.531 175.125 69.4566 177.146C59.3822 179.168 58.3105 175.799 55.0953 173.328C51.88 170.857 49.7365 170.857 46.95 171.755C44.1635 172.654 40.7339 179.824 30.2308 177.146Z" fill="#B3E1C2"/>
<path d="M34.8963 147.032L48.4209 101.214C51.8021 92.5521 54.9882 96.6552 56.4512 101.214C60.255 113.067 68.3698 139.874 70.3985 152.274C72.4272 164.675 78.2879 165.343 80.9646 164.128C89.8402 161.088 106.915 146.348 104.21 111.7C101.505 77.0517 74.8363 59.2718 60.255 59.2718C46.0964 57.6761 23.779 59.2835 8.26966 89.3609C-11.5947 127.884 9.32618 157.061 19.047 162.988C28.7679 168.915 32.9663 152.274 34.8963 147.032Z" fill="#66C485"/>
<path d="M160.734 118.292C148.044 115.057 143.3 97.9247 142.514 89.7629L160.734 41.4661L184.098 22.8212C197.316 39.5192 223.838 76.0151 224.181 88.4151C224.61 103.915 210.034 116.27 199.96 118.292C189.885 120.313 188.813 116.944 185.598 114.473C182.383 112.002 180.239 112.002 177.453 112.9C174.666 113.799 171.237 120.969 160.734 118.292Z" fill="#B3E1C2"/>
<path d="M165.399 88.1768L178.924 42.3594C182.305 33.6974 185.491 37.8004 186.954 42.3594C190.758 54.2127 198.873 81.0193 200.901 93.4196C202.93 105.82 208.791 106.489 211.468 105.273C220.343 102.234 237.418 87.493 234.713 52.845C232.008 18.197 205.339 0.417025 190.758 0.417025C176.599 -1.17861 154.282 0.428734 138.773 30.5061C118.908 69.0293 139.829 98.2065 149.55 104.133C159.271 110.06 163.469 93.4196 165.399 88.1768Z" fill="#66C485"/>
</svg>
