<svg width="192" height="138" viewBox="0 0 192 138" fill="none" xmlns="http://www.w3.org/2000/svg">
<path d="M11.5676 111.84C16.0973 111.154 19.0157 105.637 18.0862 99.5187C17.1567 93.3999 12.7312 88.9961 8.2016 89.6824C3.67198 90.3687 0.753513 95.8853 1.68302 102.004C2.61253 108.123 7.03802 112.527 11.5676 111.84Z" fill="#4DBA71"/>
<path d="M28.4411 94.3726C33.0152 94.1148 36.4402 88.897 36.0912 82.7183C35.7421 76.5395 31.7511 71.7396 27.1771 71.9973C22.603 72.2551 19.178 77.4729 19.527 83.6516C19.8761 89.8304 23.8671 94.6303 28.4411 94.3726Z" fill="#4DBA71"/>
<path d="M9.80762 86.6861C10.7685 86.6861 11.5474 85.1979 11.5474 83.3622C11.5474 81.5264 10.7685 80.0383 9.80762 80.0383C8.84678 80.0383 8.06787 81.5264 8.06787 83.3622C8.06787 85.1979 8.84678 86.6861 9.80762 86.6861Z" fill="#4DBA71"/>
<path d="M27.8105 67.0196C28.7714 67.0196 29.5503 65.5315 29.5503 63.6958C29.5503 61.86 28.7714 60.3719 27.8105 60.3719C26.8497 60.3719 26.0708 61.86 26.0708 63.6958C26.0708 65.5315 26.8497 67.0196 27.8105 67.0196Z" fill="#4DBA71"/>
<path d="M59.6548 112.748C48.3842 109.475 47.3757 97.4383 39.2569 97.9923C31.138 97.4383 30.1295 109.475 18.8589 112.748C12.5807 114.561 8.26912 123.324 13.564 131.559C18.8589 139.768 30.3564 137.073 33.1803 134.026C36.0043 130.979 39.2569 131.559 39.2569 131.559C39.2569 131.559 42.5346 131.005 45.3334 134.026C48.1573 137.073 59.6548 139.768 64.9497 131.559C70.2446 123.324 65.9078 114.561 59.6548 112.748Z" fill="#4DBA71"/>
<path d="M76.8113 102.002C77.7408 95.8828 74.8223 90.3662 70.2927 89.6799C65.7631 88.9936 61.3376 93.3974 60.4081 99.5161C59.4786 105.635 62.3971 111.151 66.9267 111.838C71.4563 112.524 75.8818 108.12 76.8113 102.002Z" fill="#4DBA71"/>
<path d="M58.952 83.667C59.3011 77.4882 55.876 72.2704 51.302 72.0127C46.7279 71.7549 42.7369 76.5549 42.3879 82.7336C42.0388 88.9124 45.4639 94.1302 50.0379 94.3879C54.612 94.6457 58.603 89.8457 58.952 83.667Z" fill="#4DBA71"/>
<path d="M68.6563 86.6861C69.6171 86.6861 70.396 85.1979 70.396 83.3622C70.396 81.5264 69.6171 80.0383 68.6563 80.0383C67.6954 80.0383 66.9165 81.5264 66.9165 83.3622C66.9165 85.1979 67.6954 86.6861 68.6563 86.6861Z" fill="#4DBA71"/>
<path d="M50.6792 67.0196C51.64 67.0196 52.419 65.5315 52.419 63.6958C52.419 61.86 51.64 60.3719 50.6792 60.3719C49.7184 60.3719 48.9395 61.86 48.9395 63.6958C48.9395 65.5315 49.7184 67.0196 50.6792 67.0196Z" fill="#4DBA71"/>
<path d="M105.806 66.2819C111.64 65.3981 115.398 58.2937 114.201 50.4139C113.004 42.5341 107.305 36.8628 101.471 37.7466C95.638 38.6305 91.8796 45.7348 93.0766 53.6146C94.2736 61.4944 99.9729 67.1658 105.806 66.2819Z" fill="#80CE99"/>
<path d="M127.536 43.7868C133.426 43.4549 137.837 36.7353 137.388 28.7782C136.938 20.8211 131.799 14.6396 125.908 14.9715C120.017 15.3034 115.607 22.023 116.056 29.9801C116.506 37.9372 121.645 44.1187 127.536 43.7868Z" fill="#80CE99"/>
<path d="M103.539 33.8879C104.777 33.8879 105.78 31.9714 105.78 29.6073C105.78 27.2432 104.777 25.3267 103.539 25.3267C102.302 25.3267 101.299 27.2432 101.299 29.6073C101.299 31.9714 102.302 33.8879 103.539 33.8879Z" fill="#80CE99"/>
<path d="M126.723 8.56114C127.961 8.56114 128.964 6.64467 128.964 4.28057C128.964 1.91648 127.961 0 126.723 0C125.486 0 124.483 1.91648 124.483 4.28057C124.483 6.64467 125.486 8.56114 126.723 8.56114Z" fill="#80CE99"/>
<path d="M167.734 67.4514C153.219 63.2357 151.921 47.7349 141.465 48.4483C131.009 47.7349 129.711 63.2357 115.196 67.4514C107.111 69.7863 101.558 81.0714 108.377 91.6756C115.196 102.247 130.003 98.7774 133.64 94.8536C137.276 90.9297 141.465 91.6756 141.465 91.6756C141.465 91.6756 145.686 90.9621 149.29 94.8536C152.927 98.7774 167.734 102.247 174.553 91.6756C181.372 81.0714 175.787 69.7863 167.734 67.4514Z" fill="#80CE99"/>
<path d="M189.828 53.6114C191.025 45.7316 187.266 38.6273 181.433 37.7434C175.6 36.8596 169.901 42.5309 168.704 50.4107C167.507 58.2905 171.265 65.3948 177.098 66.2787C182.932 67.1625 188.631 61.4912 189.828 53.6114Z" fill="#80CE99"/>
<path d="M166.828 29.9998C167.278 22.0427 162.867 15.3231 156.976 14.9912C151.086 14.6593 145.946 20.8407 145.497 28.7978C145.047 36.755 149.458 43.4745 155.348 43.8064C161.239 44.1384 166.379 37.9569 166.828 29.9998Z" fill="#80CE99"/>
<path d="M179.326 33.8879C180.563 33.8879 181.566 31.9714 181.566 29.6073C181.566 27.2432 180.563 25.3267 179.326 25.3267C178.089 25.3267 177.085 27.2432 177.085 29.6073C177.085 31.9714 178.089 33.8879 179.326 33.8879Z" fill="#80CE99"/>
<path d="M156.175 8.56114C157.412 8.56114 158.415 6.64467 158.415 4.28057C158.415 1.91648 157.412 0 156.175 0C154.937 0 153.934 1.91648 153.934 4.28057C153.934 6.64467 154.937 8.56114 156.175 8.56114Z" fill="#80CE99"/>
</svg>
