<svg width="200" height="148" viewBox="0 0 200 148" fill="none" xmlns="http://www.w3.org/2000/svg">
<path d="M25.1689 147.485C14.6042 144.792 10.6543 130.528 10 123.733L25.1689 83.5229L44.6208 68C55.6256 81.902 77.7068 112.287 77.9923 122.611C78.3492 135.515 66.2141 145.802 57.8266 147.485C49.4391 149.168 48.5468 146.363 45.87 144.305C43.1931 142.248 41.4085 142.248 39.0886 142.996C36.7686 143.744 33.9133 149.714 25.1689 147.485Z" fill="#B3E1C2"/>
<path d="M29.0532 122.412L40.3132 84.2667C43.1283 77.055 45.7809 80.4711 46.9989 84.2667C50.1658 94.1352 56.9218 116.453 58.6108 126.777C60.2998 137.101 65.1792 137.658 67.4078 136.646C74.7972 134.115 89.013 121.843 86.761 92.9965C84.509 64.15 62.3055 49.3472 50.1658 49.3472C38.3779 48.0187 19.7974 49.3569 6.88497 74.3981C-9.65325 106.471 7.76459 130.763 15.8578 135.697C23.9509 140.631 27.4464 126.777 29.0532 122.412Z" fill="#66C485"/>
<path d="M138.169 98.4847C127.604 95.7916 123.654 81.528 123 74.7328L138.169 34.5229L157.621 19C168.626 32.902 190.707 63.287 190.992 73.6107C191.349 86.5153 179.214 96.8015 170.827 98.4847C162.439 100.168 161.547 97.3626 158.87 95.3053C156.193 93.2481 154.409 93.2481 152.089 93.9962C149.769 94.7443 146.913 100.714 138.169 98.4847Z" fill="#B3E1C2"/>
<path d="M142.053 73.4123L153.313 35.2667C156.128 28.055 158.781 31.4711 159.999 35.2667C163.166 45.1352 169.922 67.4533 171.611 77.7773C173.3 88.1013 178.179 88.658 180.408 87.6458C187.797 85.1154 202.013 72.843 199.761 43.9965C197.509 15.15 175.306 0.347197 163.166 0.347197C151.378 -0.981261 132.797 0.356946 119.885 25.3981C103.347 57.4709 120.765 81.7626 128.858 86.6969C136.951 91.6312 140.446 77.7773 142.053 73.4123Z" fill="#66C485"/>
</svg>
