<?xml version="1.0" encoding="utf-8"?>
<!-- Generator: Adobe Illustrator 24.1.3, SVG Export Plug-In . SVG Version: 6.00 Build 0)  -->
<svg version="1.1" xmlns="http://www.w3.org/2000/svg" xmlns:xlink="http://www.w3.org/1999/xlink" x="0px" y="0px"
	 viewBox="0 0 1440 2999.7" style="enable-background:new 0 0 1440 2999.7;" xml:space="preserve">
<style type="text/css">
	.st0{display:none;}
	.st1{fill:#E6F5EB;}
	.st2{fill:none;stroke:#E6F5EB;stroke-width:47;stroke-linecap:round;stroke-linejoin:round;stroke-miterlimit:10;}
	.st3{fill:none;stroke:#CCEBD6;stroke-width:47;stroke-linecap:round;stroke-linejoin:round;stroke-miterlimit:10;}
	.st4{display:inline;}
	.st5{display:none;fill:none;stroke:#B3E1C2;stroke-width:7;stroke-miterlimit:10;stroke-dasharray:67;}
	.st6{display:inline;fill:#1F906D;}
	.st7{display:inline;fill:#92C094;}
	.st8{fill:#CCEBD6;}
	.st9{fill:#B3E1C2;}
	.st10{fill:url(#SVGID_19_);}
	.st11{fill:none;stroke:#80CE99;stroke-width:1.5;stroke-linecap:round;stroke-miterlimit:10;}
	.st12{fill:url(#SVGID_20_);}
	.st13{fill:none;stroke:#66C485;stroke-width:1.5;stroke-linecap:round;stroke-miterlimit:10;}
	.st14{display:inline;fill:#80CE99;}
	.st15{display:inline;fill:#009C33;}
	.st16{display:none;fill:none;stroke:#C1D6BC;stroke-width:21;stroke-linecap:round;stroke-linejoin:round;stroke-miterlimit:10;}
	.st17{display:none;fill:#B3E1C2;}
	.st18{display:none;fill:#80CE99;}
	.st19{fill:#99D7AD;}
	.st20{fill:#FFFFFF;}
	.st21{fill:#80CE99;}
	.st22{fill:#66C485;}
	.st23{fill-rule:evenodd;clip-rule:evenodd;fill:#FF9632;}
	.st24{fill-rule:evenodd;clip-rule:evenodd;fill:none;stroke:#009C33;stroke-width:2;stroke-miterlimit:10;}
	.st25{fill-rule:evenodd;clip-rule:evenodd;fill:#FF7200;}
	.st26{fill-rule:evenodd;clip-rule:evenodd;fill:#006B2D;}
	
		.st27{fill-rule:evenodd;clip-rule:evenodd;fill:none;stroke:#FFFFFF;stroke-width:2;stroke-linecap:round;stroke-linejoin:round;stroke-miterlimit:10;}
	.st28{fill-rule:evenodd;clip-rule:evenodd;fill:#009C33;}
	.st29{fill-rule:evenodd;clip-rule:evenodd;fill:#007D29;}
	.st30{fill:#E60018;}
	.st31{fill:#009C33;}
	.st32{fill:url(#SVGID_21_);}
	.st33{fill:url(#SVGID_22_);}
	.st34{fill:none;stroke:#009C33;stroke-width:6;stroke-miterlimit:10;}
	.st35{fill:none;stroke:#80CE99;stroke-width:6;stroke-miterlimit:10;}
	.st36{fill:url(#SVGID_23_);}
	.st37{fill:url(#SVGID_24_);}
	.st38{fill:url(#SVGID_25_);}
	.st39{fill:url(#SVGID_26_);}
	.st40{font-family:'HDI-GerlingSansCond-Bold';}
	.st41{font-size:16px;}
	.st42{fill:url(#SVGID_27_);}
	.st43{fill:url(#SVGID_28_);}
	.st44{fill:url(#SVGID_29_);}
	.st45{fill:url(#SVGID_30_);}
	.st46{fill:url(#SVGID_31_);}
	.st47{fill:url(#SVGID_32_);}
	.st48{fill:#FF9632;}
	.st49{display:inline;fill:none;stroke:#FF7200;stroke-width:4;stroke-miterlimit:10;}
	.st50{display:inline;fill:#FFFFFF;}
	.st51{display:none;fill:none;stroke:#FF7200;stroke-miterlimit:10;stroke-dasharray:4;}
	.st52{fill:url(#SVGID_33_);}
	.st53{fill:url(#SVGID_34_);}
</style>
<g id="Ebene_71" class="st0">
</g>
<g id="Ebene_75">
	<g>
		
			<ellipse transform="matrix(2.505589e-02 -0.9997 0.9997 2.505589e-02 -1159.1057 1868.7596)" class="st1" cx="378.5" cy="1528.6" rx="1.9" ry="9.3"/>
		
			<ellipse transform="matrix(2.505589e-02 -0.9997 0.9997 2.505589e-02 -1250.5894 1782.4442)" class="st1" cx="288.5" cy="1532.4" rx="1.9" ry="9.3"/>
		
			<ellipse transform="matrix(2.505572e-02 -0.9997 0.9997 2.505572e-02 -1189.167 1838.2882)" class="st1" cx="347.9" cy="1528.8" rx="0.9" ry="2.8"/>
		
			<ellipse transform="matrix(2.505572e-02 -0.9997 0.9997 2.505572e-02 -1199.1392 1837.9154)" class="st1" cx="342.7" cy="1533.7" rx="0.8" ry="2.3"/>
		
			<ellipse transform="matrix(2.505572e-02 -0.9997 0.9997 2.505572e-02 -1218.4867 1806.6771)" class="st1" cx="317" cy="1528" rx="0.8" ry="2.3"/>
		<path class="st1" d="M326.9,1525.5c0,0,2.6,0.1,5.9,0.1c3.2,0.1,5.9,0.1,5.9,0.1s-2.6-0.1-5.9-0.1
			C329.5,1525.5,326.9,1525.5,326.9,1525.5z"/>
	</g>
	<g>
		
			<ellipse transform="matrix(0.1459 -0.9893 0.9893 0.1459 -1585.1621 2273.3604)" class="st1" cx="524.1" cy="2054.8" rx="3.6" ry="6"/>
		
			<ellipse transform="matrix(0.1459 -0.9893 0.9893 0.1459 -1638.6053 2217.031)" class="st1" cx="464.7" cy="2057.5" rx="3.6" ry="6"/>
		<circle class="st1" cx="504.1" cy="2053.6" r="1.8"/>
		<circle class="st1" cx="499.5" cy="2062.7" r="1.5"/>
		<circle class="st1" cx="484.3" cy="2050.7" r="1.5"/>
		<path class="st1" d="M491.4,2046.3c0,0,1.7,0.2,3.8,0.6c2.1,0.3,3.8,0.6,3.8,0.6s-1.7-0.2-3.8-0.6
			C493.1,2046.5,491.4,2046.3,491.4,2046.3z"/>
	</g>
	<g>
		
			<ellipse transform="matrix(6.356800e-02 -0.998 0.998 6.356800e-02 -1608.4139 1738.4719)" class="st1" cx="122.2" cy="1726.3" rx="6" ry="3.6"/>
		
			<ellipse transform="matrix(6.356800e-02 -0.998 0.998 6.356800e-02 -1556.822 1675.6317)" class="st1" cx="114.5" cy="1667.4" rx="6" ry="3.6"/>
		<circle class="st1" cx="121.6" cy="1706.3" r="1.8"/>
		<circle class="st1" cx="112.2" cy="1702.5" r="1.5"/>
		<circle class="st1" cx="122.9" cy="1686.4" r="1.5"/>
		<path class="st1" d="M127.9,1693c0,0-0.1,1.7-0.2,3.8c-0.1,2.1-0.2,3.8-0.2,3.8s0.1-1.7,0.2-3.8
			C127.8,1694.7,127.9,1693,127.9,1693z"/>
	</g>
	<g>
		
			<ellipse transform="matrix(0.1459 -0.9893 0.9893 0.1459 -1131.5598 2794.5291)" class="st1" cx="1052.7" cy="2052.6" rx="2.6" ry="6"/>
		
			<ellipse transform="matrix(0.1459 -0.9893 0.9893 0.1459 -1181.5671 2736.0181)" class="st1" cx="993.8" cy="2052.3" rx="2.6" ry="6"/>
		
			<ellipse transform="matrix(0.1459 -0.9893 0.9893 0.1459 -1146.9264 2773.5151)" class="st1" cx="1032.9" cy="2051" rx="1.3" ry="1.8"/>
		
			<ellipse transform="matrix(0.1459 -0.9893 0.9893 0.1459 -1156.9427 2774.8008)" class="st1" cx="1028.6" cy="2057.5" rx="1.1" ry="1.5"/>
		
			<ellipse transform="matrix(0.1459 -0.9893 0.9893 0.1459 -1160.9589 2751.4148)" class="st1" cx="1013" cy="2048.1" rx="1.1" ry="1.5"/>
		<path class="st1" d="M1019.9,2045.1c0,0,1.7,0.2,3.8,0.6c2.1,0.3,3.8,0.6,3.8,0.6s-1.7-0.2-3.8-0.6
			C1021.6,2045.4,1019.9,2045.1,1019.9,2045.1z"/>
	</g>
	<g>
		
			<ellipse transform="matrix(4.547499e-02 -0.999 0.999 4.547499e-02 -1319.176 3746.644)" class="st1" cx="1301" cy="2563.6" rx="6" ry="2.6"/>
		
			<ellipse transform="matrix(4.547499e-02 -0.999 0.999 4.547499e-02 -1372.3485 3808.2375)" class="st1" cx="1306.6" cy="2622.2" rx="6" ry="2.6"/>
		
			<ellipse transform="matrix(4.547449e-02 -0.999 0.999 4.547449e-02 -1338.6868 3766.0566)" class="st1" cx="1301.4" cy="2583.5" rx="1.8" ry="1.3"/>
		
			<ellipse transform="matrix(4.547449e-02 -0.999 0.999 4.547449e-02 -1335.7455 3776.3193)" class="st1" cx="1308.2" cy="2587.1" rx="1.5" ry="1.1"/>
		
			<ellipse transform="matrix(4.547449e-02 -0.999 0.999 4.547449e-02 -1359.5452 3784.2463)" class="st1" cx="1300.4" cy="2603.5" rx="1.5" ry="1.1"/>
		<path class="st1" d="M1296.8,2597c0,0,0.1-1.7,0.2-3.8s0.2-3.8,0.2-3.8s-0.1,1.7-0.2,3.8S1296.8,2597,1296.8,2597z"/>
	</g>
	<path class="st1" d="M278.8,2066.1c6.3,1.9,103.4-11.4,142.7-12.7c39.3-1.3,88.8,14,108.5,16.5S278.8,2066.1,278.8,2066.1z"/>
	<path class="st1" d="M845.3,2061.9c2.5,1.6,66-6.1,90.1-8.6c24.1-2.5,46.3-2.6,53.9,0c7.6,2.6,20.3,0.6,48.2,0
		c27.9-0.6,53.6,22.3,53.6,22.3l-222.6,7.6L845.3,2061.9z"/>
	<path class="st1" d="M734.4,1109.9c0,0,10.7,32.4,10.7,43.8s-6.1,35.5-5,48.2c1.2,12.7,1.2,34.9,1.8,47.6
		c0.6,12.7-15.2,41.2-15.2,41.2L734.4,1109.9z"/>
	<path class="st1" d="M885.9,544.9c0,0,69.1-7.9,82.5-6.7c13.3,1.3,19,1.4,43.1,3.3c24.1,1.8,62.8-2.9,74.2-3.4
		c11.4-0.5,105.3,14.1,125,16s-302.6,14-302.6,14L885.9,544.9z"/>
	<path class="st1" d="M287.1,1536c0,0,31.4-7.6,38.1-7.6c6.7,0,20.9,5.7,29.5,3.8c8.6-1.9,69.5-4.8,88.5-3.8c19,1,29.1,6.7,41.2,7.6
		s65.4-8.9,87.3-7.8c21.9,1.1,48.5,22.1,48.5,22.1l-256,7.8L287.1,1536z"/>
	<path class="st1" d="M551.6,2802.3c0,0,42.8-7.6,56.1-8.6c0,0,34.3,5.7,52.3,8.6c18.1,2.9,37.5-4.8,50.6-8.6s36.9-7.6,53.1-5.7
		c16.2,1.9,27.6-4.8,46.6-0.5c19,4.3,25.7,8.7,47.6,7c21.9-1.7,43.8-4,58,0c14.3,4,12.4,22.1,12.4,22.1l-371.1,5.3L551.6,2802.3z"/>
</g>
<g id="Background" class="st0">
</g>
<g id="Straße">
	<path id="Straße_4_" class="st2" d="M1300.1,567.6c0,0-459.4,1-472.7,1c-24.7,0-108.7-6.1-108.7,119.5l-4.5,763.7
		c0,0-0.4,104.9-97.5,104.9s-372.2,0-402.4,0c-47.2,0-124.9,11.5-124.9,158.4c0,0,0,146.6,0,174.6c0,99.9,45.9,192.1,170.2,192.1
		c78.7,0,775.8,0,803.1,0c83.1,0,269-11.4,269,200.5c0,152.2,0,259.6,0,293.1c0,100.2,3.8,246-213.2,246c-170.8,0-801.4,0-801.4,0"
		/>
	<g id="Straßenstreifen" class="st0">
		<g id="Ebene_72" class="st4">
		</g>
		<g id="Ebene_73" class="st4">
		</g>
	</g>
	<path class="st1" d="M1236.4,544.9c0,0,85-3.8,98.3,9.5c13.3,13.3,50.7,17.8,56.2,19.1c5.5,1.3,20.7,4.6,27.7,7.8
		c7,3.2,13.8,11.5,3.7,10.2c-10.1-1.3-21-1.3-31.1-1.3s-114.2,0.5-114.2,0.5L1236.4,544.9z"/>
	<ellipse class="st1" cx="1375.7" cy="606.7" rx="6" ry="3.6"/>
	<ellipse class="st1" cx="1388.6" cy="565.6" rx="11.7" ry="2.7"/>
	<ellipse class="st1" cx="1434" cy="595.3" rx="6" ry="3.6"/>
	<circle class="st1" cx="1395.5" cy="604.9" r="1.8"/>
	<circle class="st1" cx="1369.8" cy="569.9" r="1.8"/>
	<circle class="st1" cx="1398.8" cy="595.3" r="1.5"/>
	<circle class="st1" cx="1415.6" cy="604.9" r="1.5"/>
	<ellipse class="st1" cx="1401.4" cy="571.5" rx="4.1" ry="1.6"/>
	<path class="st1" d="M1307.7,2314.2c0,0-17.9,72.4-10.8,88c7.1,15.6,2.1,3.3,4.6,40.1c2.5,36.8,2.2,49,0,85.8
		s16.6,111.4,16.6,111.4v-293.1L1307.7,2314.2z"/>
	<path class="st1" d="M107.2,1639.3c0,0,16.2,105.5,14.3,129.4c-1.9,23.9-7.5,17.9-7.1,55c0.4,37.1-8.5,38.1-1.5,62
		c7.1,23.9,4,34.3,8.8,83.7c3.2,33-22.3,38.3-22.3,38.3L107.2,1639.3z"/>
</g>
<g id="Haus_Wasser">
	<g id="Pflanzen">
	</g>
	<g id="Haus">
		<g id="Ebene_10">
		</g>
		<g id="Dach">
		</g>
		<g id="Ebene_6">
		</g>
		<g id="Holzstreben" class="st0">
		</g>
		<g id="Runde_Fenster">
		</g>
	</g>
	<g id="Mann">
		<g id="Ebene_21">
		</g>
		<g id="Ebene_22">
		</g>
		<g id="Ebene_19">
		</g>
		<g id="Ebene_20">
		</g>
	</g>
	<g id="Frau">
		<g id="Ebene_31">
		</g>
		<g id="Ebene_30">
		</g>
		<g id="Ebene_27">
		</g>
		<g id="Ebene_25">
		</g>
		<g id="Ebene_26">
		</g>
		<g id="Ebene_29">
		</g>
		<g id="Ebene_28">
		</g>
		<g id="Ebene_24">
		</g>
	</g>
	<g id="Ballon">
	</g>
	<g id="Mädchen">
		<g id="Ebene_33">
		</g>
		<g id="Ebene_34">
		</g>
	</g>
	<g id="Ebene_37">
	</g>
	<g id="Wolken">
	</g>
	<g id="Wasserhahn_1_">
		<g id="Wasserhahn">
		</g>
	</g>
</g>
<g id="Haus_Feuer">
	<g id="Ebene_49" class="st0">
	</g>
	<g id="Wolken_1_">
	</g>
	<g id="Windmühle">
	</g>
	<g id="Ebene_48">
	</g>
	<g id="Ebene_52">
	</g>
	<g id="Ebene_41">
	</g>
	<g id="Ebene_43">
	</g>
	<g id="Ebene_47">
	</g>
	<g id="Fenster">
	</g>
	<g id="Ebene_45">
	</g>
	<g id="Ebene_44">
	</g>
	<g id="Kerze">
	</g>
</g>
<g id="Haus_Sturm">
	<g id="Wolken_2_">
	</g>
	<g id="Hinterhaus">
		<g id="Ebene_63">
		</g>
	</g>
	<g id="Wirbelwind">
		<g id="Ebene_70">
		</g>
	</g>
	<g id="Geländer">
	</g>
	<g id="Ebene_55">
	</g>
	<g id="Ebene_56">
	</g>
	<g id="Fenster_1_">
	</g>
	<g id="Ebene_65" class="st0">
	</g>
</g>
<g id="Haus_Final">
	<g id="Haus_mitte">
	</g>
	<g id="Ebene_59">
	</g>
	<g id="Nebengebäude">
	</g>
	<g id="Tür">
	</g>
	<g id="Fenster_2_">
	</g>
	<g id="Vorderdach">
	</g>
	<g id="Leisten">
	</g>
</g>
<g id="Platzhalter_Inhalte_Website">
	<path class="st1" d="M322,2798.5c0,0-26-0.6-46.9,6.3c-20.9,7-27.3,11.3-32.4,11.4c-5.1,0.1-24.1-3.3-34.9,5.6s-48.2,9.6-64.7,14.1
		s-38.1,3.8-34.9,7.6c3.2,3.8,258.8,0,258.8,0L322,2798.5z"/>
	<g>
		<g>
			
				<ellipse transform="matrix(4.547425e-02 -0.999 0.999 4.547425e-02 -2788.5276 2778.8081)" class="st1" cx="59.8" cy="2848.6" rx="1.4" ry="6"/>
			
				<ellipse transform="matrix(4.547425e-02 -0.999 0.999 4.547425e-02 -2845.9819 2722.0261)" class="st1" cx="1.4" cy="2850.3" rx="1.4" ry="6"/>
			
				<ellipse transform="matrix(4.547390e-02 -0.999 0.999 4.547390e-02 -2807.2874 2758.7297)" class="st1" cx="39.9" cy="2848.4" rx="0.7" ry="1.8"/>
			
				<ellipse transform="matrix(4.547390e-02 -0.999 0.999 4.547390e-02 -2814.0625 2758.6294)" class="st1" cx="36.5" cy="2851.9" rx="0.6" ry="1.5"/>
			
				<ellipse transform="matrix(4.547390e-02 -0.999 0.999 4.547390e-02 -2825.4773 2737.8713)" class="st1" cx="19.9" cy="2847.4" rx="0.6" ry="1.5"/>
			<path class="st1" d="M26.4,2845.7c0,0,1.7,0.1,3.8,0.2c2.1,0.1,3.8,0.2,3.8,0.2s-1.7-0.1-3.8-0.2
				C28.1,2845.8,26.4,2845.7,26.4,2845.7z"/>
		</g>
		<ellipse class="st1" cx="78.4" cy="2848.8" rx="6" ry="3.6"/>
	</g>
	<g>
		<g>
			
				<ellipse transform="matrix(4.547425e-02 -0.999 0.999 4.547425e-02 -2122.052 3366.5574)" class="st1" cx="700.6" cy="2793.7" rx="1.4" ry="6"/>
			
				<ellipse transform="matrix(4.547425e-02 -0.999 0.999 4.547425e-02 -2179.5063 3309.7754)" class="st1" cx="642.2" cy="2795.4" rx="1.4" ry="6"/>
			
				<ellipse transform="matrix(4.547390e-02 -0.999 0.999 4.547390e-02 -2140.8115 3346.479)" class="st1" cx="680.7" cy="2793.5" rx="0.7" ry="1.8"/>
			
				<ellipse transform="matrix(4.547390e-02 -0.999 0.999 4.547390e-02 -2147.5867 3346.3787)" class="st1" cx="677.3" cy="2797" rx="0.6" ry="1.5"/>
			
				<ellipse transform="matrix(4.547390e-02 -0.999 0.999 4.547390e-02 -2159.0015 3325.6206)" class="st1" cx="660.7" cy="2792.6" rx="0.6" ry="1.5"/>
			<path class="st1" d="M667.2,2790.8c0,0,1.7,0.1,3.8,0.2c2.1,0.1,3.8,0.2,3.8,0.2s-1.7-0.1-3.8-0.2
				C668.9,2790.9,667.2,2790.8,667.2,2790.8z"/>
		</g>
		<ellipse class="st1" cx="719.2" cy="2793.9" rx="6" ry="3.6"/>
	</g>
	<ellipse class="st1" cx="136.7" cy="2837.4" rx="6" ry="3.6"/>
	<circle class="st1" cx="98.3" cy="2847" r="1.8"/>
	<circle class="st1" cx="101.6" cy="2837.4" r="1.5"/>
	<circle class="st1" cx="118.3" cy="2847" r="1.5"/>
</g>
<g id="Wegpfeile">
	<g id="Ebene_61">
	</g>
	<g>
		<polygon class="st21" points="1308.3,2268.5 1307.9,2260.3 1113.5,2260.3 1113.5,2268.5 		"/>
		
			<linearGradient id="SVGID_2_" gradientUnits="userSpaceOnUse" x1="-2665.3677" y1="10073.5537" x2="-2540.4709" y2="10073.5537" gradientTransform="matrix(-4.489700e-11 1 1 4.489700e-11 -8906.3252 4936.8564)">
			<stop  offset="1.685657e-05" style="stop-color:#4DBA71"/>
			<stop  offset="0.9989" style="stop-color:#007D29"/>
		</linearGradient>
		<polygon style="fill:url(#SVGID_2_);" points="1180.9,2379.5 1180.9,2271.5 1153.6,2271.5 1153.6,2379.5 1167.2,2396.4 		"/>
		
			<linearGradient id="SVGID_4_" gradientUnits="userSpaceOnUse" x1="-2665.3677" y1="10038.6748" x2="-2590.6284" y2="10038.6748" gradientTransform="matrix(-4.489700e-11 1 1 4.489700e-11 -8906.3252 4936.8564)">
			<stop  offset="1.685657e-05" style="stop-color:#4DBA71"/>
			<stop  offset="0.9989" style="stop-color:#007D29"/>
		</linearGradient>
		<polygon style="fill:url(#SVGID_4_);" points="1146,2329.4 1146,2271.5 1118.7,2271.5 1118.7,2329.4 1132.3,2346.2 		"/>
		<text transform="matrix(0 -1 1 0 1173.2642 2378.668)" class="st1 st40 st41">TARIFRECHNER</text>
		<text transform="matrix(0 -1 1 0 1138.3267 2307.0176)" class="st1 st40 st41">HDI-</text>
	</g>
</g>
<g id="Pricetag">
</g>
<g id="Ebene_74">
</g>
</svg>
