<svg xmlns="http://www.w3.org/2000/svg" xmlns:xlink="http://www.w3.org/1999/xlink" viewBox="0 0 1440 2999.71"><defs><style>.cls-1{fill:#e6f5eb;}.cls-2{fill:none;stroke:#e6f5eb;stroke-linecap:round;stroke-linejoin:round;stroke-width:47px;}.cls-3{fill:#80ce99;}.cls-4{fill:url(#HDI_Verlauf_dunkel);}.cls-5{fill:url(#HDI_Verlauf_dunkel-2);}</style><linearGradient id="HDI_Verlauf_dunkel" x1="-2665.37" y1="10073.55" x2="-2518.97" y2="10073.55" gradientTransform="matrix(0, 1, 1, 0, -8906.33, 4936.86)" gradientUnits="userSpaceOnUse"><stop offset="0" stop-color="#4dba71"/><stop offset="1" stop-color="#007d29"/></linearGradient><linearGradient id="HDI_Verlauf_dunkel-2" x1="-2665.37" y1="10038.67" x2="-2590.63" y2="10038.67" xlink:href="#HDI_Verlauf_dunkel"/></defs><g id="Ebene_75" data-name="Ebene 75"><ellipse class="cls-1" cx="378.54" cy="1528.64" rx="1.89" ry="9.29" transform="translate(-1159.11 1868.76) rotate(-88.56)"/><ellipse class="cls-1" cx="288.54" cy="1532.39" rx="1.89" ry="9.29" transform="translate(-1250.59 1782.44) rotate(-88.56)"/><ellipse class="cls-1" cx="347.89" cy="1528.82" rx="0.94" ry="2.77" transform="translate(-1189.17 1838.29) rotate(-88.56)"/><ellipse class="cls-1" cx="342.71" cy="1533.74" rx="0.78" ry="2.28" transform="translate(-1199.14 1837.92) rotate(-88.56)"/><ellipse class="cls-1" cx="317.02" cy="1528.04" rx="0.78" ry="2.28" transform="translate(-1218.49 1806.68) rotate(-88.56)"/><path class="cls-1" d="M326.87,1525.46l5.86.14,5.87.15-5.87-.15Z"/><ellipse class="cls-1" cx="524.07" cy="2054.75" rx="3.59" ry="6.03" transform="matrix(0.15, -0.99, 0.99, 0.15, -1585.16, 2273.36)"/><ellipse class="cls-1" cx="464.73" cy="2057.54" rx="3.59" ry="6.03" transform="translate(-1638.61 2217.03) rotate(-81.61)"/><circle class="cls-1" cx="504.15" cy="2053.63" r="1.8"/><circle class="cls-1" cx="499.5" cy="2062.67" r="1.48"/><circle class="cls-1" cx="484.33" cy="2050.71" r="1.48"/><path class="cls-1" d="M491.39,2046.3l3.77.55,3.76.56-3.76-.56Z"/><ellipse class="cls-1" cx="122.16" cy="1726.3" rx="6.03" ry="3.59" transform="translate(-1608.41 1738.47) rotate(-86.36)"/><ellipse class="cls-1" cx="114.47" cy="1667.39" rx="6.03" ry="3.59" transform="translate(-1556.82 1675.63) rotate(-86.36)"/><circle class="cls-1" cx="121.63" cy="1706.35" r="1.8"/><circle class="cls-1" cx="112.23" cy="1702.46" r="1.48"/><circle class="cls-1" cx="122.9" cy="1686.36" r="1.48"/><path class="cls-1" d="M127.88,1693l-.24,3.8-.24,3.8.24-3.8Z"/><ellipse class="cls-1" cx="1052.72" cy="2052.63" rx="2.61" ry="6.03" transform="translate(-1131.56 2794.53) rotate(-81.61)"/><ellipse class="cls-1" cx="993.83" cy="2052.33" rx="2.61" ry="6.03" transform="translate(-1181.57 2736.02) rotate(-81.61)"/><ellipse class="cls-1" cx="1032.86" cy="2051.02" rx="1.31" ry="1.8" transform="translate(-1146.93 2773.52) rotate(-81.61)"/><ellipse class="cls-1" cx="1028.6" cy="2057.46" rx="1.08" ry="1.48" transform="translate(-1156.94 2774.8) rotate(-81.61)"/><ellipse class="cls-1" cx="1013.05" cy="2048.1" rx="1.08" ry="1.48" transform="translate(-1160.96 2751.41) rotate(-81.61)"/><path class="cls-1" d="M1019.89,2045.14l3.77.56,3.76.55-3.76-.55Z"/><ellipse class="cls-1" cx="1300.95" cy="2563.62" rx="6.03" ry="2.61" transform="translate(-1319.18 3746.64) rotate(-87.39)"/><ellipse class="cls-1" cx="1306.6" cy="2622.24" rx="6.03" ry="2.61" transform="translate(-1372.35 3808.24) rotate(-87.39)"/><ellipse class="cls-1" cx="1301.35" cy="2583.53" rx="1.8" ry="1.31" transform="matrix(0.05, -1, 1, 0.05, -1338.69, 3766.06)"/><ellipse class="cls-1" cx="1308.19" cy="2587.13" rx="1.48" ry="1.08" transform="translate(-1335.75 3776.32) rotate(-87.39)"/><ellipse class="cls-1" cx="1300.44" cy="2603.54" rx="1.48" ry="1.08" transform="translate(-1359.55 3784.25) rotate(-87.39)"/><path class="cls-1" d="M1296.81,2597l.18-3.8.17-3.81-.17,3.81Z"/><path class="cls-1" d="M278.83,2066.06c6.34,1.9,103.4-11.42,142.73-12.69s88.81,14,108.47,16.49S278.83,2066.06,278.83,2066.06Z"/><path class="cls-1" d="M845.31,2061.88c2.54,1.64,66-6.12,90.08-8.58s46.31-2.62,53.92,0,20.3.55,48.21,0,53.58,22.27,53.58,22.27l-222.59,7.62Z"/><path class="cls-1" d="M734.38,1110s10.7,32.35,10.7,43.77-6.13,35.52-5,48.21,1.17,34.89,1.8,47.58-15.22,41.18-15.22,41.18Z"/><path class="cls-1" d="M885.91,544.88s69.14-7.93,82.47-6.66,19,1.45,43.13,3.26,62.8-2.9,74.22-3.39,105.31,14.09,125,16-302.59,14-302.59,14Z"/><path class="cls-1" d="M287.07,1536.05s31.4-7.61,38.07-7.61,20.93,5.71,29.49,3.8,69.47-4.75,88.5-3.8,29.12,6.66,41.2,7.61,65.37-8.94,87.25-7.8,48.53,22.07,48.53,22.07l-256,7.82Z"/><path class="cls-1" d="M551.6,2802.3s42.82-7.61,56.14-8.56c0,0,34.26,5.71,52.34,8.56s37.51-4.75,50.63-8.56,36.91-7.61,53.09-5.71,27.59-4.82,46.62-.51,25.69,8.67,47.58,7,43.77-4,58,0,12.37,22.09,12.37,22.09l-371.1,5.27Z"/></g><g id="Straße"><path id="Straße-2" data-name="Straße" class="cls-2" d="M1300.15,567.57s-459.43,1-472.67,1c-24.72,0-108.69-6.11-108.69,119.51l-4.53,763.67s-.42,104.91-97.47,104.91H214.43c-47.25,0-124.88,11.51-124.88,158.39V1889.7c0,99.94,45.91,192,170.25,192h803.1c83.09,0,269-11.42,269,200.46v293.07c0,100.23,3.81,246-213.15,246H317.27"/><path class="cls-1" d="M1236.36,544.91s85-3.8,98.32,9.52,50.67,17.84,56.21,19.11,20.68,4.59,27.66,7.76,13.85,11.5,3.7,10.23-21-1.33-31.11-1.33-114.19.53-114.19.53Z"/><ellipse class="cls-1" cx="1375.67" cy="606.68" rx="6.03" ry="3.59"/><ellipse class="cls-1" cx="1388.59" cy="565.63" rx="11.68" ry="2.7"/><ellipse class="cls-1" cx="1433.97" cy="595.26" rx="6.03" ry="3.59"/><circle class="cls-1" cx="1395.55" cy="604.88" r="1.8"/><circle class="cls-1" cx="1369.76" cy="569.86" r="1.8"/><circle class="cls-1" cx="1398.82" cy="595.26" r="1.48"/><circle class="cls-1" cx="1415.58" cy="604.88" r="1.48"/><ellipse class="cls-1" cx="1401.37" cy="571.5" rx="4.06" ry="1.64"/><path class="cls-1" d="M1307.73,2314.24s-17.91,72.44-10.84,88,2.13,3.34,4.59,40.12,2.25,49,0,85.82,16.59,111.44,16.59,111.44v-293.1Z"/><path class="cls-1" d="M107.23,1639.32s16.18,105.51,14.28,129.42-7.46,17.94-7.06,55-8.51,38.12-1.45,62,4,34.26,8.78,83.73c3.19,33-22.33,38.26-22.33,38.26Z"/></g><g id="Platzhalter_Inhalte_Website" data-name="Platzhalter Inhalte Website"><path class="cls-1" d="M322,2798.5s-26-.64-46.94,6.34-27.28,11.29-32.35,11.42-24.11-3.29-34.89,5.59-48.21,9.63-64.71,14.07-38.06,3.81-34.89,7.62,258.82,0,258.82,0Z"/><ellipse class="cls-1" cx="59.83" cy="2848.58" rx="1.36" ry="6.03" transform="translate(-2788.53 2778.81) rotate(-87.39)"/><ellipse class="cls-1" cx="1.39" cy="2850.25" rx="1.36" ry="6.03" transform="translate(-2845.98 2722.03) rotate(-87.39)"/><ellipse class="cls-1" cx="39.94" cy="2848.36" rx="0.68" ry="1.8" transform="translate(-2807.29 2758.73) rotate(-87.39)"/><ellipse class="cls-1" cx="36.5" cy="2851.85" rx="0.56" ry="1.48" transform="translate(-2814.06 2758.63) rotate(-87.39)"/><ellipse class="cls-1" cx="19.93" cy="2847.45" rx="0.56" ry="1.48" transform="translate(-2825.48 2737.87) rotate(-87.39)"/><path class="cls-1" d="M26.36,2845.69l3.8.18,3.8.17-3.8-.17Z"/><ellipse class="cls-1" cx="78.43" cy="2848.82" rx="6.03" ry="3.59"/><ellipse class="cls-1" cx="700.62" cy="2793.7" rx="1.36" ry="6.03" transform="translate(-2122.05 3366.56) rotate(-87.39)"/><ellipse class="cls-1" cx="642.18" cy="2795.38" rx="1.36" ry="6.03" transform="translate(-2179.51 3309.78) rotate(-87.39)"/><ellipse class="cls-1" cx="680.73" cy="2793.48" rx="0.68" ry="1.8" transform="matrix(0.05, -1, 1, 0.05, -2140.81, 3346.48)"/><ellipse class="cls-1" cx="677.29" cy="2796.97" rx="0.56" ry="1.48" transform="translate(-2147.59 3346.38) rotate(-87.39)"/><ellipse class="cls-1" cx="660.72" cy="2792.57" rx="0.56" ry="1.48" transform="translate(-2159 3325.62) rotate(-87.39)"/><path class="cls-1" d="M667.15,2790.81l3.81.18,3.8.17L671,2791Z"/><ellipse class="cls-1" cx="719.22" cy="2793.94" rx="6.03" ry="3.59"/><ellipse class="cls-1" cx="136.73" cy="2837.4" rx="6.03" ry="3.59"/><circle class="cls-1" cx="98.3" cy="2847.03" r="1.8"/><circle class="cls-1" cx="101.58" cy="2837.4" r="1.48"/><circle class="cls-1" cx="118.33" cy="2847.03" r="1.48"/></g><g id="Wegpfeile"><polygon class="cls-3" points="1308.28 2268.51 1307.86 2260.26 1113.48 2260.26 1113.48 2268.51 1308.28 2268.51"/><polygon class="cls-4" points="1180.87 2401.04 1180.87 2271.49 1153.59 2271.49 1153.59 2401.04 1167.23 2417.88 1180.87 2401.04"/><polygon class="cls-5" points="1145.99 2329.38 1145.99 2271.49 1118.71 2271.49 1118.71 2329.38 1132.35 2346.23 1145.99 2329.38"/><path class="cls-1" d="M1163,2387.73a6.54,6.54,0,0,1,4.61-1.53c3.65,0,5.77,1.65,5.77,4.46s-2.11,4.49-5.74,4.49c-2.52,0-4.36-.81-5.2-2.28a4.73,4.73,0,0,1-.56-2.21A4,4,0,0,1,1163,2387.73Zm4.64,5.29c2.69,0,4.18-.84,4.18-2.34s-1.51-2.35-4.18-2.35-4.2.86-4.2,2.33S1165,2393,1167.68,2393Z"/><path class="cls-1" d="M1173.26,2378.66l-6.75,3.16c-.53.2-1.12.44-1.78.67a25.75,25.75,0,0,1,2.68-.16h5.85v2h-11.17v-2.38l6.37-2.95a16.32,16.32,0,0,1,2.13-.83,15.9,15.9,0,0,1-2.5.11h-6v-2h11.17Z"/><path class="cls-1" d="M1173.26,2368.23v5.83h-11.17V2372h9.46v-3.75Z"/><path class="cls-1" d="M1173.26,2366.82h-11.17v-2.08h11.17Z"/><path class="cls-1" d="M1173.26,2356.74l-6.75,3.16c-.53.2-1.12.44-1.78.67a25.75,25.75,0,0,1,2.68-.16h5.85v2h-11.17V2360l6.37-3a16.32,16.32,0,0,1,2.13-.83,15.9,15.9,0,0,1-2.5.11h-6v-2h11.17Z"/><path class="cls-1" d="M1173.26,2346v6.07h-11.17V2346h1.71v4h2.89v-3.61h1.71V2350h3.15v-4Z"/><path class="cls-1" d="M1169.6,2344.52h-1.67v-3.65h1.67Z"/><path class="cls-1" d="M1173.26,2339.07h-11.17v-3.21a4,4,0,0,1,.64-2.62,2.7,2.7,0,0,1,2.26-1,2.41,2.41,0,0,1,2.67,2.14l.1-.19c.37-.65.4-.69,1.61-1.12l3.89-1.34V2334l-3.12,1c-1.28.42-1.58.72-1.58,1.55v.4h4.7Zm-6.29-2.87c0-1.17-.57-1.79-1.68-1.79a1.68,1.68,0,0,0-1.31.49,1.5,1.5,0,0,0-.32,1.12v1H1167Z"/><path class="cls-1" d="M1173.26,2324.1v6.07h-11.17v-6.07h1.71v4h2.89v-3.62h1.71v3.62h3.15v-4Z"/><path class="cls-1" d="M1173,2315a5.23,5.23,0,0,1,.44,2.23c0,3.36-2.12,5.33-5.76,5.33s-5.74-2-5.74-5.19a5.26,5.26,0,0,1,.56-2.37l1.87.13a3.56,3.56,0,0,0-.71,2.07c0,2,1.49,3.15,4,3.15s4-1.23,4-3.2a4.65,4.65,0,0,0-.53-2.15Z"/><path class="cls-1" d="M1173.26,2307.83h-4.86v3.3h4.86v2.08h-11.17v-2.08h4.6v-3.3h-4.6v-2.08h11.17Z"/><path class="cls-1" d="M1173.26,2297.77l-6.75,3.15c-.53.21-1.12.45-1.78.67.93-.09,1.86-.16,2.68-.16h5.85v2h-11.17V2301l6.37-2.94a15.24,15.24,0,0,1,2.13-.84,14.59,14.59,0,0,1-2.5.12h-6v-2h11.17Z"/><path class="cls-1" d="M1173.26,2287.06v6.07h-11.17v-6.07h1.71v4h2.89v-3.62h1.71v3.62h3.15v-4Z"/><path class="cls-1" d="M1173.26,2285.13h-11.17v-3.2a4,4,0,0,1,.64-2.63,2.7,2.7,0,0,1,2.26-1,2.41,2.41,0,0,1,2.67,2.15l.1-.19c.37-.66.4-.69,1.61-1.12l3.89-1.35v2.27l-3.12,1c-1.28.41-1.58.72-1.58,1.55v.4h4.7Zm-6.29-2.87c0-1.16-.57-1.79-1.68-1.79a1.65,1.65,0,0,0-1.31.5,1.49,1.49,0,0,0-.32,1.12v1H1167Z"/><path class="cls-1" d="M1138.33,2300.47h-4.87v3.3h4.87v2.08h-11.18v-2.08h4.6v-3.3h-4.6v-2.08h11.18Z"/><path class="cls-1" d="M1127.15,2296.15v-2.65c0-3.8,1.83-5.65,5.53-5.65,2.19,0,3.79.64,4.72,1.9a5.53,5.53,0,0,1,.93,3.57v2.83Zm9.61-2.43a3.09,3.09,0,0,0-.93-2.61,4.56,4.56,0,0,0-3.09-1.07,4.28,4.28,0,0,0-3.46,1.42,3.8,3.8,0,0,0-.56,2.26v.35h8Z"/><path class="cls-1" d="M1138.33,2286h-11.18v-2.08h11.18Z"/><path class="cls-1" d="M1134.66,2282H1133v-3.65h1.66Z"/></g></svg>