<svg xmlns="http://www.w3.org/2000/svg" xmlns:xlink="http://www.w3.org/1999/xlink" viewBox="0 0 1787 834"><defs><style>.cls-1,.cls-10,.cls-12{fill:none;}.cls-2{fill:#59b267;}.cls-3,.cls-7,.cls-9{fill:#009c33;}.cls-3{opacity:0.2;}.cls-4{fill:#ccecd6;}.cls-5{clip-path:url(#clip-path);}.cls-6{fill:#b3e1c2;}.cls-8{clip-path:url(#clip-path-2);}.cls-9{opacity:0.1;}.cls-10{stroke:#009c33;}.cls-10,.cls-12{stroke-linecap:round;stroke-linejoin:round;stroke-width:1.18px;}.cls-11{fill:#80ce99;}.cls-12{stroke:#c8dfc7;}.cls-13{fill:#33b05c;}.cls-14{fill:#4dba71;}.cls-15{fill:#e6f5eb;}.cls-16{fill:#66c485;}.cls-17{fill:#0b8735;}.cls-18{fill:url(#HDI_Verlauf_dunkel);}.cls-19{fill:#007d29;}.cls-20{fill:url(#linear-gradient);}.cls-21{fill:url(#HDI_Verlauf_dunkel-2);}.cls-22{fill:url(#HDI_Verlauf_dunkel-3);}.cls-23{fill:url(#HDI_Verlauf_dunkel-4);}.cls-24{fill:url(#HDI_Verlauf_mittel);}.cls-25{fill:url(#HDI_Verlauf_mittel-2);}.cls-26{fill:url(#HDI_Verlauf_dunkel-5);}.cls-27{fill:url(#HDI_Verlauf_dunkel-6);}.cls-28{fill:url(#linear-gradient-2);}.cls-29{fill:#fff;}.cls-30{fill:url(#linear-gradient-3);}.cls-31{fill:url(#HDI_Verlauf_mittel-3);}.cls-32{fill:url(#HDI_Verlauf_mittel-4);}.cls-33{fill:url(#HDI_Verlauf_mittel-5);}.cls-34{fill:url(#HDI_Verlauf_mittel-6);}.cls-35{fill:url(#linear-gradient-4);}.cls-36{fill:url(#HDI_Verlauf_mittel-7);}.cls-37{fill:url(#HDI_Verlauf_mittel-8);}.cls-38{fill:url(#HDI_Verlauf_mittel-9);}</style><clipPath id="clip-path"><polygon class="cls-1" points="725.37 399.99 1638.99 399.99 1785.87 145.1 872.25 145.1 725.37 399.99"/></clipPath><clipPath id="clip-path-2"><rect class="cls-1" x="829" y="515.36" width="150.16" height="317.83" transform="translate(1808.17 1348.55) rotate(-180)"/></clipPath><linearGradient id="HDI_Verlauf_dunkel" x1="-3738.01" y1="691.01" x2="-3604.1" y2="691.01" gradientTransform="matrix(-1, 0, 0, 1, -3451.67, 0)" gradientUnits="userSpaceOnUse"><stop offset="0" stop-color="#4dba71"/><stop offset="1" stop-color="#007d29"/></linearGradient><linearGradient id="linear-gradient" x1="1853.14" y1="633.26" x2="2014.67" y2="783.69" gradientTransform="translate(-1469.78)" gradientUnits="userSpaceOnUse"><stop offset="0" stop-color="#c8dfc7"/><stop offset="0.02" stop-color="#c2dcc2"/><stop offset="0.21" stop-color="#8bc298"/><stop offset="0.39" stop-color="#5dad74"/><stop offset="0.57" stop-color="#399d59"/><stop offset="0.73" stop-color="#209145"/><stop offset="0.88" stop-color="#108a39"/><stop offset="1" stop-color="#0b8735"/></linearGradient><linearGradient id="HDI_Verlauf_dunkel-2" x1="1920.48" y1="560.95" x2="2082.02" y2="711.37" gradientTransform="translate(-1469.78)" xlink:href="#HDI_Verlauf_dunkel"/><linearGradient id="HDI_Verlauf_dunkel-3" x1="1884.83" y1="599.23" x2="2046.36" y2="749.66" gradientTransform="translate(-1469.78)" xlink:href="#HDI_Verlauf_dunkel"/><linearGradient id="HDI_Verlauf_dunkel-4" x1="-3420.92" y1="638.97" x2="-3677.34" y2="615.44" xlink:href="#HDI_Verlauf_dunkel"/><linearGradient id="HDI_Verlauf_mittel" x1="-2899.45" y1="1124.01" x2="-3271.7" y2="897.76" gradientTransform="matrix(-1, 0, 0, 1, -3451.67, 0)" gradientUnits="userSpaceOnUse"><stop offset="0" stop-color="#b3e1c2"/><stop offset="1" stop-color="#4dba71"/></linearGradient><linearGradient id="HDI_Verlauf_mittel-2" x1="-2915.59" y1="1150.57" x2="-3287.84" y2="924.32" xlink:href="#HDI_Verlauf_mittel"/><linearGradient id="HDI_Verlauf_dunkel-5" x1="-4012.53" y1="560.47" x2="-3922.51" y2="560.47" xlink:href="#HDI_Verlauf_dunkel"/><linearGradient id="HDI_Verlauf_dunkel-6" x1="-3811.23" y1="676.91" x2="-3813.33" y2="644.58" xlink:href="#HDI_Verlauf_dunkel"/><linearGradient id="linear-gradient-2" x1="-3848.17" y1="1274.42" x2="-3811.21" y2="1274.42" gradientTransform="matrix(-0.94, 0.33, 0.33, 0.94, -3441.52, 473.07)" xlink:href="#linear-gradient"/><linearGradient id="linear-gradient-3" x1="1872.63" y1="382.48" x2="1837.97" y2="407.06" gradientTransform="translate(-1269.71)" gradientUnits="userSpaceOnUse"><stop offset="0" stop-color="#c8dfc7"/><stop offset="0.17" stop-color="#abd3ad"/><stop offset="0.41" stop-color="#87c58f"/><stop offset="0.63" stop-color="#6eba79"/><stop offset="0.84" stop-color="#5eb46c"/><stop offset="1" stop-color="#59b267"/></linearGradient><linearGradient id="HDI_Verlauf_mittel-3" x1="2306.55" y1="883.12" x2="1934.29" y2="656.86" gradientTransform="translate(-1469.78)" xlink:href="#HDI_Verlauf_mittel"/><linearGradient id="HDI_Verlauf_mittel-4" x1="-3732.48" y1="766.69" x2="-3673.88" y2="627.75" xlink:href="#HDI_Verlauf_mittel"/><linearGradient id="HDI_Verlauf_mittel-5" x1="-3382.36" y1="801.91" x2="-3422.28" y2="801.91" gradientTransform="matrix(-1, 0, 0, 1, -2252.13, 0)" xlink:href="#HDI_Verlauf_mittel"/><linearGradient id="HDI_Verlauf_mittel-6" x1="-3309.32" y1="731.79" x2="-3401.87" y2="731.79" gradientTransform="matrix(-1, 0, 0, 1, -2252.13, 0)" xlink:href="#HDI_Verlauf_mittel"/><linearGradient id="linear-gradient-4" x1="-3304.52" y1="726.67" x2="-3361.27" y2="684.42" gradientTransform="matrix(-1, 0, 0, 1, -2252.13, 0)" xlink:href="#linear-gradient-3"/><linearGradient id="HDI_Verlauf_mittel-7" x1="-3312.73" y1="803.94" x2="-3407.55" y2="803.94" gradientTransform="matrix(-1, 0, 0, 1, -2252.13, 0)" xlink:href="#HDI_Verlauf_mittel"/><linearGradient id="HDI_Verlauf_mittel-8" x1="-3303.16" y1="786.94" x2="-3334.32" y2="786.94" gradientTransform="matrix(-1, 0, 0, 1, -2252.13, 0)" xlink:href="#HDI_Verlauf_mittel"/><linearGradient id="HDI_Verlauf_mittel-9" x1="-3329.01" y1="786.94" x2="-3360.16" y2="786.94" gradientTransform="matrix(-1, 0, 0, 1, -2252.13, 0)" xlink:href="#HDI_Verlauf_mittel"/></defs><g id="Dog"><rect class="cls-2" x="1610.63" y="145.11" width="175.24" height="688.81" transform="translate(3396.49 979.02) rotate(-180)"/><polygon class="cls-3" points="1738.2 833.91 1785.87 833.91 1785.87 145.1 1638.99 399.99 1638.99 437.95 1738.2 568.47 1738.2 833.91"/><polygon class="cls-4" points="725.37 399.99 1638.99 399.99 1785.87 145.1 872.25 145.1 725.37 399.99"/><g class="cls-5"><polygon class="cls-6" points="1738.21 206.45 1811.78 206.45 1815.98 196.27 1742.41 196.27 1738.21 206.45"/><polygon class="cls-6" points="1707.65 191.38 1781.22 191.38 1785.42 181.2 1711.85 181.2 1707.65 191.38"/><polygon class="cls-6" points="1750.61 176.42 1824.18 176.42 1828.38 166.24 1754.81 166.24 1750.61 176.42"/><polygon class="cls-6" points="1650.88 206.45 1724.45 206.45 1728.65 196.27 1655.08 196.27 1650.88 206.45"/><polygon class="cls-6" points="1620.31 191.38 1693.88 191.38 1698.09 181.2 1624.52 181.2 1620.31 191.38"/><polygon class="cls-6" points="1663.28 176.42 1736.85 176.42 1741.05 166.24 1667.48 166.24 1663.28 176.42"/><polygon class="cls-6" points="1566.04 206.45 1639.61 206.45 1643.81 196.27 1570.24 196.27 1566.04 206.45"/><polygon class="cls-6" points="1535.48 191.38 1609.05 191.38 1613.25 181.2 1539.68 181.2 1535.48 191.38"/><polygon class="cls-6" points="1578.44 176.42 1652.01 176.42 1656.21 166.24 1582.64 166.24 1578.44 176.42"/><polygon class="cls-6" points="1478.7 206.45 1552.28 206.45 1556.48 196.27 1482.91 196.27 1478.7 206.45"/><polygon class="cls-6" points="1448.14 191.38 1521.71 191.38 1525.92 181.2 1452.35 181.2 1448.14 191.38"/><polygon class="cls-6" points="1491.1 176.42 1564.67 176.42 1568.88 166.24 1495.31 166.24 1491.1 176.42"/><polygon class="cls-6" points="1393.87 206.45 1467.44 206.45 1471.64 196.27 1398.07 196.27 1393.87 206.45"/><polygon class="cls-6" points="1363.31 191.38 1436.88 191.38 1441.08 181.2 1367.51 181.2 1363.31 191.38"/><polygon class="cls-6" points="1406.27 176.42 1479.84 176.42 1484.04 166.24 1410.47 166.24 1406.27 176.42"/><polygon class="cls-6" points="1306.53 206.45 1380.1 206.45 1384.31 196.27 1310.74 196.27 1306.53 206.45"/><polygon class="cls-6" points="1275.97 191.38 1349.54 191.38 1353.75 181.2 1280.17 181.2 1275.97 191.38"/><polygon class="cls-6" points="1318.93 176.42 1392.5 176.42 1396.71 166.24 1323.14 166.24 1318.93 176.42"/><polygon class="cls-6" points="1221.7 206.45 1295.27 206.45 1299.47 196.27 1225.9 196.27 1221.7 206.45"/><polygon class="cls-6" points="1191.14 191.38 1264.71 191.38 1268.91 181.2 1195.34 181.2 1191.14 191.38"/><polygon class="cls-6" points="1234.1 176.42 1307.67 176.42 1311.87 166.24 1238.3 166.24 1234.1 176.42"/><polygon class="cls-6" points="1134.36 206.45 1207.93 206.45 1212.14 196.27 1138.57 196.27 1134.36 206.45"/><polygon class="cls-6" points="1103.8 191.38 1177.37 191.38 1181.58 181.2 1108 181.2 1103.8 191.38"/><polygon class="cls-6" points="1146.76 176.42 1220.33 176.42 1224.54 166.24 1150.96 166.24 1146.76 176.42"/><polygon class="cls-6" points="1049.53 206.45 1123.1 206.45 1127.3 196.27 1053.73 196.27 1049.53 206.45"/><polygon class="cls-6" points="1018.97 191.38 1092.54 191.38 1096.74 181.2 1023.17 181.2 1018.97 191.38"/><polygon class="cls-6" points="1061.93 176.42 1135.5 176.42 1139.7 166.24 1066.13 166.24 1061.93 176.42"/><polygon class="cls-6" points="962.19 206.45 1035.76 206.45 1039.96 196.27 966.39 196.27 962.19 206.45"/><polygon class="cls-6" points="931.63 191.38 1005.2 191.38 1009.4 181.2 935.83 181.2 931.63 191.38"/><polygon class="cls-6" points="974.59 176.42 1048.16 176.42 1052.36 166.24 978.79 166.24 974.59 176.42"/><polygon class="cls-6" points="877.36 206.45 950.93 206.45 955.13 196.27 881.56 196.27 877.36 206.45"/><polygon class="cls-6" points="846.79 191.38 920.37 191.38 924.57 181.2 851 181.2 846.79 191.38"/><polygon class="cls-6" points="889.76 176.42 963.33 176.42 967.53 166.24 893.96 166.24 889.76 176.42"/><polygon class="cls-6" points="790.02 206.45 863.59 206.45 867.79 196.27 794.22 196.27 790.02 206.45"/><polygon class="cls-6" points="759.46 191.38 833.03 191.38 837.23 181.2 763.66 181.2 759.46 191.38"/><polygon class="cls-6" points="802.42 176.42 875.99 176.42 880.19 166.24 806.62 166.24 802.42 176.42"/><polygon class="cls-6" points="1719.38 252.06 1792.95 252.06 1797.15 241.88 1723.59 241.88 1719.38 252.06"/><polygon class="cls-6" points="1688.82 236.98 1762.39 236.98 1766.59 226.8 1693.02 226.8 1688.82 236.98"/><polygon class="cls-6" points="1731.78 222.03 1805.35 222.03 1809.56 211.85 1735.98 211.85 1731.78 222.03"/><polygon class="cls-6" points="1632.05 252.06 1705.62 252.06 1709.82 241.88 1636.25 241.88 1632.05 252.06"/><polygon class="cls-6" points="1601.49 236.98 1675.06 236.98 1679.26 226.8 1605.69 226.8 1601.49 236.98"/><polygon class="cls-6" points="1644.45 222.03 1718.02 222.03 1722.22 211.85 1648.65 211.85 1644.45 222.03"/><polygon class="cls-6" points="1547.21 252.06 1620.78 252.06 1624.98 241.88 1551.41 241.88 1547.21 252.06"/><polygon class="cls-6" points="1516.65 236.98 1590.22 236.98 1594.42 226.8 1520.85 226.8 1516.65 236.98"/><polygon class="cls-6" points="1559.61 222.03 1633.18 222.03 1637.38 211.85 1563.81 211.85 1559.61 222.03"/><polygon class="cls-6" points="1459.88 252.06 1533.45 252.06 1537.65 241.88 1464.08 241.88 1459.88 252.06"/><polygon class="cls-6" points="1429.32 236.98 1502.88 236.98 1507.09 226.8 1433.52 226.8 1429.32 236.98"/><polygon class="cls-6" points="1472.28 222.03 1545.85 222.03 1550.05 211.85 1476.48 211.85 1472.28 222.03"/><polygon class="cls-6" points="1375.04 252.06 1448.61 252.06 1452.81 241.88 1379.24 241.88 1375.04 252.06"/><polygon class="cls-6" points="1344.48 236.98 1418.05 236.98 1422.25 226.8 1348.68 226.8 1344.48 236.98"/><polygon class="cls-6" points="1387.44 222.03 1461.01 222.03 1465.21 211.85 1391.64 211.85 1387.44 222.03"/><polygon class="cls-6" points="1287.7 252.06 1361.28 252.06 1365.48 241.88 1291.91 241.88 1287.7 252.06"/><polygon class="cls-6" points="1257.14 236.98 1330.71 236.98 1334.92 226.8 1261.35 226.8 1257.14 236.98"/><polygon class="cls-6" points="1300.1 222.03 1373.67 222.03 1377.88 211.85 1304.31 211.85 1300.1 222.03"/><polygon class="cls-6" points="1202.87 252.06 1276.44 252.06 1280.64 241.88 1207.07 241.88 1202.87 252.06"/><polygon class="cls-6" points="1172.31 236.98 1245.88 236.98 1250.08 226.8 1176.51 226.8 1172.31 236.98"/><polygon class="cls-6" points="1215.27 222.03 1288.84 222.03 1293.04 211.85 1219.47 211.85 1215.27 222.03"/><polygon class="cls-6" points="1115.53 252.06 1189.1 252.06 1193.31 241.88 1119.74 241.88 1115.53 252.06"/><polygon class="cls-6" points="1084.97 236.98 1158.54 236.98 1162.75 226.8 1089.17 226.8 1084.97 236.98"/><polygon class="cls-6" points="1127.93 222.03 1201.5 222.03 1205.71 211.85 1132.14 211.85 1127.93 222.03"/><polygon class="cls-6" points="1030.7 252.06 1104.27 252.06 1108.47 241.88 1034.9 241.88 1030.7 252.06"/><polygon class="cls-6" points="1000.14 236.98 1073.71 236.98 1077.91 226.8 1004.34 226.8 1000.14 236.98"/><polygon class="cls-6" points="1043.1 222.03 1116.67 222.03 1120.87 211.85 1047.3 211.85 1043.1 222.03"/><polygon class="cls-6" points="943.36 252.06 1016.93 252.06 1021.14 241.88 947.57 241.88 943.36 252.06"/><polygon class="cls-6" points="912.8 236.98 986.37 236.98 990.58 226.8 917 226.8 912.8 236.98"/><polygon class="cls-6" points="955.76 222.03 1029.33 222.03 1033.54 211.85 959.97 211.85 955.76 222.03"/><polygon class="cls-6" points="858.53 252.06 932.1 252.06 936.3 241.88 862.73 241.88 858.53 252.06"/><polygon class="cls-6" points="827.97 236.98 901.54 236.98 905.74 226.8 832.17 226.8 827.97 236.98"/><polygon class="cls-6" points="870.93 222.03 944.5 222.03 948.7 211.85 875.13 211.85 870.93 222.03"/><polygon class="cls-6" points="771.19 252.06 844.76 252.06 848.97 241.88 775.39 241.88 771.19 252.06"/><polygon class="cls-6" points="740.63 236.98 814.2 236.98 818.4 226.8 744.83 226.8 740.63 236.98"/><polygon class="cls-6" points="783.59 222.03 857.16 222.03 861.37 211.85 787.79 211.85 783.59 222.03"/><polygon class="cls-6" points="1700.55 297.66 1774.12 297.66 1778.33 287.48 1704.76 287.48 1700.55 297.66"/><polygon class="cls-6" points="1669.99 282.59 1743.56 282.59 1747.77 272.41 1674.19 272.41 1669.99 282.59"/><polygon class="cls-6" points="1712.95 267.63 1786.52 267.63 1790.73 257.45 1717.15 257.45 1712.95 267.63"/><polygon class="cls-6" points="1613.22 297.66 1686.79 297.66 1690.99 287.48 1617.42 287.48 1613.22 297.66"/><polygon class="cls-6" points="1582.66 282.59 1656.23 282.59 1660.43 272.41 1586.86 272.41 1582.66 282.59"/><polygon class="cls-6" points="1625.62 267.63 1699.19 267.63 1703.39 257.45 1629.82 257.45 1625.62 267.63"/><polygon class="cls-6" points="1528.38 297.66 1601.95 297.66 1606.15 287.48 1532.59 287.48 1528.38 297.66"/><polygon class="cls-6" points="1497.82 282.59 1571.39 282.59 1575.6 272.41 1502.02 272.41 1497.82 282.59"/><polygon class="cls-6" points="1540.78 267.63 1614.35 267.63 1618.56 257.45 1544.98 257.45 1540.78 267.63"/><polygon class="cls-6" points="1441.05 297.66 1514.62 297.66 1518.82 287.48 1445.25 287.48 1441.05 297.66"/><polygon class="cls-6" points="1410.49 282.59 1484.06 282.59 1488.26 272.41 1414.69 272.41 1410.49 282.59"/><polygon class="cls-6" points="1453.45 267.63 1527.02 267.63 1531.22 257.45 1457.65 257.45 1453.45 267.63"/><polygon class="cls-6" points="1356.21 297.66 1429.78 297.66 1433.98 287.48 1360.41 287.48 1356.21 297.66"/><polygon class="cls-6" points="1325.65 282.59 1399.22 282.59 1403.42 272.41 1329.85 272.41 1325.65 282.59"/><polygon class="cls-6" points="1368.61 267.63 1442.18 267.63 1446.38 257.45 1372.81 257.45 1368.61 267.63"/><polygon class="cls-6" points="1268.88 297.66 1342.45 297.66 1346.65 287.48 1273.08 287.48 1268.88 297.66"/><polygon class="cls-6" points="1238.32 282.59 1311.89 282.59 1316.09 272.41 1242.52 272.41 1238.32 282.59"/><polygon class="cls-6" points="1281.28 267.63 1354.85 267.63 1359.05 257.45 1285.48 257.45 1281.28 267.63"/><polygon class="cls-6" points="1184.04 297.66 1257.61 297.66 1261.81 287.48 1188.24 287.48 1184.04 297.66"/><polygon class="cls-6" points="1153.48 282.59 1227.05 282.59 1231.25 272.41 1157.68 272.41 1153.48 282.59"/><polygon class="cls-6" points="1196.44 267.63 1270.01 267.63 1274.21 257.45 1200.64 257.45 1196.44 267.63"/><polygon class="cls-6" points="1096.7 297.66 1170.28 297.66 1174.48 287.48 1100.91 287.48 1096.7 297.66"/><polygon class="cls-6" points="1066.14 282.59 1139.71 282.59 1143.92 272.41 1070.35 272.41 1066.14 282.59"/><polygon class="cls-6" points="1109.11 267.63 1182.67 267.63 1186.88 257.45 1113.31 257.45 1109.11 267.63"/><polygon class="cls-6" points="1011.87 297.66 1085.44 297.66 1089.64 287.48 1016.07 287.48 1011.87 297.66"/><polygon class="cls-6" points="981.31 282.59 1054.88 282.59 1059.08 272.41 985.51 272.41 981.31 282.59"/><polygon class="cls-6" points="1024.27 267.63 1097.84 267.63 1102.04 257.45 1028.47 257.45 1024.27 267.63"/><polygon class="cls-6" points="924.53 297.66 998.11 297.66 1002.31 287.48 928.74 287.48 924.53 297.66"/><polygon class="cls-6" points="893.97 282.59 967.54 282.59 971.75 272.41 898.17 272.41 893.97 282.59"/><polygon class="cls-6" points="936.93 267.63 1010.5 267.63 1014.71 257.45 941.14 257.45 936.93 267.63"/><polygon class="cls-6" points="839.7 297.66 913.27 297.66 917.47 287.48 843.9 287.48 839.7 297.66"/><polygon class="cls-6" points="809.14 282.59 882.71 282.59 886.91 272.41 813.34 272.41 809.14 282.59"/><polygon class="cls-6" points="852.1 267.63 925.67 267.63 929.87 257.45 856.3 257.45 852.1 267.63"/><polygon class="cls-6" points="752.36 297.66 825.93 297.66 830.14 287.48 756.57 287.48 752.36 297.66"/><polygon class="cls-6" points="721.8 282.59 795.37 282.59 799.58 272.41 726 272.41 721.8 282.59"/><polygon class="cls-6" points="764.76 267.63 838.33 267.63 842.54 257.45 768.97 257.45 764.76 267.63"/><polygon class="cls-6" points="1681.72 343.27 1755.3 343.27 1759.5 333.09 1685.93 333.09 1681.72 343.27"/><polygon class="cls-6" points="1651.16 328.19 1724.73 328.19 1728.94 318.01 1655.37 318.01 1651.16 328.19"/><polygon class="cls-6" points="1694.12 313.23 1767.69 313.23 1771.9 303.06 1698.33 303.06 1694.12 313.23"/><polygon class="cls-6" points="1594.39 343.27 1667.96 343.27 1672.16 333.09 1598.59 333.09 1594.39 343.27"/><polygon class="cls-6" points="1563.83 328.19 1637.4 328.19 1641.6 318.01 1568.03 318.01 1563.83 328.19"/><polygon class="cls-6" points="1606.79 313.23 1680.36 313.23 1684.56 303.06 1610.99 303.06 1606.79 313.23"/><polygon class="cls-6" points="1509.55 343.27 1583.12 343.27 1587.33 333.09 1513.76 333.09 1509.55 343.27"/><polygon class="cls-6" points="1478.99 328.19 1552.56 328.19 1556.77 318.01 1483.19 318.01 1478.99 328.19"/><polygon class="cls-6" points="1521.95 313.23 1595.52 313.23 1599.73 303.06 1526.16 303.06 1521.95 313.23"/><polygon class="cls-6" points="1422.22 343.27 1495.79 343.27 1499.99 333.09 1426.42 333.09 1422.22 343.27"/><polygon class="cls-6" points="1391.66 328.19 1465.23 328.19 1469.43 318.01 1395.86 318.01 1391.66 328.19"/><polygon class="cls-6" points="1434.62 313.23 1508.19 313.23 1512.39 303.06 1438.82 303.06 1434.62 313.23"/><polygon class="cls-6" points="1337.38 343.27 1410.95 343.27 1415.16 333.09 1341.59 333.09 1337.38 343.27"/><polygon class="cls-6" points="1306.82 328.19 1380.39 328.19 1384.6 318.01 1311.02 318.01 1306.82 328.19"/><polygon class="cls-6" points="1349.78 313.23 1423.35 313.23 1427.56 303.06 1353.98 303.06 1349.78 313.23"/><polygon class="cls-6" points="1250.05 343.27 1323.62 343.27 1327.82 333.09 1254.25 333.09 1250.05 343.27"/><polygon class="cls-6" points="1219.49 328.19 1293.06 328.19 1297.26 318.01 1223.69 318.01 1219.49 328.19"/><polygon class="cls-6" points="1262.45 313.23 1336.02 313.23 1340.22 303.06 1266.65 303.06 1262.45 313.23"/><polygon class="cls-6" points="1165.21 343.27 1238.78 343.27 1242.98 333.09 1169.41 333.09 1165.21 343.27"/><polygon class="cls-6" points="1134.65 328.19 1208.22 328.19 1212.42 318.01 1138.85 318.01 1134.65 328.19"/><polygon class="cls-6" points="1177.61 313.23 1251.18 313.23 1255.38 303.06 1181.81 303.06 1177.61 313.23"/><polygon class="cls-6" points="1077.88 343.27 1151.45 343.27 1155.65 333.09 1082.08 333.09 1077.88 343.27"/><polygon class="cls-6" points="1047.32 328.19 1120.89 328.19 1125.09 318.01 1051.52 318.01 1047.32 328.19"/><polygon class="cls-6" points="1090.28 313.23 1163.85 313.23 1168.05 303.06 1094.48 303.06 1090.28 313.23"/><polygon class="cls-6" points="993.04 343.27 1066.61 343.27 1070.81 333.09 997.24 333.09 993.04 343.27"/><polygon class="cls-6" points="962.48 328.19 1036.05 328.19 1040.25 318.01 966.68 318.01 962.48 328.19"/><polygon class="cls-6" points="1005.44 313.23 1079.01 313.23 1083.21 303.06 1009.64 303.06 1005.44 313.23"/><polygon class="cls-6" points="905.71 343.27 979.28 343.27 983.48 333.09 909.91 333.09 905.71 343.27"/><polygon class="cls-6" points="875.14 328.19 948.72 328.19 952.92 318.01 879.35 318.01 875.14 328.19"/><polygon class="cls-6" points="918.11 313.23 991.68 313.23 995.88 303.06 922.31 303.06 918.11 313.23"/><polygon class="cls-6" points="820.87 343.27 894.44 343.27 898.64 333.09 825.07 333.09 820.87 343.27"/><polygon class="cls-6" points="790.31 328.19 863.88 328.19 868.08 318.01 794.51 318.01 790.31 328.19"/><polygon class="cls-6" points="833.27 313.23 906.84 313.23 911.04 303.06 837.47 303.06 833.27 313.23"/><polygon class="cls-6" points="733.53 343.27 807.11 343.27 811.31 333.09 737.74 333.09 733.53 343.27"/><polygon class="cls-6" points="702.97 328.19 776.54 328.19 780.75 318.01 707.18 318.01 702.97 328.19"/><polygon class="cls-6" points="745.93 313.23 819.5 313.23 823.71 303.06 750.14 303.06 745.93 313.23"/><polygon class="cls-6" points="1662.9 388.87 1736.47 388.87 1740.67 378.69 1667.1 378.69 1662.9 388.87"/><polygon class="cls-6" points="1632.34 373.8 1705.9 373.8 1710.11 363.62 1636.54 363.62 1632.34 373.8"/><polygon class="cls-6" points="1675.3 358.84 1748.87 358.84 1753.07 348.66 1679.5 348.66 1675.3 358.84"/><polygon class="cls-6" points="1575.56 388.87 1649.13 388.87 1653.33 378.69 1579.76 378.69 1575.56 388.87"/><polygon class="cls-6" points="1545 373.8 1618.57 373.8 1622.77 363.62 1549.2 363.62 1545 373.8"/><polygon class="cls-6" points="1587.96 358.84 1661.53 358.84 1665.73 348.66 1592.16 348.66 1587.96 358.84"/><polygon class="cls-6" points="1490.72 388.87 1564.3 388.87 1568.5 378.69 1494.93 378.69 1490.72 388.87"/><polygon class="cls-6" points="1460.16 373.8 1533.73 373.8 1537.94 363.62 1464.37 363.62 1460.16 373.8"/><polygon class="cls-6" points="1503.12 358.84 1576.69 358.84 1580.9 348.66 1507.33 348.66 1503.12 358.84"/><polygon class="cls-6" points="1403.39 388.87 1476.96 388.87 1481.16 378.69 1407.59 378.69 1403.39 388.87"/><polygon class="cls-6" points="1372.83 373.8 1446.4 373.8 1450.6 363.62 1377.03 363.62 1372.83 373.8"/><polygon class="cls-6" points="1415.79 358.84 1489.36 358.84 1493.56 348.66 1419.99 348.66 1415.79 358.84"/><polygon class="cls-6" points="1318.55 388.87 1392.12 388.87 1396.33 378.69 1322.76 378.69 1318.55 388.87"/><polygon class="cls-6" points="1287.99 373.8 1361.56 373.8 1365.77 363.62 1292.19 363.62 1287.99 373.8"/><polygon class="cls-6" points="1330.95 358.84 1404.52 358.84 1408.73 348.66 1335.16 348.66 1330.95 358.84"/><polygon class="cls-6" points="1231.22 388.87 1304.79 388.87 1308.99 378.69 1235.42 378.69 1231.22 388.87"/><polygon class="cls-6" points="1200.66 373.8 1274.23 373.8 1278.43 363.62 1204.86 363.62 1200.66 373.8"/><polygon class="cls-6" points="1243.62 358.84 1317.19 358.84 1321.39 348.66 1247.82 348.66 1243.62 358.84"/><polygon class="cls-6" points="1146.38 388.87 1219.95 388.87 1224.16 378.69 1150.59 378.69 1146.38 388.87"/><polygon class="cls-6" points="1115.82 373.8 1189.39 373.8 1193.6 363.62 1120.02 363.62 1115.82 373.8"/><polygon class="cls-6" points="1158.78 358.84 1232.35 358.84 1236.56 348.66 1162.98 348.66 1158.78 358.84"/><polygon class="cls-6" points="1059.05 388.87 1132.62 388.87 1136.82 378.69 1063.25 378.69 1059.05 388.87"/><polygon class="cls-6" points="1028.49 373.8 1102.06 373.8 1106.26 363.62 1032.69 363.62 1028.49 373.8"/><polygon class="cls-6" points="1071.45 358.84 1145.02 358.84 1149.22 348.66 1075.65 348.66 1071.45 358.84"/><polygon class="cls-6" points="974.21 388.87 1047.78 388.87 1051.98 378.69 978.41 378.69 974.21 388.87"/><polygon class="cls-6" points="943.65 373.8 1017.22 373.8 1021.42 363.62 947.85 363.62 943.65 373.8"/><polygon class="cls-6" points="986.61 358.84 1060.18 358.84 1064.38 348.66 990.81 348.66 986.61 358.84"/><polygon class="cls-6" points="886.88 388.87 960.45 388.87 964.65 378.69 891.08 378.69 886.88 388.87"/><polygon class="cls-6" points="856.32 373.8 929.89 373.8 934.09 363.62 860.52 363.62 856.32 373.8"/><polygon class="cls-6" points="899.28 358.84 972.85 358.84 977.05 348.66 903.48 348.66 899.28 358.84"/><polygon class="cls-6" points="802.04 388.87 875.61 388.87 879.81 378.69 806.24 378.69 802.04 388.87"/><polygon class="cls-6" points="771.48 373.8 845.05 373.8 849.25 363.62 775.68 363.62 771.48 373.8"/><polygon class="cls-6" points="814.44 358.84 888.01 358.84 892.21 348.66 818.64 348.66 814.44 358.84"/><polygon class="cls-6" points="714.71 388.87 788.28 388.87 792.48 378.69 718.91 378.69 714.71 388.87"/><polygon class="cls-6" points="684.14 373.8 757.72 373.8 761.92 363.62 688.35 363.62 684.14 373.8"/><polygon class="cls-6" points="727.11 358.84 800.68 358.84 804.88 348.66 731.31 348.66 727.11 358.84"/></g><rect class="cls-6" x="725.37" y="399.99" width="913.62" height="37.96" transform="translate(2364.36 837.94) rotate(-180)"/><rect class="cls-4" x="748.32" y="437.95" width="862.31" height="395.96" transform="translate(2358.94 1271.86) rotate(-180)"/><rect class="cls-2" x="823.16" y="503.44" width="161.84" height="330.47" transform="translate(1808.17 1337.35) rotate(-180)"/><rect class="cls-7" x="829" y="515.36" width="150.16" height="317.83" transform="translate(1808.17 1348.55) rotate(-180)"/><g class="cls-8"><rect class="cls-2" x="789.4" y="582.79" width="229.36" height="11.87" transform="translate(1959.66 365.73) rotate(135)"/><rect class="cls-2" x="789.4" y="582.79" width="229.36" height="11.87" transform="translate(1127.07 1644.3) rotate(-135)"/><rect class="cls-2" x="789.4" y="760.01" width="229.36" height="11.87" transform="translate(2084.97 668.26) rotate(135)"/><rect class="cls-2" x="789.4" y="671.47" width="229.36" height="11.87" transform="translate(1808.17 1354.8) rotate(-180)"/><rect class="cls-2" x="789.4" y="760.01" width="229.36" height="11.87" transform="translate(1001.76 1946.83) rotate(-135)"/></g><rect class="cls-7" x="1354.57" y="503.44" width="161.84" height="161.84" transform="translate(2870.98 1168.71) rotate(-180)"/><polygon class="cls-2" points="1516.41 665.28 1582.73 679.18 1582.73 517.34 1516.41 503.44 1516.41 665.28"/><polygon class="cls-9" points="748.32 437.95 1610.63 437.95 1610.63 833.91 748.32 437.95"/><rect class="cls-2" x="748.32" y="437.95" width="862.31" height="12.51" transform="translate(2358.94 888.41) rotate(-180)"/><path class="cls-6" d="M717.28,833.63s0-13.31,20-26.63,28.85-40,6.66-40,28.85-15.53,26.63-33.29-11.1-6.65-13.32-15.53,15.54-48.83-2.22-31.07-20,33.29-26.63,17.75-20-8.87-15.53,13.32-.62,25.17-11.41,14.8-41.86-14.8-24.1,16.27-1.82,39.47,12.41,57.46S717.28,811.44,717.28,833.63Z"/><path class="cls-10" d="M745.63,717s-29.07,50.2-29.55,71.92-.59,31.09-16.93,42.74"/><path class="cls-10" d="M727.37,728.57s.79,16.5-2.29,29.39c0,0,8.17-9.61,13.33-12.91"/><path class="cls-10" d="M717.3,752.48s-.14,19.38-1,33.52c0,0,9.61-15.76,14.78-19"/><path class="cls-11" d="M711.54,833.3s-20-11.1-13.32-51-5.52-84.56-26.44-109.78c-24.39-29.42-64.55-45.58-64.55-45.58s-20,53.27,11.09,108.75S696,833.3,711.54,833.3Z"/><path class="cls-12" d="M621.21,652.24s50.09,74.25,53.63,109.6,8.58,54.53,36.7,71.46"/><path class="cls-12" d="M652.44,668.74s-.35,27.09,6.31,47.72c0,0-13.38-14.72-22.22-19.44"/><path class="cls-12" d="M671.89,706.45s-4.89,27.1,1.77,47.73c0,0-13.56-17.68-22.39-22.39"/><path class="cls-13" d="M579.23,833.62s68.16-26.26,100.45-19.08,61-14.35,81.07-17.22,17.22-2.15,43,9.33,84.66,18.65,88.25,20.8l70.08,6.46-382.9-.29"/><path class="cls-14" d="M613.75,722.13l.1-.15s37.61,8.72,60.46,24.58c19.59,13.61,31,37.67,24.75,59.21-3.56,12.3,1,19.53,5.6,23.47C659.79,803.65,617,727.89,613.75,722.13Z"/><path class="cls-7" d="M624.24,780.63c-27.9-28.69-11.86-56.27-10.49-58.5,3.22,5.76,46,81.52,90.91,107.11a22,22,0,0,0,6.88,4.06C697,833.3,653.34,810.56,624.24,780.63Z"/><path class="cls-13" d="M511.79,833.62S580,807.36,612.23,814.54s61-14.35,81.08-17.22,17.22-2.15,43.05,9.33,62.42,19.37,68.88,16.5c0,0,4.3-25.11,12.91-28,0,0-10,20.09-7.89,26.54,0,0,6.46-21.52,12.2-24.39,0,0-8.61,19.37-3.59,28.7,0,0,2.15-12.2,3.59-14.35,0,0-1.44,13.63,2.15,15.78l70.07,6.46-382.89-.29"/><path class="cls-15" d="M192.15,170.1c.57,0,1.12.06,1.68.08a54.49,54.49,0,0,1,81-43,62.45,62.45,0,0,1,118.51,19.1,54.12,54.12,0,0,1,76.15,32.33,23,23,0,0,1,5-.57c12.06,0,23.6,3.94,24.39,15.81,2.93-2.87,9.67-7.41,14.1-7.41,9,0,8.8,8.67,27.1,11.55H130.72C158.91,190.24,170.2,170.1,192.15,170.1Z"/><path class="cls-15" d="M746.51,75c-.36,0-.72,0-1.08,0a35.09,35.09,0,0,0-52.12-27.68A40.2,40.2,0,0,0,617,59.71a34.84,34.84,0,0,0-49,20.82,14.56,14.56,0,0,0-3.18-.37c-7.77,0-15.2,2.54-15.71,10.17-1.88-1.84-6.22-4.77-9.07-4.77-5.78,0-5.67,5.59-17.45,7.44H786.06C767.91,88,760.64,75,746.51,75Z"/><path class="cls-15" d="M1746.42,82c-.28,0-.56,0-.84,0A27.32,27.32,0,0,0,1705,60.45a31.3,31.3,0,0,0-59.4,9.58,27.13,27.13,0,0,0-38.16,16.2,11.22,11.22,0,0,0-2.48-.29c-6,0-11.83,2-12.22,7.93-1.47-1.44-4.85-3.72-7.07-3.72-4.5,0-4.41,4.35-13.58,5.79h205.11C1763.08,92.05,1757.42,82,1746.42,82Z"/><path class="cls-14" d="M1612.68,833.43s0-13.31-20-26.63-28.85-39.95-6.66-39.95-28.85-15.53-26.63-33.29,11.09-6.66,13.31-15.53S1557.2,669.2,1575,687s20,33.29,26.63,17.75,20-8.88,15.54,13.32.62,25.16,11.41,14.8,41.85-14.8,24.1,16.27,1.81,39.46-12.41,57.46S1612.68,811.24,1612.68,833.43Z"/><path class="cls-10" d="M1584.33,716.82s29.07,50.2,29.54,71.92.6,31.1,16.93,42.75"/><path class="cls-10" d="M1602.59,728.36s-.79,16.5,2.29,29.4c0,0-8.17-9.62-13.33-12.91"/><path class="cls-10" d="M1612.65,752.28s.14,19.38,1,33.52c0,0-9.62-15.76-14.78-19.06"/><path class="cls-16" d="M1618.42,833.1s20-11.1,13.32-51.05,5.52-84.55,26.43-109.77c24.4-29.42,64.56-45.58,64.56-45.58s20,53.26-11.1,108.75S1634,833.1,1618.42,833.1Z"/><path class="cls-10" d="M1708.74,652s-50.08,74.24-53.62,109.6-8.58,54.53-36.7,71.46"/><path class="cls-10" d="M1677.51,668.54s.36,27.09-6.3,47.72c0,0,13.37-14.72,22.21-19.44"/><path class="cls-10" d="M1658.07,706.25s4.89,27.1-1.77,47.73c0,0,13.55-17.68,22.39-22.39"/><path class="cls-13" d="M1750.73,833.42s-68.16-26.26-100.45-19.08-61-14.35-81.08-17.22-17.22-2.16-43,9.32-84.67,18.66-88.25,20.81l-70.08,6.46,382.9-.29"/><path class="cls-7" d="M1716.2,721.93l-.09-.15s-37.61,8.72-60.46,24.58c-19.59,13.61-31,37.66-24.76,59.21,3.56,12.3-1,19.53-5.59,23.47C1670.17,803.45,1713,727.69,1716.2,721.93Z"/><path class="cls-17" d="M1705.72,780.43c27.9-28.69,11.85-56.27,10.48-58.5-3.21,5.76-46,81.52-90.9,107.11a22.35,22.35,0,0,1-6.88,4.06C1633,833.1,1676.62,810.36,1705.72,780.43Z"/><path class="cls-13" d="M1785.87,833.44l-350.6.27,70.08-6.46c3.59-2.15,2.15-15.78,2.15-15.78,1.44,2.15,3.59,14.35,3.59,14.35,5-9.33-3.59-28.7-3.59-28.7,5.74,2.87,12.2,24.39,12.2,24.39,2.15-6.46-7.89-26.55-7.89-26.55,8.61,2.87,12.91,28,12.91,28,6.46,2.87,43-5,68.88-16.51s23-12.19,43.05-9.32,48.79,24.39,81.07,17.22c17.66-3.93,46,2.15,68.15,8.46Z"/><path class="cls-18" d="M167,770.32a48.66,48.66,0,0,1-14.61,13.28c1.85-17.1,5.39-46.58,11.84-68.7,4-13.79,21.53-34.32,18.73-44.8-10.18-38.2-18.73-71.67-18.73-71.67l122.08,19.2s-27,62-43.43,76.15-45.94,28-50.86,36.12c-1.68,2.77-3.76,11-5.62,20.91A104.18,104.18,0,0,0,167,770.32Z"/><path class="cls-19" d="M182.2,798.3C197,820.57,197,833.85,197,833.85l-28.71.26s2.55-16.47-5.76-19.45-13.11-6.6-11.47-18.39c.28-2,.73-6.6,1.39-12.67A48.66,48.66,0,0,0,167,770.32a104.18,104.18,0,0,1,19.4-19.51C182.82,769.87,180,795,182.2,798.3Z"/><path class="cls-20" d="M530.55,745.52c-5.38,6.39-4.21,8.72-12.5,17.54-4.78,5.09-16.29,5.27-16.29,5.27l.66-30.7s7-1,11.68-5A69.28,69.28,0,0,0,530.55,745.52Z"/><path class="cls-21" d="M500.08,642.66c-14.27-14.59-24.78-36.45-24.78-36.45l37.13-27s20.23,40.11,33.15,56.57,24.15,28.67,28.65,34.92,5.61,14.68-4.5,24.23a31,31,0,0,0-3.23,3.94C557,697.57,548.63,691.22,544,687c1.88-2.85,2.69-5.12,1.6-6.18C541.65,677,514.35,657.25,500.08,642.66Z"/><path class="cls-22" d="M537.15,738.78a74.3,74.3,0,0,0-6.6,6.74,69.28,69.28,0,0,1-16.45-12.94c.4-.35-5-12.89,5.08-20.76,7.31-5.69,19.88-17.35,24.8-24.83,4.65,4.23,13,10.58,22.52,11.92C559.8,708.21,548.54,728.34,537.15,738.78Z"/><path class="cls-17" d="M595,393.7s-29.72-14.17-64.17-1.11c-43,16.3-74,84.18-84.37,99S518.6,462.9,518.6,462.9l68.58-20.49Z"/><path class="cls-23" d="M172.15,553.13a43.23,43.23,0,0,0-40.7,5.61c-13.61,9.65-14.18,21.43-12,89.63,1.51,46.58-40.12,85-73.34,65.89C56,708.73,59.06,695.8,59.06,695.8s-19.69,3.08-30.15-11.69c-9.47-13.36,1.23-26.45,1.23-26.45s11.69,25.84,29.54,6.71c5.1-5.47,16.93-27.44,23.08-63.08s25.06-68.71,65.1-67.38c31.68,1.05,32.29,8.76,32.29,8.76Z"/><path class="cls-17" d="M609.35,406.24s4.51-10.94-1.31-24.92-9.21-16.85-9.21-16.85-8.83,12.92-4.93,25.75,7.73,18.46,7.73,18.46Z"/><path class="cls-24" d="M217.49,504.23c33.95-11.58,75.62,6.25,113.77,14.9,29.9,6.79,77.19-2.89,106.49-19.14,25.51-14.15,41.5-49.87,64.6-73.07,8.28-8.32,33.35-24.06,48.47-30,13.7-5.35,37.77-11.33,49.47,4.23,1.05,0,1.07.63,1.71.91-2.37.88-4.44,2.28-6.76,3.22,6.25,10.6,8,12.37,15.16,24.92s10.34,37.35,17.12,51.67c3.88,8.2,8.06,6.8,14.8,10.07.94,2.89,4.5,11,4.86,13.15,2.15,12.81-6.2,17.71-17.1,18.12-3.57,3.89-6.8,6.45-12.83,3.38s-9.06-7.9-13.76-14.77-18.76-14.59-26.67-21.28c-4.28-3.61-13.32-9.13-16-14-6.14,9.89-14.71,42.65-16.68,51.17-4.63,20-10.32,84.07-35.65,105.45s-95.61,37-132.27,37.95-70.95-1.77-102-15c-27.53-11.76-55.72,11.82-82,1S159.41,622.53,149,587.17C140.71,559.12,179.65,517.12,217.49,504.23Z"/><path class="cls-25" d="M610.4,430.24c-7.17-12.51-8.92-14.36-15.16-24.91,2.3-1,4.42-2.23,6.74-3.32,5.27,5.3,8.8,6.83,12.4,14.28,4.78,9.88,3,9,8,24.48,3.27,10.15,14.66,38,19.92,51.21-6.27-2-11-2-14.82-10.11C620.77,467.69,617.56,442.75,610.4,430.24Z"/><path class="cls-26" d="M560.85,476.57A22.33,22.33,0,0,1,547,468.9c-1.74,22-7.7,34.92-15.79,59.14s-18.15,64-27.68,77.51a44,44,0,0,1-32.71,18.57L471.9,652a142.07,142.07,0,0,0,29.75-13.9c14.43-9.13,22.81-20.34,32.61-54.66C543.49,551.14,547.86,506.23,560.85,476.57Z"/><path class="cls-27" d="M458.73,656.39l-11.55-15.6s-58,13.78-97.91,8.42c-59.6-8-84.18-24.44-84.18-24.44l12.81,32.84A131.88,131.88,0,0,0,305.51,667c12.75,2.64,25.61,3.52,31.95,4C406.18,676.42,458.73,656.39,458.73,656.39Z"/><path class="cls-28" d="M618.78,425.79s-4.7-10-9.43-19.55c-8.46-17-31-15-31-15l6.4,49.25Z"/><path class="cls-17" d="M644.8,498.4s-13.69,1.38-21.84,4.65-18.8,9.71-18.8,9.71L600,508a106.36,106.36,0,0,1,23.42-12.25,70.88,70.88,0,0,1,19.36-3.64Z"/><path class="cls-17" d="M621.87,439.11s-12.43-1.44-19-3c-9.38-2.27-18.13,4.39-18.13,4.39l-3.2-9.15a2.63,2.63,0,0,1,1.68-3.37c7.73-2.44,30.37-9.31,33.38-6.95A15.38,15.38,0,0,1,621.87,439.11Z"/><path class="cls-29" d="M602.45,502.41a9.24,9.24,0,1,1,9.24,9.24A9.25,9.25,0,0,1,602.45,502.41Zm3.22,0a6,6,0,1,0,6-6A6,6,0,0,0,605.67,502.41Z"/><path class="cls-17" d="M584.76,440.47s-3.34,5,6.28,29.13a65.23,65.23,0,0,0,20.65,26.79s-4.13.5-5.63,3.9c0,0-15.58-7.23-22.84-27.45-6.43-17.91-8.79-39-1.21-42.35C582.76,434.11,584.76,440.47,584.76,440.47Z"/><path class="cls-30" d="M601.46,413.67s1.69-20.67-5.69-34-11.9-14.71-11.9-14.71-5.38,37.33,2.14,48.72C595.75,423.38,601.46,413.67,601.46,413.67Z"/><path class="cls-31" d="M452.89,721.71c-4.49-11.24-7.57-52.65-7.86-72.84S445,597,445,597l65-7s-15.86,45.59-19.23,56.68-12,50-13.16,63.66c-.59,7.07-.56,20.8-.4,35.18H454.88C454.93,734.78,454.46,725.64,452.89,721.71Z"/><path class="cls-17" d="M497.83,817.2C505.69,827,506,834,506,834H477a31,31,0,0,0-5.32-8.17,121.64,121.64,0,0,0,21.81-12.92A45.38,45.38,0,0,1,497.83,817.2Z"/><path class="cls-17" d="M470,824.17c-6.28-5.24-17.13-13.46-17.13-25.38,0-7.75,1.9-33.28,2-53.27h22.33c.14,13.29.4,27.14.4,36.86,0,15.77,9.54,24.7,15.88,30.53a121.64,121.64,0,0,1-21.81,12.92A13.7,13.7,0,0,0,470,824.17Z"/><path class="cls-32" d="M264.24,592.05s16.31,80.85,22.1,102.18,17.28,46.41,25.48,57.66c1.18,1.62,2.48,3.5,3.83,5.51-2.69,3.14-6.38,8.91-9.16,18.87a61.17,61.17,0,0,1-2.09,6.23c-4.82-10.94-11.06-22.08-18.06-26.69-17.18-11.31-23.74-17.3-28.66-29.59s-9.85-39.08-27.9-43.74-54.55-20.55-68.11-64.16C152,587.38,264.24,592.05,264.24,592.05Z"/><path class="cls-17" d="M315.65,757.4c8,12,18.45,29.44,24.06,35.91,6.57,7.57,26.26,40.54,26.26,40.54H336.43s-3.29-14.07-9.84-14.6c-9-.73-10.67-5.68-12.31-10.17-.86-2.36-4.49-14.35-9.88-26.58a61.17,61.17,0,0,0,2.09-6.23C309.27,766.31,313,760.54,315.65,757.4Z"/><path class="cls-33" d="M1131.76,833s27.54,3.81,36.41-21.89-14.82-41.39-16.23-40.44,18.54,19,9.31,39.49c-8.79,19.51-31,15.23-31,15.23Z"/><path class="cls-7" d="M1131.76,833l-1.37-6.82.81-.65c3.28.42,14.12,1.15,22.6-5.6C1150.2,835.66,1131.76,833,1131.76,833Z"/><path class="cls-7" d="M1079.4,650.82c4.58,2,4.55,38.18,1,38.9-8.63,1.76-14.45-8.33-14.86-14.48C1065.18,669.39,1070.4,646.88,1079.4,650.82Z"/><path class="cls-34" d="M1055.46,672c1.5-2.07,11.69-4.05,13.3-6.4s1.74-8.06,4.44-11.59,16.7-8.53,26.25-.73c10.25,8.36.14,29.15,24.92,88.91,12.29,25.58,12,48.06,12,48.06-8.34,42.33-56.08,16.32-56.08,16.32,3.72-23.52-16.28-36.88-17.47-54.68C1061,724,1077.91,712.24,1076.19,690c0,0-10.49,2.68-15.91-.78C1057.07,687.18,1053.77,674.32,1055.46,672Z"/><path class="cls-7" d="M1097.89,683.87s-23.25.15-19.31-19.74c1.81-9.1,6.1-13.17,10.22-14.92,3.65.26,7.81.28,11,2.93,4.82,4,3.94,13.63,5,27.22A35,35,0,0,1,1097.89,683.87Z"/><path class="cls-7" d="M1062.21,781.85c5.16-5.9,10-2.3,15.35,3.73-3.76-9.19-8.52-13.53-11.57-22,5.08-5.87,8.24-8.66,15.86-8.82,14.1-.29,21.63,12.36,33.3,18.82,14.35,7.93,18.59,2.35,19.63,1,.08.45.15.9.23,1.33l.07,1.15c-18.49,22.34-11.55,55.85-11.55,55.85h-40.27S1053.47,791.85,1062.21,781.85Z"/><path class="cls-7" d="M1063.35,672.46c-.46-1.5-8.22-1.29-8.74,0s2.19,5.8,3.48,5.8S1063.8,674,1063.35,672.46Z"/><path class="cls-7" d="M1068.35,665.58c1.67-2.35,1.94-8.06,4.73-11.59,1.2-1.51,4.87-3.52,9.06-4.38C1078.52,651.79,1076.4,661.36,1068.35,665.58Z"/><path class="cls-7" d="M1099.58,650.83c-5.3,2-5.21,39.32-1.17,40.06,9.9,1.8,25-12.94,25.5-19.28C1124.36,665.59,1107.19,648,1099.58,650.83Z"/><path class="cls-35" d="M1076.19,690s11.07-1.75,18.41-4.68c0,0-9,6.24-16.65,20.67-12.78,24.16-14.31,31.21-14.31,31.21C1066.9,719,1077.58,707.9,1076.19,690Z"/><path class="cls-7" d="M1167.65,812.48a32.78,32.78,0,0,1-5.55,9.5C1161.75,813.9,1165.58,812.58,1167.65,812.48Z"/><path class="cls-7" d="M1163.93,788.28a4.08,4.08,0,0,1-.73,5.3,35.2,35.2,0,0,0-1.92-6.59C1161.9,786.6,1162.81,786.58,1163.93,788.28Z"/><path class="cls-7" d="M1107.62,737.48c4.19,3.27,9-4,8.11-7.33C1113.57,722.05,1099.61,731.23,1107.62,737.48Z"/><path class="cls-7" d="M1133.92,770.26c-4.51,2-21.52-9.46-20.12-22.34,1-9.61,4.7-14.06,6.6-15.77,1.21,3.22,2.53,6.55,4,10A125.19,125.19,0,0,1,1133.92,770.26Z"/><path class="cls-36" d="M1131.76,833s38.75-35.36,17.07-54.67c-17.82-15.88-26.77,28.21-45.62,27.63s-29.07-37.76-41-24.11c-8.74,10,21,51.15,21,51.15Z"/><path class="cls-37" d="M1062.88,745.7s-.15,17.64,0,46.3.1,41,.1,41h6.17s6.78-43.65,7.19-77.16C1076.66,729.77,1062.88,745.7,1062.88,745.7Z"/><path class="cls-7" d="M1097.69,833s-4.83-3-13.63-3.93-9.82,2.32-9.17,3.93Z"/><path class="cls-7" d="M1069.15,833s2.36-3-6.43-3.93-9.83,2.32-9.18,3.93Z"/><path class="cls-38" d="M1091.1,745.7s-.15,17.64,0,46.3.1,41,.1,41h6.17s6.78-43.65,7.19-77.16C1104.88,729.77,1091.1,745.7,1091.1,745.7Z"/><path class="cls-7" d="M1131.76,833s-4.83-3-13.63-3.93-9.82,2.32-9.17,3.93Z"/></g></svg>