<?xml version="1.0" encoding="UTF-8" standalone="no"?>
<!-- Created with Keyshape -->
<svg xmlns="http://www.w3.org/2000/svg" viewBox="0 0 1920 1080">
    <defs>
        <linearGradient id="Gradient-0" x1="2766.34" y1="936.09" x2="2897.75" y2="936.09" gradientUnits="userSpaceOnUse" gradientTransform="matrix(0.987108 -0.160053 0.160053 0.987108 -2280.35 302.76)">
            <stop offset="0" stop-color="#4dba71"/>
            <stop offset="1" stop-color="#007d29"/>
        </linearGradient>
        <linearGradient id="Gradient-1" x1="3099.85" y1="765.72" x2="3300.74" y2="765.72" gradientUnits="userSpaceOnUse" gradientTransform="matrix(1 0 0 1 -2165.97 0)">
            <stop offset="0" stop-color="#4dba71"/>
            <stop offset="1" stop-color="#007d29"/>
        </linearGradient>
        <linearGradient id="Gradient-2" x1="3575.53" y1="687.66" x2="3190.87" y2="652.35" gradientUnits="userSpaceOnUse" gradientTransform="matrix(1 0 0 1 -2165.97 0)">
            <stop offset="0" stop-color="#4dba71"/>
            <stop offset="1" stop-color="#007d29"/>
        </linearGradient>
        <linearGradient id="Gradient-3" x1="838.067" y1="135.172" x2="865.102" y2="696.888" gradientUnits="userSpaceOnUse">
            <stop offset="0" stop-color="#b3e1c2"/>
            <stop offset="1" stop-color="#4dba71"/>
        </linearGradient>
        <linearGradient id="Gradient-4" x1="2916.76" y1="-385.08" x2="2972.19" y2="-385.08" gradientUnits="userSpaceOnUse" gradientTransform="matrix(0.94 0.33 -0.33 0.94 -2434.39 -262.49)">
            <stop offset="0" stop-color="#4dba71"/>
            <stop offset="1" stop-color="#007d29"/>
        </linearGradient>
        <linearGradient id="Gradient-5" x1="-734.9" y1="302.89" x2="-786.89" y2="339.75" gradientUnits="userSpaceOnUse" gradientTransform="matrix(-1 0 0 1 -275.93 0)">
            <stop offset="0" stop-color="#b3e1c2"/>
            <stop offset="1" stop-color="#66c485"/>
        </linearGradient>
        <linearGradient id="Gradient-6" x1="708.95" y1="420.84" x2="831.91" y2="816.87" gradientUnits="userSpaceOnUse">
            <stop offset="0" stop-color="#4dba71"/>
            <stop offset="1" stop-color="#007d29"/>
        </linearGradient>
        <linearGradient id="Gradient-7" x1="1065.8" y1="968.31" x2="1223.85" y2="683.82" gradientUnits="userSpaceOnUse" gradientTransform="matrix(0.999747 0.0225128 -0.0225128 0.999747 -136.81 -134.72)">
            <stop offset="0" stop-color="#b3e1c2"/>
            <stop offset="1" stop-color="#4dba71"/>
        </linearGradient>
        <linearGradient id="Gradient-8" x1="747.2" y1="-43.57" x2="778.07" y2="120.38" gradientUnits="userSpaceOnUse" gradientTransform="matrix(0.746057 0.665882 -0.665882 0.746057 336.32 383.99)">
            <stop offset="0" stop-color="#4dba71"/>
            <stop offset="1" stop-color="#007d29"/>
        </linearGradient>
        <linearGradient id="Gradient-9" x1="880.121" y1="934.19" x2="1126.09" y2="517.821" gradientUnits="userSpaceOnUse">
            <stop offset="0" stop-color="#b3e1c2"/>
            <stop offset="1" stop-color="#4dba71"/>
        </linearGradient>
        <linearGradient id="Gradient-10" x1="390.99" y1="1564.15" x2="545.35" y2="1286.29" gradientUnits="userSpaceOnUse" gradientTransform="matrix(0.760859 -0.648917 0.648917 0.760859 -698.37 -71.95)">
            <stop offset="0" stop-color="#b3e1c2"/>
            <stop offset="1" stop-color="#4dba71"/>
        </linearGradient>
        <linearGradient id="Gradient-11" x1="620.23" y1="846.8" x2="651.1" y2="1010.74" gradientUnits="userSpaceOnUse">
            <stop offset="0" stop-color="#4dba71"/>
            <stop offset="1" stop-color="#007d29"/>
        </linearGradient>
        <linearGradient id="Gradient-12" x1="579.83" y1="871.21" x2="730.529" y2="607.138" gradientUnits="userSpaceOnUse">
            <stop offset="0" stop-color="#b3e1c2"/>
            <stop offset="1" stop-color="#4dba71"/>
        </linearGradient>
    </defs>
    <style>
@keyframes a0_t { 0% { transform: translate(0px,0px); animation-timing-function: cubic-bezier(0.42,0,0.58,1); } 50% { transform: translate(-37.298199px,-0.000002px); animation-timing-function: cubic-bezier(0.42,0,0.58,1); } 100% { transform: translate(-0.005px,-0.00003px); } }
@keyframes a1_t { 0% { transform: translate(0px,0px); animation-timing-function: cubic-bezier(0.42,0,0.58,1); } 50% { transform: translate(-29.838559px,-0.000001px); animation-timing-function: cubic-bezier(0.42,0,0.58,1); } 100% { transform: translate(-0.005px,0.000206px); } }
@keyframes a2_t { 0% { transform: translate(357.630891px,943.281477px) rotate(0deg) translate(-57.888981px,-172.910719px); animation-timing-function: cubic-bezier(0.42,0,0.58,1); } 50% { transform: translate(357.630891px,943.281477px) rotate(10deg) translate(-57.888981px,-172.910719px); animation-timing-function: cubic-bezier(0.42,0,0.58,1); } 100% { transform: translate(357.630891px,943.281477px) rotate(0deg) translate(-57.888981px,-172.910719px); } }
@keyframes a3_t { 0% { transform: translate(340.303416px,979.593056px) rotate(0deg) translate(-340.303416px,-979.593056px); animation-timing-function: cubic-bezier(0.42,0,0.58,1); } 50% { transform: translate(340.303416px,979.593056px) rotate(-10deg) translate(-340.303416px,-979.593056px); animation-timing-function: cubic-bezier(0.42,0,0.58,1); } 100% { transform: translate(340.303416px,979.593056px) rotate(0deg) translate(-340.303416px,-979.593056px); } }
@keyframes a4_t { 0% { transform: translate(0px,0px); animation-timing-function: cubic-bezier(0.42,0,0.58,1); } 50% { transform: translate(-25.597693px,-0.000003px); animation-timing-function: cubic-bezier(0.42,0,0.58,1); } 100% { transform: translate(0px,-0.000262px); } }
@keyframes a5_t { 0% { transform: translate(0px,0px); animation-timing-function: cubic-bezier(0.42,0,0.58,1); } 50% { transform: translate(19.19827px,0.000007px); animation-timing-function: cubic-bezier(0.42,0,0.58,1); } 100% { transform: translate(0px,0.000139px); } }
@keyframes a6_o { 0% { opacity: 1; } 10% { opacity: 1; animation-timing-function: cubic-bezier(0.42,0,0.58,1); } 20% { opacity: 0; } 100% { opacity: 0; } }
@keyframes crack_o { 0% { opacity: 0; } 10% { opacity: 0; animation-timing-function: cubic-bezier(0.42,0,0.58,1); } 20% { opacity: 1; } 100% { opacity: 1; } }
@keyframes a7_o { 0% { opacity: 0; } 20% { opacity: 0; animation-timing-function: cubic-bezier(0.42,0,0.58,1); } 30% { opacity: 1; } 60% { opacity: 1; animation-timing-function: cubic-bezier(0.42,0,0.58,1); } 80% { opacity: 0; } 100% { opacity: 0; } }
@keyframes a7_mo { 0% { offset-distance: 0%; } 20% { offset-distance: 0%; animation-timing-function: cubic-bezier(0.080729,0,0.58,1); } 80% { offset-distance: 66.651%; } 100% { offset-distance: 100%; } }
@keyframes horse_t { 0% { transform: translate(87.036942px,0px); animation-timing-function: cubic-bezier(0.42,0,0.58,1); } 40% { transform: translate(42.065415px,0px); } 100% { transform: translate(42.065415px,0px); } }
@keyframes horse_body_t { 0% { transform: translate(697.662401px,657.160292px) rotate(0deg) translate(-697.662401px,-657.160292px); animation-timing-function: cubic-bezier(0.42,0,0.58,1); } 20% { transform: translate(697.662401px,657.160292px) rotate(-30deg) translate(-697.662401px,-657.160292px); } 40% { transform: translate(697.662401px,657.160292px) rotate(0deg) translate(-697.662401px,-657.160292px); animation-timing-function: cubic-bezier(0.42,0,0.58,1); } 100% { transform: translate(697.662401px,657.160292px) rotate(0deg) translate(-697.662401px,-657.160292px); } }
@keyframes a8_t { 0% { transform: translate(1034.68401px,671.878682px) rotate(0deg) translate(-1034.68401px,-671.878682px); animation-timing-function: cubic-bezier(0.42,0,0.58,1); } 20% { transform: translate(1034.68401px,671.878682px) rotate(-40deg) translate(-1034.68401px,-671.878682px); animation-timing-function: cubic-bezier(0.42,0,0.58,1); } 40% { transform: translate(1034.68401px,671.878682px) rotate(0deg) translate(-1034.68401px,-671.878682px); animation-timing-function: cubic-bezier(0.42,0,0.58,1); } 100% { transform: translate(1034.68401px,671.878682px) rotate(0deg) translate(-1034.68401px,-671.878682px); } }
@keyframes a9_t { 0% { transform: translate(1105.698888px,546.792854px) rotate(10deg) translate(-1105.698888px,-546.792854px); animation-timing-function: cubic-bezier(0.42,0,0.58,1); } 40% { transform: translate(1105.698888px,546.792854px) rotate(-90deg) translate(-1105.698888px,-546.792854px); animation-timing-function: cubic-bezier(0.42,0,0.58,1); } 60% { transform: translate(1105.698888px,546.792854px) rotate(10deg) translate(-1105.698888px,-546.792854px); animation-timing-function: cubic-bezier(0.42,0,0.58,1); } 100% { transform: translate(1105.698888px,546.792854px) rotate(10deg) translate(-1105.698888px,-546.792854px); } }
@keyframes a10_t { 0% { transform: translate(1073.89726px,607.996331px) rotate(0deg) translate(-1073.89726px,-607.996331px); animation-timing-function: cubic-bezier(0.42,0,0.58,1); } 20% { transform: translate(1073.89726px,607.996331px) rotate(-50deg) translate(-1073.89726px,-607.996331px); } 40% { transform: translate(1073.89726px,607.996331px) rotate(0deg) translate(-1073.89726px,-607.996331px); animation-timing-function: cubic-bezier(0.42,0,0.58,1); } 100% { transform: translate(1073.89726px,607.996331px) rotate(0deg) translate(-1073.89726px,-607.996331px); } }
@keyframes a11_t { 0% { transform: translate(950.700346px,777.489999px) rotate(0deg) translate(-950.700346px,-777.489999px); animation-timing-function: cubic-bezier(0.42,0,0.58,1); } 10% { transform: translate(950.700346px,777.489999px) rotate(-60deg) translate(-950.700346px,-777.489999px); animation-timing-function: cubic-bezier(0.42,0,0.58,1); } 40% { transform: translate(950.700346px,777.489999px) rotate(0deg) translate(-950.700346px,-777.489999px); animation-timing-function: cubic-bezier(0.42,0,0.58,1); } 100% { transform: translate(950.700346px,777.489999px) rotate(0deg) translate(-950.700346px,-777.489999px); } }
    </style>
    <title>illustration3</title>
    <path class="cls-1" d="M1151.46,233.38C1151.88,233.38,1152.29,233.43,1152.71,233.45C1153.28,226.645,1155.55,220.092,1159.31,214.391C1163.07,208.69,1168.2,204.024,1174.23,200.822C1180.26,197.619,1187,195.982,1193.83,196.06C1200.65,196.138,1207.35,197.93,1213.31,201.27C1217.63,192.09,1224.81,184.563,1233.79,179.827C1242.76,175.09,1253.03,173.402,1263.04,175.015C1273.06,176.629,1282.28,181.457,1289.31,188.771C1296.34,196.085,1300.79,205.488,1302.01,215.56C1307.27,212.896,1313.05,211.412,1318.95,211.214C1324.84,211.016,1330.71,212.107,1336.13,214.412C1341.56,216.717,1346.42,220.179,1350.37,224.557C1354.33,228.936,1357.27,234.124,1359.01,239.76C1359.31,239.691,1359.62,239.63,1359.93,239.578C1360.23,239.525,1360.54,239.481,1360.85,239.445C1361.16,239.409,1361.47,239.382,1361.79,239.363C1362.1,239.343,1362.41,239.333,1362.72,239.33C1371.72,239.33,1380.39,242.33,1380.98,251.16C1383.17,249.02,1388.21,245.62,1391.52,245.62C1398.25,245.62,1398.12,252.11,1411.81,254.27L1105.48,254.27C1126.58,248.46,1135,233.38,1151.46,233.38Z" fill="#e6f5eb" transform="translate(1258.65,214.345) translate(-1258.64,-214.345)" style="animation: 5s linear infinite both a0_t;"/>
    <path class="cls-1" d="M1639.66,142.49C1639.4,142.49,1639.15,142.49,1638.89,142.49C1638.54,138.31,1637.15,134.283,1634.84,130.781C1632.53,127.279,1629.38,124.412,1625.68,122.444C1621.97,120.476,1617.83,119.47,1613.64,119.519C1609.44,119.567,1605.33,120.668,1601.67,122.72C1599.02,117.078,1594.6,112.452,1589.09,109.541C1583.58,106.63,1577.27,105.592,1571.12,106.583C1564.96,107.575,1559.3,110.542,1554.98,115.038C1550.66,119.533,1547.92,125.311,1547.18,131.5C1543.95,129.866,1540.4,128.957,1536.78,128.837C1533.16,128.717,1529.56,129.389,1526.23,130.805C1522.89,132.221,1519.91,134.347,1517.48,137.036C1515.06,139.724,1513.25,142.91,1512.18,146.37C1511.99,146.326,1511.81,146.287,1511.62,146.254C1511.43,146.22,1511.24,146.192,1511.05,146.17C1510.86,146.147,1510.67,146.13,1510.48,146.119C1510.29,146.107,1510.1,146.101,1509.91,146.1C1504.36,146.1,1499.05,147.92,1498.69,153.37C1497.34,152.05,1494.24,149.96,1492.21,149.96C1488.08,149.96,1488.21,153.96,1479.75,155.28L1667.92,155.28C1655,151.75,1649.76,142.49,1639.66,142.49Z" fill="#e6f5eb" transform="translate(1573.83,130.749) translate(-1573.83,-130.749)" style="animation: 5s linear infinite both a1_t;"/>
    <g>
        <g transform="translate(357.631,943.281) translate(-57.889,-172.911)" style="animation: 5s linear infinite both a2_t;">
            <path class="cls-2" d="M364.15,984.9C364.15,984.9,364.15,965.98,392.53,947.05C420.91,928.12,433.53,890.28,401.99,890.28C370.45,890.28,443,868.2,439.84,843C436.68,817.8,424.07,833.53,420.92,820.92C417.77,808.31,443,751.53,417.77,776.76C392.54,801.99,389.38,824,379.92,802C370.46,780,351.53,789.39,357.84,820.93C364.15,852.47,356.95,856.69,341.62,841.93C326.29,827.17,282.14,820.93,307.37,865.04C332.6,909.15,304.79,921.13,325.01,946.71C345.23,972.29,364.15,953.36,364.15,984.9Z" fill="#c8dfc7" transform="translate(-299.742,-770.371)"/>
            <path class="cls-3" d="M404.44,819.18C404.44,819.18,363.13,890.52,362.44,921.39C361.75,952.26,361.6,965.58,338.38,982.14" stroke="#009c33" stroke-linejoin="round" stroke-width="1.67px" stroke-linecap="round" fill="none" transform="translate(-299.742,-770.371)"/>
            <path class="cls-3" d="M378.49,835.58C378.49,835.58,379.61,859.03,375.23,877.35C375.23,877.35,386.84,863.69,394.18,859.01" stroke="#009c33" stroke-linejoin="round" stroke-width="1.67px" stroke-linecap="round" fill="none" transform="translate(-299.742,-770.371)"/>
            <path class="cls-3" d="M364.19,869.56C364.19,869.56,363.99,897.1,362.76,917.2C362.76,917.2,376.42,894.81,383.76,890.13" stroke="#009c33" stroke-linejoin="round" stroke-width="1.67px" stroke-linecap="round" fill="none" transform="translate(-299.742,-770.371)"/>
        </g>
        <path class="cls-4" d="M374,977.43C374,977.43,353.15,965.85,360.1,924.16C367.05,882.47,354.34,835.92,332.52,809.6C307.05,778.9,265.14,762,265.14,762C265.14,762,244.29,817.59,276.72,875.48C309.15,933.37,357.78,977.43,374,977.43Z" fill="#80ce99"/>
        <path class="cls-5" d="M279.73,788.48C279.73,788.48,332,866,335.69,902.86C339.38,939.72,344.69,959.76,373.99,977.43" stroke="#c8dfc7" stroke-linejoin="round" stroke-width="1.67px" stroke-linecap="round" fill="none"/>
        <path class="cls-5" d="M312.32,805.7C312.32,805.7,312,834,318.9,855.5C318.9,855.5,304.9,840.14,295.72,835.22" stroke="#c8dfc7" stroke-linejoin="round" stroke-width="1.67px" stroke-linecap="round" fill="none"/>
        <path class="cls-5" d="M332.61,845.06C332.61,845.06,327.51,873.33,334.46,894.86C334.46,894.86,320.32,876.42,311.09,871.5" stroke="#c8dfc7" stroke-linejoin="round" stroke-width="1.67px" stroke-linecap="round" fill="none"/>
        <path class="cls-6" d="M168,984.89C168,984.89,293.71,947.57,339.59,957.76C385.47,967.95,397.43,937.37,425.98,933.29C454.53,929.21,450.46,930.23,487.17,946.55C523.88,962.87,568.42,975.34,577.59,971.27C577.59,971.27,591.17,934.27,603.41,930.27C603.41,930.27,589.14,958.82,592.19,968C592.19,968,601.37,937.41,609.53,933.33C609.53,933.33,597.29,960.86,604.43,974.12C604.43,974.12,607.49,956.78,609.53,953.72C609.53,953.72,607.53,973.1,612.59,976.16L712.18,985.34L168,984.89" fill="#66c485"/>
        <g transform="translate(340.303,979.593) translate(-340.303,-979.593)" style="animation: 5s linear infinite both a3_t;">
            <path class="cls-7" d="M243.41,856.44L243.52,856.27C243.52,856.27,286.82,866.27,313.13,884.57C335.68,900.23,348.81,927.93,341.63,952.73C337.53,966.9,342.8,975.22,348.07,979.73C296.41,950.29,247.11,863.07,243.41,856.44Z" fill="#33b05c"/>
            <path class="cls-8" d="M255.48,923.79C223.36,890.79,241.83,859,243.41,856.44C247.11,863.07,296.41,950.29,348.07,979.75C348.652,980.256,349.257,980.735,349.882,981.185C350.508,981.636,351.153,982.058,351.817,982.45C352.481,982.843,353.162,983.205,353.859,983.535C354.555,983.865,355.266,984.164,355.99,984.43C339.24,984.43,289,958.24,255.48,923.79Z" fill="#0b8735"/>
        </g>
        <path class="cls-7" d="M102.1,984.89C102.1,984.89,199,947.57,244.86,957.76C290.72,967.95,301.53,937.37,330.08,933.29C358.63,929.21,354.56,930.23,391.27,946.55C427.98,962.87,480,974.08,489.16,970C489.16,970,495.27,934.31,507.51,930.23C507.51,930.23,493.23,958.78,496.29,967.96C496.29,967.96,505.47,937.37,513.63,933.29C513.63,933.29,501.39,960.82,508.53,974.08C508.53,974.08,511.59,956.74,513.63,953.68C513.63,953.68,511.63,973.06,516.69,976.12L616.28,985.3L72.1,984.89" fill="#33b05c"/>
    </g>
    <ellipse class="cls-9" rx="68" ry="68" fill="#ccebd6" transform="translate(0,0) translate(536.85,169.2)"/>
    <path class="cls-1" d="M546.13,223L546.65,223C546.886,220.174,547.827,217.453,549.388,215.086C550.948,212.719,553.078,210.781,555.582,209.45C558.086,208.12,560.884,207.439,563.719,207.47C566.554,207.502,569.336,208.244,571.81,209.63C573.602,205.815,576.587,202.687,580.314,200.719C584.041,198.751,588.307,198.049,592.468,198.72C596.629,199.391,600.458,201.398,603.378,204.438C606.297,207.478,608.148,211.385,608.65,215.57C610.832,214.465,613.229,213.849,615.673,213.764C618.117,213.68,620.551,214.129,622.804,215.081C625.057,216.033,627.076,217.464,628.719,219.276C630.362,221.087,631.591,223.235,632.32,225.57C632.446,225.541,632.573,225.516,632.701,225.494C632.828,225.472,632.956,225.453,633.085,225.438C633.214,225.423,633.343,225.411,633.472,225.403C633.601,225.395,633.731,225.391,633.86,225.39C637.61,225.39,641.2,226.62,641.44,230.3C642.35,229.41,644.44,228,645.82,228C648.62,228,648.56,230.7,654.25,231.59L527,231.59C535.79,229.28,539.3,223,546.13,223Z" fill="#e6f5eb" transform="translate(590.625,215.031) translate(-590.625,-215.031)" style="animation: 5s linear infinite both a4_t;"/>
    <path class="cls-1" d="M319.45,172C319.77,172,320.08,172,320.4,172C320.831,166.834,322.553,161.86,325.407,157.533C328.261,153.206,332.156,149.665,336.735,147.235C341.314,144.805,346.43,143.565,351.613,143.627C356.796,143.689,361.881,145.051,366.4,147.59C369.677,140.627,375.13,134.918,381.936,131.326C388.742,127.735,396.532,126.455,404.13,127.68C411.728,128.905,418.721,132.569,424.053,138.118C429.386,143.666,432.768,150.8,433.69,158.44C437.681,156.422,442.063,155.299,446.533,155.149C451.002,155,455.45,155.828,459.567,157.575C463.683,159.322,467.369,161.947,470.366,165.266C473.363,168.584,475.6,172.517,476.92,176.79C477.15,176.738,477.382,176.692,477.615,176.652C477.848,176.613,478.082,176.58,478.316,176.553C478.551,176.526,478.786,176.506,479.022,176.492C479.258,176.478,479.494,176.471,479.73,176.47C486.57,176.47,493.13,178.71,493.58,185.47C495.24,183.85,499.07,181.27,501.58,181.27C506.68,181.27,506.58,186.19,516.97,187.83L284.56,187.83C300.57,183.4,307,172,319.45,172Z" fill="#e6f5eb" transform="translate(400.765,157.529) translate(-400.765,-157.529)" style="animation: 5s linear infinite both a5_t;"/>
    <path class="cls-10" d="M1480.79,534.73L1502.07,574.22L1459.51,574.22L1480.79,534.73Z" fill="#4dba71"/>
    <path class="cls-10" d="M1635.28,534.73L1656.56,574.22L1614,574.22L1635.28,534.73Z" fill="#4dba71"/>
    <g>
        <rect class="cls-11" width="489.66" height="25.72" fill="#b3e1c2" transform="translate(0,0) translate(1327.32,664.96)"/>
        <rect class="cls-11" width="489.66" height="25.72" fill="#b3e1c2" transform="translate(0,0) translate(1327.32,809.13)"/>
        <rect class="cls-11" width="489.66" height="25.72" fill="#b3e1c2" transform="translate(0,0) translate(1327.32,943.8)"/>
        <g>
            <rect class="cls-11" width="39.33" height="379.9" fill="#b3e1c2" transform="translate(0,0) translate(1431.32,605.4)"/>
            <path class="cls-11" d="M1450.99,568.9L1470.65,605.4L1431.32,605.4L1450.99,568.9Z" fill="#b3e1c2"/>
        </g>
        <g>
            <rect class="cls-11" width="39.33" height="379.9" fill="#b3e1c2" transform="translate(0,0) translate(1585.8,605.4)"/>
            <path class="cls-11" d="M1605.46,568.9L1625.13,605.4L1585.8,605.4L1605.46,568.9Z" fill="#b3e1c2"/>
        </g>
        <g>
            <rect class="cls-11" width="39.33" height="379.9" fill="#b3e1c2" transform="translate(0,0) translate(1728.8,605.4)"/>
            <path class="cls-11" d="M1748.46,568.9L1768.13,605.4L1728.8,605.4L1748.46,568.9Z" fill="#b3e1c2"/>
        </g>
        <rect class="cls-11" width="39.33" height="379.9" fill="#b3e1c2" transform="translate(0,0) translate(1327.32,605.4)"/>
        <path class="cls-11" d="M1346.99,568.9L1366.65,605.4L1327.32,605.4L1346.99,568.9Z" fill="#b3e1c2"/>
        <rect class="cls-12" width="357.47" height="43.79" fill="#009c33" transform="translate(0,0) translate(1459.51,634.03)"/>
        <rect class="cls-12" width="357.47" height="43.79" fill="#009c33" transform="translate(0,0) translate(1459.51,773.45)"/>
        <rect class="cls-12" width="357.47" height="43.79" fill="#009c33" transform="translate(0,0) translate(1459.51,912.87)"/>
        <rect class="cls-10" width="42.55" height="411.08" fill="#4dba71" transform="translate(0,0) translate(1459.51,574.22)"/>
        <rect class="cls-10" width="42.55" height="411.08" fill="#4dba71" transform="translate(0,0) translate(1614,574.22)"/>
        <path class="cls-10" d="M1459.51,773.45L1258.98,985.29L1302.98,985.29L1459.51,817.24L1459.51,773.45Z" fill="#4dba71"/>
        <path class="cls-13" d="M1363.31,875.09L1448.39,947.23L1446.98,958.4L1435.65,956.66L1446.92,966.3L1438.22,969.52L1341.65,897.97L1363.31,875.09Z" fill="#59b267"/>
        <path class="cls-11" d="M1327.32,809.13L1219.98,985.29L1244.48,985.29L1327.32,845.07L1327.32,809.13Z" fill="#b3e1c2"/>
        <rect class="cls-12" width="134" height="44" fill="#009c33" opacity="1" transform="translate(0,0) translate(1326,634)" style="animation: 5s linear infinite both a6_o;"/>
        <g id="crack" opacity="0" style="animation: 5s linear infinite both crack_o;">
            <path class="cls-11" d="M1349.01,682.96L1298.53,733.43L1297.82,725.52L1289.66,724.56L1289.57,719.39L1288.2,711.14L1280.35,715.25L1330.82,664.77L1349.01,682.96Z" fill="#b3e1c2"/>
            <path class="cls-10" d="M1459.72,676.27L1376.95,749.77L1375.79,736.85L1362.88,740.86L1362.74,732.43L1360.5,718.97L1347.69,725.67L1459.72,632.48L1459.72,676.27Z" fill="#4dba71"/>
        </g>
    </g>
    <path class="cls-2" d="M1259.11,743.69L1258.98,747.9L1265.61,747.94L1259.11,757.44L1254.73,751.32L1257.11,739.44L1259.11,743.69Z" fill="#c8dfc7"/>
    <g opacity="0" style="transform: translate(-1440.23px,-438.03px); animation: 5s linear infinite both a7_o, 5s linear infinite both a7_mo; offset-path: path('M1392.23,620.414L1392.23,620.414C1392.23,620.414,1469.63,239.495,1807.1,261.268C2144.57,283.04,1807.1,261.268,1807.1,261.268'); offset-rotate: 0deg;">
        <path class="cls-10" d="M1406.38,453.14L1539.73,417.06L1531.98,427.18L1547.64,427.23L1541.97,433.68L1558.48,434.81L1552.35,442.46L1376.2,486.5L1389.01,467.14L1406.6,464.79L1406.38,453.14Z" fill="#4dba71"/>
        <path class="cls-10" d="M1464.65,370.85L1432.98,368.02L1434.82,361.02L1429.15,358.71L1430.33,353.27L1426.32,350.06L1428.84,347.74L1467.34,355.25L1465.32,359.29L1456.98,363.02L1464.65,370.85Z" fill="#4dba71"/>
        <path class="cls-13" d="M1328.73,508.81L1335.23,506.56L1335.23,513.07L1328.73,522.57L1321.98,528.32L1326.73,504.56L1328.73,508.81Z" fill="#59b267"/>
        <path class="cls-10" d="M1353.67,424.04L1356.14,429.02L1359.82,425.28L1361.46,416.12L1360.83,408.97L1350.11,425.36L1353.67,424.04Z" fill="#4dba71"/>
    </g>
    <g id="horse" transform="translate(946.016,646.41) translate(-858.979,-646.41)" style="animation: 5s linear infinite both horse_t;">
        <g>
            <path class="cls-14" d="M715.47,673.76L642.82,652.56C642.82,652.56,645.88,732.56,627.9,759.16C613.08,781.05,615.08,820.91,611.69,854.69C612.767,856.682,613.757,858.72,614.656,860.798C615.555,862.876,616.363,864.993,617.078,867.142C617.793,869.29,618.413,871.469,618.937,873.672C619.462,875.875,619.89,878.1,620.22,880.34C621.77,889.91,626.93,897.49,631.97,902.93C636.31,875.59,644.97,836.11,648.1,821.26C652.34,801.28,715.47,673.76,715.47,673.76Z" fill="url(#Gradient-0)"/>
            <path class="cls-15" d="M611.69,854.69C611.533,856.419,611.349,858.146,611.141,859.87C610.933,861.593,610.699,863.314,610.439,865.031C610.18,866.748,609.895,868.461,609.585,870.169C609.275,871.878,608.94,873.581,608.58,875.28C600.44,911.79,581.3,938.94,571.58,949.35C558.18,963.68,550.82,985.77,550.82,985.77L596.54,988C596.54,988,593.47,963.94,607.54,958.55C621.61,953.16,629.17,941.33,629.38,925.44C629.45,920.44,630.45,912.39,631.95,902.93C626.95,897.49,621.75,889.93,620.2,880.34C619.871,878.1,619.445,875.876,618.922,873.673C618.399,871.47,617.781,869.291,617.068,867.143C616.355,864.994,615.548,862.877,614.651,860.799C613.753,858.72,612.765,856.682,611.69,854.69Z" fill="#007d29"/>
        </g>
        <g id="horse_body" transform="translate(697.662,657.16) translate(-697.662,-657.16)" style="animation: 5s linear infinite both horse_body_t;">
            <g transform="translate(1034.68,671.879) translate(-1034.68,-671.879)" style="animation: 5s linear infinite both a8_t;">
                <path class="cls-16" d="M1112.87,884.69C1114.33,886.7,1115.89,888.634,1117.55,890.485C1119.21,892.335,1120.96,894.1,1122.8,895.772C1124.64,897.444,1126.56,899.021,1128.56,900.497C1130.56,901.973,1132.63,903.345,1134.77,904.61C1132,879,1126.69,834.74,1117,801.55C1111,780.86,1084.7,750.07,1088.9,734.35C1104.17,677.05,1117,626.84,1117,626.84L933.88,655.63C933.88,655.63,974.42,748.63,999.03,769.87C1023.64,791.11,1067.95,811.87,1075.33,824.05C1077.85,828.21,1080.96,840.6,1083.77,855.43C1091.88,861.75,1103.37,871.85,1112.87,884.69Z" fill="url(#Gradient-1)"/>
                <path class="cls-15" d="M1090.1,926.66C1068,960.07,1068,980,1068,980L1111.07,980.38C1111.07,980.38,1107.24,955.68,1119.7,951.2C1132.16,946.72,1139.38,941.31,1136.92,923.61C1136.49,920.54,1135.81,913.72,1134.82,904.61C1132.68,903.345,1130.61,901.973,1128.61,900.497C1126.61,899.021,1124.69,897.444,1122.85,895.772C1121.01,894.1,1119.26,892.335,1117.6,890.485C1115.94,888.634,1114.38,886.7,1112.92,884.69C1103.42,871.85,1091.92,861.75,1083.82,855.43C1089.17,884,1093.43,921.65,1090.1,926.66Z" fill="#007d29"/>
            </g>
            <g>
                <path class="cls-12" d="M468.58,368.65C468.58,368.65,533.84,349.05,585.58,368.65C650.04,393.09,678.18,444.32,693.72,466.52C709.26,488.72,585.5,423.52,585.5,423.52L482.59,392.79Z" fill="#009c33"/>
                <path class="cls-17" d="M1105.18,558.87C1105.18,558.87,1135.32,545.4,1166.18,567.3C1186.6,581.77,1187.45,599.44,1184.18,701.75C1181.92,771.63,1244.36,829.21,1294.18,800.6C1279.42,792.29,1274.8,772.91,1274.8,772.91C1274.8,772.91,1304.34,777.52,1320.03,755.37C1334.23,735.37,1318.18,715.68,1318.18,715.68C1318.18,715.68,1300.64,754.45,1273.88,725.76C1266.22,717.55,1248.48,684.59,1239.25,631.13C1230.02,577.67,1201.65,528.05,1141.59,530.04C1094.07,531.62,1093.15,543.18,1093.15,543.18Z" fill="url(#Gradient-2)" transform="translate(1105.7,546.793) rotate(10) translate(-1105.7,-546.793)" style="animation: 5s linear infinite both a9_t;"/>
                <path class="cls-12" d="M449.32,338.53C449.32,338.53,442.56,322.12,451.32,301.14C460.08,280.16,465.14,275.86,465.14,275.86C465.14,275.86,478.38,295.24,472.53,314.5C466.68,333.76,460.94,342.19,460.94,342.19Z" fill="#009c33"/>
                <g>
                    <path class="cls-18" d="M1037.17,485.52C986.23,468.15,923.72,494.89,866.49,507.88C821.65,518.05,750.7,503.54,706.74,479.15C668.48,457.93,644.49,404.34,609.84,369.55C597.41,357.06,559.84,333.45,537.12,324.6C516.58,316.6,480.47,307.6,462.92,330.95C461.34,330.95,461.32,331.89,460.34,332.32C463.91,333.64,467.01,335.74,470.49,337.15C461.12,353.04,458.49,355.69,447.75,374.53C437.01,393.37,432.24,430.53,422.07,452.05C416.24,464.34,409.97,462.23,399.87,467.14C398.45,471.48,393.12,483.63,392.57,486.88C389.35,506.09,401.88,513.44,418.22,514.05C423.59,519.89,428.43,523.73,437.47,519.12C446.51,514.51,451.07,507.28,458.12,496.97C465.17,486.66,486.26,475.08,498.12,465.05C504.54,459.62,518.12,451.34,522.12,444.05C531.32,458.88,544.19,508.05,547.12,520.8C554.06,550.8,562.59,646.92,600.59,678.98C638.59,711.04,744,734.52,799,735.9C854,737.28,905.42,733.26,952.06,713.34C993.36,695.71,1035.66,731.08,1075.06,714.82C1114.46,698.56,1124.25,662.99,1139.9,609.94C1152.35,567.87,1093.93,504.86,1037.17,485.52Z" fill="url(#Gradient-3)"/>
                    <path class="cls-6" d="M447.75,374.52C458.51,355.76,461.14,352.99,470.49,337.16C467.03,335.65,463.86,333.81,460.39,332.16C452.48,340.11,447.18,342.4,441.78,353.57C434.61,368.4,437.24,367.03,429.78,390.31C424.88,405.53,407.78,447.31,399.9,467.12C409.31,464.12,416.34,464.12,422.12,451.96C432.19,430.7,437,393.29,447.75,374.52Z" fill="#66c485"/>
                </g>
                <path class="cls-19" d="M435.18,367.85C435.18,367.85,442.23,352.8,449.32,338.53C462,313,495.82,316,495.82,316L486.21,389.88Z" fill="url(#Gradient-4)"/>
                <path class="cls-12" d="M396.15,476.77C396.15,476.77,416.69,478.85,428.9,483.77C441.11,488.69,457.12,498.34,457.12,498.34L463.35,491.13C460.628,489.241,457.847,487.438,455.012,485.722C452.177,484.006,449.29,482.379,446.353,480.844C443.417,479.308,440.434,477.864,437.408,476.514C434.382,475.164,431.314,473.909,428.21,472.75C425.872,471.96,423.508,471.252,421.121,470.627C418.734,470.002,416.326,469.46,413.901,469.003C411.476,468.545,409.036,468.173,406.585,467.885C404.135,467.598,401.675,467.396,399.21,467.28Z" fill="#009c33"/>
                <path class="cls-12" d="M430.54,387.84C430.54,387.84,449.19,385.67,459.02,383.29C473.08,379.88,486.21,389.87,486.21,389.87L491.01,376.14C491.183,375.643,491.255,375.117,491.222,374.592C491.188,374.067,491.05,373.554,490.815,373.083C490.58,372.613,490.254,372.194,489.854,371.852C489.455,371.509,488.991,371.25,488.49,371.09C476.9,367.43,442.94,357.09,438.42,360.66C436.363,362.157,434.568,363.984,433.107,366.067C431.646,368.149,430.539,370.459,429.831,372.902C429.122,375.345,428.822,377.889,428.943,380.43C429.064,382.971,429.603,385.475,430.54,387.84Z" fill="#009c33"/>
                <path class="cls-20" d="M445.82,496.65C440.214,496.65,435.16,493.273,433.015,488.094C430.87,482.915,432.056,476.953,436.02,472.99C439.983,469.026,445.945,467.84,451.124,469.985C456.303,472.13,459.68,477.184,459.68,482.79C459.677,484.609,459.317,486.411,458.62,488.091C457.922,489.771,456.901,491.298,455.615,492.585C454.328,493.871,452.801,494.892,451.121,495.59C449.441,496.287,447.639,496.647,445.82,496.65ZM445.82,473.77C442.18,473.77,438.898,475.963,437.505,479.326C436.112,482.689,436.882,486.56,439.456,489.134C442.03,491.708,445.901,492.478,449.264,491.085C452.627,489.692,454.82,486.41,454.82,482.77C454.82,481.588,454.587,480.418,454.135,479.326C453.683,478.234,453.02,477.242,452.184,476.406C451.348,475.57,450.356,474.907,449.264,474.455C448.172,474.003,447.002,473.77,445.82,473.77Z" fill="#fff"/>
                <path class="cls-12" d="M486.21,389.87C486.21,389.87,491.21,397.31,476.79,433.57C466.56,459.25,445.79,473.77,445.79,473.77C445.79,473.77,451.98,474.51,454.23,479.62C454.23,479.62,477.6,468.77,488.49,438.43C498.14,411.57,501.68,379.9,490.31,374.9C489.21,380.34,486.21,389.87,486.21,389.87Z" fill="#009c33"/>
                <path class="cls-21" d="M461.15,349.67C461.15,349.67,458.63,318.67,469.69,298.6C480.75,278.53,487.54,276.53,487.54,276.53C487.54,276.53,495.62,332.53,484.34,349.62C469.72,364.23,461.15,349.67,461.15,349.67Z" fill="url(#Gradient-5)"/>
            </g>
            <path class="cls-22" d="M546.08,436.57C546.08,436.57,565,467.76,582,543.38C599,619,615.09,675.72,695.43,690.84C775.77,705.96,952.637,701.977,1010.31,654.677L1050.18,714.529C1050.18,714.529,806.03,760.79,677.47,719.2C548.91,677.61,562.15,609.55,550.81,563.2C539.47,516.85,522.45,444.1,522.45,444.1C522.45,444.1,536.63,445.08,546.08,436.57Z" fill="url(#Gradient-6)"/>
            <g transform="translate(1073.9,607.996) translate(-1073.9,-607.996)" style="animation: 5s linear infinite both a10_t;">
                <g transform="translate(950.7,777.49) translate(-950.7,-777.49)" style="animation: 5s linear infinite both a11_t;">
                    <path class="cls-23" d="M933.19,762C914.63,780.82,909.33,820.37,899.84,853C900.536,855.154,901.136,857.338,901.641,859.545C902.146,861.752,902.554,863.98,902.864,866.223C903.174,868.465,903.385,870.72,903.498,872.982C903.611,875.243,903.625,877.508,903.54,879.77C903.33,889.46,907.02,897.85,910.98,904.12C920.24,878.03,959.98,804.12,965.78,790.12C973.59,771.13,955.71,739.11,933.19,762Z" fill="url(#Gradient-7)"/>
                    <path class="cls-24" d="M899.84,852.93C899.367,854.6,898.869,856.263,898.347,857.918C897.825,859.574,897.279,861.221,896.709,862.86C896.138,864.5,895.544,866.131,894.926,867.752C894.308,869.374,893.666,870.987,893,872.59C878.34,907.01,854.56,930.22,843.1,938.68C827.31,950.32,814.17,980.19,814.17,980.19L860.61,981.19C860.61,981.19,861.98,956.97,876.81,954.19C891.64,951.41,901.22,941.19,904.32,925.62C905.32,920.7,907.75,912.99,910.95,903.96C906.95,897.69,903.3,889.3,903.51,879.61C903.595,877.356,903.581,875.098,903.47,872.845C903.358,870.592,903.148,868.345,902.841,866.11C902.533,863.875,902.129,861.654,901.628,859.454C901.127,857.255,900.53,855.078,899.84,852.93Z" fill="url(#Gradient-8)"/>
                </g>
                <path class="cls-25" d="M928.54,766C928.54,766,947.23,711.3,952.54,687C959.16,656.75,966.81,625.49,978.47,606C1021.55,533.89,1140.65,572.64,1131.2,638.81C1124.36,686.68,1063.14,734.28,1030.06,744.68C1007.51,751.76,974.14,781.43,963.89,794.78C953.64,808.13,917.21,794.23,928.54,766Z" fill="url(#Gradient-9)"/>
            </g>
        </g>
        <g>
            <g>
                <path class="cls-26" d="M570,774.9C568.68,801.3,591.07,834.34,605.69,864.99C607.644,866.134,609.548,867.362,611.395,868.672C613.242,869.982,615.031,871.372,616.756,872.838C618.482,874.304,620.143,875.845,621.734,877.456C623.325,879.067,624.845,880.746,626.29,882.49C632.57,889.87,640.92,893.67,648.05,895.71C637.58,870.08,619.43,801.47,614.42,787.15C607.69,767.86,571.6,742.87,570,774.9Z" fill="url(#Gradient-10)"/>
                <path class="cls-27" d="M605.7,865C606.46,866.559,607.197,868.129,607.911,869.71C608.625,871.29,609.315,872.881,609.983,874.482C610.65,876.083,611.293,877.694,611.913,879.314C612.532,880.934,613.128,882.563,613.7,884.2C625.7,919.64,623.4,952.79,620.47,966.73C616.47,985.93,626.54,1016.96,626.54,1016.96L661.87,986.83C661.87,986.83,646.78,967.83,656.02,955.93C665.26,944.03,665.58,929.99,657.52,916.29C654.97,911.96,651.66,904.58,648.04,895.72C640.91,893.72,632.56,889.88,626.28,882.5C624.837,880.757,623.318,879.077,621.729,877.467C620.139,875.856,618.48,874.315,616.756,872.849C615.032,871.383,613.245,869.993,611.399,868.683C609.554,867.373,607.652,866.144,605.7,865Z" fill="url(#Gradient-11)"/>
            </g>
            <path class="cls-28" d="M575.38,759.85C575.38,759.85,607.81,715.45,622.79,695.59C637.77,675.73,641.55,623.73,663.29,617.11C685.03,610.49,752.15,630.35,748.37,678.56C744.59,726.77,678.37,734.33,659.51,748.5C640.65,762.67,617.92,787.26,604.69,797.66C591.46,808.06,557.42,784.42,575.38,759.85Z" fill="url(#Gradient-12)"/>
        </g>
    </g>
</svg>
