<svg xmlns="http://www.w3.org/2000/svg" xmlns:xlink="http://www.w3.org/1999/xlink" viewBox="0 0 1440 2999.71"><defs><style>.cls-1,.cls-6,.cls-8{fill:#e6f5eb;}.cls-2{fill:none;stroke:#e6f5eb;stroke-linecap:round;stroke-linejoin:round;stroke-width:47px;}.cls-3{fill:#80ce99;}.cls-4{fill:url(#HDI_Verlauf_dunkel);}.cls-5{fill:url(#HDI_Verlauf_dunkel-2);}.cls-6,.cls-8{font-size:16px;font-family:HDI-GerlingSansCond-Bold, HDI-Gerling Sans;font-weight:700;}.cls-6{letter-spacing:-0.07em;}.cls-7{letter-spacing:0em;}</style><linearGradient id="HDI_Verlauf_dunkel" x1="-1222.33" y1="8480.04" x2="-1097.43" y2="8480.04" gradientTransform="matrix(0, 1, 1, 0, -7312.81, 3343.34)" gradientUnits="userSpaceOnUse"><stop offset="0" stop-color="#4dba71"/><stop offset="1" stop-color="#007d29"/></linearGradient><linearGradient id="HDI_Verlauf_dunkel-2" x1="-1222.33" y1="8445.16" x2="-1147.59" y2="8445.16" xlink:href="#HDI_Verlauf_dunkel"/></defs><g id="Ebene_75" data-name="Ebene 75"><ellipse class="cls-1" cx="378.54" cy="1378.17" rx="1.89" ry="9.29" transform="translate(-1008.68 1722.06) rotate(-88.56)"/><ellipse class="cls-1" cx="288.54" cy="1381.91" rx="1.89" ry="9.29" transform="translate(-1100.16 1635.74) rotate(-88.56)"/><ellipse class="cls-1" cx="347.89" cy="1378.34" rx="0.94" ry="2.77" transform="translate(-1038.74 1691.59) rotate(-88.56)"/><ellipse class="cls-1" cx="342.71" cy="1383.27" rx="0.78" ry="2.28" transform="translate(-1048.71 1691.21) rotate(-88.56)"/><ellipse class="cls-1" cx="317.02" cy="1377.57" rx="0.78" ry="2.28" transform="translate(-1068.06 1659.97) rotate(-88.56)"/><path class="cls-1" d="M326.87,1375l5.86.15,5.87.15-5.87-.15Z"/><ellipse class="cls-1" cx="524.07" cy="1904.28" rx="3.59" ry="6.03" transform="translate(-1436.3 2144.85) rotate(-81.61)"/><ellipse class="cls-1" cx="464.73" cy="1907.07" rx="3.59" ry="6.03" transform="translate(-1489.74 2088.52) rotate(-81.61)"/><circle class="cls-1" cx="504.15" cy="1903.16" r="1.8"/><circle class="cls-1" cx="499.5" cy="1912.2" r="1.48"/><circle class="cls-1" cx="484.33" cy="1900.23" r="1.48"/><path class="cls-1" d="M491.39,1895.83l3.77.55,3.76.56-3.76-.56Z"/><ellipse class="cls-1" cx="122.16" cy="1568.66" rx="6.03" ry="3.59" transform="translate(-1451.09 1590.85) rotate(-86.36)"/><ellipse class="cls-1" cx="114.47" cy="1509.75" rx="6.03" ry="3.59" transform="translate(-1399.5 1528.01) rotate(-86.36)"/><circle class="cls-1" cx="121.63" cy="1548.71" r="1.8"/><circle class="cls-1" cx="112.23" cy="1544.83" r="1.48"/><circle class="cls-1" cx="122.9" cy="1528.72" r="1.48"/><path class="cls-1" d="M127.88,1535.39l-.24,3.8-.24,3.8.24-3.8Z"/><ellipse class="cls-1" cx="1052.72" cy="1902.15" rx="2.61" ry="6.03" transform="translate(-982.7 2666.02) rotate(-81.61)"/><ellipse class="cls-1" cx="993.83" cy="1901.86" rx="2.61" ry="6.03" transform="translate(-1032.71 2607.5) rotate(-81.61)"/><ellipse class="cls-1" cx="1032.86" cy="1900.55" rx="1.31" ry="1.8" transform="matrix(0.15, -0.99, 0.99, 0.15, -998.06, 2645)"/><ellipse class="cls-1" cx="1028.6" cy="1906.99" rx="1.08" ry="1.48" transform="translate(-1008.08 2646.29) rotate(-81.61)"/><ellipse class="cls-1" cx="1013.05" cy="1897.62" rx="1.08" ry="1.48" transform="translate(-1012.1 2622.9) rotate(-81.61)"/><path class="cls-1" d="M1019.89,1894.67l3.77.55,3.76.56-3.76-.56Z"/><ellipse class="cls-1" cx="1300.95" cy="2456.14" rx="6.03" ry="2.61" transform="translate(-1211.81 3644.05) rotate(-87.39)"/><ellipse class="cls-1" cx="1306.6" cy="2514.76" rx="6.03" ry="2.61" transform="translate(-1264.98 3705.64) rotate(-87.39)"/><ellipse class="cls-1" cx="1301.35" cy="2476.05" rx="1.8" ry="1.31" transform="translate(-1231.32 3663.46) rotate(-87.39)"/><ellipse class="cls-1" cx="1308.19" cy="2479.65" rx="1.48" ry="1.08" transform="matrix(0.05, -1, 1, 0.05, -1228.38, 3673.73)"/><ellipse class="cls-1" cx="1300.44" cy="2496.06" rx="1.48" ry="1.08" transform="translate(-1252.18 3681.65) rotate(-87.39)"/><path class="cls-1" d="M1296.81,2489.55l.18-3.8.17-3.81-.17,3.81Z"/><path class="cls-1" d="M278.83,1915.58c6.34,1.91,103.4-11.41,142.73-12.68s88.81,13.95,108.47,16.49S278.83,1915.58,278.83,1915.58Z"/><path class="cls-1" d="M845.31,1911.41c2.54,1.64,66-6.12,90.08-8.59s46.31-2.61,53.92,0,20.3.56,48.21,0,53.58,22.28,53.58,22.28l-222.59,7.61Z"/><path class="cls-1" d="M734.38,1110s10.7,32.35,10.7,43.77-6.13,35.52-5,48.21,1.17,34.89,1.8,47.58-15.22,41.18-15.22,41.18Z"/><path class="cls-1" d="M885.91,544.88s69.14-7.93,82.47-6.66,19,1.45,43.13,3.26,62.8-2.9,74.22-3.39,105.31,14.09,125,16-302.59,14-302.59,14Z"/><path class="cls-1" d="M287.07,1385.58s31.4-7.62,38.07-7.62,20.93,5.71,29.49,3.81,69.47-4.76,88.5-3.81,29.12,6.67,41.2,7.62,65.37-8.94,87.25-7.8,48.53,22.07,48.53,22.07l-256,7.82Z"/><path class="cls-1" d="M551.6,2654s42.82-7.61,56.14-8.56c0,0,34.26,5.71,52.34,8.56s37.51-4.76,50.63-8.56,36.91-7.62,53.09-5.71,27.59-4.82,46.62-.51,25.69,8.67,47.58,7,43.77-4,58,0,12.37,22.08,12.37,22.08l-371.1,5.28Z"/></g><g id="Straße"><path id="Straße-2" data-name="Straße" class="cls-2" d="M1300.15,567.57s-459.43,1-472.67,1c-24.72,0-108.69-6.11-108.69,119.51l-4.53,614.63s-.42,104.92-97.47,104.92H214.43c-47.25,0-124.88,11.51-124.88,158.38v174.61c0,99.94,45.91,192,170.25,192h803.1c83.09,0,269-11.42,269,200.46v293.07c0,100.23,3.81,246-213.15,246H317.27"/><path class="cls-1" d="M1236.36,544.91s85-3.8,98.32,9.52,50.67,17.84,56.21,19.11,20.68,4.59,27.66,7.76,13.85,11.5,3.7,10.23-21-1.33-31.11-1.33-114.19.53-114.19.53Z"/><ellipse class="cls-1" cx="1375.67" cy="606.68" rx="6.03" ry="3.59"/><ellipse class="cls-1" cx="1388.59" cy="565.63" rx="11.68" ry="2.7"/><ellipse class="cls-1" cx="1433.97" cy="595.26" rx="6.03" ry="3.59"/><circle class="cls-1" cx="1395.55" cy="604.88" r="1.8"/><circle class="cls-1" cx="1369.76" cy="569.86" r="1.8"/><circle class="cls-1" cx="1398.82" cy="595.26" r="1.48"/><circle class="cls-1" cx="1415.58" cy="604.88" r="1.48"/><ellipse class="cls-1" cx="1401.37" cy="571.5" rx="4.06" ry="1.64"/><path class="cls-1" d="M1307.73,2206.76s-17.91,72.44-10.84,88,2.13,3.34,4.59,40.12,2.25,49,0,85.82,16.59,111.44,16.59,111.44v-293.1Z"/><path class="cls-1" d="M107.23,1481.68s16.18,105.51,14.28,129.42-7.46,17.94-7.06,55-8.51,38.12-1.45,62,4,34.26,8.78,83.74c3.19,33-22.33,38.25-22.33,38.25Z"/></g><g id="Platzhalter_Inhalte_Website" data-name="Platzhalter Inhalte Website"><path class="cls-1" d="M322,2650.17s-26-.63-46.94,6.35-27.28,11.28-32.35,11.42-24.11-3.29-34.89,5.59-48.21,9.63-64.71,14.07-38.06,3.81-34.89,7.61,258.82,0,258.82,0Z"/><ellipse class="cls-1" cx="59.83" cy="2700.26" rx="1.36" ry="6.03" transform="translate(-2640.36 2637.23) rotate(-87.39)"/><ellipse class="cls-1" cx="1.39" cy="2701.93" rx="1.36" ry="6.03" transform="translate(-2697.81 2580.45) rotate(-87.39)"/><ellipse class="cls-1" cx="39.94" cy="2700.03" rx="0.68" ry="1.8" transform="translate(-2659.12 2617.15) rotate(-87.39)"/><ellipse class="cls-1" cx="36.5" cy="2703.53" rx="0.56" ry="1.48" transform="translate(-2665.89 2617.05) rotate(-87.39)"/><ellipse class="cls-1" cx="19.93" cy="2699.12" rx="0.56" ry="1.48" transform="matrix(0.05, -1, 1, 0.05, -2677.31, 2596.29)"/><path class="cls-1" d="M26.36,2697.37l3.8.17,3.8.18-3.8-.18Z"/><ellipse class="cls-1" cx="78.43" cy="2700.5" rx="6.03" ry="3.59"/><ellipse class="cls-1" cx="700.62" cy="2645.38" rx="1.36" ry="6.03" transform="translate(-1973.88 3224.98) rotate(-87.39)"/><ellipse class="cls-1" cx="642.18" cy="2647.05" rx="1.36" ry="6.03" transform="translate(-2031.34 3168.2) rotate(-87.39)"/><ellipse class="cls-1" cx="680.73" cy="2645.16" rx="0.68" ry="1.8" transform="translate(-1992.64 3204.9) rotate(-87.39)"/><ellipse class="cls-1" cx="677.29" cy="2648.65" rx="0.56" ry="1.48" transform="translate(-1999.42 3204.8) rotate(-87.39)"/><ellipse class="cls-1" cx="660.72" cy="2644.25" rx="0.56" ry="1.48" transform="translate(-2010.83 3184.04) rotate(-87.39)"/><path class="cls-1" d="M667.15,2642.49l3.81.18,3.8.17-3.8-.17Z"/><ellipse class="cls-1" cx="719.22" cy="2645.62" rx="6.03" ry="3.59"/><ellipse class="cls-1" cx="136.73" cy="2689.08" rx="6.03" ry="3.59"/><circle class="cls-1" cx="98.3" cy="2698.7" r="1.8"/><circle class="cls-1" cx="101.58" cy="2689.08" r="1.48"/><circle class="cls-1" cx="118.33" cy="2698.7" r="1.48"/></g><g id="Wegpfeile"><polygon class="cls-3" points="1308.28 2118.03 1307.86 2109.79 1113.48 2109.79 1113.48 2118.03 1308.28 2118.03"/><polygon class="cls-4" points="1180.87 2229.07 1180.87 2121.02 1153.59 2121.02 1153.59 2229.07 1167.23 2245.91 1180.87 2229.07"/><polygon class="cls-5" points="1145.99 2178.91 1145.99 2121.02 1118.71 2121.02 1118.71 2178.91 1132.35 2195.76 1145.99 2178.91"/><text class="cls-6" transform="translate(1173.26 2228.2) rotate(-90)">T<tspan class="cls-7" x="6.5" y="0">ARIFRECHNER</tspan></text><text class="cls-8" transform="translate(1138.33 2156.55) rotate(-90)">HDI-</text></g></svg>