<?xml version="1.0" encoding="UTF-8" standalone="no"?>
<!-- Created with Keyshape -->
<svg xmlns="http://www.w3.org/2000/svg" viewBox="0 0 1920 1080">
    <defs>
        <linearGradient id="Gradient-0" x1="1369.22" y1="792.22" x2="1581.75" y2="792.22" gradientUnits="userSpaceOnUse" gradientTransform="matrix(-1 0 0 1 1890.03 0)">
            <stop offset="0" stop-color="#4dba71"/>
            <stop offset="1" stop-color="#007d29"/>
        </linearGradient>
        <linearGradient id="Gradient-1" x1="1872.45" y1="709.63" x2="1465.51" y2="672.28" gradientUnits="userSpaceOnUse">
            <stop offset="0" stop-color="#4dba71"/>
            <stop offset="1" stop-color="#007d29"/>
        </linearGradient>
        <linearGradient id="Gradient-2" x1="1108.99" y1="1880.49" x2="1280.17" y2="1572.37" gradientUnits="userSpaceOnUse" gradientTransform="matrix(-1 0.01 0.01 1 1974.7 -993.55)">
            <stop offset="0" stop-color="#4dba71"/>
            <stop offset="1" stop-color="#007d29"/>
        </linearGradient>
        <linearGradient id="Gradient-3" x1="565.94" y1="919.67" x2="598.6" y2="1093.11" gradientUnits="userSpaceOnUse" gradientTransform="matrix(-0.76 0.65 0.65 0.76 688.31 -180.59)">
            <stop offset="0" stop-color="#4dba71"/>
            <stop offset="1" stop-color="#007d29"/>
        </linearGradient>
        <linearGradient id="Gradient-4" x1="601.17" y1="900.89" x2="764.47" y2="606.94" gradientUnits="userSpaceOnUse" gradientTransform="matrix(-1 -0.1 -0.1 1 1521.48 68.12)">
            <stop offset="0" stop-color="#4dba71"/>
            <stop offset="1" stop-color="#007d29"/>
        </linearGradient>
        <linearGradient id="Gradient-5" x1="681.09" y1="971.34" x2="711.5" y2="207.75" gradientUnits="userSpaceOnUse">
            <stop offset="0" stop-color="#b3e1c2"/>
            <stop offset="1" stop-color="#4dba71"/>
        </linearGradient>
        <linearGradient id="Gradient-6" x1="706.45" y1="790.82" x2="691.1" y2="554.49" gradientUnits="userSpaceOnUse">
            <stop offset="0" stop-color="#4dba71"/>
            <stop offset="1" stop-color="#007d29"/>
        </linearGradient>
        <linearGradient id="Gradient-7" x1="846.64" y1="267.01" x2="905.29" y2="267.01" gradientUnits="userSpaceOnUse" gradientTransform="matrix(-0.94 0.33 0.33 0.94 1748.02 -192.77)">
            <stop offset="0" stop-color="#4dba71"/>
            <stop offset="1" stop-color="#007d29"/>
        </linearGradient>
        <linearGradient id="Gradient-8" x1="1023.22" y1="302.58" x2="968.22" y2="341.58" gradientUnits="userSpaceOnUse">
            <stop offset="0" stop-color="#b3e1c2"/>
            <stop offset="1" stop-color="#66c485"/>
        </linearGradient>
        <linearGradient id="Gradient-9" x1="880.93" y1="979.3" x2="911.34" y2="215.71" gradientUnits="userSpaceOnUse">
            <stop offset="0" stop-color="#b3e1c2"/>
            <stop offset="1" stop-color="#4dba71"/>
        </linearGradient>
        <linearGradient id="Gradient-10" x1="569.86" y1="855.1" x2="602.52" y2="1028.55" gradientUnits="userSpaceOnUse" gradientTransform="matrix(-1 0 0 1 1444.27 0)">
            <stop offset="0" stop-color="#4dba71"/>
            <stop offset="1" stop-color="#007d29"/>
        </linearGradient>
        <linearGradient id="Gradient-11" x1="822.97" y1="976.99" x2="853.37" y2="213.4" gradientUnits="userSpaceOnUse">
            <stop offset="0" stop-color="#b3e1c2"/>
            <stop offset="1" stop-color="#4dba71"/>
        </linearGradient>
        <linearGradient id="Gradient-12" x1="1190.31" y1="358.41" x2="1286.26" y2="358.41" gradientUnits="userSpaceOnUse" gradientTransform="matrix(-1 0 0 1 1890.03 0)">
            <stop offset="0" stop-color="#b3e1c2"/>
            <stop offset="1" stop-color="#4dba71"/>
        </linearGradient>
        <linearGradient id="Gradient-13" x1="1163.74" y1="610.33" x2="1257.89" y2="610.33" gradientUnits="userSpaceOnUse">
            <stop offset="0" stop-color="#4dba71"/>
            <stop offset="1" stop-color="#007d29"/>
        </linearGradient>
        <linearGradient id="Gradient-14" x1="437.32" y1="961.63" x2="467.73" y2="198.04" gradientUnits="userSpaceOnUse">
            <stop offset="0" stop-color="#b3e1c2"/>
            <stop offset="1" stop-color="#4dba71"/>
        </linearGradient>
        <linearGradient id="Gradient-15" x1="6784.52" y1="541.73" x2="6903.59" y2="541.73" gradientUnits="userSpaceOnUse" gradientTransform="matrix(-1 0 0 1 8356.79 0)">
            <stop offset="0" stop-color="#b3e1c2"/>
            <stop offset="1" stop-color="#4dba71"/>
        </linearGradient>
        <linearGradient id="Gradient-16" x1="6751.52" y1="327.79" x2="6751.52" y2="624.1" gradientUnits="userSpaceOnUse" gradientTransform="matrix(-1 0 0 1 8356.79 0)">
            <stop offset="0" stop-color="#4dba71"/>
            <stop offset="1" stop-color="#007d29"/>
        </linearGradient>
        <linearGradient id="Gradient-17" x1="6675.48" y1="365.16" x2="6694.72" y2="767.61" gradientUnits="userSpaceOnUse" gradientTransform="matrix(-1 0 0 1 8356.79 0)">
            <stop offset="0" stop-color="#b3e1c2"/>
            <stop offset="1" stop-color="#4dba71"/>
        </linearGradient>
        <linearGradient id="Gradient-18" x1="7132.69" y1="957.88" x2="7207.48" y2="957.88" gradientUnits="userSpaceOnUse" gradientTransform="matrix(-1 0 0 1 8356.79 0)">
            <stop offset="0" stop-color="#4dba71"/>
            <stop offset="1" stop-color="#007d29"/>
        </linearGradient>
        <linearGradient id="Gradient-19" x1="6978.82" y1="950.41" x2="7044.01" y2="950.41" gradientUnits="userSpaceOnUse" gradientTransform="matrix(-1 0 0 1 8356.79 0)">
            <stop offset="0" stop-color="#4dba71"/>
            <stop offset="1" stop-color="#007d29"/>
        </linearGradient>
        <linearGradient id="Gradient-20" x1="6882.14" y1="890.82" x2="6987.05" y2="890.82" gradientUnits="userSpaceOnUse" gradientTransform="matrix(-1 0 0 1 8356.79 0)">
            <stop offset="0" stop-color="#4dba71"/>
            <stop offset="1" stop-color="#007d29"/>
        </linearGradient>
        <linearGradient id="Gradient-21" x1="1409.36" y1="1012.84" x2="1177.35" y2="769.57" gradientUnits="userSpaceOnUse">
            <stop offset="0" stop-color="#b3e1c2"/>
            <stop offset="1" stop-color="#4dba71"/>
        </linearGradient>
        <linearGradient id="Gradient-22" x1="1326.1" y1="1080.32" x2="1104.23" y2="819.03" gradientUnits="userSpaceOnUse">
            <stop offset="0" stop-color="#b3e1c2"/>
            <stop offset="1" stop-color="#4dba71"/>
        </linearGradient>
        <linearGradient id="Gradient-23" x1="1435.16" y1="997.9" x2="1211.04" y2="724.22" gradientUnits="userSpaceOnUse">
            <stop offset="0" stop-color="#b3e1c2"/>
            <stop offset="1" stop-color="#4dba71"/>
        </linearGradient>
        <linearGradient id="Gradient-24" x1="1.80925" y1="-88.6293" x2="1.80925" y2="-5.17286" gradientUnits="userSpaceOnUse">
            <stop offset="0" stop-color="#b3e1c2"/>
            <stop offset="1" stop-color="#4dba71"/>
        </linearGradient>
        <clipPath id="clip-path">
            <path class="cls-1" d="M1612.74,390.48L1617.41,425.98C1617.41,425.98,1602.14,438.24,1586.5,431.73C1586.5,431.73,1588.69,413.99,1585.39,403.73C1583.29,397.16,1612.74,390.48,1612.74,390.48Z" fill="#e6f5eb"/>
        </clipPath>
    </defs>
    <style>
@keyframes a0_t { 0% { transform: translate(59.442685px,223.822931px) rotate(0deg) translate(-59.442685px,-159.816966px); animation-timing-function: cubic-bezier(0.42,0,0.58,1); } 50% { transform: translate(59.442685px,223.822931px) rotate(-10deg) translate(-59.442685px,-159.816966px); animation-timing-function: cubic-bezier(0.42,0,0.58,1); } 100% { transform: translate(59.442685px,223.822931px) rotate(0deg) translate(-59.442685px,-159.816966px); } }
@keyframes a1_t { 0% { transform: translate(59.442685px,229.816506px) rotate(0deg) translate(-8.955122px,-132.736506px); animation-timing-function: cubic-bezier(0.42,0,0.58,1); } 50% { transform: translate(59.442685px,229.816506px) rotate(10deg) translate(-8.955122px,-132.736506px); animation-timing-function: cubic-bezier(0.42,0,0.58,1); } 100% { transform: translate(59.442685px,229.816506px) rotate(0deg) translate(-8.955122px,-132.736506px); } }
@keyframes a2_t { 0% { transform: translate(0px,0px); animation-timing-function: cubic-bezier(0.42,0,0.58,1); } 50% { transform: translate(-65.510694px,0.000003px); animation-timing-function: cubic-bezier(0.42,0,0.58,1); } 100% { transform: translate(0px,0.000408px); } }
@keyframes a3_t { 0% { transform: translate(0px,0px); animation-timing-function: cubic-bezier(0.42,0,0.58,1); } 50% { transform: translate(46.482135px,0.000002px); animation-timing-function: cubic-bezier(0.42,0,0.58,1); } 100% { transform: translate(0px,-0.000499px); } }
@keyframes a4_t { 0% { transform: translate(0px,0px); animation-timing-function: cubic-bezier(0.42,0,0.58,1); } 50% { transform: translate(50.337146px,-0.000003px); animation-timing-function: cubic-bezier(0.42,0,0.58,1); } 100% { transform: translate(0px,-0.000256px); } }
@keyframes horse_body_t { 0% { transform: translate(396.252286px,671.977835px) rotate(0deg) translate(-396.252286px,-671.977835px); } 25% { transform: translate(396.252286px,671.977835px) rotate(0deg) translate(-396.252286px,-671.977835px); animation-timing-function: cubic-bezier(0.42,0,0.58,1); } 41.6666% { transform: translate(396.252286px,671.977835px) rotate(-30deg) translate(-396.252286px,-671.977835px); animation-timing-function: cubic-bezier(0.42,0,0.58,1); } 66.6666% { transform: translate(396.252286px,671.977835px) rotate(0deg) translate(-396.252286px,-671.977835px); animation-timing-function: cubic-bezier(0.42,0,0.58,1); } 100% { transform: translate(396.252286px,671.977835px) rotate(0deg) translate(-396.252286px,-671.977835px); } }
@keyframes a5_t { 0% { transform: translate(340.513984px,560.954181px) rotate(0deg) translate(-340.513984px,-560.954181px); } 25% { transform: translate(340.513984px,560.954181px) rotate(0deg) translate(-340.513984px,-560.954181px); animation-timing-function: cubic-bezier(0.42,0,0.58,1); } 50% { transform: translate(340.513984px,560.954181px) rotate(30deg) translate(-340.513984px,-560.954181px); animation-timing-function: cubic-bezier(0.42,0,0.58,1); } 66.6666% { transform: translate(340.513984px,560.954181px) rotate(0deg) translate(-340.513984px,-560.954181px); } 100% { transform: translate(340.513984px,560.954181px) rotate(0deg) translate(-340.513984px,-560.954181px); } }
@keyframes a6_t { 0% { transform: translate(832.908981px,805.802475px) rotate(0deg) translate(-832.908981px,-805.802475px); } 25% { transform: translate(832.908981px,805.802475px) rotate(0deg) translate(-832.908981px,-805.802475px); animation-timing-function: cubic-bezier(0.42,0,0.58,1); } 41.6666% { transform: translate(832.908981px,805.802475px) rotate(60deg) translate(-832.908981px,-805.802475px); animation-timing-function: cubic-bezier(0.42,0,0.58,1); } 66.6666% { transform: translate(832.908981px,805.802475px) rotate(0deg) translate(-832.908981px,-805.802475px); animation-timing-function: cubic-bezier(0.42,0,0.58,1); } 100% { transform: translate(832.908981px,805.802475px) rotate(0deg) translate(-832.908981px,-805.802475px); } }
@keyframes a7_t { 0% { transform: translate(1030.134753px,495.688604px) rotate(0deg) translate(-1026.734968px,-497.728475px); } 25% { transform: translate(1030.134753px,495.688604px) rotate(0deg) translate(-1026.734968px,-497.728475px); animation-timing-function: cubic-bezier(0.42,0,0.58,1); } 41.6666% { transform: translate(1030.134753px,495.688604px) rotate(-10deg) translate(-1026.734968px,-497.728475px); animation-timing-function: cubic-bezier(0.42,0,0.58,1); } 66.6666% { transform: translate(1030.134753px,495.688604px) rotate(0deg) translate(-1026.734968px,-497.728475px); } 100% { transform: translate(1030.134753px,495.688604px) rotate(0deg) translate(-1026.734968px,-497.728475px); } }
@keyframes a8_t { 0% { transform: translate(901.923168px,773.785654px) rotate(0deg) translate(-907.379013px,-781.104142px); } 25% { transform: translate(901.923168px,773.785654px) rotate(0deg) translate(-907.379013px,-781.104142px); animation-timing-function: cubic-bezier(0.42,0,0.58,1); } 41.6666% { transform: translate(901.923168px,773.785654px) rotate(-50deg) translate(-907.379013px,-781.104142px); animation-timing-function: cubic-bezier(0.42,0,0.58,1); } 66.6666% { transform: translate(901.923168px,773.785654px) rotate(0deg) translate(-907.379013px,-781.104142px); animation-timing-function: cubic-bezier(0.42,0,0.58,1); } 100% { transform: translate(901.923168px,773.785654px) rotate(0deg) translate(-907.379013px,-781.104142px); } }
@keyframes woman_t { 0% { transform: translate(638.200958px,460.688108px) rotate(0deg) translate(-638.200958px,-460.688108px); } 25% { transform: translate(638.200958px,460.688108px) rotate(0deg) translate(-638.200958px,-460.688108px); animation-timing-function: cubic-bezier(0.42,0,0.58,1); } 41.6666% { transform: translate(638.200958px,460.688108px) rotate(30deg) translate(-638.200958px,-460.688108px); animation-timing-function: cubic-bezier(0.42,0,0.58,1); } 66.6666% { transform: translate(638.200958px,460.688108px) rotate(0deg) translate(-638.200958px,-460.688108px); animation-timing-function: cubic-bezier(0.42,0,0.58,1); } 100% { transform: translate(638.200958px,460.688108px) rotate(0deg) translate(-638.200958px,-460.688108px); } }
@keyframes head_t { 0% { transform: translate(1610.736196px,399.306023px) rotate(0deg) translate(-56.157494px,-74.37093px); } 50% { transform: translate(1610.736196px,399.306023px) rotate(0deg) translate(-56.157494px,-74.37093px); animation-timing-function: cubic-bezier(0.42,0,0.58,1); } 66.6666% { transform: translate(1610.736196px,399.306023px) rotate(-20deg) translate(-56.157494px,-74.37093px); animation-timing-function: cubic-bezier(0.42,0,0.58,1); } 83.3333% { transform: translate(1610.736196px,399.306023px) rotate(0deg) translate(-56.157494px,-74.37093px); } 100% { transform: translate(1610.736196px,399.306023px) rotate(0deg) translate(-56.157494px,-74.37093px); } }
@keyframes dog_body_t { 0% { transform: translate(1392.914028px,883.852405px) rotate(0deg) translate(-1392.914028px,-883.852405px); animation-timing-function: cubic-bezier(0.42,0,0.58,1); } 16.6666% { transform: translate(1392.914028px,883.852405px) rotate(-10deg) translate(-1392.914028px,-883.852405px); animation-timing-function: cubic-bezier(0.42,0,0.58,1); } 25% { transform: translate(1392.914028px,883.852405px) rotate(0deg) translate(-1392.914028px,-883.852405px); } 100% { transform: translate(1392.914028px,883.852405px) rotate(0deg) translate(-1392.914028px,-883.852405px); } }
@keyframes a9_t { 0% { transform: translate(1369.830038px,853.240017px) rotate(0deg) translate(-1369.830038px,-853.240017px); } 16.6666% { transform: translate(1369.830038px,853.240017px) rotate(0deg) translate(-1369.830038px,-853.240017px); animation-timing-function: cubic-bezier(0.42,0,0.58,1); } 25% { transform: translate(1369.830038px,853.240017px) rotate(-50deg) translate(-1369.830038px,-853.240017px); animation-timing-function: cubic-bezier(0.42,0,0.58,1); } 33.3333% { transform: translate(1369.830038px,853.240017px) rotate(-50deg) translate(-1369.830038px,-853.240017px); animation-timing-function: cubic-bezier(0.42,0,0.58,1); } 50% { transform: translate(1369.830038px,853.240017px) rotate(0deg) translate(-1369.830038px,-853.240017px); } 100% { transform: translate(1369.830038px,853.240017px) rotate(0deg) translate(-1369.830038px,-853.240017px); } }
@keyframes dog_bark_t { 0% { transform: translate(1150.499375px,777.608783px) scale(0,0) translate(-82.655623px,-40.60782px); } 16.6666% { transform: translate(1150.499375px,777.608783px) scale(0,0) translate(-82.655623px,-40.60782px); animation-timing-function: cubic-bezier(0.42,0,0.58,1); } 33.3333% { transform: translate(1150.499375px,777.608783px) scale(1,1) translate(-82.655623px,-40.60782px); } 100% { transform: translate(1150.499375px,777.608783px) scale(1,1) translate(-82.655623px,-40.60782px); } }
@keyframes dog_bark_o { 0% { opacity: 1; } 25% { opacity: 1; } 33.3333% { opacity: 0; } 100% { opacity: 0; } }
@keyframes a10_t { 0% { transform: translate(1200.867369px,753.274968px) rotate(0deg) translate(-1200.867369px,-753.274968px); } 16.6666% { transform: translate(1200.867369px,753.274968px) rotate(0deg) translate(-1200.867369px,-753.274968px); animation-timing-function: cubic-bezier(0.42,0,0.58,1); } 25% { transform: translate(1200.867369px,753.274968px) rotate(-20deg) translate(-1200.867369px,-753.274968px); animation-timing-function: cubic-bezier(0.42,0,0.58,1); } 33.3333% { transform: translate(1200.867369px,753.274968px) rotate(10deg) translate(-1200.867369px,-753.274968px); animation-timing-function: cubic-bezier(0.42,0,0.58,1); } 41.6666% { transform: translate(1200.867369px,753.274968px) rotate(0deg) translate(-1200.867369px,-753.274968px); } 100% { transform: translate(1200.867369px,753.274968px) rotate(0deg) translate(-1200.867369px,-753.274968px); } }
@keyframes a11_o { 0% { opacity: 0; } 25% { opacity: 0; } 41.6667% { opacity: 1; } 100% { opacity: 1; } }
@keyframes a11_d { 0% { d: path('M-0.197006,-6.30264C9.95417,-11.9511,21.8732,-21.3398,16.2446,-44.4172C10.6159,-67.4946,14.0025,-64.345,14.0025,-79.5423C14.0025,-94.7396,-9.56868,-90.0582,-4.50291,-73.1723C0.562864,-56.2864,3.37719,-56.8492,-5.06577,-47.8434C-13.5087,-38.8376,-15.7602,-30.3945,-6.1915,-28.706C3.37718,-27.0175,-11.82,-24.766,-10.1315,-15.1973C-8.44296,-5.62864,-5.56589,-3.31518,-0.197006,-6.30264Z'); } 25% { d: path('M-0.197006,-6.30264C9.95417,-11.9511,21.8732,-21.3398,16.2446,-44.4172C10.6159,-67.4946,14.0025,-64.345,14.0025,-79.5423C14.0025,-94.7396,-9.56868,-90.0582,-4.50291,-73.1723C0.562864,-56.2864,3.37719,-56.8492,-5.06577,-47.8434C-13.5087,-38.8376,-15.7602,-30.3945,-6.1915,-28.706C3.37718,-27.0175,-11.82,-24.766,-10.1315,-15.1973C-8.44296,-5.62864,-5.56589,-3.31518,-0.197006,-6.30264Z'); animation-timing-function: cubic-bezier(0.42,0,0.58,1); } 58.3333% { d: path('M15.1661,-17.6942C31.021,-12.9377,44.0486,-21.5702,38.42,-44.6476C32.7913,-67.725,24.1506,-54.8182,24.1506,-70.0155C24.1506,-85.2128,-9.56868,-90.0582,-4.50291,-73.1723C0.562864,-56.2864,-14.4429,-68.4514,-22.8858,-59.4456C-31.3288,-50.4398,-23.47,-39.9941,-13.9013,-38.3056C-4.33266,-36.6171,-11.82,-24.766,-10.1315,-15.1973C-8.44296,-5.62864,9.2811,-19.4597,15.1661,-17.6942Z'); } 100% { d: path('M15.1661,-17.6942C31.021,-12.9377,44.0486,-21.5702,38.42,-44.6476C32.7913,-67.725,24.1506,-54.8182,24.1506,-70.0155C24.1506,-85.2128,-9.56868,-90.0582,-4.50291,-73.1723C0.562864,-56.2864,-14.4429,-68.4514,-22.8858,-59.4456C-31.3288,-50.4398,-23.47,-39.9941,-13.9013,-38.3056C-4.33266,-36.6171,-11.82,-24.766,-10.1315,-15.1973C-8.44296,-5.62864,9.2811,-19.4597,15.1661,-17.6942Z'); } }
@keyframes a11_mo { 0% { offset-distance: 0%; } 25% { offset-distance: 0%; animation-timing-function: cubic-bezier(0.273438,0,0.523387,1); } 58.3333% { offset-distance: 100%; } 100% { offset-distance: 100%; } }
    </style>
    <title>illustration1</title>
    <g id="plant" transform="translate(1788.09,907.304) translate(-96.2069,-117.014)">
        <g transform="translate(59.4427,223.823) translate(-59.4427,-159.817)" style="animation: 6s linear infinite both a0_t;">
            <path class="cls-2" d="M1749.82,1023.62C1749.82,1023.62,1821.37,968.56,1793.82,908.81C1766.27,849.06,1691.88,854.42,1691.88,854.42C1691.88,854.42,1706.13,898.94,1699.88,919.42C1690.14,951.66,1695.5,983.55,1749.82,1023.62Z" fill="#ccebd6" transform="translate(-1691.88,-854.296)"/>
            <path class="cls-3" d="M1711.86,867.61C1711.86,867.61,1779.41,956.32,1752.4,1017" stroke-width="2px" stroke-linecap="round" stroke-linejoin="round" stroke="#66c485" fill="none" transform="translate(-1691.88,-854.296)"/>
            <path class="cls-3" d="M1734.26,874.58C1734.26,874.58,1734.38,895.06,1738.2,911.06C1738.2,911.06,1726.97,899.13,1720.56,895.06" stroke-width="2px" stroke-linecap="round" stroke-linejoin="round" stroke="#66c485" fill="none" transform="translate(-1691.88,-854.296)"/>
            <path class="cls-3" d="M1748.22,900.36C1748.22,900.36,1749.1,924.74,1750.22,942.29C1750.22,942.29,1737.58,922.41,1731.17,918.29" stroke-width="2px" stroke-linecap="round" stroke-linejoin="round" stroke="#66c485" fill="none" transform="translate(-1691.88,-854.296)"/>
        </g>
        <path class="cls-4" d="M1749.82,1023.62C1749.82,1023.62,1780.21,1035.25,1813.26,963.62C1846.31,891.99,1840.18,834.36,1826.41,790.29C1826.41,790.29,1802.3,855.52,1774.76,877.56C1747.22,899.6,1722.27,946.49,1749.82,1023.62Z" fill="#b3e1c2" transform="translate(-1691.88,-790.29)"/>
        <g transform="translate(59.4427,229.817) translate(-8.95512,-132.737)" style="animation: 6s linear infinite both a1_t;">
            <path class="cls-5" d="M1749.22,1023.62C1749.22,1023.62,1725.54,975.62,1766.22,941.56C1806.9,907.5,1874,887.37,1874,887.37C1874,887.37,1892.3,932.27,1880.1,953.95C1867.9,975.63,1834.63,1023.62,1749.22,1023.62Z" fill="#80ce99" transform="translate(-1742.37,-887.37)"/>
            <path class="cls-6" d="M1880.1,954C1892.3,932.32,1874,887.42,1874,887.42C1884.25,952.52,1830.48,992,1808.16,994.92C1755.99,1001.75,1749.22,1023.67,1749.22,1023.67C1834.63,1023.62,1867.9,975.63,1880.1,954Z" fill="#66c485" transform="translate(-1742.37,-887.37)"/>
        </g>
    </g>
    <path class="cls-1" d="M1452,163.12C1452.41,163.12,1452.81,163.12,1453.22,163.18C1453.78,156.583,1455.98,150.231,1459.63,144.707C1463.28,139.182,1468.26,134.662,1474.11,131.559C1479.96,128.457,1486.49,126.871,1493.11,126.948C1499.73,127.025,1506.22,128.762,1512,132C1516.19,123.107,1523.16,115.819,1531.86,111.234C1540.56,106.649,1550.51,105.016,1560.22,106.582C1569.92,108.147,1578.86,112.826,1585.67,119.913C1592.49,126.999,1596.82,136.11,1598,145.87C1603.1,143.288,1608.71,141.851,1614.42,141.66C1620.14,141.469,1625.83,142.528,1631.09,144.763C1636.36,146.998,1641.07,150.355,1644.9,154.6C1648.73,158.845,1651.59,163.875,1653.28,169.34C1653.57,169.272,1653.87,169.212,1654.17,169.16C1654.46,169.109,1654.76,169.065,1655.06,169.03C1655.36,168.995,1655.66,168.969,1655.97,168.95C1656.27,168.932,1656.57,168.922,1656.87,168.92C1665.62,168.92,1674.01,171.79,1674.58,180.4C1676.71,178.32,1681.58,175.02,1684.81,175.02C1691.33,175.02,1691.2,181.32,1704.49,183.41L1407.35,183.41C1427.82,177.74,1436,163.12,1452,163.12Z" fill="#e6f5eb" transform="translate(1555.92,144.707) translate(-1555.92,-144.707)" style="animation: 6s linear infinite both a2_t;"/>
    <path class="cls-1" d="M888.31,184.76C888.58,184.76,888.84,184.76,889.1,184.76C889.463,180.433,890.907,176.266,893.298,172.641C895.689,169.016,898.951,166.05,902.787,164.013C906.622,161.976,910.906,160.934,915.249,160.982C919.591,161.031,923.851,162.168,927.64,164.29C930.385,158.453,934.956,153.667,940.66,150.656C946.365,147.645,952.894,146.571,959.263,147.598C965.631,148.624,971.493,151.695,975.963,156.346C980.432,160.997,983.268,166.976,984.04,173.38C987.386,171.69,991.06,170.75,994.807,170.626C998.554,170.502,1002.28,171.197,1005.73,172.662C1009.18,174.127,1012.27,176.328,1014.78,179.11C1017.3,181.892,1019.17,185.189,1020.28,188.77C1020.47,188.726,1020.67,188.687,1020.86,188.654C1021.06,188.62,1021.26,188.593,1021.45,188.57C1021.65,188.547,1021.85,188.53,1022.05,188.519C1022.24,188.507,1022.44,188.501,1022.64,188.5C1028.38,188.5,1033.87,190.38,1034.25,196.02C1035.64,194.66,1038.85,192.5,1040.96,192.5C1045.23,192.5,1045.15,196.63,1053.86,198L859.07,198C872.48,194.34,877.86,184.76,888.31,184.76Z" fill="#e6f5eb" transform="translate(956.465,172.609) translate(-956.465,-172.609)" style="animation: 6s linear infinite both a3_t;"/>
    <path class="cls-1" d="M602.31,125C601.88,125,601.47,125,601.05,125.06C600.484,118.263,598.22,111.717,594.466,106.022C590.712,100.328,585.588,95.6675,579.564,92.4684C573.54,89.2694,566.809,87.6343,559.989,87.7132C553.169,87.7921,546.478,89.5825,540.53,92.92C536.216,83.7516,529.036,76.2355,520.075,71.5062C511.114,66.7769,500.857,65.0911,490.854,66.7034C480.85,68.3157,471.643,73.1386,464.621,80.4439C457.6,87.7492,453.145,97.1405,451.93,107.2C446.678,104.538,440.909,103.055,435.025,102.853C429.14,102.652,423.283,103.738,417.862,106.034C412.44,108.331,407.586,111.784,403.637,116.151C399.688,120.519,396.741,125.695,395,131.32C394.697,131.251,394.392,131.191,394.085,131.138C393.778,131.086,393.47,131.042,393.162,131.006C392.853,130.97,392.543,130.942,392.232,130.923C391.922,130.904,391.611,130.893,391.3,130.89C382.3,130.89,373.65,133.89,373.06,142.71C370.87,140.57,365.83,137.17,362.52,137.17C355.81,137.17,355.94,143.65,342.26,145.81L648.26,145.81C627.16,140,618.72,125,602.31,125Z" fill="#e6f5eb" transform="translate(495.26,105.959) translate(-495.26,-105.959)" style="animation: 6s linear infinite both a4_t;"/>
    <path class="cls-2" d="M833.72,988C833.72,988,790.67,975.49,773.5,988C756.33,1000.51,746.21,1004.25,746.21,1004.25C746.21,1004.25,693.59,1003.12,670.69,1013.19C647.79,1023.26,867.53,1028.53,867.53,1028.53L1180.08,1020.59C1180.08,1020.59,1167.4,1004.74,1128.08,1005.16C1088.76,1005.58,1073.16,1012.76,1046.7,1000.29C1020.24,987.82,1011.25,983.08,989.1,988C966.95,992.92,867.53,995.43,867.53,995.43Z" fill="#ccebd6"/>
    <path class="cls-4" d="M787.46,1008.1C787.46,1008.1,831.87,1002.83,851.54,1005.46C871.21,1008.09,873.47,1006.83,885.97,1008.1C898.47,1009.37,1029.16,1007.46,1036.13,1012.54C1043.1,1017.62,1104.64,1017.94,1107.85,1022.87C1111.06,1027.8,883.85,1028.51,881.98,1028.51C880.11,1028.51,752.28,1029.12,750.98,1019.3C749.68,1009.48,787.46,1008.1,787.46,1008.1Z" fill="#b3e1c2"/>
    <g id="horse" transform="translate(359.594,1004.38) translate(-359.594,-1004.38)">
        <g>
            <path class="cls-7" d="M331.46,918.07C329.914,920.197,328.261,922.243,326.506,924.201C324.751,926.159,322.897,928.026,320.952,929.795C319.006,931.563,316.971,933.231,314.855,934.792C312.739,936.352,310.544,937.804,308.28,939.14C311.22,912.01,316.84,865.23,327.07,830.14C333.45,808.25,361.23,775.68,356.8,759.05C340.64,698.42,327.07,645.31,327.07,645.31L520.81,675.77C520.81,675.77,477.93,774.14,451.89,796.63C425.85,819.12,379,841.05,371.17,853.92C368.5,858.32,365.17,871.43,362.25,887.12C353.66,893.8,341.5,904.49,331.46,918.07Z" fill="url(#Gradient-0)"/>
            <path class="cls-8" d="M355.54,962.47C379,997.82,379,1018.9,379,1018.9L333.43,1019.3C333.43,1019.3,337.49,993.17,324.3,988.44C311.11,983.71,303.47,978,306.07,959.25C306.52,956,307.24,948.78,308.28,939.14C310.544,937.804,312.739,936.352,314.855,934.792C316.971,933.231,319.006,931.563,320.952,929.795C322.897,928.026,324.751,926.159,326.506,924.201C328.261,922.243,329.914,920.197,331.46,918.07C341.46,904.49,353.66,893.8,362.25,887.07C356.53,917.36,352,957.17,355.54,962.47Z" fill="#007d29"/>
        </g>
        <g id="horse_body" transform="translate(396.252,671.978) translate(-396.252,-671.978)" style="animation: 6s linear infinite both horse_body_t;">
            <path class="cls-9" d="M1013.05,372.14C1013.05,372.14,944.05,351.41,889.34,372.14C821.14,398,791.34,452.21,774.93,475.69C758.52,499.17,889.41,430.2,889.41,430.2L998.24,397.69Z" fill="#009c33"/>
            <path class="cls-10" d="M339.6,573.39C339.6,573.39,307.7,559.13,275,582.3C253.4,597.61,252.5,616.3,256,724.54C258.39,798.47,192.34,859.38,139.61,829.11C155.24,820.32,160.12,799.82,160.12,799.82C160.12,799.82,128.87,804.7,112.27,781.27C97.27,760.05,114.27,739.27,114.27,739.27C114.27,739.27,132.82,780.27,161.14,749.93C169.23,741.25,188,706.38,197.77,649.82C207.54,593.26,237.5,540.78,301,542.89C351.28,544.56,352.25,556.79,352.25,556.79Z" fill="url(#Gradient-1)" transform="translate(340.514,560.954) translate(-340.514,-560.954)" style="animation: 6s linear infinite both a5_t;"/>
            <g id="horse_leg_left" transform="translate(766.037,726.939) translate(-766.037,-726.939)">
                <g transform="translate(832.909,805.802) translate(-832.909,-805.802)" style="animation: 6s linear infinite both a6_t;">
                    <path class="cls-11" d="M851.45,793.08C870.75,813.31,875.67,855.24,885.14,889.89C884.366,892.157,883.692,894.458,883.119,896.784C882.546,899.11,882.075,901.46,881.708,903.828C881.34,906.195,881.076,908.578,880.916,910.968C880.756,913.358,880.701,915.755,880.75,918.15C880.81,928.4,876.75,937.21,872.46,943.78C863.13,916,824.72,842.58,818,828C800.66,790.41,828,768.53,851.45,793.08Z" fill="url(#Gradient-2)"/>
                    <path class="cls-12" d="M885.14,889.89C885.608,891.666,886.102,893.435,886.623,895.196C887.143,896.957,887.689,898.711,888.261,900.456C888.833,902.201,889.431,903.938,890.054,905.666C890.677,907.393,891.326,909.112,892,910.82C906.91,947.47,931.65,972.44,943.63,981.58C960.13,994.18,973.5,1026,973.5,1026L924.37,1026.3C924.37,1026.3,923.37,1000.66,907.7,997.51C892.03,994.36,882.11,983.35,879.09,966.81C878.09,961.58,875.69,953.38,872.46,943.81C876.76,937.24,880.81,928.43,880.75,918.18C880.7,915.782,880.754,913.383,880.914,910.99C881.073,908.597,881.337,906.213,881.705,903.843C882.073,901.473,882.544,899.12,883.117,896.791C883.691,894.462,884.365,892.16,885.14,889.89Z" fill="url(#Gradient-3)"/>
                </g>
                <path class="cls-13" d="M853.15,790.84C853.15,790.84,823.48,740.84,809.71,718.39C795.94,695.94,797.18,640.83,775,631.67C752.82,622.51,680.1,636.67,679.22,687.8C678.34,738.93,747.27,753.58,765.75,770.42C784.23,787.26,805.65,815.42,818.53,827.71C831.41,840,869.59,818.53,853.15,790.84Z" fill="url(#Gradient-4)"/>
            </g>
            <path class="cls-9" d="M1033.43,340.28C1033.43,340.28,1040.59,322.92,1031.34,300.73C1022.09,278.54,1016.73,274,1016.73,274C1016.73,274,1002.73,294.5,1008.9,314.87C1015.07,335.24,1021.17,344.16,1021.17,344.16Z" fill="#009c33"/>
            <g>
                <path class="cls-14" d="M411.54,495.78C465.43,477.41,531.54,505.7,592.11,519.44C639.54,530.2,714.6,514.85,761.11,489.05C801.58,466.6,827,409.91,863.61,373.1C876.77,359.89,916.54,334.91,940.55,325.54C962.28,317.06,1000.48,307.54,1019.04,332.26C1020.72,332.31,1020.74,333.26,1021.77,333.71C1018,335.11,1014.77,337.33,1011.03,338.82C1020.95,355.64,1023.69,358.44,1035.09,378.37C1046.49,398.3,1051.5,437.64,1062.26,460.37C1068.42,473.37,1075.06,471.15,1085.75,476.37C1087.24,480.96,1092.89,493.82,1093.46,497.25C1096.87,517.58,1083.62,525.35,1066.33,526C1060.65,532.18,1055.53,536.23,1045.97,531.36C1036.41,526.49,1031.58,518.84,1024.12,507.93C1016.66,497.02,994.35,484.77,981.81,474.16C975.01,468.42,960.67,459.66,956.46,451.93C946.72,467.62,933.11,519.61,929.98,533.13C922.64,564.86,913.61,666.56,873.41,700.47C833.21,734.38,721.68,759.24,663.49,760.7C605.3,762.16,550.91,757.9,501.57,736.83C457.88,718.18,413.13,755.59,371.41,738.39C329.69,721.19,319.41,683.56,302.82,627.39C289.7,582.91,351.49,516.25,411.54,495.78Z" fill="url(#Gradient-5)"/>
                <path class="cls-6" d="M1035.09,378.36C1023.71,358.51,1020.93,355.58,1011.03,338.83C1014.69,337.23,1018.03,335.29,1021.73,333.57C1030.09,341.98,1035.73,344.4,1041.41,356.22C1048.99,371.9,1046.21,370.46,1054.14,395.08C1059.32,411.19,1077.39,455.41,1085.75,476.34C1075.75,473.21,1068.35,473.18,1062.24,460.34C1051.55,437.8,1046.46,398.22,1035.09,378.36Z" fill="#66c485"/>
            </g>
            <path class="cls-15" d="M934.5,439.73C931.75,474.55,922.29,495.14,909.5,533.58C896.71,572.02,880.69,635.21,865.56,656.58C845,685.54,794.45,706.32,767,714C731.66,723.89,672.29,732.8,620.68,725.87C526.1,713.16,504.38,680.67,464,695C433,706,431,738,431,738C431,738,477,723,507.41,739.21C517.62,744.65,528.28,749.42,551.23,754.16C571.47,758.34,591.88,759.75,601.94,760.53C696.13,767.89,771.16,745.2,789.88,738.87L790,739C790,739,839.6,722.79,862.5,708.3C885.4,693.81,898.7,676.02,914.25,621.55C928.91,570.24,935.84,499,956.46,451.9C956.46,451.9,943.25,450.55,934.5,439.73Z" fill="url(#Gradient-6)"/>
            <path class="cls-16" d="M1048.39,371.3C1048.39,371.3,1040.94,355.38,1033.39,340.3C1019.96,313.3,984.2,316.46,984.2,316.46L994.37,394.61Z" fill="url(#Gradient-7)"/>
            <path class="cls-9" d="M1089.68,486.53C1089.68,486.53,1067.95,488.73,1055.03,493.91C1042.11,499.09,1025.18,509.33,1025.18,509.33L1018.59,501.7C1021.47,499.702,1024.41,497.794,1027.41,495.98C1030.41,494.165,1033.46,492.444,1036.57,490.82C1039.67,489.195,1042.83,487.668,1046.03,486.241C1049.23,484.813,1052.48,483.485,1055.76,482.26C1070.65,476.91,1086.48,476.47,1086.48,476.47Z" fill="#009c33"/>
            <path class="cls-9" d="M1053.3,392.45C1053.3,392.45,1033.57,390.15,1023.17,387.64C1008.29,384.03,994.41,394.59,994.41,394.59L989.33,380.08C989.146,379.554,989.069,378.996,989.104,378.44C989.14,377.883,989.286,377.34,989.535,376.841C989.784,376.342,990.13,375.898,990.554,375.536C990.977,375.173,991.469,374.899,992,374.73C1004.25,370.86,1040.18,359.96,1045,363.73C1060.62,375.94,1053.3,392.45,1053.3,392.45Z" fill="#009c33"/>
            <path class="cls-17" d="M1022.47,492.9C1022.47,486.966,1026.05,481.616,1031.53,479.346C1037.01,477.076,1043.32,478.333,1047.52,482.53C1051.71,486.728,1052.96,493.039,1050.69,498.521C1048.42,504.002,1043.06,507.574,1037.13,507.57C1035.2,507.567,1033.3,507.186,1031.52,506.448C1029.74,505.709,1028.13,504.629,1026.77,503.267C1025.41,501.905,1024.33,500.289,1023.59,498.51C1022.85,496.732,1022.47,494.825,1022.47,492.9ZM1027.59,492.9C1027.59,496.764,1029.92,500.246,1033.49,501.724C1037.06,503.202,1041.17,502.383,1043.9,499.649C1046.63,496.916,1047.44,492.807,1045.96,489.238C1044.48,485.67,1040.99,483.346,1037.13,483.35C1035.88,483.351,1034.64,483.599,1033.48,484.08C1032.32,484.56,1031.27,485.264,1030.38,486.151C1029.5,487.037,1028.8,488.09,1028.32,489.248C1027.84,490.406,1027.59,491.647,1027.59,492.9Z" fill="#fff"/>
            <path class="cls-9" d="M994.41,394.59C994.41,394.59,989.1,402.47,1004.41,440.82C1015.23,467.99,1037.17,483.35,1037.17,483.35C1037.17,483.35,1030.63,484.14,1028.25,489.54C1028.25,489.54,1003.52,478.06,992,445.97C981.79,417.55,978,384.05,990.07,378.76C991.23,384.52,994.41,394.59,994.41,394.59Z" fill="#009c33"/>
            <path class="cls-18" d="M1020.91,352.07C1020.91,352.07,1023.58,319.26,1011.91,298.07C1000.24,276.88,993,274.7,993,274.7C993,274.7,984.45,334,996.38,352C1011.85,367.48,1020.91,352.07,1020.91,352.07Z" fill="url(#Gradient-8)"/>
            <path class="cls-9" d="M725,490.72C725,490.72,733.61,451.28,712.79,458.35C691.97,465.42,651.61,464.95,616.45,458.35C581.29,451.75,575.72,453.19,576.1,480.57C576.129,483.715,576.404,486.853,576.921,489.955C577.438,493.058,578.196,496.115,579.188,499.1C580.181,502.084,581.404,504.987,582.848,507.781C584.291,510.576,585.95,513.253,587.81,515.79L712.81,506.08Z" fill="#009c33"/>
            <path class="cls-2" d="M680.45,643C680.45,643,682.93,685.82,690.45,709.69C697.97,733.56,714.51,756.41,714.51,756.41C714.51,756.41,693.76,762.02,664.41,763.84C653.41,764.53,614.31,762.04,614.31,762.04C614.31,762.04,615.51,742.49,624.08,736.17C629.97,731.81,645.73,730.24,648.98,725.81C658.86,712.36,647.19,645.33,647.19,645.33Z" fill="#ccebd6"/>
            <path class="cls-4" d="M774.93,475.69C774.93,475.69,782.65,525.43,773.5,587.49C764.35,649.55,709.67,665.17,647.18,666.15C584.69,667.13,584.18,667.46,565.44,666.48C546.7,665.5,530.33,659.48,530,620.67C529.74,588.95,530,517.67,535.86,497.23C547.79,482.31,556.76,481.5,571.7,483.5C586.64,485.5,656.94,493.59,690.14,488.57C723.34,483.55,774.93,475.69,774.93,475.69Z" fill="#b3e1c2"/>
            <path class="cls-9" d="M754.484,443.094C769.412,456.251,861.128,490.885,887.442,497.352C962.559,515.792,1028.48,496.684,1028.48,496.684L1032.13,500.733C1032.13,500.733,965.808,534.395,887.401,510.185C853.324,499.66,763.603,466.008,747.47,451.484C748,450.741,748.543,450.009,749.101,449.287C749.659,448.565,750.23,447.854,750.815,447.154C751.4,446.454,751.999,445.766,752.611,445.089C753.222,444.412,753.847,443.747,754.484,443.094Z" fill="#009c33" transform="translate(1030.13,495.689) translate(-1026.73,-497.728)" style="animation: 6s linear infinite both a7_t;"/>
            <path class="cls-19" d="M726.8,483C726.8,483,739.68,507.3,744.8,535C749.19,558.62,743.17,588.9,726.8,602.45C712.48,614.28,676.09,621.25,656.8,618.32C637.51,615.39,635.4,594.32,634.48,570.2C633.56,546.08,614.35,487.95,614.35,487.95C614.35,487.95,693.07,488.76,726.8,483Z" fill="#33b05c"/>
            <path class="cls-19" d="M585.48,659.67C589.4,659.67,593.34,659.58,597.19,659.49C603.79,659.33,609.29,659.3,617.01,659.41C638.66,659.75,674.81,660.25,705.85,650.68C742.41,639.42,755.01,621.75,765.48,593.1C776.02,564.23,769.85,480.22,769.58,476.66L765.68,476.95C765.75,477.81,772.06,563.68,761.81,591.76C751.56,619.84,739.9,636.11,704.7,647C674.25,656.39,638.49,655.9,617.07,655.55C609.3,655.44,603.75,655.47,597.07,655.63C579.24,656.05,559.07,656.54,551.32,647.36C542.25,636.6,541.64,618.5,542.32,600.53C542.93,584.96,544.79,489.16,544.81,488.21L540.89,491.62C540.89,492.56,539.02,584.84,538.41,600.38C537.69,619.13,538.41,638.1,548.32,649.88C555.47,658.26,570.31,659.67,585.48,659.67Z" fill="#33b05c"/>
            <path class="cls-6" d="M720.74,483.5C720.74,483.5,721.37,470.65,714.87,473.2C708.37,475.75,664.09,483.54,638.71,480.57C613.33,477.6,597.71,471.94,592.5,472.86C587.29,473.78,587.92,485.43,587.92,485.43C587.92,485.43,666.05,499.73,720.74,483.5Z" fill="#66c485"/>
            <g id="leg" transform="translate(791.751,664.888) rotate(9.18695) translate(-791.751,-664.888)">
                <g transform="translate(901.923,773.786) translate(-907.379,-781.104)" style="animation: 6s linear infinite both a8_t;">
                    <path class="cls-20" d="M927.55,779.05C928.94,806.98,905.26,841.93,889.78,874.35C887.714,875.561,885.701,876.862,883.749,878.248C881.796,879.635,879.904,881.106,878.08,882.657C876.255,884.209,874.499,885.839,872.817,887.544C871.135,889.248,869.527,891.025,868,892.87C861.35,900.67,852.52,904.69,845,906.87C856.08,879.76,875.28,807.18,880.58,792.02C887.68,771.6,925.86,745.16,927.55,779.05Z" fill="url(#Gradient-9)"/>
                    <path class="cls-21" d="M889.78,874.35C888.975,876,888.194,877.662,887.437,879.335C886.681,881.007,885.949,882.691,885.242,884.386C884.535,886.08,883.853,887.785,883.196,889.499C882.539,891.213,881.907,892.937,881.3,894.67C868.63,932.16,871,967.22,874.14,982C878.39,1002.31,867.72,1035.14,867.72,1035.14L830.34,1003.25C830.34,1003.25,846.34,983.18,836.53,970.57C826.72,957.96,826.41,943.13,834.94,928.64C837.64,924.06,841.14,916.25,844.94,906.87C852.49,904.71,861.32,900.69,867.94,892.87C869.472,891.024,871.084,889.246,872.771,887.541C874.458,885.835,876.219,884.205,878.049,882.653C879.878,881.102,881.775,879.631,883.733,878.245C885.691,876.859,887.708,875.56,889.78,874.35Z" fill="url(#Gradient-10)"/>
                </g>
                <path class="cls-22" d="M921.86,763.12C921.86,763.12,887.56,716.12,871.71,695.12C855.86,674.12,851.86,619.12,828.86,612.12C805.86,605.12,734.86,626.12,738.86,677.12C742.86,728.12,812.86,736.12,832.86,751.12C852.86,766.12,876.86,792.12,890.86,803.12C904.86,814.12,940.86,789.12,921.86,763.12Z" fill="url(#Gradient-11)"/>
            </g>
            <g id="woman" transform="translate(638.201,460.688) translate(-638.201,-460.688)" style="animation: 6s linear infinite both woman_t;">
                <path class="cls-1" d="M736.61,415.77C736.61,415.77,754.84,421.35,760.61,422.5C766.38,423.65,771.02,427.13,774.48,430.6C777.94,434.07,774.48,437.54,774.48,437.54C774.48,437.54,776.99,438.69,776.03,442.16C775.808,442.795,775.559,443.42,775.282,444.033C775.005,444.646,774.702,445.246,774.373,445.833C774.044,446.419,773.689,446.991,773.309,447.546C772.93,448.102,772.527,448.64,772.1,449.16L765.81,446.03C765.81,446.03,758.9,448.77,752.52,446.03C746.14,443.29,725.52,428.73,725.52,428.73Z" fill="#e6f5eb"/>
                <path class="cls-19" d="M683.48,365C683.48,365,721.11,395.67,728.73,400.87C736.35,406.07,746.21,415.76,746.21,415.76L738.63,427.17C738.63,427.17,717.39,424.31,707.02,415.84C696.65,407.37,669.31,372.13,669.31,372.13Z" fill="#33b05c"/>
                <path class="cls-9" d="M662.58,201.34C662.58,201.34,622.94,188.18,619.88,214.41C616.82,240.64,620.41,249.27,602.5,256.64C574.92,268,587.84,295.5,587.84,295.5C587.84,295.5,597.52,287.06,618.67,283.8C658.67,277.64,635.33,221.52,643,212.55C644.004,211.3,645.208,210.223,646.562,209.364C647.916,208.505,649.402,207.874,650.961,207.498C652.52,207.121,654.13,207.004,655.727,207.151C657.324,207.297,658.886,207.706,660.35,208.36Z" fill="#009c33" transform="translate(658.434,202.595) translate(-658.434,-202.595)"/>
                <g>
                    <g>
                        <path class="cls-1" d="M676.78,295.5C678.09,283.82,678.2,274.5,681.69,262.89C680.13,256.49,664.43,242.95,664.43,242.95L660.94,257.8C660.94,257.8,659.73,266.52,647.23,283.64C651.65,291.3,668.63,291.94,676.78,295.5Z" fill="#e6f5eb"/>
                        <path class="cls-2" d="M664.43,243C664.43,243,680.13,256.54,681.69,262.94C681.445,263.761,681.213,264.586,680.992,265.413C680.771,266.241,680.562,267.072,680.365,267.906C680.169,268.74,679.984,269.576,679.811,270.415C679.639,271.255,679.478,272.096,679.33,272.94C674.72,266.51,668.19,252.81,664.19,244.01Z" fill="#ccebd6"/>
                        <path class="cls-1" d="M660.1,237.53C663.17,256.8,677.76,263.91,686.25,266.28C691.25,267.67,697.33,262.5,701.09,254.64C702.54,251.64,706.95,253.28,708,249.39C708.7,246.8,707.06,239.01,707.31,236.06C707.433,234.559,707.484,233.054,707.462,231.548C707.44,230.043,707.344,228.539,707.177,227.043C707.009,225.547,706.769,224.059,706.457,222.586C706.145,221.113,705.763,219.656,705.31,218.22C699.56,199.57,693.52,196.44,679.66,198.65C665.8,200.86,657,218.26,660.1,237.53Z" fill="#e6f5eb"/>
                    </g>
                    <path class="cls-9" d="M660.94,257.8C668.73,247.03,668.37,240.32,667.25,236.93C661.5,230.3,663.88,221.63,666.59,222.06C668.01,222.28,670.08,224.59,672.94,231.18C674.86,232.74,676.05,228.81,676.05,228.81C676.742,228.533,677.391,228.16,677.98,227.702C678.568,227.245,679.09,226.708,679.53,226.106C679.97,225.505,680.323,224.844,680.58,224.145C680.837,223.445,680.996,222.713,681.05,221.97C681.59,213.68,699.77,212.47,705.33,218.22C705.85,210.83,704.26,198.82,688.33,192.43C676.17,187.55,659.06,191.89,653.33,201.05C647.6,210.21,648.04,225.23,654.21,237.8C658.8,247.24,659.14,251.38,660.94,257.8Z" fill="#009c33"/>
                </g>
                <path class="cls-4" d="M676.84,399.76C684.75,413.56,680.05,433.94,680.05,433.94C680.05,433.94,713.43,493.51,721.96,508.86C730.49,524.21,729.78,531.02,726.29,542.1C722.8,553.18,696.39,548.92,696.39,548.92C696.39,548.92,655.08,514.26,638.54,496.92C622,479.58,592.6,463.55,605.74,421.75C615.5,390.67,661.23,386.73,676.84,399.76Z" fill="#b3e1c2"/>
                <path class="cls-23" d="M603.77,425.26C609.16,387.61,625.77,394.33,623.06,337.08C621.95,313.36,621.3,295.59,628.06,289.78C630.153,288.541,632.218,287.255,634.255,285.925C636.291,284.595,638.298,283.22,640.274,281.801C642.25,280.383,644.195,278.921,646.106,277.417C648.018,275.913,649.896,274.367,651.74,272.78C651.74,272.78,666.85,279.78,671.12,285.36C681.73,299.17,690.4,307.09,697.77,322.77C703.04,333.98,697.1,343.42,688.66,358.4C680.46,372.95,684.2,433.4,684.2,433.4C684.2,433.4,651.38,462,603.77,425.26Z" fill="url(#Gradient-12)"/>
                <path class="cls-19" d="M651,269.77C651.205,269.061,651.581,268.414,652.094,267.884C652.607,267.355,653.243,266.959,653.944,266.732C654.646,266.505,655.393,266.454,656.119,266.582C656.845,266.711,657.529,267.016,658.11,267.47C664.55,272.54,673.97,279.47,682.4,287.98C696.8,302.53,697.71,322.78,697.71,322.78C696.322,320.363,694.842,318,693.272,315.697C691.703,313.394,690.045,311.152,688.303,308.977C686.561,306.801,684.736,304.694,682.831,302.659C680.927,300.624,678.945,298.663,676.89,296.78C667.41,288.04,648.2,275.68,648.2,275.68Z" fill="#33b05c"/>
                <path class="cls-9" d="M679.22,667.07C679.22,667.07,691.44,623.61,694.05,593.54C696.13,593.27,698.16,593.81,700.23,593.47C700.23,620.58,690.13,658.82,684.75,667.9C677.85,679.54,679.22,667.07,679.22,667.07Z" fill="#009c33"/>
                <path class="cls-24" d="M697.24,519.94C701.52,523.32,704.91,533.94,710.02,537.62C715.13,541.3,726.29,542.1,726.29,542.1C726.29,542.1,714.61,573.74,701.18,596.1C691.92,611.54,676.79,644.59,675.29,647.78C671.78,655.23,676.94,665.34,683.47,672.5C690,679.66,696.88,685.28,700.47,690.39C704.06,695.5,700.47,702.33,700.47,702.33C700.47,702.33,680.6,700.04,669.88,691.52C659.16,683,650.77,673.52,648.88,674.71C646.99,675.9,632.16,664.82,632.16,664.82C632.16,664.82,639.3,647.82,645.27,636.7C651.24,625.58,659.27,582.04,664.76,565.42C670.25,548.8,676.54,538.93,680.51,529.62C686.48,515.57,694.43,517.71,697.24,519.94Z" fill="url(#Gradient-13)"/>
                <path class="cls-25" d="M689.35,662.28C689.35,662.28,684.5,676.85,679.22,685.55C673.94,694.25,673.22,698.93,673.22,698.93L659.56,689.13L679.25,656.07Z" fill="#99d7ad"/>
                <path class="cls-1" d="M731.8,421.75C731.8,421.75,750.03,427.32,755.8,428.48C761.57,429.64,766.21,433.1,769.68,436.57C773.15,440.04,769.68,443.51,769.68,443.51C769.68,443.51,772.18,444.67,771.22,448.14C771.101,448.617,770.957,449.086,770.787,449.547C770.617,450.008,770.422,450.459,770.202,450.898C769.983,451.338,769.74,451.765,769.474,452.178C769.208,452.591,768.919,452.989,768.61,453.37L762.06,449.19C762.06,449.19,754.06,454.78,747.72,452.04C741.38,449.3,720.72,434.73,720.72,434.73Z" fill="#e6f5eb"/>
                <path class="cls-26" d="M641.81,287.29C657.4,281.91,663.31,305.12,665.59,310.72C670.52,322.82,675.79,369.06,681.5,378.3C703.6,398.46,738.63,422,738.63,422L724.11,443.59C724.11,443.59,695.46,425,683.92,418.35C678,415,659.49,403,651.46,389.87C640.63,372.19,631.46,337.74,627.46,322.78C623.46,307.82,628.15,292,641.81,287.29Z" fill="#4dba71"/>
            </g>
        </g>
        <g>
            <path class="cls-27" d="M485.74,635.16C513.56,665.93,511.62,763.47,520.81,797.32C530,831.17,548.23,870.97,561.25,888.83C563.13,891.4,565.18,894.37,567.32,897.57C563.05,902.57,557.2,911.72,552.79,927.51C552.557,928.349,552.314,929.185,552.059,930.017C551.804,930.85,551.538,931.679,551.261,932.504C550.984,933.329,550.697,934.151,550.398,934.969C550.1,935.787,549.79,936.6,549.47,937.41C541.82,920.03,531.92,902.41,520.81,895.05C493.55,877.1,483.13,867.59,475.32,848.05C467.51,828.51,459.7,786.05,431.06,778.65C402.42,771.25,344.48,746.06,323,676.86C307.68,627.74,425,568,485.74,635.16Z" fill="url(#Gradient-14)"/>
            <path class="cls-8" d="M567.32,897.57C580.07,916.57,596.6,944.29,605.52,954.57C615.93,966.57,647.18,1018.91,647.18,1018.91L600.31,1018.91C600.31,1018.91,595.08,996.58,584.68,995.73C570.36,994.57,567.76,986.73,565.15,979.6C563.78,975.84,558.03,956.82,549.47,937.42C549.79,936.61,550.1,935.797,550.398,934.979C550.697,934.161,550.984,933.339,551.261,932.514C551.538,931.689,551.804,930.86,552.059,930.027C552.314,929.195,552.557,928.359,552.79,927.52C557.2,911.72,563.05,902.56,567.32,897.57Z" fill="#007d29"/>
        </g>
    </g>
    <g id="man">
        <path class="cls-1" d="M1457.54,611.26L1447.89,626.11C1447.89,626.11,1446.45,626.56,1441.2,630.7C1433.9,633.04,1418.2,655.91,1436.93,670.27C1445.84,677.11,1455.51,657.48,1455.51,657.48C1455.51,657.48,1460.51,649.22,1457.51,644.69L1468.19,631.06Z" fill="#e6f5eb"/>
        <path class="cls-28" d="M1220.47,829.34C1220.53,829.34,1220.58,829.337,1220.64,829.332C1220.69,829.327,1220.75,829.319,1220.81,829.309C1220.86,829.299,1220.92,829.287,1220.97,829.272C1221.02,829.257,1221.08,829.24,1221.13,829.22C1221.55,829.06,1289.03,801.66,1334.52,772.99C1361.27,756.14,1383.83,738.39,1401.58,720.25C1423.84,697.49,1438.58,674.01,1445.31,650.48C1445.49,650.002,1445.45,649.473,1445.22,649.019C1444.99,648.565,1444.58,648.227,1444.09,648.088C1443.6,647.948,1443.08,648.019,1442.64,648.283C1442.21,648.548,1441.9,648.981,1441.8,649.48C1435.21,672.43,1420.8,695.38,1398.96,717.71C1381.42,735.64,1359.09,753.21,1332.58,769.91C1287.38,798.38,1220.24,825.65,1219.82,825.82C1219.42,825.967,1219.08,826.253,1218.86,826.626C1218.65,827,1218.57,827.437,1218.65,827.86C1218.73,828.283,1218.96,828.665,1219.29,828.938C1219.62,829.21,1220.04,829.356,1220.47,829.35Z" fill="#008c2e"/>
        <path class="cls-29" d="M1506.35,527.39C1497,543.39,1453.2,617.61,1453.2,617.61L1464.26,643.82C1464.26,643.82,1517.56,578.72,1529.88,559.34C1540.11,543.25,1564.5,512.99,1568.31,491.2C1571.16,474.89,1574.87,458.37,1569.64,451.02C1563.03,441.74,1541.15,433.77,1533.09,445.56C1530.22,449.75,1514.74,513,1506.35,527.39Z" fill="url(#Gradient-15)"/>
        <path class="cls-26" d="M1615.57,672.55C1615.57,672.55,1565.31,605.06,1556.29,645.37C1542.9,705.24,1529.66,778.51,1528.98,816.87C1528.96,817.665,1528.96,818.461,1528.98,819.257C1529.01,820.052,1529.06,820.846,1529.13,821.638C1529.21,822.43,1529.31,823.22,1529.43,824.006C1529.56,824.792,1529.71,825.573,1529.88,826.35L1529.88,826.35C1529.88,826.35,1522.52,942.94,1512.69,969.93C1512.69,969.942,1512.69,969.953,1512.69,969.965C1512.69,969.977,1512.69,969.988,1512.69,970C1512.69,970.012,1512.69,970.023,1512.69,970.035C1512.69,970.047,1512.69,970.058,1512.69,970.07C1512.69,970.07,1535.54,984.38,1542.69,973.35C1542.87,973.043,1543.04,972.732,1543.21,972.418C1543.38,972.104,1543.54,971.786,1543.69,971.465C1543.85,971.143,1543.99,970.819,1544.13,970.491C1544.27,970.164,1544.4,969.833,1544.53,969.5C1553.33,947.71,1576.83,855.5,1571.77,831.69C1579.11,764.35,1615.57,672.55,1615.57,672.55Z" fill="#4dba71"/>
        <path class="cls-9" d="M1544.47,969.5C1544.34,969.833,1544.21,970.164,1544.07,970.491C1543.93,970.819,1543.79,971.143,1543.63,971.465C1543.48,971.786,1543.32,972.104,1543.15,972.418C1542.98,972.732,1542.81,973.043,1542.63,973.35C1535.49,984.35,1512.63,970.07,1512.63,970.07C1512.63,970.058,1512.63,970.047,1512.63,970.035C1512.63,970.023,1512.63,970.012,1512.63,970C1512.63,969.988,1512.63,969.977,1512.63,969.965C1512.63,969.953,1512.63,969.942,1512.63,969.93C1512.47,970.02,1512.32,970.117,1512.17,970.22C1512.02,970.322,1511.88,970.43,1511.74,970.544C1511.6,970.658,1511.46,970.777,1511.33,970.902C1511.2,971.026,1511.07,971.156,1510.95,971.29C1506.87,976.29,1493.13,984.04,1489.41,983.02C1489.41,983.02,1479.99,984.42,1469.7,984.83C1459.41,985.24,1470.36,1001.57,1484.14,1002.55C1497.92,1003.53,1513.14,998.99,1516.75,1000.81C1520.36,1002.63,1536.28,1005.59,1537.75,1003.54C1539.26,1001.53,1540.59,999.395,1541.74,997.156C1542.88,994.918,1543.83,992.586,1544.58,990.185C1545.32,987.784,1545.86,985.323,1546.18,982.831C1546.51,980.338,1546.62,977.822,1546.51,975.31C1546.51,974.786,1546.47,974.264,1546.38,973.747C1546.3,973.231,1546.17,972.723,1545.99,972.229C1545.82,971.735,1545.6,971.256,1545.35,970.799C1545.09,970.342,1544.8,969.907,1544.47,969.5Z" fill="#009c33"/>
        <path class="cls-26" d="M1663.45,674.24L1665.34,630.94C1646.83,633.65,1586.77,642.76,1585.26,685.71C1585.26,685.71,1626.56,827.64,1627.73,830.3L1627.73,830.3C1627.73,830.3,1640.26,897.95,1646.45,983.3C1646.83,988.54,1666.19,988.96,1669.76,986.65C1683.37,977.87,1677.83,972.65,1677.83,972.65C1678.19,971.77,1681.27,851.14,1671.54,827.73C1666.24,757.47,1663.45,674.24,1663.45,674.24Z" fill="#4dba71"/>
        <path class="cls-9" d="M1677.83,972.68C1677.81,973.071,1677.79,973.462,1677.76,973.853C1677.73,974.243,1677.69,974.633,1677.64,975.022C1677.59,975.41,1677.54,975.798,1677.47,976.185C1677.41,976.571,1677.34,976.956,1677.26,977.34C1673.75,991.34,1646.5,983.7,1646.5,983.7C1646.38,983.839,1646.27,983.981,1646.15,984.127C1646.04,984.272,1645.94,984.421,1645.83,984.573C1645.73,984.725,1645.64,984.88,1645.54,985.038C1645.45,985.196,1645.36,985.357,1645.28,985.52C1642.87,992.17,1631.76,1004.81,1627.75,1004.95C1626.21,1005.73,1624.66,1006.48,1623.1,1007.22C1621.54,1007.95,1619.97,1008.67,1618.39,1009.37C1616.82,1010.06,1615.23,1010.74,1613.64,1011.4C1612.04,1012.06,1610.44,1012.69,1608.83,1013.31C1598.77,1017.11,1614.89,1030.77,1628.83,1027.31C1642.77,1023.85,1656.42,1014.06,1660.54,1014.81C1664.66,1015.56,1681.43,1013.45,1682.19,1010.81C1683.03,1008.17,1683.66,1005.46,1684.07,1002.72C1684.48,999.98,1684.66,997.209,1684.62,994.437C1684.58,991.665,1684.32,988.9,1683.83,986.171C1683.35,983.441,1682.64,980.756,1681.72,978.14C1681.56,977.594,1681.35,977.063,1681.1,976.551C1680.85,976.04,1680.56,975.55,1680.23,975.086C1679.9,974.622,1679.53,974.187,1679.13,973.784C1678.73,973.381,1678.29,973.012,1677.83,972.68Z" fill="#009c33"/>
        <path class="cls-30" d="M1610.33,409.84C1626.93,431.18,1671.58,441.22,1671.58,441.22C1671.58,441.22,1663.36,508.82,1658.02,548.48C1652.68,588.14,1662.21,630.94,1662.21,630.94C1662.21,630.94,1649.09,647.28,1638.36,650.86C1627.63,654.44,1637.07,673.24,1609.68,681.76C1592.3,687.17,1549.28,678.76,1549.28,678.76C1536.06,672.7,1537.99,672.82,1541.66,642.49C1545.33,612.16,1548.92,578.49,1548.4,566.83C1548.11,560.2,1546.4,527.83,1545.34,519.2C1540.64,479.42,1539.34,440.91,1539.34,440.91C1542.95,439.545,1546.52,438.066,1550.04,436.478C1553.57,434.889,1557.04,433.191,1560.45,431.385C1563.87,429.579,1567.22,427.667,1570.52,425.652C1573.82,423.636,1577.05,421.518,1580.21,419.3Z" fill="url(#Gradient-16)"/>
        <path class="cls-28" d="M1587.2,424.73L1586.5,431.73C1584.63,432.56,1579.95,426.83,1579.95,426.83L1580.53,417.51C1580.53,417.51,1584.31,414.86,1587.14,415.38C1589.97,415.9,1587.2,424.73,1587.2,424.73Z" fill="#008c2e"/>
        <g>
            <path class="cls-1" d="M1612.74,390.48L1617.41,425.98C1617.41,425.98,1602.14,438.24,1586.5,431.73C1586.5,431.73,1588.69,413.99,1585.39,403.73C1583.29,397.16,1612.74,390.48,1612.74,390.48Z" fill="#e6f5eb"/>
            <g class="cls-31" clip-path="url(#clip-path)">
                <path class="cls-2" d="M1613.15,387C1613.15,387,1615.3,425.14,1586.26,422C1557.22,418.86,1576.93,393.11,1576.93,393.11C1576.93,393.11,1597.32,373.54,1613.15,387Z" fill="#ccebd6"/>
            </g>
            <g id="head" transform="translate(1610.74,399.306) translate(-56.1575,-74.3709)" style="animation: 6s linear infinite both head_t;">
                <path class="cls-1" d="M1598,332.56C1581,330.42,1565.36,344.2,1563,363.34C1562.84,364.603,1562.74,365.873,1562.7,367.146C1562.66,368.419,1562.69,369.693,1562.78,370.963C1562.87,372.233,1563.02,373.498,1563.23,374.753C1563.45,376.008,1563.72,377.252,1564.06,378.48C1564.93,384.72,1566.22,394.22,1571.8,402.48C1574.61,406.62,1574.63,407.77,1575.87,410.19C1579.15,416.58,1579.67,414.9,1593.05,410.19C1594.26,409.777,1595.45,409.318,1596.63,408.813C1597.8,408.308,1598.96,407.757,1600.09,407.162C1601.22,406.567,1602.33,405.928,1603.41,405.247C1604.49,404.566,1605.54,403.843,1606.57,403.08C1614.15,397.08,1619.57,390.2,1621.69,381.22C1622.02,380.411,1622.33,379.592,1622.61,378.763C1622.89,377.934,1623.14,377.095,1623.36,376.249C1623.59,375.403,1623.78,374.55,1623.95,373.691C1624.11,372.832,1624.25,371.968,1624.36,371.1C1626.75,351.94,1615,334.7,1598,332.56Z" fill="#e6f5eb" transform="translate(-1554.58,-324.935)"/>
                <path class="cls-9" d="M1627.12,368.93C1628.6,357.24,1623.33,341.5,1623.33,341.5C1623.33,341.5,1622.73,330.33,1612.2,329.74C1591.2,328.58,1578.82,329.63,1574.86,327.27C1561.37,319.21,1571.48,335.01,1565.03,329.99C1555.56,322.61,1563.11,337.45,1557.49,329.99C1551.87,322.53,1554.86,344.72,1562.41,348.78C1558.24,356.89,1562.92,372.78,1562.92,372.78C1562.85,364.42,1564.22,356.83,1565.8,352.94C1568.9,355.49,1576.69,358.73,1603.33,355.87C1603.33,355.87,1598.66,371.65,1604.1,373.25C1604.1,373.25,1604.59,383.39,1605.77,383.78C1606.95,384.17,1611,373,1611,373C1611.6,373.37,1610,381.93,1610.57,385.24C1611.25,389.4,1612.38,396.59,1610.76,399.4C1617.89,397.55,1625.86,378.9,1627.12,368.93Z" fill="#009c33" transform="translate(-1554.58,-324.935)"/>
                <path class="cls-1" d="M1606.74,385.91C1606.74,385.91,1606.02,386.97,1609.35,386.48C1617.04,385.36,1626.35,366.87,1611.41,371.77Z" fill="#e6f5eb" transform="translate(-1554.58,-324.935)"/>
            </g>
        </g>
        <path class="cls-6" d="M1580.53,417.49C1580.53,417.49,1580.34,429.15,1586.53,431.73C1586.53,431.73,1578.45,436.43,1579.2,441.82C1579.17,441.82,1574.54,431.48,1580.53,417.49Z" fill="#66c485"/>
        <path class="cls-6" d="M1593.73,433.59L1600.92,450.29L1618.75,424.75C1618.96,424.345,1619.15,423.936,1619.35,423.525C1619.54,423.113,1619.73,422.699,1619.91,422.282C1620.09,421.865,1620.27,421.446,1620.43,421.024C1620.6,420.602,1620.76,420.177,1620.92,419.75C1620.92,419.75,1616.52,414.68,1616.05,415.86C1614.79,419.05,1603,428.81,1593.73,433.59Z" fill="#66c485"/>
        <g>
            <path class="cls-9" d="M1617.87,390.68L1617.38,391.43C1617.42,391.37,1617.47,391.309,1617.51,391.248C1617.55,391.187,1617.6,391.125,1617.64,391.062C1617.68,391,1617.72,390.937,1617.76,390.873C1617.79,390.809,1617.83,390.745,1617.87,390.68Z" fill="#009c33"/>
        </g>
        <path class="cls-1" d="M1657.73,666L1656.03,674.33C1637.51,671.14,1635.25,661.67,1635.25,661.67C1635.35,660.67,1635.51,659.678,1635.73,658.696C1635.94,657.715,1636.21,656.747,1636.54,655.796C1636.87,654.846,1637.25,653.916,1637.68,653.009C1638.11,652.102,1638.6,651.221,1639.13,650.37Z" fill="#e6f5eb"/>
        <path class="cls-32" d="M1671.58,441.22C1687.48,446.48,1693.84,488.67,1702.81,533.17C1703.81,538.26,1708.27,563.17,1708.27,563.17C1708.27,563.17,1689.27,614.36,1673.03,647.09C1660.03,673.26,1660.4,672.58,1660.4,672.58C1660.4,672.58,1631.75,660.63,1635.17,653.92C1650.39,623.92,1668.38,569.83,1673.84,559.68C1669.44,549.38,1638.65,507.02,1639.14,485.18C1639.14,485.18,1652.72,444.78,1664.92,441.24C1665.46,441.064,1666.01,440.93,1666.56,440.839C1667.12,440.749,1667.68,440.703,1668.25,440.701C1668.81,440.7,1669.38,440.742,1669.93,440.829C1670.49,440.916,1671.04,441.047,1671.58,441.22Z" fill="url(#Gradient-17)"/>
    </g>
    <g id="dog">
        <path class="cls-33" d="M1185,902.14C1185,902.14,1173,922.72,1169.08,954.96C1167.36,969.26,1166.59,992.67,1165.16,996.77C1157.24,1019.46,1154.11,1002.06,1149.3,1018.09C1152.82,1019.43,1170.36,1016.75,1170.36,1016.75C1170.36,1016.75,1181.58,994.75,1184.36,982.45C1187.14,970.15,1208.68,938.62,1220.36,923.17C1234.38,904.61,1206,889.06,1185,902.14Z" fill="url(#Gradient-18)"/>
        <path class="cls-34" d="M1312.78,915.91C1312.78,915.91,1325.52,956.43,1343.34,964.71C1355.92,970.56,1361.98,988.84,1362.15,993.04C1363.1,1016.31,1352.15,1001.69,1353.7,1017.86L1375.6,1017.76C1375.6,1017.76,1379.5,985.4,1377.3,973.38C1375.1,961.36,1367.88,944.11,1374.23,926.05C1380.58,907.99,1364.23,882.96,1364.23,882.96L1341.4,888.29Z" fill="url(#Gradient-19)"/>
        <g id="dog_body" transform="translate(1392.91,883.852) translate(-1392.91,-883.852)" style="animation: 6s linear infinite both dog_body_t;">
            <path class="cls-35" d="M1369.74,851C1369.74,851,1394.09,851.75,1406.94,872C1419.79,892.25,1441.94,903.82,1455.5,901.07C1455.3,901.438,1455.08,901.79,1454.82,902.12C1454.56,902.451,1454.28,902.76,1453.98,903.043C1453.67,903.327,1453.34,903.585,1452.99,903.814C1452.64,904.043,1452.27,904.242,1451.89,904.41C1451.89,904.41,1466.49,907.62,1474.65,904.12C1474.65,904.12,1465.09,929.45,1433.65,927.28C1433.8,927.593,1433.96,927.9,1434.14,928.199C1434.31,928.498,1434.5,928.789,1434.7,929.071C1434.9,929.354,1435.12,929.627,1435.34,929.891C1435.57,930.154,1435.8,930.407,1436.05,930.65C1436.05,930.65,1410.74,929.33,1399.71,909.13C1387.78,887.27,1374.31,878.65,1374.31,878.65Z" fill="url(#Gradient-20)" transform="translate(1369.83,853.24) translate(-1369.83,-853.24)" style="animation: 6s linear infinite both a9_t;"/>
            <g id="dog_bark" opacity="1" transform="translate(1150.5,777.609) scale(0,0) translate(-82.6556,-40.6078)" style="animation: 6s linear infinite both dog_bark_t, 6s linear infinite both dog_bark_o;">
                <path class="st0" d="M54.7,42.8L2.3,42.8C1,42.8,0,41.8,0,40.5L0,40.5C0,39.2,1,38.2,2.3,38.2L54.6,38.2C55.9,38.2,56.9,39.2,56.9,40.5L56.9,40.5C57,41.7,56,42.8,54.7,42.8Z" fill="#008C2E"/>
                <path class="st0" d="M59.4,60.1L11.5,81.1C10.3,81.6,8.9,81.1,8.4,79.9L8.4,79.9C7.9,78.7,8.4,77.3,9.6,76.8L57.5,55.8C58.7,55.3,60.1,55.8,60.6,57L60.6,57C61.1,58.2,60.6,59.6,59.4,60.1Z" fill="#008C2E"/>
                <path class="st0" d="M56.7,24.7L8.5,4.5C7.3,4,6.7,2.6,7.2,1.4L7.2,1.4C7.7,0.2,9.1,-0.4,10.3,0.1L58.6,20.3C59.8,20.8,60.4,22.2,59.9,23.4L59.9,23.4C59.3,24.6,57.9,25.2,56.7,24.7Z" fill="#008C2E"/>
            </g>
            <path class="cls-36" d="M1355.78,846.41C1307.78,839.49,1249.15,830.71,1239.31,808.54C1235.69,800.37,1227.31,764.9,1204.31,753.59C1181.31,742.28,1170.99,764.09,1164.31,764.07C1157.63,764.05,1150.75,763.19,1144.31,763.41C1144.31,763.41,1141.88,762.83,1140.74,766.02C1140.58,766.535,1140.47,767.063,1140.4,767.598C1140.34,768.133,1140.32,768.673,1140.35,769.211C1140.38,769.749,1140.46,770.284,1140.58,770.808C1140.71,771.333,1140.88,771.845,1141.09,772.34C1141.09,772.34,1139.89,777.25,1142.02,779.85C1142.87,780.85,1142.6,785.54,1146.5,789.35C1146.5,789.35,1143.5,794.8,1151.7,798.06C1160.91,801.7,1173.86,805.06,1175.17,819.53C1175.17,819.53,1155.58,882.3,1192.79,911.64C1230,940.98,1324.18,913.75,1353.94,935.35C1362.03,941.23,1396.1,897.78,1400.87,885.73C1400.86,885.73,1390.65,851.43,1355.78,846.41Z" fill="url(#Gradient-21)"/>
            <path class="cls-28" d="M1215,758.6C1222.77,768.6,1231.31,767.89,1234.42,773.94C1239.13,783.07,1211.33,796.74,1202.1,811.94C1197.7,819.18,1187.83,797.79,1191.22,788.14C1194.61,778.49,1202.77,759.45,1200.74,752.04C1200.74,752.05,1207.23,748.59,1215,758.6Z" fill="#008c2e" transform="translate(1200.87,753.275) translate(-1200.87,-753.275)" style="animation: 6s linear infinite both a10_t;"/>
            <path class="cls-28" d="M1209.4,763.39L1208.4,763.39C1208.4,763.39,1205.97,762.81,1204.83,766C1204.67,766.515,1204.56,767.043,1204.49,767.578C1204.43,768.113,1204.41,768.653,1204.44,769.191C1204.47,769.73,1204.54,770.264,1204.67,770.789C1204.79,771.313,1204.96,771.826,1205.18,772.32C1205.18,772.32,1210.48,771.83,1212.87,768.32C1216.24,763.54,1209.43,763.41,1209.4,763.39Z" fill="#008c2e"/>
            <path class="cls-28" d="M1250.91,820.53C1250.91,820.53,1185.33,849.28,1172.36,831.45L1175.16,819.53C1175.16,819.53,1206.29,822.43,1239.31,808.53C1239.31,808.54,1249.56,811.54,1250.91,820.53Z" fill="#008c2e"/>
        </g>
        <path class="cls-37" d="M1212,921.08C1212,921.08,1199.33,935.61,1204.64,963.77C1207.3,977.93,1210.27,992.67,1208.84,996.77C1200.92,1019.46,1197.84,1002.06,1192.98,1018.09C1196.5,1019.43,1214.04,1016.75,1214.04,1016.75C1214.04,1016.75,1225.26,994.75,1228.04,982.45C1230.82,970.15,1250.62,941.94,1262.31,926.45C1276.28,907.92,1215.21,860.94,1212,921.08Z" fill="url(#Gradient-22)"/>
        <path class="cls-38" d="M1343.2,930.24C1343.2,930.24,1367.2,955.24,1379.48,962.24C1391.76,969.24,1398.13,987.65,1398.3,992.08C1399.3,1016.58,1388.3,1001.18,1389.85,1018.2L1411.75,1018.1C1411.75,1018.1,1415.64,984.04,1413.44,971.38C1411.24,958.72,1404.02,940.56,1410.36,921.55C1416.7,902.54,1394.85,873,1394.85,873C1394.85,873,1370.22,850.23,1340,876C1313,899,1343.2,930.24,1343.2,930.24Z" fill="url(#Gradient-23)"/>
    </g>
    <path d="M-0.197006,-6.30264C9.95417,-11.9511,21.8732,-21.3398,16.2446,-44.4172C10.6159,-67.4946,14.0025,-64.345,14.0025,-79.5423C14.0025,-94.7396,-9.56868,-90.0582,-4.50291,-73.1723C0.562864,-56.2864,3.37719,-56.8492,-5.06577,-47.8434C-13.5087,-38.8376,-15.7602,-30.3945,-6.1915,-28.706C3.37718,-27.0175,-11.82,-24.766,-10.1315,-15.1973C-8.44296,-5.62864,-5.56589,-3.31518,-0.197006,-6.30264Z" fill="url(#Gradient-24)" stroke="none" opacity="0" style="transform: translate(-2.62474px,46.9106px); animation: 6s linear infinite both a11_o, 6s linear infinite both a11_d, 6s linear infinite both a11_mo; offset-path: path('M809.206,981.759L809.206,981.759C959.584,658.623,1182.03,335.854,1594.32,521.595L1594.32,521.595'); offset-rotate: 0deg;"/>
</svg>
