<?xml version="1.0" encoding="UTF-8" standalone="no"?>
<!-- Created with Keyshape -->
<svg xmlns="http://www.w3.org/2000/svg" viewBox="0 0 1920 1080">
    <defs>
        <linearGradient id="Gradient-0" x1="584.5" y1="458.86" x2="854.48" y2="995.84" gradientUnits="userSpaceOnUse">
            <stop offset="0" stop-color="#4dba71"/>
            <stop offset="1" stop-color="#007d29"/>
        </linearGradient>
        <linearGradient id="Gradient-1" x1="504.51" y1="499.08" x2="774.5" y2="1036.05" gradientUnits="userSpaceOnUse">
            <stop offset="0" stop-color="#4dba71"/>
            <stop offset="1" stop-color="#007d29"/>
        </linearGradient>
        <linearGradient id="Gradient-2" x1="440.01" y1="3256.73" x2="581.82" y2="3001.46" gradientUnits="userSpaceOnUse" gradientTransform="matrix(-0.76 -0.65 -0.65 0.76 3701.56 -1419.74)">
            <stop offset="0" stop-color="#4dba71"/>
            <stop offset="1" stop-color="#007d29"/>
        </linearGradient>
        <linearGradient id="Gradient-3" x1="1258.68" y1="756.44" x2="1287.04" y2="907.06" gradientUnits="userSpaceOnUse" gradientTransform="matrix(-1 0 0 1 2506.5 0)">
            <stop offset="0" stop-color="#4dba71"/>
            <stop offset="1" stop-color="#007d29"/>
        </linearGradient>
        <linearGradient id="Gradient-4" x1="1221.56" y1="778.87" x2="1363.38" y2="523.6" gradientUnits="userSpaceOnUse" gradientTransform="matrix(-1 0 0 1 2506.5 0)">
            <stop offset="0" stop-color="#4dba71"/>
            <stop offset="1" stop-color="#007d29"/>
        </linearGradient>
        <linearGradient id="Gradient-5" x1="1334.94" y1="249.05" x2="1404" y2="379.878" gradientUnits="userSpaceOnUse">
            <stop offset="0" stop-color="#4dba71"/>
            <stop offset="1" stop-color="#007d29"/>
        </linearGradient>
        <linearGradient id="Gradient-6" x1="539.08" y1="481.299" x2="539.08" y2="796.042" gradientUnits="userSpaceOnUse">
            <stop offset="0" stop-color="#4dba71"/>
            <stop offset="1" stop-color="#007d29"/>
        </linearGradient>
        <linearGradient id="Gradient-7" x1="991.81" y1="852.87" x2="991.81" y2="306.87" gradientUnits="userSpaceOnUse">
            <stop offset="0" stop-color="#b3e1c2"/>
            <stop offset="1" stop-color="#4dba71"/>
        </linearGradient>
        <linearGradient id="Gradient-8" x1="1123.32" y1="516.7" x2="1264.28" y2="516.7" gradientUnits="userSpaceOnUse">
            <stop offset="0" stop-color="#4dba71"/>
            <stop offset="1" stop-color="#007d29"/>
        </linearGradient>
        <linearGradient id="Gradient-9" x1="680.45" y1="639.28" x2="948.33" y2="639.28" gradientUnits="userSpaceOnUse">
            <stop offset="0" stop-color="#007d29"/>
            <stop offset="1" stop-color="#4dba71"/>
        </linearGradient>
        <linearGradient id="Gradient-10" x1="1320.14" y1="249.05" x2="1320.14" y2="336.84" gradientUnits="userSpaceOnUse">
            <stop offset="0" stop-color="#b3e1c2"/>
            <stop offset="1" stop-color="#4dba71"/>
        </linearGradient>
        <linearGradient id="Gradient-11" x1="1114.37" y1="854.35" x2="1114.37" y2="288.05" gradientUnits="userSpaceOnUse">
            <stop offset="0" stop-color="#b3e1c2"/>
            <stop offset="1" stop-color="#4dba71"/>
        </linearGradient>
        <linearGradient id="Gradient-12" x1="1075.67" y1="872.87" x2="1135.99" y2="872.87" gradientUnits="userSpaceOnUse">
            <stop offset="0" stop-color="#4dba71"/>
            <stop offset="1" stop-color="#007d29"/>
        </linearGradient>
        <linearGradient id="Gradient-13" x1="726.77" y1="852.87" x2="726.77" y2="306.87" gradientUnits="userSpaceOnUse">
            <stop offset="0" stop-color="#b3e1c2"/>
            <stop offset="1" stop-color="#4dba71"/>
        </linearGradient>
        <linearGradient id="Gradient-14" x1="731.96" y1="815.65" x2="859.31" y2="815.65" gradientUnits="userSpaceOnUse">
            <stop offset="0" stop-color="#4dba71"/>
            <stop offset="1" stop-color="#007d29"/>
        </linearGradient>
        <linearGradient id="Gradient-15" x1="798.3" y1="463.17" x2="825.3" y2="478.51" gradientUnits="userSpaceOnUse">
            <stop offset="0" stop-color="#4dba71"/>
            <stop offset="1" stop-color="#007d29"/>
        </linearGradient>
        <linearGradient id="Gradient-16" x1="957.73" y1="586.2" x2="758.73" y2="484.2" gradientUnits="userSpaceOnUse">
            <stop offset="0" stop-color="#4dba71"/>
            <stop offset="1" stop-color="#007d29"/>
        </linearGradient>
        <linearGradient id="Gradient-17" x1="989.76" y1="513.03" x2="772.36" y2="401.6" gradientUnits="userSpaceOnUse">
            <stop offset="0" stop-color="#4dba71"/>
            <stop offset="1" stop-color="#007d29"/>
        </linearGradient>
        <linearGradient id="Gradient-18" x1="1390.89" y1="902.81" x2="1353.85" y2="995.7" gradientUnits="userSpaceOnUse">
            <stop offset="0" stop-color="#4dba71"/>
            <stop offset="1" stop-color="#007d29"/>
        </linearGradient>
        <linearGradient id="Gradient-19" x1="1300.22" y1="847.1" x2="1432.97" y2="928.86" gradientUnits="userSpaceOnUse">
            <stop offset="0" stop-color="#4dba71"/>
            <stop offset="1" stop-color="#007d29"/>
        </linearGradient>
        <linearGradient id="Gradient-20" x1="1522.42" y1="855.14" x2="1482.76" y2="912.61" gradientUnits="userSpaceOnUse">
            <stop offset="0" stop-color="#b3e1c2"/>
            <stop offset="1" stop-color="#4dba71"/>
        </linearGradient>
        <linearGradient id="Gradient-21" x1="1317.55" y1="862.45" x2="1450.31" y2="944.2" gradientUnits="userSpaceOnUse">
            <stop offset="0" stop-color="#b3e1c2"/>
            <stop offset="1" stop-color="#4dba71"/>
        </linearGradient>
        <linearGradient id="Gradient-22" x1="1304.46" y1="883.71" x2="1437.21" y2="965.46" gradientUnits="userSpaceOnUse">
            <stop offset="0" stop-color="#c8dfc7"/>
            <stop offset="0.34" stop-color="#9ecea3"/>
            <stop offset="0.78" stop-color="#6cba78"/>
            <stop offset="1" stop-color="#59b267"/>
        </linearGradient>
        <linearGradient id="Gradient-23" x1="1321.77" y1="855.6" x2="1454.52" y2="937.36" gradientUnits="userSpaceOnUse">
            <stop offset="0" stop-color="#b3e1c2"/>
            <stop offset="1" stop-color="#4dba71"/>
        </linearGradient>
        <linearGradient id="Gradient-24" x1="1299.76" y1="891.34" x2="1432.51" y2="973.1" gradientUnits="userSpaceOnUse">
            <stop offset="0" stop-color="#b3e1c2"/>
            <stop offset="1" stop-color="#4dba71"/>
        </linearGradient>
        <clipPath id="clip-path">
            <path class="cls-1" d="M782.51,573.9C782.51,573.9,803.51,632.69,899.22,628.03C899.22,628.03,914.77,638.36,917.61,671.36C917.61,671.36,873.04,707.03,834.74,687.94C834.74,687.94,829.45,639.03,819.95,633.03C810.45,627.03,800.28,620.36,800.28,620.36L786.45,676.86C786.45,676.86,776.45,671.27,770.45,649.57C764.45,627.87,774.45,594.36,782.51,573.9Z" fill="none"/>
        </clipPath>
        <clipPath id="clip-path-3">
            <ellipse class="cls-1" rx="14.17" ry="14.17" fill="none" transform="translate(0,0) translate(1276.72,961.31)"/>
        </clipPath>
        <clipPath id="clip-path-2">
            <path class="cls-2" d="M1474.19,892.2C1445.94,882.33,1395.89,899.47,1373.06,880.15C1363.83,848.97,1344.51,844.55,1326.49,853.24C1320.38,856.24,1310.88,860.47,1307.49,874.16C1305.32,882.77,1308.22,892.06,1308.22,892.06C1305.67,892.67,1290.43,901.73,1291.07,908.59C1291.07,908.59,1291.5,913.14,1296.93,914.25C1296.93,914.25,1296.19,917.25,1306.16,922.59C1326.76,930.22,1331.64,906.03,1338.67,915.3C1347.19,926.99,1359.11,957.79,1382.73,955.68C1419.73,952.37,1460.41,961.82,1485.03,938.96C1498.06,926.82,1491.89,898.38,1474.19,892.2Z" fill="url(#Gradient-21)"/>
        </clipPath>
    </defs>
    <style>
@keyframes a0_t { 0% { transform: translate(0px,0px); animation-timing-function: cubic-bezier(0.42,0,0.58,1); } 50% { transform: translate(35.277437px,-0.000004px); animation-timing-function: cubic-bezier(0.42,0,0.58,1); } 100% { transform: translate(0px,0.000456px); } }
@keyframes a1_t { 0% { transform: translate(0px,0px); animation-timing-function: cubic-bezier(0.42,0,0.58,1); } 50% { transform: translate(-35.277437px,-0.000005px); animation-timing-function: cubic-bezier(0.42,0,0.58,1); } 100% { transform: translate(0px,-0.00001px); } }
@keyframes a2_t { 0% { transform: translate(1635.781267px,904.401929px) rotate(0deg) translate(-92.49127px,-169.371172px); animation-timing-function: cubic-bezier(0.42,0,0.58,1); } 50% { transform: translate(1635.781267px,904.401929px) rotate(-5deg) translate(-92.49127px,-169.371172px); animation-timing-function: cubic-bezier(0.42,0,0.58,1); } 100% { transform: translate(1635.781267px,904.401929px) rotate(0deg) translate(-92.49127px,-169.371172px); } }
@keyframes a3_t { 0% { transform: translate(1648.88811px,906.717059px) rotate(0deg) translate(-21.63811px,-250.917059px); animation-timing-function: cubic-bezier(0.42,0,0.58,1); } 50% { transform: translate(1648.88811px,906.717059px) rotate(10deg) translate(-21.63811px,-250.917059px); animation-timing-function: cubic-bezier(0.42,0,0.58,1); } 100% { transform: translate(1648.88811px,906.717059px) rotate(0deg) translate(-21.63811px,-250.917059px); } }
@keyframes a4_t { 0% { transform: translate(267.387261px,904.146027px) rotate(0deg) translate(-131.107554px,-248.346027px); animation-timing-function: cubic-bezier(0.42,0,0.58,1); } 50% { transform: translate(267.387261px,904.146027px) rotate(10deg) translate(-131.107554px,-248.346027px); animation-timing-function: cubic-bezier(0.42,0,0.58,1); } 100% { transform: translate(267.387261px,904.146027px) rotate(0deg) translate(-131.107554px,-248.346027px); } }
@keyframes a5_t { 0% { transform: translate(268.244272px,937.569435px) rotate(0deg) translate(-268.244272px,-937.569435px); animation-timing-function: cubic-bezier(0.42,0,0.58,1); } 50% { transform: translate(268.244272px,937.569435px) rotate(5deg) translate(-268.244272px,-937.569435px); animation-timing-function: cubic-bezier(0.42,0,0.58,1); } 100% { transform: translate(268.244272px,937.569435px) rotate(0deg) translate(-268.244272px,-937.569435px); } }
@keyframes a6_t { 0% { transform: translate(0px,0px); animation-timing-function: cubic-bezier(0.42,0,0.58,1); } 50% { transform: translate(19.641019px,0.000002px); animation-timing-function: cubic-bezier(0.42,0,0.58,1); } 100% { transform: translate(0px,-0.000262px); } }
@keyframes a7_t { 0% { transform: translate(0px,0px); animation-timing-function: cubic-bezier(0.42,0,0.58,1); } 50% { transform: translate(33.238648px,0.000005px); animation-timing-function: cubic-bezier(0.42,0,0.58,1); } 100% { transform: translate(0px,0.00016px); } }
@keyframes a8_t { 0% { transform: translate(1150.296324px,583.947369px) rotate(0deg) translate(-1172.694305px,-583.947369px); animation-timing-function: cubic-bezier(0.42,0,0.58,1); } 25% { transform: translate(1150.296324px,583.947369px) rotate(30deg) translate(-1172.694305px,-583.947369px); animation-timing-function: cubic-bezier(0.42,0,0.58,1); } 50% { transform: translate(1150.296324px,583.947369px) rotate(30deg) translate(-1172.694305px,-583.947369px); animation-timing-function: cubic-bezier(0.42,0,0.58,1); } 75% { transform: translate(1150.296324px,583.947369px) rotate(0deg) translate(-1172.694305px,-583.947369px); } 100% { transform: translate(1150.296324px,583.947369px) rotate(0deg) translate(-1172.694305px,-583.947369px); } }
@keyframes a9_t { 0% { transform: translate(1275.120207px,694.430922px) rotate(0deg) translate(-1275.120207px,-694.430922px); animation-timing-function: cubic-bezier(0.42,0,0.58,1); } 25% { transform: translate(1275.120207px,694.430922px) rotate(-40deg) translate(-1275.120207px,-694.430922px); animation-timing-function: cubic-bezier(0.42,0,0.58,1); } 50% { transform: translate(1275.120207px,694.430922px) rotate(-40deg) translate(-1275.120207px,-694.430922px); animation-timing-function: cubic-bezier(0.42,0,0.58,1); } 75% { transform: translate(1275.120207px,694.430922px) rotate(0deg) translate(-1275.120207px,-694.430922px); } 100% { transform: translate(1275.120207px,694.430922px) rotate(0deg) translate(-1275.120207px,-694.430922px); } }
@keyframes a10_t { 0% { transform: translate(1337.111203px,322.376969px) rotate(0deg) translate(-1337.111203px,-322.376969px); animation-timing-function: cubic-bezier(0.42,0,0.58,1); } 37.5% { transform: translate(1337.111203px,322.376969px) rotate(-10deg) translate(-1337.111203px,-322.376969px); animation-timing-function: cubic-bezier(0.42,0,0.58,1); } 75% { transform: translate(1337.111203px,322.376969px) rotate(0deg) translate(-1337.111203px,-322.376969px); } 100% { transform: translate(1337.111203px,322.376969px) rotate(0deg) translate(-1337.111203px,-322.376969px); } }
@keyframes a11_t { 0% { transform: translate(624.773606px,495.434509px) rotate(0deg) translate(-624.773606px,-495.434509px); animation-timing-function: cubic-bezier(0.42,0,0.58,1); } 25% { transform: translate(624.773606px,495.434509px) rotate(-20deg) translate(-624.773606px,-495.434509px); animation-timing-function: cubic-bezier(0.42,0,0.58,1); } 75% { transform: translate(624.773606px,495.434509px) rotate(0deg) translate(-624.773606px,-495.434509px); } 100% { transform: translate(624.773606px,495.434509px) rotate(0deg) translate(-624.773606px,-495.434509px); } }
@keyframes a12_t { 0% { transform: translate(1321.444285px,332.018149px) rotate(0deg) translate(-1321.444285px,-332.018149px); animation-timing-function: cubic-bezier(0.42,0,0.58,1); } 37.5% { transform: translate(1321.444285px,332.018149px) rotate(-20deg) translate(-1321.444285px,-332.018149px); animation-timing-function: cubic-bezier(0.42,0,0.58,1); } 75% { transform: translate(1321.444285px,332.018149px) rotate(0deg) translate(-1321.444285px,-332.018149px); } 100% { transform: translate(1321.444285px,332.018149px) rotate(0deg) translate(-1321.444285px,-332.018149px); } }
@keyframes a13_t { 0% { transform: translate(899.770224px,413.739393px) rotate(0deg) translate(-70.232324px,-76.337093px); animation-timing-function: cubic-bezier(0.42,0,0.58,1); } 25% { transform: translate(899.770224px,413.739393px) rotate(20deg) translate(-70.232324px,-76.337093px); animation-timing-function: cubic-bezier(0.42,0,0.58,1); } 50% { transform: translate(899.770224px,413.739393px) rotate(20deg) translate(-70.232324px,-76.337093px); animation-timing-function: cubic-bezier(0.42,0,0.58,1); } 75% { transform: translate(899.770224px,413.739393px) rotate(0deg) translate(-70.232324px,-76.337093px); } 100% { transform: translate(899.770224px,413.739393px) rotate(0deg) translate(-70.232324px,-76.337093px); } }
@keyframes hand-2_t { 0% { transform: translate(939.530097px,457.571693px) rotate(0deg) translate(-939.530097px,-457.571693px); animation-timing-function: cubic-bezier(0.42,0,0.58,1); } 25% { transform: translate(939.530097px,457.571693px) rotate(20deg) translate(-939.530097px,-457.571693px); animation-timing-function: cubic-bezier(0.42,0,0.58,1); } 50% { transform: translate(939.530097px,457.571693px) rotate(0deg) translate(-939.530097px,-457.571693px); animation-timing-function: cubic-bezier(0.42,0,0.58,1); } 75% { transform: translate(939.530097px,457.571693px) rotate(20deg) translate(-939.530097px,-457.571693px); animation-timing-function: cubic-bezier(0.42,0,0.58,1); } 100% { transform: translate(939.530097px,457.571693px) rotate(0deg) translate(-939.530097px,-457.571693px); } }
@keyframes a14_o { 0% { opacity: 0; } 12.5% { opacity: 0; animation-timing-function: cubic-bezier(0.42,0,0.58,1); } 25% { opacity: 1; } 37.5% { opacity: 0; animation-timing-function: cubic-bezier(0.42,0,0.58,1); } 62.5% { opacity: 0; animation-timing-function: cubic-bezier(0.42,0,0.58,1); } 75% { opacity: 1; } 87.5% { opacity: 0; } 100% { opacity: 0; } }
@keyframes Ball_t { 0% { transform: translate(27.59px,0.377px); } 12.5% { transform: translate(27.59px,0.377px); animation-timing-function: cubic-bezier(0.42,0,0.58,1); } 37.5% { transform: translate(27.59px,-32.565796px); animation-timing-function: cubic-bezier(0.42,0,0.58,1); } 50% { transform: translate(27.59px,0.377px); animation-timing-function: cubic-bezier(0.42,0,0.58,1); } 62.5% { transform: translate(27.59px,-21.302087px); animation-timing-function: cubic-bezier(0.42,0,0.58,1); } 75% { transform: translate(27.59px,0.377px); animation-timing-function: cubic-bezier(0.42,0,0.58,1); } 87.5% { transform: translate(27.59px,-11.896062px); animation-timing-function: cubic-bezier(0.42,0,0.58,1); } 100% { transform: translate(27.59px,0.377px); } }
@keyframes dog_body_t { 0% { transform: translate(1480.592952px,929.514629px) rotate(0deg) translate(-1480.592952px,-929.514629px); animation-timing-function: cubic-bezier(0.42,0,0.58,1); } 12.5% { transform: translate(1480.592952px,929.514629px) rotate(-10deg) translate(-1480.592952px,-929.514629px); animation-timing-function: cubic-bezier(0.42,0,0.58,1); } 37.5% { transform: translate(1480.592952px,929.514629px) rotate(0deg) translate(-1480.592952px,-929.514629px); } 100% { transform: translate(1480.592952px,929.514629px) rotate(0deg) translate(-1480.592952px,-929.514629px); } }
@keyframes a15_t { 0% { transform: translate(1481.7105px,907.618645px) rotate(0deg) translate(-1481.7105px,-907.618645px); animation-timing-function: cubic-bezier(0.42,0,0.58,1); } 12.5% { transform: translate(1481.7105px,907.618645px) rotate(20deg) translate(-1481.7105px,-907.618645px); animation-timing-function: cubic-bezier(0.42,0,0.58,1); } 25% { transform: translate(1481.7105px,907.618645px) rotate(0deg) translate(-1481.7105px,-907.618645px); animation-timing-function: cubic-bezier(0.42,0,0.58,1); } 37.5% { transform: translate(1481.7105px,907.618645px) rotate(20deg) translate(-1481.7105px,-907.618645px); animation-timing-function: cubic-bezier(0.42,0,0.58,1); } 50% { transform: translate(1481.7105px,907.618645px) rotate(0deg) translate(-1481.7105px,-907.618645px); animation-timing-function: cubic-bezier(0.42,0,0.58,1); } 62.5% { transform: translate(1481.7105px,907.618645px) rotate(20deg) translate(-1481.7105px,-907.618645px); animation-timing-function: cubic-bezier(0.42,0,0.58,1); } 75% { transform: translate(1481.7105px,907.618645px) rotate(0deg) translate(-1481.7105px,-907.618645px); animation-timing-function: cubic-bezier(0.42,0,0.58,1); } 87.5% { transform: translate(1481.7105px,907.618645px) rotate(20deg) translate(-1481.7105px,-907.618645px); animation-timing-function: cubic-bezier(0.42,0,0.58,1); } 100% { transform: translate(1481.7105px,907.618645px) rotate(0deg) translate(-1481.7105px,-907.618645px); animation-timing-function: cubic-bezier(0.42,0,0.58,1); } }
@keyframes a16_t { 0% { transform: translate(1338.145179px,852.155164px) rotate(0deg) translate(-1338.145179px,-852.155164px); animation-timing-function: cubic-bezier(0.42,0,0.58,1); } 25% { transform: translate(1338.145179px,852.155164px) rotate(30deg) translate(-1338.145179px,-852.155164px); animation-timing-function: cubic-bezier(0.42,0,0.58,1); } 50% { transform: translate(1338.145179px,852.155164px) rotate(-30deg) translate(-1338.145179px,-852.155164px); animation-timing-function: cubic-bezier(0.42,0,0.58,1); } 75% { transform: translate(1338.145179px,852.155164px) rotate(0deg) translate(-1338.145179px,-852.155164px); } 100% { transform: translate(1338.145179px,852.155164px) rotate(0deg) translate(-1338.145179px,-852.155164px); } }
    </style>
    <title>illustration4</title>
    <g id="BG">
        <g>
            <ellipse class="cls-3" rx="543" ry="21.57" fill="#ccebd6" transform="translate(0,0) translate(947.92,968.03)"/>
            <g>
                <path class="cls-4" d="M610.58,207C610.22,207,609.87,207,609.52,207.06C609.038,201.288,607.114,195.729,603.926,190.894C600.737,186.058,596.385,182.1,591.27,179.383C586.155,176.666,580.439,175.277,574.647,175.343C568.855,175.409,563.172,176.927,558.12,179.76C554.456,171.974,548.359,165.592,540.749,161.576C533.138,157.56,524.428,156.129,515.933,157.499C507.438,158.868,499.619,162.964,493.657,169.168C487.694,175.372,483.912,183.347,482.88,191.89C478.419,189.633,473.518,188.377,468.521,188.209C463.524,188.042,458.55,188.968,453.948,190.922C449.345,192.876,445.225,195.811,441.875,199.523C438.524,203.234,436.025,207.632,434.55,212.41C434.293,212.352,434.034,212.301,433.773,212.257C433.513,212.213,433.252,212.176,432.99,212.146C432.727,212.116,432.465,212.093,432.201,212.077C431.938,212.061,431.674,212.052,431.41,212.05C423.75,212.05,416.41,214.55,415.92,222.05C414.06,220.23,409.78,217.35,406.97,217.35C401.27,217.35,401.38,222.86,389.77,224.68L649.58,224.68C631.69,219.8,624.52,207,610.58,207Z" fill="#e6f5eb" transform="translate(519.675,190.837) translate(-519.675,-190.837)" style="animation: 4s linear infinite both a0_t;"/>
                <path class="cls-4" d="M190.89,146.08C191.12,146.08,191.34,146.08,191.57,146.08C191.878,142.433,193.096,138.922,195.113,135.867C197.129,132.813,199.879,130.313,203.112,128.597C206.345,126.881,209.956,126.003,213.616,126.043C217.275,126.084,220.866,127.042,224.06,128.83C226.377,123.911,230.231,119.879,235.04,117.342C239.85,114.806,245.354,113.902,250.722,114.768C256.09,115.634,261.031,118.222,264.799,122.142C268.567,126.063,270.957,131.102,271.61,136.5C272.363,136.117,273.139,135.778,273.932,135.486C274.725,135.194,275.535,134.949,276.357,134.752C277.179,134.555,278.011,134.407,278.851,134.308C279.69,134.209,280.535,134.16,281.38,134.16C283.688,134.159,285.98,134.526,288.173,135.246C290.365,135.966,292.429,137.031,294.286,138.399C296.144,139.768,297.772,141.424,299.11,143.304C300.447,145.185,301.477,147.266,302.16,149.47C302.324,149.433,302.489,149.4,302.655,149.372C302.82,149.343,302.987,149.32,303.154,149.3C303.321,149.281,303.488,149.267,303.656,149.257C303.824,149.246,303.992,149.241,304.16,149.24C309,149.24,313.63,150.82,313.95,155.58C315.12,154.43,317.83,152.58,319.6,152.58C323.21,152.58,323.14,156.06,330.48,157.22L166.24,157.22C177.55,154.16,182.08,146.08,190.89,146.08Z" fill="#e6f5eb" transform="translate(248.36,135.834) translate(-248.36,-135.834)" style="animation: 4s linear infinite both a1_t;"/>
                <g>
                    <g transform="translate(1635.78,904.402) translate(-92.4913,-169.371)" style="animation: 4s linear infinite both a2_t;">
                        <path class="cls-3" d="M1619.09,949.59C1619.09,949.59,1619.09,930.67,1590.7,911.74C1562.31,892.81,1549.7,854.97,1581.24,854.97C1612.78,854.97,1540.24,832.89,1543.39,807.66C1546.54,782.43,1559.16,798.19,1562.32,785.58C1565.48,772.97,1540.24,716.19,1565.47,741.42C1590.7,766.65,1593.86,788.73,1603.32,766.65C1612.78,744.57,1631.71,754.04,1625.4,785.58C1619.09,817.12,1626.28,821.34,1641.61,806.58C1656.94,791.82,1701.1,785.58,1675.87,829.7C1650.64,873.82,1678.45,885.79,1658.23,911.37C1638.01,936.95,1619.09,918.05,1619.09,949.59Z" fill="#ccebd6" transform="translate(-1543.29,-735.031)"/>
                        <path class="cls-5" d="M1578.8,783.87C1578.8,783.87,1620.11,855.21,1620.8,886.08C1621.49,916.95,1621.64,930.27,1644.86,946.83" stroke-width="1.67px" stroke-linecap="round" stroke-linejoin="round" stroke="#009c33" fill="none" transform="translate(-1543.29,-735.031)"/>
                        <path class="cls-5" d="M1604.75,800.27C1604.75,800.27,1603.62,823.72,1608,842.04C1608,842.04,1596.39,828.38,1589,823.7" stroke-width="1.67px" stroke-linecap="round" stroke-linejoin="round" stroke="#009c33" fill="none" transform="translate(-1543.29,-735.031)"/>
                        <path class="cls-5" d="M1619.05,834.25C1619.05,834.25,1619.25,861.79,1620.48,881.89C1620.48,881.89,1606.81,859.5,1599.48,854.82" stroke-width="1.67px" stroke-linecap="round" stroke-linejoin="round" stroke="#009c33" fill="none" transform="translate(-1543.29,-735.031)"/>
                    </g>
                    <g transform="translate(1648.89,906.717) translate(-21.6381,-250.917)" style="animation: 4s linear infinite both a3_t;">
                        <path class="cls-6" d="M1627.25,949.12C1627.25,949.12,1655.64,933.35,1646.17,876.57C1636.7,819.79,1654.02,756.4,1683.74,720.57C1718.41,678.77,1775.49,655.8,1775.49,655.8C1775.49,655.8,1803.88,731.5,1759.72,810.35C1715.56,889.2,1649.33,949.12,1627.25,949.12Z" fill="#66c485" transform="translate(-1627.25,-655.8)"/>
                        <path class="cls-7" d="M1755.62,691.79C1755.62,691.79,1684.43,797.31,1679.41,847.56C1674.39,897.81,1667.21,925.06,1627.25,949.12" stroke="#c8dfc7" stroke-linejoin="round" stroke-width="1.67px" stroke-linecap="round" fill="none" transform="translate(-1627.25,-655.8)"/>
                        <path class="cls-7" d="M1711.23,715.24C1711.23,715.24,1711.74,753.75,1702.23,783.07C1702.23,783.07,1721.23,762.14,1733.8,755.44" stroke="#c8dfc7" stroke-linejoin="round" stroke-width="1.67px" stroke-linecap="round" fill="none" transform="translate(-1627.25,-655.8)"/>
                        <path class="cls-7" d="M1683.6,768.84C1683.6,768.84,1690.6,807.35,1681.08,836.67C1681.08,836.67,1700.34,811.55,1712.91,804.85" stroke="#c8dfc7" stroke-linejoin="round" stroke-width="1.67px" stroke-linecap="round" fill="none" transform="translate(-1627.25,-655.8)"/>
                    </g>
                    <path class="cls-8" d="M1815.28,949.58C1815.28,949.58,1718.41,912.26,1672.53,922.45C1626.65,932.64,1585.85,902.06,1557.3,898C1528.75,893.94,1532.83,894.94,1496.12,911.26C1459.41,927.58,1375.8,937.77,1370.7,940.83L1271.11,950L1815.28,949.6" fill="#80ce99"/>
                    <g>
                        <path class="cls-9" d="M1766.22,791.12L1766.08,790.91C1766.08,790.91,1712.63,803.3,1680.16,825.85C1652.32,845.18,1636.11,879.37,1644.97,909.99C1650.03,927.48,1643.53,937.75,1637.03,943.35C1700.79,907,1761.65,799.31,1766.22,791.12Z" fill="#33b05c"/>
                        <path class="cls-10" d="M1751.31,874.27C1790.96,833.49,1768.17,794.27,1766.22,791.12C1761.65,799.31,1700.79,906.98,1637.03,943.35C1636.31,943.973,1635.56,944.563,1634.79,945.119C1634.02,945.674,1633.22,946.195,1632.4,946.678C1631.58,947.162,1630.74,947.608,1629.88,948.016C1629.02,948.423,1628.14,948.792,1627.25,949.12C1647.93,949.12,1710,916.79,1751.31,874.27Z" fill="#009c33"/>
                    </g>
                    <path class="cls-8" d="M1911.14,949.58C1911.14,949.58,1814.26,912.26,1768.38,922.45C1722.5,932.64,1681.7,902.06,1653.15,898C1624.6,893.94,1628.68,894.94,1591.97,911.26C1555.26,927.58,1503.26,938.79,1494.08,934.71C1494.08,934.71,1487.96,899.02,1475.73,894.94C1475.73,894.94,1490,923.49,1486.94,932.67C1486.94,932.67,1477.77,902.08,1469.61,898C1469.61,898,1481.84,925.53,1474.71,938.79C1474.71,938.79,1471.65,921.45,1469.61,918.39C1469.61,918.39,1471.61,937.77,1466.55,940.83L1367,950L1911.18,949.6" fill="#80ce99"/>
                </g>
                <g>
                    <path class="cls-3" d="M301.67,949.59C301.67,949.59,301.67,930.67,330.06,911.74C358.45,892.81,371.06,854.97,339.52,854.97C307.98,854.97,380.52,832.89,377.37,807.66C374.22,782.43,361.6,798.19,358.44,785.58C355.28,772.97,380.52,716.19,355.29,741.42C330.06,766.65,326.9,788.73,317.44,766.65C307.98,744.57,289.05,754,295.36,785.58C301.67,817.16,294.48,821.34,279.15,806.58C263.82,791.82,219.66,785.58,244.9,829.7C270.14,873.82,242.31,885.79,262.53,911.37C282.75,936.95,301.67,918.05,301.67,949.59Z" fill="#ccebd6"/>
                    <path class="cls-5" d="M342,783.87C342,783.87,300.69,855.21,300,886.08C299.31,916.95,299.16,930.27,275.94,946.83" stroke-width="1.67px" stroke-linecap="round" stroke-linejoin="round" stroke="#009c33" fill="none"/>
                    <path class="cls-5" d="M316,800.27C316,800.27,317.13,823.72,312.75,842.04C312.75,842.04,324.36,828.38,331.7,823.7" stroke-width="1.67px" stroke-linecap="round" stroke-linejoin="round" stroke="#009c33" fill="none"/>
                    <path class="cls-5" d="M301.71,834.25C301.71,834.25,301.51,861.79,300.28,881.89C300.28,881.89,313.95,859.5,321.28,854.82" stroke-width="1.67px" stroke-linecap="round" stroke-linejoin="round" stroke="#009c33" fill="none"/>
                    <g transform="translate(267.387,904.146) translate(-131.108,-248.346)" style="animation: 4s linear infinite both a4_t;">
                        <path class="cls-8" d="M293.51,949.12C293.51,949.12,265.12,933.35,274.59,876.57C284.06,819.79,266.74,756.4,237.02,720.57C202.35,678.77,145.27,655.8,145.27,655.8C145.27,655.8,116.88,731.48,161,810.33C205.12,889.18,271.43,949.12,293.51,949.12Z" fill="#80ce99" transform="translate(-136.28,-655.8)"/>
                        <path class="cls-7" d="M165.15,691.79C165.15,691.79,236.33,797.31,241.35,847.56C246.37,897.81,253.55,925.06,293.51,949.12" stroke="#c8dfc7" stroke-linejoin="round" stroke-width="1.67px" stroke-linecap="round" fill="none" transform="translate(-136.28,-655.8)"/>
                        <path class="cls-7" d="M209.53,715.24C209.53,715.24,209.02,753.75,218.53,783.07C218.53,783.07,199.53,762.14,186.96,755.44" stroke="#c8dfc7" stroke-linejoin="round" stroke-width="1.67px" stroke-linecap="round" fill="none" transform="translate(-136.28,-655.8)"/>
                        <path class="cls-7" d="M237.17,768.84C237.17,768.84,230.17,807.35,239.68,836.67C239.68,836.67,220.42,811.55,207.85,804.85" stroke="#c8dfc7" stroke-linejoin="round" stroke-width="1.67px" stroke-linecap="round" fill="none" transform="translate(-136.28,-655.8)"/>
                    </g>
                    <path class="cls-8" d="M105.48,949.58C105.48,949.58,202.35,912.26,248.23,922.45C294.11,932.64,334.91,902.06,363.46,898C392.01,893.94,387.93,894.94,424.64,911.26C461.35,927.58,505.89,940,515.07,936C515.07,936,528.65,899,540.89,895C540.89,895,526.61,923.55,529.67,932.73C529.67,932.73,538.85,902.14,547,898.06C547,898.06,534.77,925.59,541.91,938.85C541.91,938.85,544.96,921.51,547,918.45C547,918.45,545,937.83,550.06,940.89L649.65,950L105.48,949.6" fill="#80ce99"/>
                    <g transform="translate(268.244,937.569) translate(-268.244,-937.569)" style="animation: 4s linear infinite both a5_t;">
                        <path class="cls-9" d="M154.54,791.12L154.68,790.91C154.68,790.91,208.13,803.3,240.6,825.85C268.44,845.18,284.6,879.37,275.79,909.99C270.73,927.48,277.23,937.75,283.73,943.35C220,907,159.11,799.31,154.54,791.12Z" fill="#33b05c"/>
                        <path class="cls-11" d="M169.45,874.27C129.8,833.49,152.6,794.27,154.54,791.12C159.11,799.31,220,907,283.73,943.35C284.449,943.973,285.196,944.563,285.969,945.119C286.742,945.674,287.539,946.195,288.359,946.678C289.178,947.162,290.019,947.608,290.879,948.016C291.739,948.423,292.617,948.792,293.51,949.12C272.83,949.12,210.8,916.79,169.45,874.27Z" fill="#008c2e"/>
                    </g>
                    <path class="cls-8" d="M9.63,949.58C9.63,949.58,106.5,912.26,152.38,922.45C198.26,932.64,239.06,902.06,267.61,898C296.16,893.94,292.08,894.94,328.79,911.26C365.5,927.58,417.5,938.79,426.68,934.71C426.68,934.71,432.8,899.02,445.03,894.94C445.03,894.94,430.76,923.49,433.82,932.67C433.82,932.67,442.99,902.08,451.15,898C451.15,898,438.92,925.53,446.05,938.79C446.05,938.79,449.11,921.45,451.15,918.39C451.15,918.39,449.15,937.77,454.21,940.83L553.8,950L9.63,949.6" fill="#80ce99"/>
                </g>
                <ellipse class="cls-3" rx="68" ry="68" fill="#ccebd6" transform="translate(0,0) translate(1523.12,155.38)"/>
                <path class="cls-4" d="M1513.85,209.21L1513.33,209.21C1513.1,206.383,1512.15,203.659,1510.59,201.291C1509.03,198.922,1506.9,196.983,1504.4,195.653C1501.89,194.323,1499.09,193.644,1496.25,193.678C1493.42,193.713,1490.63,194.46,1488.16,195.85C1486.37,192.035,1483.38,188.907,1479.66,186.939C1475.93,184.971,1471.66,184.269,1467.5,184.94C1463.34,185.611,1459.51,187.618,1456.59,190.658C1453.67,193.698,1451.82,197.605,1451.32,201.79C1449.13,200.686,1446.73,200.071,1444.29,199.99C1441.84,199.909,1439.41,200.363,1437.15,201.319C1434.9,202.276,1432.88,203.713,1431.24,205.531C1429.6,207.348,1428.37,209.501,1427.65,211.84C1427.52,211.811,1427.4,211.785,1427.27,211.763C1427.14,211.741,1427.01,211.723,1426.88,211.708C1426.76,211.693,1426.63,211.681,1426.5,211.673C1426.37,211.665,1426.24,211.661,1426.11,211.66C1422.37,211.66,1418.78,212.88,1418.53,216.57C1417.62,215.68,1415.53,214.27,1414.15,214.27C1411.36,214.27,1411.41,216.96,1405.72,217.86L1532.94,217.86C1524.18,215.47,1520.67,209.21,1513.85,209.21Z" fill="#e6f5eb" transform="translate(1469.33,201.276) translate(-1469.33,-201.276)" style="animation: 4s linear infinite both a6_t;"/>
                <path class="cls-4" d="M1740.53,158.15C1740.21,158.15,1739.89,158.15,1739.53,158.15C1739.1,152.984,1737.38,148.01,1734.52,143.683C1731.67,139.356,1727.77,135.815,1723.19,133.385C1718.62,130.955,1713.5,129.715,1708.32,129.777C1703.13,129.839,1698.05,131.201,1693.53,133.74C1690.25,126.777,1684.8,121.068,1678,117.476C1671.19,113.884,1663.4,112.603,1655.8,113.827C1648.21,115.051,1641.21,118.713,1635.88,124.261C1630.55,129.808,1627.16,136.94,1626.24,144.58C1622.25,142.581,1617.87,141.475,1613.41,141.339C1608.94,141.203,1604.5,142.041,1600.4,143.794C1596.29,145.547,1592.62,148.173,1589.63,151.49C1586.64,154.806,1584.41,158.734,1583.09,163C1582.86,162.948,1582.63,162.902,1582.4,162.863C1582.16,162.824,1581.93,162.791,1581.69,162.764C1581.46,162.737,1581.22,162.717,1580.99,162.703C1580.75,162.689,1580.52,162.681,1580.28,162.68C1573.43,162.68,1566.87,164.92,1566.43,171.68C1564.76,170.05,1560.94,167.47,1558.43,167.47C1553.33,167.47,1553.43,172.4,1543.04,174.03L1775.42,174.03C1759.4,169.59,1753,158.15,1740.53,158.15Z" fill="#e6f5eb" transform="translate(1659.23,143.703) translate(-1659.23,-143.703)" style="animation: 4s linear infinite both a7_t;"/>
            </g>
        </g>
    </g>
    <g id="hand">
        <g>
            <g>
                <path class="cls-12" d="M741.84,913.34C758.46,923.34,758.46,950.01,758.46,950.01L716.8,950.01C716.8,950.01,709.29,931.67,705.44,925.65C705.379,925.562,705.316,925.476,705.252,925.39C705.188,925.305,705.123,925.22,705.056,925.137C704.99,925.054,704.922,924.971,704.852,924.89C704.783,924.809,704.712,924.729,704.64,924.65C715.8,920.21,726.72,912.65,733.44,907.53C734.111,908.054,734.79,908.569,735.476,909.073C736.162,909.578,736.856,910.072,737.556,910.556C738.256,911.041,738.964,911.515,739.678,911.979C740.392,912.443,741.113,912.897,741.84,913.34Z" fill="#006d24"/>
                <path class="cls-13" d="M630,610.09C615,572.2,611.19,512.87,611.19,512.87L766.87,585.87C766.87,585.87,756.87,629.61,746.87,677.76C736.87,725.91,697.54,772.59,693.45,780.3C690.31,786.23,691.2,798.3,693.7,811.94L647.44,819.72C641.77,801.26,636,779.9,641.52,771.28C646.81,763.01,650.64,752.94,662.33,736.74C674.02,720.54,675.09,691.36,668.42,677.74C661.75,664.12,645,648,630,610.09Z" fill="url(#Gradient-0)"/>
                <path class="cls-14" d="M708.46,872.18C711.11,885.89,722.33,898.77,733.46,907.49C726.74,912.63,715.82,920.17,704.66,924.61C698.66,917.46,687.77,925.71,677.45,906.32C671,894.22,660,866,654.21,842.43C652.79,836.65,650.12,828.51,647.42,819.73L693.68,812C697.82,834.53,706.38,861.44,708.46,872.18Z" fill="url(#Gradient-1)"/>
            </g>
            <g transform="translate(1150.3,583.947) translate(-1172.69,-583.947)" style="animation: 4s linear infinite both a8_t;">
                <g transform="translate(1275.12,694.431) translate(-1275.12,-694.431)" style="animation: 4s linear infinite both a9_t;">
                    <path class="cls-15" d="M1294,690.39C1295.2,714.65,1274.64,745,1261.2,773.15C1259.41,774.203,1257.66,775.333,1255.96,776.538C1254.26,777.742,1252.62,779.021,1251.04,780.368C1249.45,781.716,1247.93,783.133,1246.47,784.613C1245,786.094,1243.61,787.638,1242.28,789.24C1236.51,796.01,1228.84,799.5,1222.28,801.38C1231.9,777.83,1248.57,714.8,1253.17,701.64C1259.34,683.93,1292.49,661,1294,690.39Z" fill="url(#Gradient-2)"/>
                    <path class="cls-16" d="M1261.16,773.15C1260.46,774.583,1259.78,776.025,1259.12,777.478C1258.47,778.931,1257.83,780.394,1257.22,781.865C1256.6,783.337,1256.01,784.818,1255.44,786.307C1254.87,787.797,1254.32,789.294,1253.8,790.8C1242.8,823.35,1244.89,853.8,1247.57,866.62C1251.27,884.26,1242,912.76,1242,912.76L1209.54,885.08C1209.54,885.08,1223.41,867.64,1214.92,856.69C1206.43,845.74,1206.13,832.86,1213.54,820.28C1214.36,818.752,1215.16,817.211,1215.94,815.659C1216.71,814.106,1217.46,812.541,1218.19,810.965C1218.91,809.389,1219.62,807.802,1220.29,806.204C1220.97,804.606,1221.62,802.998,1222.25,801.38C1228.8,799.5,1236.47,796.01,1242.25,789.24C1243.58,787.638,1244.97,786.094,1246.43,784.614C1247.89,783.133,1249.42,781.717,1251,780.369C1252.59,779.021,1254.23,777.743,1255.92,776.538C1257.62,775.333,1259.37,774.203,1261.16,773.15Z" fill="url(#Gradient-3)"/>
                    <path class="cls-12" d="M1216.82,860.13L1248.29,871.84C1248.29,871.84,1249.77,901.13,1242.21,913L1208.76,885C1208.76,885,1215.17,872,1216.82,860.13Z" fill="#006d24" transform="translate(-1.87284e-05,0)"/>
                </g>
                <path class="cls-17" d="M1289,676.56C1289,676.56,1259.21,635.78,1245.45,617.56C1231.69,599.34,1228.21,551.56,1208.23,545.46C1188.25,539.36,1126.6,557.62,1130.08,601.91C1133.56,646.2,1194.34,653.15,1211.71,666.17C1229.08,679.19,1249.92,701.78,1262.08,711.33C1274.24,720.88,1305.52,699.14,1289,676.56Z" fill="url(#Gradient-4)"/>
            </g>
            <path class="cls-18" d="M1346.63,336.84C1346.63,336.84,1351.63,311.71,1346.63,287.05C1341.63,262.39,1339.95,249.05,1339.95,249.05C1339.95,249.05,1328.27,258.75,1323.26,288.12C1318.25,317.49,1323.26,336.84,1323.26,336.84Z" fill="url(#Gradient-5)" stroke="none" transform="translate(1337.11,322.377) translate(-1337.11,-322.377)" style="animation: 4s linear infinite both a10_t;"/>
            <path class="cls-19" d="M633.35,485.21C633.35,485.21,613.35,476.41,581.6,485.21C549.85,494.01,499.81,539.21,494.81,593.5C489.81,647.79,489.81,701.16,479.81,723.57C469.81,745.98,444.81,758.97,444.81,758.97L474.81,758.97L444.81,781.54C444.81,781.54,476.53,814.17,514.92,781.54C523.6,774.16,581.68,794.3,570,593.54C569.16,579.11,560,536.64,578.34,522.75C596.68,508.86,623.41,510.96,623.41,510.96Z" fill="url(#Gradient-6)" stroke="none" transform="translate(624.774,495.435) translate(-624.774,-495.435)" style="animation: 4s linear infinite both a11_t;"/>
            <path class="cls-20" d="M705.12,415.05C775.22,394.26,853.67,415.76,895.4,414.19C937.13,412.62,1066.7,383.33,1066.7,383.33L1066.7,383.33C1093.04,364.86,1147.81,328.67,1200.86,307.46C1219.86,299.84,1261,297.68,1297.19,304.3C1329.96,310.3,1358.88,323.98,1364.43,349.19C1364.43,349.19,1372.43,363.36,1372.43,378.75C1372.43,394.14,1370.05,393.58,1366.07,414.41C1362.94,430.81,1356.07,502.75,1352.74,522.78C1349.41,542.81,1322.66,540.37,1316.4,535.37C1311.01,539.68,1301.62,538.85,1296.62,532.17C1291.62,525.49,1289.31,516.1,1289.31,502.75C1289.31,489.4,1278.2,481.01,1271.58,452.68C1267.99,437.33,1264.27,424.1,1264.27,414.18C1250.92,424.02,1234.91,455.48,1232.56,468.18C1227.04,498.05,1223.87,516.49,1215.87,544.48C1200.87,597.03,1174.14,616.22,1174.14,616.22C1130.74,644.92,1037.27,662.82,967.14,665.43C897.01,668.04,848.74,656.43,818.58,644.92C791.88,634.76,726.78,662.92,696.73,654.61C666.68,646.3,642.51,606.21,616.61,541.11C596.12,489.53,635,435.83,705.12,415.05Z" fill="url(#Gradient-7)"/>
            <path class="cls-21" d="M1264.28,414.19L1264.28,394.73C1264.28,394.73,1229.74,416.22,1217.17,453.85C1204.6,491.48,1188.96,553.36,1174.17,574.3C1154.1,602.65,1123.34,603.16,1123.34,603.16L1124.69,638.67C1128.66,637.684,1132.59,636.542,1136.47,635.247C1140.35,633.952,1144.18,632.505,1147.94,630.909C1151.71,629.313,1155.41,627.57,1159.04,625.683C1162.67,623.796,1166.22,621.767,1169.69,619.6C1192.12,605.41,1203.8,586.33,1219.03,533C1233.35,482.76,1235.08,442.68,1264.28,414.19Z" fill="url(#Gradient-8)"/>
            <path class="cls-22" d="M1063.79,654.15L1063.79,619.6C1063.79,619.6,1013,650.36,914,643.36C851.61,638.95,796,612.36,796,612.36L806.78,642.79C806.78,642.79,817,646.34,844.36,653.26C854.76,655.89,867.08,658.54,887.94,661.66C978.69,675.22,1063.79,654.15,1063.79,654.15Z" fill="url(#Gradient-9)"/>
            <path class="cls-23" d="M1321,298.58C1321,298.58,1311.51,293.45,1302.22,287.81C1294.39,283.06,1286.67,282.63,1279.37,289.47C1270.81,297.47,1262.79,284.28,1249.01,285.56C1240.29,286.37,1233.01,301.96,1227.73,297.77C1221.51,292.77,1205.41,284.35,1196.12,300.37C1188.86,312.89,1185.79,312.53,1174.12,312.5C1162.45,312.47,1152.63,307.78,1147.62,322.5C1141.77,339.7,1139.69,339.57,1126.34,338.15C1112.99,336.73,1103.81,335.33,1096.61,352.86C1091.91,364.3,1090.35,371.86,1075.33,365.38C1060.31,358.9,1050.66,362.7,1045.33,377.58C1043.33,383.03,1031.97,391.37,1031.97,391.37C1031.97,391.37,1085.71,388.97,1115.75,370.76C1145.79,352.55,1206.58,320.55,1235.93,316.87C1277.93,311.6,1307.15,312.51,1307.15,312.51Z" fill="#0b8735"/>
            <path class="cls-24" d="M1332.72,336.84C1332.72,336.84,1337.72,311.71,1332.72,287.05C1327.72,262.39,1326.04,249.05,1326.04,249.05C1326.04,249.05,1312.13,253.9,1307.13,283.27C1306.39,287.709,1305.87,292.184,1305.59,296.677C1305.31,301.169,1305.26,305.673,1305.45,310.171C1305.64,314.668,1306.06,319.153,1306.71,323.607C1307.36,328.06,1308.24,332.478,1309.35,336.84Z" fill="url(#Gradient-10)" stroke="none" transform="translate(1321.44,332.018) translate(-1321.44,-332.018)" style="animation: 4s linear infinite both a12_t;"/>
            <path class="cls-23" d="M1348.84,312.5C1348.84,312.5,1357.76,317.81,1369.44,336.84C1377.44,349.95,1378.21,367.06,1377.88,376.44C1377.84,377.486,1377.74,378.529,1377.58,379.563C1377.41,380.596,1377.19,381.619,1376.9,382.624C1376.61,383.63,1376.25,384.616,1375.84,385.578C1375.43,386.54,1374.96,387.476,1374.43,388.38L1370.95,394.38C1370.95,394.38,1362.47,357,1358.87,347.94C1352.75,332.53,1334.87,316.25,1334.87,316.25Z" fill="#0b8735"/>
            <path class="cls-23" d="M1355.54,505C1355.54,505,1335.7,499.62,1322.07,499.62C1308.44,499.62,1289.32,502.75,1289.32,502.75L1287.13,492.4C1290.41,491.782,1293.71,491.254,1297.02,490.815C1300.33,490.376,1303.65,490.027,1306.98,489.768C1310.31,489.509,1313.65,489.341,1316.98,489.263C1320.32,489.184,1323.66,489.197,1327,489.3C1342.48,489.87,1357,495.25,1357,495.25Z" fill="#0b8735"/>
            <path class="cls-23" d="M1377.92,370.69C1375.5,370.055,1373.07,369.461,1370.63,368.908C1368.19,368.355,1365.74,367.844,1363.28,367.373C1360.82,366.903,1358.36,366.474,1355.88,366.087C1353.41,365.699,1350.93,365.354,1348.45,365.05C1333.56,363.39,1297.88,367.85,1297.88,367.85L1297.88,354.4C1297.88,354.4,1337.6,350.34,1354.21,352.54C1368.21,354.38,1376.71,357.54,1376.71,357.54Z" fill="#0b8735"/>
            <path class="cls-25" d="M1290.93,493.15C1290.93,487.342,1294.43,482.106,1299.79,479.883C1305.16,477.66,1311.34,478.889,1315.44,482.996C1319.55,487.103,1320.78,493.279,1318.56,498.645C1316.33,504.011,1311.1,507.51,1305.29,507.51C1303.4,507.509,1301.54,507.136,1299.8,506.414C1298.05,505.692,1296.47,504.634,1295.14,503.301C1293.81,501.968,1292.75,500.385,1292.03,498.644C1291.3,496.902,1290.93,495.035,1290.93,493.15ZM1295.93,493.15C1295.93,496.932,1298.21,500.341,1301.7,501.788C1305.2,503.235,1309.22,502.436,1311.89,499.761C1314.57,497.087,1315.37,493.066,1313.92,489.572C1312.47,486.078,1309.06,483.8,1305.28,483.8C1304.05,483.803,1302.84,484.046,1301.71,484.517C1300.57,484.988,1299.54,485.677,1298.68,486.545C1297.81,487.413,1297.12,488.443,1296.65,489.576C1296.18,490.709,1295.94,491.923,1295.94,493.15Z" fill="#fff"/>
            <path class="cls-23" d="M1305.36,320.3C1304.81,335.7,1302.11,356.66,1302.21,383.3C1302.31,411.93,1310.9,486.45,1310.9,486.45L1299.82,486.45C1299.82,486.45,1293.18,421.58,1290.05,388.33C1287.36,359.66,1295.37,317.44,1305.36,308.33C1305.53,309.318,1305.66,310.313,1305.74,311.312C1305.83,312.311,1305.87,313.313,1305.87,314.315C1305.87,315.317,1305.83,316.319,1305.74,317.318C1305.66,318.317,1305.53,319.312,1305.36,320.3Z" fill="#0b8735"/>
            <g>
                <path class="cls-26" d="M1075.67,777.84C1068.99,761.15,1064.42,699.61,1063.99,669.62C1063.56,639.63,1063.99,592.56,1063.99,592.56L1164.99,584.36C1164.99,584.36,1136.99,649.88,1131.99,666.36C1126.99,682.84,1114.1,740.7,1112.43,760.94C1111.56,771.46,1111.6,791.85,1111.83,813.21L1078.67,813.21C1078.7,797.26,1078,783.67,1075.67,777.84Z" fill="url(#Gradient-11)"/>
                <path class="cls-12" d="M1142.44,919.71C1144.17,921.851,1145.73,924.123,1147.1,926.506C1148.48,928.889,1149.67,931.376,1150.66,933.943C1151.65,936.511,1152.44,939.152,1153.02,941.842C1153.6,944.532,1153.96,947.263,1154.12,950.01L1111.65,950.01C1111.65,950.01,1109.53,939.47,1103.59,932.53C1106.45,931.218,1109.27,929.832,1112.05,928.373C1114.84,926.913,1117.59,925.382,1120.29,923.78C1123,922.178,1125.66,920.505,1128.28,918.764C1130.89,917.024,1133.47,915.215,1135.99,913.34C1136.56,913.834,1137.13,914.337,1137.68,914.85C1138.24,915.363,1138.78,915.885,1139.32,916.416C1139.86,916.948,1140.39,917.488,1140.91,918.037C1141.43,918.586,1141.94,919.144,1142.44,919.71Z" fill="#006d24"/>
                <path class="cls-27" d="M1101.13,930.06C1091.79,922.28,1075.67,910.06,1075.67,892.36C1075.67,880.84,1078.49,842.91,1078.67,813.21L1111.83,813.21C1112.05,832.96,1112.43,853.54,1112.43,867.97C1112.43,891.4,1126.6,904.67,1136.03,913.34C1133.51,915.215,1130.93,917.024,1128.32,918.764C1125.7,920.505,1123.04,922.178,1120.33,923.78C1117.63,925.382,1114.88,926.913,1112.09,928.373C1109.31,929.832,1106.49,931.218,1103.63,932.53C1103.44,932.307,1103.24,932.088,1103.05,931.873C1102.85,931.658,1102.64,931.447,1102.43,931.241C1102.22,931.035,1102.01,930.834,1101.79,930.637C1101.58,930.44,1101.36,930.247,1101.13,930.06Z" fill="url(#Gradient-12)"/>
            </g>
            <g>
                <path class="cls-28" d="M781.9,593L806.73,642.83C806.73,642.83,808.61,666.16,794.42,702.16C780.23,738.16,768.55,766.16,770.22,771.33L770.22,771.38L732,806.25C724,800.52,719.38,795.09,720.18,789.85C721.18,783.25,731.87,731.1,735.18,717.08C738.49,703.06,743.53,689.74,720.18,672.2C696.83,654.66,668.76,648.45,648.6,608.81C628.44,569.17,781.9,593,781.9,593Z" fill="url(#Gradient-13)"/>
                <path class="cls-12" d="M868.7,859.52C872.03,872.87,868.15,897.81,867.13,898.52C852.85,892.81,838.7,886.74,824.13,881.86C825.45,873.28,831.13,859.96,831.13,859.96C833.592,858.725,836.029,857.439,838.437,856.102C840.846,854.765,843.226,853.378,845.576,851.941C847.927,850.504,850.247,849.019,852.535,847.485C854.823,845.95,857.078,844.369,859.3,842.74C864.49,848.79,867.35,854.13,868.7,859.52Z" fill="#006d24"/>
                <path class="cls-29" d="M838.84,824.07C848.09,831.27,854.64,837.29,859.31,842.74C857.089,844.372,854.833,845.957,852.546,847.495C850.258,849.032,847.938,850.521,845.587,851.962C843.237,853.402,840.857,854.792,838.448,856.132C836.039,857.473,833.603,858.762,831.14,860C831.14,860,786.14,835.37,766.88,825.78C753,818.83,740.53,812.37,732,806.25L770.28,771.34C772.21,776.73,824.32,812.78,838.84,824.07Z" fill="url(#Gradient-14)"/>
            </g>
        </g>
    </g>
    <g id="Human">
        <g>
            <path class="cls-30" d="M783.28,588.7L784.28,950.01L813.95,950.01L859.31,623.36L783.28,588.7Z" fill="#4dba71"/>
            <path class="cls-23" d="M814,950L824.16,955.6C824.16,955.6,834.08,952.6,838.33,959.02C840.13,961.72,832.75,976.1,816.25,977.85C813.604,978.096,810.95,978.249,808.293,978.31C805.636,978.37,802.977,978.337,800.322,978.212C797.668,978.087,795.018,977.868,792.379,977.558C789.739,977.247,787.111,976.844,784.5,976.35C784.5,976.35,780.66,959.35,784.33,950Z" fill="#0b8735"/>
            <path class="cls-30" d="M808.61,619.36C808.61,619.36,814.45,649.86,834.74,687.94C837.35,704.14,863.74,760.56,879.28,811.94C887.28,878,917.61,950,917.61,950L949.28,950C949.28,950,921.28,742.35,911.28,678.35C901.28,614.35,887.81,612.35,887.81,612.35Z" fill="#4dba71"/>
            <path class="cls-23" d="M949.28,950C949.28,950,952.61,954.35,954.95,955.68C957.29,957.01,988.28,962.68,991.28,966.02C994.28,969.36,1001,980,989.61,984C978.22,988,924.28,986.4,918.95,977.73C918.95,977.73,915.1,963.65,917.61,950.05Z" fill="#0b8735"/>
            <g>
                <path class="cls-4" d="M922,432L892.23,443L880.76,420.27L895.314,413.934L897.724,409.954L901.75,382.53L947.88,353.39C947.88,353.39,957,369.27,945.83,397L925.9,417.26L926.02,420.09L921.19,426.09Z" fill="#e6f5eb"/>
                <path class="cls-31" d="M834.61,432C834.61,432,801.28,467,800.28,469.69C799.28,472.38,803.61,518,803.61,518Z" fill="url(#Gradient-15)"/>
                <path class="cls-32" d="M880.74,420.24C880.74,420.24,893.52,435.55,922,432C922,432,927.51,437.34,934,444.53C942.11,453.46,951.79,465.26,954.34,473.16C959,487.36,899.22,628,899.22,628C899.22,628,846.16,673.79,783.4,631.83C776.61,622.66,777.9,585.16,782.51,573.83C786.7,553.04,828.61,437.83,834.61,431.88C840.61,425.93,880.74,420.24,880.74,420.24Z" fill="url(#Gradient-16)"/>
                <g transform="translate(899.77,413.739) translate(-70.2323,-76.3371)" style="animation: 4s linear infinite both a13_t;">
                    <path class="cls-4" d="M942.37,414.62L942.37,414.62C942.16,415.04,941.94,415.44,941.73,415.84C941.294,416.677,940.736,417.445,940.073,418.117C939.411,418.79,938.652,419.36,937.822,419.808C936.991,420.257,936.098,420.579,935.173,420.764C934.247,420.949,933.299,420.995,932.36,420.9L926.03,420.08L924.82,419.92L925.02,419.47L920.749,416.531L922.58,407.978L928.136,406.426C928.776,406.016,930.97,408.28,931.5,407.91C931.766,407.721,931.985,407.474,932.141,407.188C932.298,406.902,932.387,406.585,932.402,406.259C932.418,405.933,932.359,405.608,932.23,405.309C932.102,405.009,931.907,404.743,931.66,404.53C929.39,402.61,930.66,397.71,933.48,395.16C935.88,393,938.7,391.42,941.7,392.32L942.14,392.48C952.42,373.48,950.28,361.21,947.59,352.15C949.27,357.2,956.59,367.07,953.69,386.15C952.05,397,946.39,407,942.37,414.62Z" fill="#e6f5eb" transform="translate(-829.538,-337.403)"/>
                    <path class="cls-10" d="M947.32,380.67C947.042,381.505,946.748,382.335,946.438,383.159C946.128,383.983,945.802,384.802,945.461,385.613C945.12,386.425,944.763,387.23,944.391,388.028C944.019,388.826,943.632,389.617,943.23,390.4C942.88,391.1,942.51,391.81,942.13,392.51L941.69,392.35C938.69,391.45,935.87,393.03,933.47,395.19C930.62,397.74,929.38,402.64,931.65,404.56C931.897,404.773,932.092,405.039,932.22,405.339C932.349,405.638,932.408,405.963,932.392,406.289C932.377,406.615,932.288,406.932,932.131,407.218C931.975,407.504,931.756,407.751,931.49,407.94C930.96,408.31,930.37,408.71,929.73,409.12L929.67,409.12C928.99,409.55,928.26,409.98,927.47,410.4C926.777,410.779,926.071,411.133,925.352,411.46C924.633,411.787,923.902,412.087,923.161,412.36C922.42,412.632,921.669,412.878,920.91,413.094C920.15,413.311,919.383,413.5,918.61,413.66C917.949,413.797,917.283,413.908,916.613,413.995C915.943,414.081,915.27,414.142,914.596,414.177C913.922,414.212,913.246,414.221,912.571,414.205C911.896,414.189,911.222,414.147,910.55,414.08C906.38,413.65,898.3,412.57,891.03,407.92C889.377,406.859,887.829,405.643,886.408,404.286C884.987,402.93,883.7,401.441,882.563,399.84C881.426,398.238,880.446,396.531,879.634,394.742C878.823,392.953,878.186,391.091,877.73,389.18C871.59,366.03,891.57,340.39,913.3,337.79C914.227,337.673,915.158,337.583,916.09,337.519C917.023,337.455,917.957,337.417,918.891,337.406C919.826,337.395,920.761,337.411,921.694,337.453C922.628,337.496,923.56,337.565,924.49,337.66C925.278,337.741,926.063,337.848,926.844,337.981C927.626,338.113,928.402,338.272,929.173,338.456C929.943,338.64,930.708,338.849,931.464,339.083C932.221,339.317,932.97,339.576,933.71,339.86C934.356,340.108,934.994,340.379,935.62,340.673C936.247,340.967,936.863,341.284,937.467,341.623C938.071,341.962,938.662,342.322,939.24,342.704C939.818,343.085,940.381,343.488,940.93,343.91C941.426,344.242,941.905,344.599,942.365,344.979C942.825,345.36,943.266,345.763,943.685,346.188C944.105,346.612,944.503,347.058,944.878,347.522C945.253,347.987,945.604,348.47,945.93,348.97C946.141,349.313,946.341,349.662,946.53,350.017C946.72,350.372,946.898,350.732,947.065,351.098C947.232,351.464,947.388,351.835,947.532,352.211C947.676,352.586,947.809,352.966,947.93,353.35L947.93,353.35C948.048,353.761,948.16,354.174,948.268,354.589C948.375,355.003,948.477,355.418,948.574,355.835C948.67,356.252,948.762,356.67,948.848,357.089C948.934,357.509,949.015,357.929,949.09,358.35C949.189,358.878,949.277,359.408,949.355,359.939C949.433,360.47,949.501,361.003,949.559,361.537C949.616,362.071,949.663,362.606,949.7,363.141C949.737,363.677,949.764,364.213,949.78,364.75C949.795,365.366,949.797,365.982,949.785,366.598C949.774,367.214,949.75,367.83,949.712,368.445C949.675,369.06,949.624,369.674,949.56,370.286C949.497,370.899,949.42,371.51,949.33,372.12C949.223,372.845,949.101,373.568,948.964,374.288C948.827,375.007,948.674,375.724,948.507,376.438C948.339,377.151,948.156,377.861,947.958,378.566C947.76,379.272,947.548,379.973,947.32,380.67Z" fill="#009c33" transform="translate(-829.538,-337.403)"/>
                    <path class="cls-23" d="M890.16,359.21C890.173,359.129,890.193,359.049,890.219,358.971C890.245,358.892,890.277,358.817,890.315,358.744C890.354,358.671,890.398,358.601,890.447,358.535C890.496,358.469,890.551,358.407,890.61,358.35C892.22,356.86,894.88,354.02,895.61,350.99C895.61,350.99,898,349.18,899.05,351.9C900.38,355.37,894.16,361.53,890.16,359.21Z" fill="#0b8735" transform="translate(-829.538,-337.403)"/>
                    <path class="cls-10" d="M895.59,351C894.87,354,892.21,356.87,890.59,358.36C890.531,358.417,890.476,358.479,890.427,358.545C890.378,358.611,890.334,358.681,890.295,358.754C890.257,358.827,890.225,358.902,890.199,358.981C890.173,359.059,890.153,359.139,890.14,359.22C878.85,364.34,871.4,383.76,865.34,405.82L859.06,404.33C859.06,404.33,865.63,367.18,874.55,354.5C882.86,342.68,893,348.66,895.59,351Z" fill="#009c33" transform="translate(-829.538,-337.403)"/>
                    <path class="cls-10" d="M895.59,351C895.59,351,886.53,344.09,880.22,358.6C876.8,366.45,855,391,865.35,405.81L859.07,404.32C859.07,404.32,865.64,367.17,874.56,354.49C882.86,342.68,893,348.66,895.59,351Z" fill="#009c33" transform="translate(-829.538,-337.403)"/>
                    <path class="cls-10" d="M858.82,455.49C851.13,463.86,825.55,458.43,830.62,473.11C828.34,468.73,829.39,462.45,836.41,456.54C853.64,442.05,858.18,410.13,858.18,410.13L863.87,411.51C863.781,412.064,863.706,412.62,863.645,413.178C863.584,413.736,863.537,414.295,863.504,414.855C863.472,415.415,863.453,415.976,863.449,416.537C863.445,417.098,863.455,417.659,863.48,418.22C863.48,418.22,861.43,416.09,859.86,420C858.29,423.91,866.52,447.12,858.82,455.49Z" fill="#009c33" transform="translate(-829.538,-337.403)"/>
                    <path class="cls-10" d="M855.16,471.29C845.71,482.15,834.16,479.92,830.62,473.11C828.34,468.73,829.39,462.45,836.41,456.54C853.64,442.05,858.18,410.13,858.18,410.13L863.87,411.51C863.781,412.064,863.706,412.62,863.645,413.178C863.584,413.736,863.537,414.295,863.504,414.855C863.472,415.415,863.453,415.976,863.449,416.537C863.445,417.098,863.455,417.659,863.48,418.22C863.8,432.39,868.29,456.23,855.16,471.29Z" fill="#009c33" transform="translate(-829.538,-337.403)"/>
                    <path class="cls-23" d="M866.27,410.73C866.234,410.926,866.16,411.113,866.052,411.281C865.945,411.449,865.806,411.594,865.643,411.709C865.48,411.823,865.296,411.905,865.102,411.95C864.908,411.995,864.707,412.002,864.51,411.97L863.78,411.8L858.92,410.72L857.59,410.42L857.17,410.32C856.983,410.263,856.808,410.169,856.657,410.045C856.506,409.921,856.38,409.768,856.287,409.596C856.194,409.423,856.136,409.234,856.116,409.039C856.096,408.845,856.114,408.648,856.17,408.46L856.98,405.13C857.016,404.934,857.09,404.747,857.198,404.579C857.305,404.411,857.444,404.266,857.607,404.151C857.77,404.037,857.954,403.955,858.148,403.91C858.342,403.865,858.543,403.858,858.74,403.89L866.08,405.54C866.268,405.596,866.443,405.689,866.595,405.813C866.747,405.937,866.873,406.089,866.966,406.262C867.059,406.435,867.117,406.625,867.137,406.82C867.156,407.015,867.137,407.212,867.08,407.4Z" fill="#0b8735" transform="translate(-829.538,-337.403)"/>
                </g>
                <g id="hand-2" transform="translate(939.53,457.572) translate(-939.53,-457.572)" style="animation: 4s linear infinite both hand-2_t;">
                    <g opacity="0" style="animation: 4s linear infinite both a14_o;">
                        <path class="cls-23" d="M1103.34,383.29C1103.7,383.61,1103.54,383.72,1103.49,383.88L1103.31,384.34L1102.93,385.24L1102.15,387.03C1101.61,388.21,1101.04,389.39,1100.46,390.55C1099.3,392.88,1098.04,395.16,1096.74,397.42C1096.08,398.545,1095.42,399.662,1094.73,400.77C1094.05,401.878,1093.35,402.977,1092.64,404.068C1091.93,405.158,1091.2,406.24,1090.47,407.312C1089.73,408.384,1088.98,409.447,1088.21,410.5C1085.11,414.7,1081.82,418.76,1078.32,422.63C1074.82,426.5,1071.14,430.21,1067.32,433.7C1063.5,437.19,1059.45,440.56,1055.25,443.7C1053.19,445.3,1051.02,446.75,1048.9,448.26C1046.78,449.77,1044.58,451.17,1042.34,452.51C1040.13,453.876,1037.89,455.192,1035.62,456.458C1033.34,457.724,1031.05,458.939,1028.72,460.102C1026.4,461.266,1024.05,462.377,1021.67,463.435C1019.3,464.494,1016.9,465.499,1014.48,466.45C1014.45,466.461,1014.42,466.467,1014.4,466.468C1014.37,466.468,1014.34,466.462,1014.31,466.451C1014.28,466.44,1014.26,466.423,1014.24,466.402C1014.22,466.382,1014.2,466.357,1014.19,466.33C1014.18,466.304,1014.17,466.277,1014.17,466.249C1014.17,466.221,1014.18,466.193,1014.19,466.167C1014.2,466.141,1014.21,466.117,1014.23,466.097C1014.25,466.077,1014.27,466.061,1014.3,466.05C1016.62,464.919,1018.92,463.751,1021.21,462.547C1023.49,461.343,1025.76,460.102,1028,458.825C1030.24,457.548,1032.47,456.236,1034.67,454.888C1036.87,453.54,1039.05,452.157,1041.21,450.74C1042.29,450.05,1043.35,449.3,1044.4,448.56L1047.57,446.36C1049.63,444.82,1051.74,443.36,1053.74,441.72C1057.82,438.59,1061.74,435.25,1065.54,431.78C1069.34,428.31,1073,424.71,1076.54,420.94C1080.08,417.17,1083.45,413.31,1086.62,409.26C1089.79,405.21,1092.84,401.04,1095.62,396.71C1097,394.54,1098.35,392.34,1099.62,390.08C1100.24,388.96,1100.85,387.82,1101.44,386.67L1102.3,384.94L1102.71,384.07L1102.91,383.63C1102.89,383.46,1102.85,383.27,1103.34,383.29Z" fill="#0b8735"/>
                        <path class="cls-23" d="M1129.59,383.29C1129.9,383.66,1129.72,383.76,1129.65,383.92L1129.39,384.38L1128.88,385.29C1128.54,385.89,1128.18,386.49,1127.82,387.08C1127.12,388.28,1126.38,389.46,1125.63,390.62C1124.16,392.98,1122.55,395.24,1120.99,397.54C1117.75,402.05,1114.4,406.49,1110.82,410.75C1107.24,415.01,1103.49,419.11,1099.62,423.11L1093.62,428.92C1091.62,430.82,1089.47,432.63,1087.39,434.47C1086.33,435.38,1085.31,436.33,1084.22,437.19L1080.94,439.78L1077.67,442.36L1076.03,443.65C1075.48,444.08,1074.9,444.46,1074.33,444.86L1067.49,449.65L1065.78,450.84L1064.01,451.93L1060.45,454.11L1056.89,456.29L1055.12,457.38L1053.27,458.38L1045.9,462.26C1043.47,463.6,1040.9,464.65,1038.36,465.79C1035.82,466.93,1033.28,468.02,1030.74,469.11C1030.69,469.135,1030.63,469.138,1030.57,469.119C1030.52,469.099,1030.47,469.058,1030.45,469.005C1030.42,468.952,1030.42,468.891,1030.44,468.836C1030.46,468.78,1030.5,468.735,1030.55,468.71L1030.55,468.71C1033,467.42,1035.45,466.15,1037.92,464.9C1040.39,463.65,1042.86,462.45,1045.2,460.97L1052.34,456.81L1054.13,455.81L1055.86,454.67L1059.31,452.41C1061.62,450.913,1063.9,449.375,1066.15,447.797C1068.41,446.219,1070.63,444.602,1072.83,442.945C1075.03,441.289,1077.2,439.594,1079.33,437.861C1081.47,436.128,1083.58,434.357,1085.65,432.55C1087.65,430.71,1089.83,428.96,1091.84,427.09L1097.84,421.38L1103.63,415.5L1105.08,414.03L1106.46,412.5L1109.24,409.44C1112.94,405.36,1116.46,401.11,1119.86,396.77C1121.5,394.56,1123.2,392.38,1124.75,390.1C1125.56,388.98,1126.33,387.84,1127.08,386.68C1127.46,386.11,1127.85,385.53,1128.21,384.95L1128.75,384.07L1129.02,383.63C1129.11,383.42,1129.1,383.22,1129.59,383.29Z" fill="#0b8735"/>
                        <path class="cls-23" d="M1103.34,401C1103.57,401.28,1103.43,401.35,1103.34,401.47L1103.15,401.8L1102.78,402.47C1102.53,402.92,1102.26,403.35,1102,403.79C1101.48,404.67,1100.94,405.53,1100.39,406.39C1099.31,408.12,1098.13,409.78,1096.98,411.47C1094.6,414.78,1092.14,418.04,1089.51,421.18C1086.88,424.32,1084.12,427.32,1081.28,430.25L1076.88,434.52C1075.39,435.92,1073.83,437.25,1072.3,438.6C1070.75,439.931,1069.18,441.23,1067.59,442.497C1065.99,443.764,1064.36,444.999,1062.72,446.2C1061.07,447.402,1059.4,448.569,1057.7,449.703C1056.01,450.837,1054.29,451.936,1052.55,453L1049.93,454.59L1048.62,455.39L1047.27,456.11L1041.86,458.98C1040.08,459.98,1038.18,460.73,1036.32,461.57C1034.46,462.41,1032.59,463.21,1030.72,464.01C1030.7,464.017,1030.68,464.02,1030.66,464.019C1030.64,464.018,1030.62,464.014,1030.6,464.006C1030.58,463.997,1030.56,463.986,1030.55,463.971C1030.53,463.956,1030.52,463.939,1030.51,463.92C1030.5,463.901,1030.5,463.88,1030.5,463.86C1030.5,463.839,1030.5,463.819,1030.51,463.8C1030.52,463.781,1030.53,463.763,1030.54,463.748C1030.56,463.732,1030.57,463.72,1030.59,463.71L1030.59,463.71C1032.41,462.818,1034.22,461.899,1036.01,460.952C1037.8,460.005,1039.58,459.031,1041.34,458.031C1043.1,457.03,1044.85,456.003,1046.58,454.949C1048.32,453.896,1050.03,452.816,1051.73,451.71L1054.26,450.04L1055.53,449.21L1056.76,448.32L1061.68,444.76C1062.51,444.19,1063.29,443.55,1064.08,442.91L1066.44,441.01L1068.8,439.11C1069.58,438.47,1070.32,437.77,1071.08,437.11C1072.58,435.76,1074.14,434.47,1075.62,433.11L1080.01,428.92L1084.26,424.6C1085.7,423.18,1087,421.6,1088.38,420.14C1091.1,417.14,1093.68,414.02,1096.19,410.84C1097.39,409.21,1098.64,407.61,1099.78,405.93C1100.37,405.11,1100.94,404.27,1101.49,403.42C1101.77,403,1102.05,402.58,1102.31,402.15L1102.72,401.5L1102.91,401.18C1103,401.1,1103,401,1103.34,401Z" fill="#0b8735"/>
                    </g>
                    <g>
                        <path class="cls-23" d="M1088.94,454.29L1084.01,458.87C1083.32,459.506,1082.52,460.002,1081.64,460.327C1080.77,460.653,1079.83,460.803,1078.9,460.769C1077.96,460.734,1077.04,460.516,1076.19,460.127C1075.34,459.738,1074.58,459.185,1073.94,458.5C1073.84,458.287,1073.74,458.076,1073.64,457.866C1073.53,457.656,1073.43,457.447,1073.32,457.24C1073.21,457.034,1073.09,456.828,1072.98,456.625C1072.86,456.422,1072.74,456.22,1072.62,456.02C1070.19,455.91,1064.55,448.4,1064.55,448.4C1064.55,448.4,1061.65,443.53,1060.28,442.26C1059.28,441.26,1056.36,440.44,1055.41,439.39C1054.78,438.69,1054.41,436.69,1053.82,435.95C1053.59,435.736,1053.35,435.526,1053.11,435.323C1052.87,435.12,1052.62,434.922,1052.37,434.73C1052.12,434.538,1051.87,434.352,1051.61,434.172C1051.35,433.992,1051.09,433.818,1050.82,433.65C1050.18,432.964,1049.69,432.16,1049.36,431.283C1049.04,430.406,1048.89,429.473,1048.92,428.538C1048.96,427.604,1049.17,426.685,1049.56,425.834C1049.95,424.983,1050.51,424.217,1051.19,423.58L1056.12,419C1056.8,418.363,1057.61,417.867,1058.48,417.54C1059.36,417.214,1060.29,417.064,1061.23,417.098C1062.16,417.132,1063.08,417.351,1063.93,417.741C1064.78,418.131,1065.54,418.684,1066.18,419.37L1089.29,444.22C1089.93,444.905,1090.42,445.708,1090.75,446.584C1091.08,447.46,1091.23,448.393,1091.2,449.327C1091.17,450.262,1090.95,451.182,1090.56,452.033C1090.17,452.885,1089.62,453.651,1088.94,454.29Z" fill="#0b8735"/>
                        <rect class="cls-34" width="20.98" height="48.18" rx="7.12" fill="#59b267" transform="translate(-11.04,847.13) rotate(-42.92) translate(1061.47,413.51)"/>
                        <rect class="cls-35" width="15.5" height="42.3" rx="5.74" stroke-width="0.57px" stroke="#fff" stroke-miterlimit="10" fill="none" transform="translate(-11.04,847.13) rotate(-42.92) translate(1064.21,416.45)"/>
                    </g>
                    <path class="cls-4" d="M973.46,486.08C973.46,486.08,999.69,502.46,1005.64,503.74C1011.36,504.97,1052.13,458.47,1058.46,448.42C1058.46,448.42,1072.3,451.71,1073.8,455.42C1075.3,459.13,1035.13,521.05,1026.63,529.05C1018.13,537.05,1013.63,552.55,955.63,522.55Z" fill="#e6f5eb"/>
                    <path class="cls-4" d="M1059.05,456.23L1057.83,452.41C1057.83,452.41,1056.74,443.79,1059.31,440.12C1061.47,437.04,1070.87,431.79,1070.5,423.52C1070.44,422.38,1072.5,421.32,1073.5,421.77C1077.08,423.33,1085.76,431.57,1086.62,435.3C1087.85,440.66,1085.23,447.3,1073.78,455.45C1071.61,459.34,1059.05,456.23,1059.05,456.23Z" fill="#e6f5eb"/>
                    <path class="cls-36" d="M918,455C919.336,453.815,920.835,452.829,922.453,452.073C924.071,451.316,925.789,450.798,927.555,450.533C929.321,450.268,931.116,450.26,932.884,450.508C934.652,450.756,936.375,451.259,938,452L988.81,494.58C988.81,494.58,974.45,529.86,969.45,530.86C964.45,531.86,925.28,518.36,917.28,507.36C909.28,496.36,904,467,918,455Z" fill="url(#Gradient-17)"/>
                </g>
                <path class="cls-23" d="M782.51,573.9C782.51,573.9,803.51,632.69,899.22,628.03C899.22,628.03,914.77,638.36,917.61,671.36C917.61,671.36,873.04,707.03,834.74,687.94C834.74,687.94,829.45,639.03,819.95,633.03C810.45,627.03,800.28,620.36,800.28,620.36L786.45,676.86C786.45,676.86,776.45,671.27,770.45,649.57C764.45,627.87,774.45,594.36,782.51,573.9Z" fill="#0b8735"/>
                <g class="cls-37" clip-path="url(#clip-path)">
                    <path class="cls-38" d="M827.45,614.11C827.45,614.11,843.02,650.87,843.67,673.64C843.699,674.684,843.937,675.711,844.371,676.661C844.804,677.611,845.424,678.464,846.193,679.17C846.963,679.876,847.866,680.421,848.85,680.771C849.834,681.121,850.878,681.271,851.92,681.21C865.7,685.61,906.78,678.65,908.11,662.53C908.11,662.53,906.7,621.61,881.2,615.61C855.7,609.61,827.45,614.11,827.45,614.11Z" fill="#d4e5d3"/>
                    <path class="cls-38" d="M794.45,575.28C794.45,575.28,773.29,632.05,772.11,641.86C772.11,641.86,766.56,635.11,766.88,615.11C767.2,595.11,783.28,567.61,783.28,567.61Z" fill="#d4e5d3"/>
                </g>
                <g>
                    <path class="cls-23" d="M863.66,675.79L855.66,676.89C854.544,677.044,853.41,676.976,852.32,676.692C851.231,676.407,850.208,675.911,849.31,675.231C848.412,674.552,847.657,673.702,847.087,672.731C846.518,671.759,846.145,670.685,845.99,669.57C846.042,669.293,846.09,669.014,846.133,668.735C846.177,668.456,846.215,668.177,846.249,667.897C846.284,667.616,846.313,667.336,846.338,667.055C846.364,666.773,846.384,666.492,846.4,666.21C844.09,664.41,843.73,653.11,843.73,653.11C843.73,653.11,844.25,646.31,843.73,644.11C843.37,642.45,841.13,639.61,840.92,637.92C840.77,636.79,841.8,634.57,841.73,633.42C841.651,633.051,841.564,632.683,841.468,632.318C841.372,631.952,841.268,631.589,841.155,631.229C841.042,630.868,840.921,630.51,840.792,630.155C840.663,629.8,840.526,629.449,840.38,629.1C840.226,627.984,840.294,626.848,840.579,625.758C840.864,624.668,841.362,623.645,842.042,622.747C842.723,621.849,843.574,621.094,844.546,620.525C845.519,619.956,846.594,619.584,847.71,619.43L855.71,618.33C856.825,618.178,857.96,618.247,859.049,618.532C860.138,618.818,861.16,619.316,862.057,619.996C862.954,620.677,863.708,621.527,864.276,622.499C864.845,623.471,865.216,624.545,865.37,625.66L871,666.12C871.152,667.237,871.083,668.373,870.797,669.463C870.51,670.553,870.012,671.576,869.331,672.474C868.649,673.372,867.798,674.126,866.825,674.695C865.852,675.264,864.777,675.636,863.66,675.79Z" fill="#0b8735"/>
                    <rect class="cls-34" width="25.25" height="58" rx="8.58" fill="#59b267" transform="translate(-80.23,123) rotate(-7.83) translate(845.86,618.61)"/>
                    <rect class="cls-39" width="18.66" height="50.92" rx="6.91" stroke-width="0.69px" stroke="#fff" stroke-miterlimit="10" fill="none" transform="translate(-80.23,123) rotate(-7.83) translate(849.16,622.15)"/>
                </g>
                <g>
                    <path class="cls-23" d="M893.68,671.85L885.68,672.96C884.564,673.112,883.429,673.044,882.339,672.758C881.25,672.472,880.227,671.975,879.329,671.294C878.432,670.614,877.677,669.764,877.107,668.792C876.538,667.82,876.165,666.746,876.01,665.63C876.061,665.352,876.108,665.074,876.151,664.795C876.194,664.516,876.232,664.236,876.266,663.956C876.3,663.676,876.33,663.395,876.356,663.114C876.382,662.833,876.403,662.552,876.42,662.27C874.11,660.47,873.75,649.17,873.75,649.17C873.75,649.17,874.27,642.37,873.75,640.17C873.39,638.51,871.14,635.67,870.93,633.99C870.79,632.85,871.82,630.63,871.75,629.49C871.671,629.12,871.584,628.751,871.488,628.385C871.392,628.019,871.287,627.655,871.175,627.294C871.062,626.933,870.941,626.574,870.812,626.218C870.683,625.862,870.545,625.509,870.4,625.16C870.245,624.045,870.311,622.91,870.596,621.821C870.88,620.731,871.376,619.709,872.056,618.811C872.736,617.914,873.586,617.16,874.558,616.592C875.53,616.023,876.605,615.652,877.72,615.5L885.72,614.39C886.835,614.238,887.97,614.307,889.059,614.592C890.148,614.878,891.17,615.376,892.067,616.056C892.964,616.737,893.718,617.587,894.286,618.559C894.855,619.531,895.226,620.605,895.38,621.72L901,662.19C901.152,663.305,901.084,664.439,900.799,665.527C900.513,666.615,900.017,667.637,899.337,668.534C898.658,669.43,897.809,670.185,896.838,670.754C895.867,671.323,894.794,671.695,893.68,671.85Z" fill="#0b8735"/>
                    <rect class="cls-34" width="25.25" height="58" rx="8.58" fill="#59b267" transform="translate(-79.41,127.06) rotate(-7.83) translate(875.88,614.67)"/>
                    <rect class="cls-39" width="18.66" height="50.92" rx="6.91" stroke-width="0.69px" stroke="#fff" stroke-miterlimit="10" fill="none" transform="translate(-79.41,127.06) rotate(-7.83) translate(879.17,618.21)"/>
                </g>
                <path class="cls-23" d="M832.61,645.69C832.61,645.69,878.28,656.87,904.61,639.28L908.11,647.61C908.11,647.61,897.28,667.03,838.11,664.19Z" fill="#0b8735"/>
                <path class="cls-23" d="M860.2,658.61C860.2,658.61,866.45,682,865.32,686C865.32,686,896.7,682.1,905.32,673C905.32,673,901.57,650.86,899.7,649.53C899.7,649.57,873.82,658.36,860.2,658.61Z" fill="#0b8735"/>
            </g>
        </g>
    </g>
    <g id="Ball" transform="translate(1305.83,961.65) translate(-1278.24,-961.273)" style="animation: 4s linear infinite both Ball_t;">
        <g>
            <ellipse class="cls-10" rx="14.17" ry="14.17" fill="#009c33" transform="translate(0,0) translate(1276.72,961.31)"/>
            <g class="cls-47" clip-path="url(#clip-path-3)">
                <g>
                    <path class="cls-48" d="M1261.87,947.13C1261.87,947.13,1275.54,961.37,1270.87,979.2" stroke="#d4e5d3" stroke-miterlimit="10" fill="none"/>
                    <path class="cls-48" d="M1278,943.42C1278,943.42,1291.66,957.65,1287,975.48" stroke="#d4e5d3" stroke-miterlimit="10" fill="none"/>
                    <path class="cls-48" d="M1255.54,960.63C1255.54,960.63,1275.27,960.19,1284.54,944.26" stroke="#d4e5d3" stroke-miterlimit="10" fill="none"/>
                    <path class="cls-48" d="M1264.35,974.64C1264.35,974.64,1284.07,974.2,1293.35,958.27" stroke="#d4e5d3" stroke-miterlimit="10" fill="none"/>
                </g>
            </g>
        </g>
    </g>
    <g id="dog" data-name="FL Foot" transform="translate(1479.34,952.659) translate(-1479.34,-952.659)">
        <path class="cls-40" d="M1377.91,913.41C1377.91,913.41,1369.91,921.93,1373.91,939.69L1355.35,957.52C1355.35,957.52,1337.55,949.73,1337.35,965.52L1363.08,965.86C1363.08,965.86,1392.89,951.97,1403.96,939.86C1423.35,918.49,1391.94,896.33,1377.91,913.41Z" fill="url(#Gradient-18)"/>
        <path class="cls-41" d="M1431.13,929.44L1445.76,960C1445.76,960,1428.61,953.29,1433.93,968.85L1454.63,968.85C1454.63,968.85,1484.19,921.7,1454.43,902.67C1442.22,894.86,1424.74,914.69,1431.13,929.44Z" fill="url(#Gradient-19)"/>
        <g id="dog_body" transform="translate(1480.59,929.515) translate(-1480.59,-929.515)" style="animation: 4s linear infinite both dog_body_t;">
            <path class="cls-42" d="M1477.81,913.25C1477.81,913.25,1522.9,899.83,1528.13,867.25C1533.36,834.67,1506.8,898.52,1476.53,906.53C1449.88,913.6,1477.81,913.25,1477.81,913.25Z" fill="url(#Gradient-20)" transform="translate(1481.71,907.619) translate(-1481.71,-907.619)" style="animation: 4s linear infinite both a15_t;"/>
            <g>
                <g>
                    <path class="cls-2" d="M1474.19,892.2C1445.94,882.33,1395.89,899.47,1373.06,880.15C1363.83,848.97,1344.51,844.55,1326.49,853.24C1320.38,856.24,1310.88,860.47,1307.49,874.16C1305.32,882.77,1308.22,892.06,1308.22,892.06C1305.67,892.67,1290.43,901.73,1291.07,908.59C1291.07,908.59,1291.5,913.14,1296.93,914.25C1296.93,914.25,1296.19,917.25,1306.16,922.59C1326.76,930.22,1331.64,906.03,1338.67,915.3C1347.19,926.99,1359.11,957.79,1382.73,955.68C1419.73,952.37,1460.41,961.82,1485.03,938.96C1498.06,926.82,1491.89,898.38,1474.19,892.2Z" fill="url(#Gradient-21)"/>
                    <g class="cls-43" clip-path="url(#clip-path-2)">
                        <path class="cls-10" d="M1294.14,916.74L1296.88,914.25C1296.88,914.25,1302.55,900.11,1294.5,899.32C1286.45,898.53,1283.81,913.52,1294.14,916.74Z" fill="#009c33"/>
                        <path class="cls-30" d="M1342.6,929.47L1341.09,919C1341.09,919,1363.76,955.57,1391.63,953.27C1419.5,950.97,1444.45,950.46,1448.71,954.01C1452.97,957.56,1396.01,991.4,1396.01,991.4L1315.14,945Z" fill="#4dba71"/>
                    </g>
                </g>
                <path class="cls-44" d="M1316.42,891C1316.42,891.23,1316.42,891.3,1316.52,891.12L1316.75,891.31Z" fill="url(#Gradient-22)"/>
            </g>
            <path class="cls-10" d="M1344.71,850.94C1344.71,850.94,1368.71,858.37,1357.43,873.78C1349.67,884.42,1353.64,891.27,1353.24,892.78C1351.93,897.91,1336.41,893.57,1327.48,877.32C1318.55,861.07,1321.2,843.89,1344.71,850.94Z" fill="#009c33" transform="translate(1338.15,852.155) translate(-1338.15,-852.155)" style="animation: 4s linear infinite both a16_t;"/>
        </g>
        <path class="cls-45" d="M1452.68,937.94L1467.32,968.5C1467.32,968.5,1450.16,961.79,1455.48,977.35L1476.18,977.35C1476.18,977.35,1505.74,930.2,1475.98,911.17C1463.78,903.36,1446.29,923.19,1452.68,937.94Z" fill="url(#Gradient-23)"/>
        <path class="cls-46" d="M1393.86,919.33C1393.86,919.33,1385.86,927.86,1389.86,945.62L1371.29,963.44C1371.29,963.44,1353.49,955.66,1353.29,971.44L1379.03,971.77C1379.03,971.77,1408.83,957.89,1419.9,945.77C1439.3,924.42,1407.89,902.26,1393.86,919.33Z" fill="url(#Gradient-24)"/>
    </g>
</svg>
