<?xml version="1.0" encoding="UTF-8" standalone="no"?>
<!-- Created with Keyshape -->
<svg xmlns="http://www.w3.org/2000/svg" viewBox="0 0 1920 1080">
    <defs>
        <linearGradient id="Gradient-0" x1="517.41" y1="449.2" x2="659.72" y2="449.2" gradientUnits="userSpaceOnUse">
            <stop offset="0" stop-color="#b3e1c2"/>
            <stop offset="1" stop-color="#4dba71"/>
        </linearGradient>
        <linearGradient id="Gradient-1" x1="477.98" y1="193.49" x2="477.98" y2="547.64" gradientUnits="userSpaceOnUse">
            <stop offset="0" stop-color="#4dba71"/>
            <stop offset="1" stop-color="#007d29"/>
        </linearGradient>
        <linearGradient id="Gradient-2" x1="387.09" y1="238.16" x2="410.09" y2="719.16" gradientUnits="userSpaceOnUse">
            <stop offset="0" stop-color="#b3e1c2"/>
            <stop offset="1" stop-color="#4dba71"/>
        </linearGradient>
        <linearGradient id="Gradient-3" x1="1232.4" y1="522.77" x2="1275.16" y2="372.35" gradientUnits="userSpaceOnUse" gradientTransform="matrix(0.987024 -0.16057 0.16057 0.987024 -58.99 200.81)">
            <stop offset="0" stop-color="#b3e1c2"/>
            <stop offset="1" stop-color="#4dba71"/>
        </linearGradient>
        <linearGradient id="Gradient-4" x1="1211.44" y1="545.34" x2="1262.83" y2="364.57" gradientUnits="userSpaceOnUse" gradientTransform="matrix(0.987024 -0.16057 0.16057 0.987024 -58.99 200.81)">
            <stop offset="0" stop-color="#b3e1c2"/>
            <stop offset="1" stop-color="#4dba71"/>
        </linearGradient>
        <linearGradient id="Gradient-5" x1="1405.02" y1="585.58" x2="1143.02" y2="257.58" gradientUnits="userSpaceOnUse">
            <stop offset="0" stop-color="#b3e1c2"/>
            <stop offset="1" stop-color="#4dba71"/>
        </linearGradient>
        <linearGradient id="Gradient-6" x1="1.82186" y1="-75.3288" x2="62.0431" y2="70.7589" gradientUnits="userSpaceOnUse">
            <stop offset="0" stop-color="#4dba71"/>
            <stop offset="1" stop-color="#007d29"/>
        </linearGradient>
        <linearGradient id="Gradient-7" x1="1212.71" y1="481.28" x2="1528.04" y2="481.28" gradientUnits="userSpaceOnUse">
            <stop offset="0" stop-color="#b3e1c2"/>
            <stop offset="1" stop-color="#4dba71"/>
        </linearGradient>
        <linearGradient id="Gradient-8" x1="1328.19" y1="607.04" x2="1405.94" y2="637.04" gradientUnits="userSpaceOnUse">
            <stop offset="0" stop-color="#c8dfc7"/>
            <stop offset="0.02" stop-color="#c2dcc2"/>
            <stop offset="0.17" stop-color="#8bc298"/>
            <stop offset="0.31" stop-color="#5dad74"/>
            <stop offset="0.45" stop-color="#399d59"/>
            <stop offset="0.58" stop-color="#209145"/>
            <stop offset="0.7" stop-color="#108a39"/>
            <stop offset="0.79" stop-color="#0b8735"/>
        </linearGradient>
        <linearGradient id="Gradient-9" x1="3373.79" y1="939.03" x2="3459.57" y2="939.03" gradientUnits="userSpaceOnUse" gradientTransform="matrix(1 0 0 1 -2444.42 0)">
            <stop offset="0" stop-color="#4dba71"/>
            <stop offset="1" stop-color="#007d29"/>
        </linearGradient>
        <linearGradient id="Gradient-10" x1="3197.31" y1="930.46" x2="3272.08" y2="930.46" gradientUnits="userSpaceOnUse" gradientTransform="matrix(1 0 0 1 -2444.42 0)">
            <stop offset="0" stop-color="#4dba71"/>
            <stop offset="1" stop-color="#007d29"/>
        </linearGradient>
        <linearGradient id="Gradient-11" x1="3086.43" y1="862.12" x2="3206.75" y2="862.12" gradientUnits="userSpaceOnUse" gradientTransform="matrix(1 0 0 1 -2444.42 0)">
            <stop offset="0" stop-color="#4dba71"/>
            <stop offset="1" stop-color="#007d29"/>
        </linearGradient>
        <linearGradient id="Gradient-12" x1="1041.47" y1="1002.07" x2="775.39" y2="723.06" gradientUnits="userSpaceOnUse" gradientTransform="matrix(-1 0 0 1 1758.37 0)">
            <stop offset="0" stop-color="#b3e1c2"/>
            <stop offset="1" stop-color="#4dba71"/>
        </linearGradient>
        <linearGradient id="Gradient-13" x1="945.99" y1="1079.46" x2="691.52" y2="779.79" gradientUnits="userSpaceOnUse" gradientTransform="matrix(-1 0 0 1 1758.37 0)">
            <stop offset="0" stop-color="#b3e1c2"/>
            <stop offset="1" stop-color="#4dba71"/>
        </linearGradient>
        <linearGradient id="Gradient-14" x1="1071.07" y1="984.93" x2="814.02" y2="671.05" gradientUnits="userSpaceOnUse" gradientTransform="matrix(-1 0 0 1 1758.37 0)">
            <stop offset="0" stop-color="#b3e1c2"/>
            <stop offset="1" stop-color="#4dba71"/>
        </linearGradient>
        <clipPath id="clip-path">
            <path class="cls-1" d="M469,268.42L463.41,310.85C463.41,310.85,481.66,325.5,500.36,317.72C500.36,317.72,497.74,296.52,501.69,284.21C504.23,276.4,469,268.42,469,268.42Z" fill="#e6f5eb"/>
        </clipPath>
        <clipPath id="clip-path-2">
            <path class="cls-2" d="M1316.26,288.66L1322.58,326.66C1322.58,326.66,1306.58,340.41,1289.52,333.98C1289.52,333.98,1291.23,314.81,1287.3,303.84C1284.81,296.92,1316.26,288.66,1316.26,288.66Z" fill="none"/>
        </clipPath>
    </defs>
    <style>
@keyframes a0_t { 0% { transform: translate(1492.507688px,890.473688px) rotate(0deg) translate(-90.381854px,-172.136666px); animation-timing-function: cubic-bezier(0.42,0,0.58,1); } 50% { transform: translate(1492.507688px,890.473688px) rotate(-20deg) translate(-90.381854px,-172.136666px); animation-timing-function: cubic-bezier(0.42,0,0.58,1); } 100% { transform: translate(1492.507688px,890.473688px) rotate(0deg) translate(-90.381854px,-172.136666px); } }
@keyframes a1_t { 0% { transform: translate(1508.438949px,885.442763px) rotate(0deg) translate(-27.578949px,-241.382763px); animation-timing-function: cubic-bezier(0.42,0,0.58,1); } 50% { transform: translate(1508.438949px,885.442763px) rotate(10deg) translate(-27.578949px,-241.382763px); animation-timing-function: cubic-bezier(0.42,0,0.58,1); } 100% { transform: translate(1508.438949px,885.442763px) rotate(0deg) translate(-27.578949px,-241.382763px); } }
@keyframes a2_t { 0% { transform: translate(0px,0px); animation-timing-function: cubic-bezier(0.42,0,0.58,1); } 50% { transform: translate(71.428133px,0px); animation-timing-function: cubic-bezier(0.42,0,0.58,1); } 100% { transform: translate(0px,-0.000059px); } }
@keyframes a3_t { 0% { transform: translate(0px,0px); animation-timing-function: cubic-bezier(0.42,0,0.58,1); } 50% { transform: translate(28.337597px,-0.000002px); animation-timing-function: cubic-bezier(0.42,0,0.58,1); } 100% { transform: translate(0px,-0.000002px); } }
@keyframes a4_t { 0% { transform: translate(0px,0px); animation-timing-function: cubic-bezier(0.42,0,0.58,1); } 50% { transform: translate(-38.036338px,-0.000003px); animation-timing-function: cubic-bezier(0.42,0,0.58,1); } 100% { transform: translate(0px,0.000216px); } }
@keyframes a5_t { 0% { transform: translate(0px,0px); animation-timing-function: cubic-bezier(0.42,0,0.58,1); } 50% { transform: translate(-55.138904px,0.000001px); animation-timing-function: cubic-bezier(0.42,0,0.58,1); } 100% { transform: translate(0px,-0.000234px); } }
@keyframes a6_t { 0% { transform: translate(550.542028px,344.094603px) rotate(0deg) translate(-33.136205px,-16.883309px); } 10% { transform: translate(550.542028px,344.094603px) rotate(0deg) translate(-33.136205px,-16.883309px); animation-timing-function: cubic-bezier(0.42,0,0.58,1); } 30% { transform: translate(550.542028px,344.094603px) rotate(-80deg) translate(-33.136205px,-16.883309px); animation-timing-function: cubic-bezier(0.42,0,0.58,1); } 50% { transform: translate(550.542028px,344.094603px) rotate(0deg) translate(-33.136205px,-16.883309px); } 100% { transform: translate(550.542028px,344.094603px) rotate(0deg) translate(-33.136205px,-16.883309px); } }
@keyframes a7_t { 0% { transform: translate(469.939178px,276.788962px) rotate(0deg) translate(-18.399887px,-86.698662px); } 10% { transform: translate(469.939178px,276.788962px) rotate(0deg) translate(-18.399887px,-86.698662px); animation-timing-function: cubic-bezier(0.42,0,0.58,1); } 30% { transform: translate(469.939178px,276.788962px) rotate(-20deg) translate(-18.399887px,-86.698662px); animation-timing-function: cubic-bezier(0.42,0,0.58,1); } 50% { transform: translate(469.939178px,276.788962px) rotate(0deg) translate(-18.399887px,-86.698662px); } 100% { transform: translate(469.939178px,276.788962px) rotate(0deg) translate(-18.399887px,-86.698662px); } }
@keyframes man2_t { 0% { transform: translate(0px,0px); } 40% { transform: translate(0px,0px); animation-timing-function: cubic-bezier(0.42,0,0.58,1); } 60% { transform: translate(52.642372px,0px); } 100% { transform: translate(52.642372px,0px); } }
@keyframes a8_t { 0% { transform: translate(1332.452858px,597.735861px) rotate(0deg) translate(-52.152858px,-16.725861px); } 40% { transform: translate(1332.452858px,597.735861px) rotate(0deg) translate(-52.152858px,-16.725861px); animation-timing-function: cubic-bezier(0.42,0,0.58,1); } 50% { transform: translate(1332.452858px,597.735861px) rotate(-5deg) translate(-52.152858px,-16.725861px); animation-timing-function: cubic-bezier(0.42,0,0.58,1); } 60% { transform: translate(1332.452858px,597.735861px) rotate(0deg) translate(-52.152858px,-16.725861px); } 100% { transform: translate(1332.452858px,597.735861px) rotate(0deg) translate(-52.152858px,-16.725861px); } }
@keyframes a9_t { 0% { transform: translate(1282.714507px,595.916962px) rotate(0deg) translate(-64.042688px,-16.481634px); } 40% { transform: translate(1282.714507px,595.916962px) rotate(0deg) translate(-64.042688px,-16.481634px); animation-timing-function: cubic-bezier(0.42,0,0.58,1); } 50% { transform: translate(1282.714507px,595.916962px) rotate(5deg) translate(-64.042688px,-16.481634px); animation-timing-function: cubic-bezier(0.42,0,0.58,1); } 60% { transform: translate(1282.714507px,595.916962px) rotate(0deg) translate(-64.042688px,-16.481634px); } 100% { transform: translate(1282.714507px,595.916962px) rotate(0deg) translate(-64.042688px,-16.481634px); } }
@keyframes a10_t { 0% { transform: translate(1261.035448px,338.765005px) rotate(0deg) translate(-1261.035448px,-338.765005px); animation-timing-function: cubic-bezier(0.42,0,0.58,1); } 20% { transform: translate(1261.035448px,338.765005px) rotate(30deg) translate(-1261.035448px,-338.765005px); } 40% { transform: translate(1261.035448px,338.765005px) rotate(30deg) translate(-1261.035448px,-338.765005px); } 60% { transform: translate(1261.035448px,338.765005px) rotate(0deg) translate(-1261.035448px,-338.765005px); animation-timing-function: cubic-bezier(0.42,0,0.58,1); } 100% { transform: translate(1261.035448px,338.765005px) rotate(0deg) translate(-1261.035448px,-338.765005px); } }
@keyframes a11_t { 0% { transform: translate(1241.357554px,445.815449px) rotate(0deg) translate(-1241.357554px,-445.815449px); animation-timing-function: cubic-bezier(0.42,0,0.58,1); } 20% { transform: translate(1241.357554px,445.815449px) rotate(100deg) translate(-1241.357554px,-445.815449px); } 40% { transform: translate(1241.357554px,445.815449px) rotate(100deg) translate(-1241.357554px,-445.815449px); } 60% { transform: translate(1241.357554px,445.815449px) rotate(0deg) translate(-1241.357554px,-445.815449px); animation-timing-function: cubic-bezier(0.42,0,0.58,1); } 100% { transform: translate(1241.357554px,445.815449px) rotate(0deg) translate(-1241.357554px,-445.815449px); } }
@keyframes a12_o { 0% { opacity: 0; } 40% { opacity: 0; animation-timing-function: cubic-bezier(0.42,0,0.58,1); } 50% { opacity: 1; } 100% { opacity: 1; } }
@keyframes a13_t { 0% { transform: translate(680.632672px,852.723144px); animation-timing-function: cubic-bezier(0.42,0,0.58,1); } 20% { transform: translate(877.445218px,852.723144px); animation-timing-function: cubic-bezier(0.42,0,0.58,1); } 40% { transform: translate(987.863887px,639.942322px); animation-timing-function: cubic-bezier(0.42,0,0.58,1); } 60% { transform: translate(877.445px,852.723px); } 100% { transform: translate(877.445px,852.723px); } }
@keyframes dog_t { 0% { transform: rotate(0deg) translate(-759.901226px,-852.723144px); } 20% { transform: rotate(0deg) translate(-759.901226px,-852.723144px); animation-timing-function: cubic-bezier(0.42,0,0.58,1); } 40% { transform: rotate(-30deg) translate(-759.901226px,-852.723144px); animation-timing-function: cubic-bezier(0.42,0,0.58,1); } 60% { transform: rotate(0deg) translate(-759.901226px,-852.723144px); } 100% { transform: rotate(0deg) translate(-759.901226px,-852.723144px); } }
@keyframes a14_t { 0% { transform: translate(941.327208px,874.121403px) rotate(0deg) translate(-948.081891px,-880.876086px); animation-timing-function: cubic-bezier(0.42,0,0.58,1); } 10% { transform: translate(941.327208px,874.121403px) rotate(20deg) translate(-948.081891px,-880.876086px); animation-timing-function: cubic-bezier(0.42,0,0.58,1); } 20% { transform: translate(941.327208px,874.121403px) rotate(0deg) translate(-948.081891px,-880.876086px); animation-timing-function: cubic-bezier(0.42,0,0.58,1); } 30% { transform: translate(941.327208px,874.121403px) rotate(-50deg) translate(-948.081891px,-880.876086px); animation-timing-function: cubic-bezier(0.42,0,0.58,1); } 60% { transform: translate(941.327208px,874.121403px) rotate(0deg) translate(-948.081891px,-880.876086px); animation-timing-function: cubic-bezier(0.42,0,0.58,1); } 100% { transform: translate(941.327208px,874.121403px) rotate(0deg) translate(-948.081891px,-880.876086px); } }
@keyframes a15_t { 0% { transform: translate(800.5797px,871.115356px) rotate(0deg) translate(-800.5797px,-871.115356px); animation-timing-function: cubic-bezier(0.42,0,0.58,1); } 10% { transform: translate(800.5797px,871.115356px) rotate(-10deg) translate(-800.5797px,-871.115356px); animation-timing-function: cubic-bezier(0.42,0,0.58,1); } 20% { transform: translate(800.5797px,871.115356px) rotate(0deg) translate(-800.5797px,-871.115356px); animation-timing-function: cubic-bezier(0.42,0,0.58,1); } 30% { transform: translate(800.5797px,871.115356px) rotate(20deg) translate(-800.5797px,-871.115356px); animation-timing-function: cubic-bezier(0.42,0,0.58,1); } 60% { transform: translate(800.5797px,871.115356px) rotate(0deg) translate(-800.5797px,-871.115356px); animation-timing-function: cubic-bezier(0.42,0,0.58,1); } 100% { transform: translate(800.5797px,871.115356px) rotate(0deg) translate(-800.5797px,-871.115356px); } }
@keyframes dog_body_t { 0% { transform: translate(755.674159px,855.370389px) rotate(0deg) translate(-755.674159px,-855.370389px); animation-timing-function: cubic-bezier(0.42,0,0.58,1); } 20% { transform: translate(755.674159px,855.370389px) rotate(10deg) translate(-755.674159px,-855.370389px); animation-timing-function: cubic-bezier(0.42,0,0.58,1); } 60% { transform: translate(755.674159px,855.370389px) rotate(0deg) translate(-755.674159px,-855.370389px); animation-timing-function: cubic-bezier(0.42,0,0.58,1); } 100% { transform: translate(755.674159px,855.370389px) rotate(0deg) translate(-755.674159px,-855.370389px); } }
@keyframes a16_t { 0% { transform: translate(907.75202px,778.346064px) rotate(0deg) translate(-907.752001px,-778.346064px); animation-timing-function: cubic-bezier(0.42,0,0.58,1); } 20% { transform: translate(907.75202px,778.346064px) rotate(-90deg) translate(-907.752001px,-778.346064px); animation-timing-function: cubic-bezier(0.42,0,0.58,1); } 40% { transform: translate(907.75202px,778.346064px) rotate(-30deg) translate(-907.752001px,-778.346064px); animation-timing-function: cubic-bezier(0.42,0,0.58,1); } 60% { transform: translate(907.75202px,778.346064px) rotate(-90deg) translate(-907.752001px,-778.346064px); } 100% { transform: translate(907.75202px,778.346064px) rotate(-90deg) translate(-907.752001px,-778.346064px); } }
@keyframes a17_t { 0% { transform: translate(910.22178px,887.534298px) rotate(0deg) translate(-910.22178px,-887.534298px); animation-timing-function: cubic-bezier(0.42,0,0.58,1); } 10% { transform: translate(910.22178px,887.534298px) rotate(-20deg) translate(-910.22178px,-887.534298px); animation-timing-function: cubic-bezier(0.42,0,0.58,1); } 20% { transform: translate(910.22178px,887.534298px) rotate(0deg) translate(-910.22178px,-887.534298px); animation-timing-function: cubic-bezier(0.42,0,0.58,1); } 30% { transform: translate(910.22178px,887.534298px) rotate(-50deg) translate(-910.22178px,-887.534298px); animation-timing-function: cubic-bezier(0.42,0,0.58,1); } 60% { transform: translate(910.22178px,887.534298px) rotate(0deg) translate(-910.22178px,-887.534298px); animation-timing-function: cubic-bezier(0.42,0,0.58,1); } 100% { transform: translate(910.22178px,887.534298px) rotate(0deg) translate(-910.22178px,-887.534298px); } }
@keyframes a18_t { 0% { transform: translate(763.992437px,866.158584px) rotate(0deg) translate(-763.992437px,-866.158584px); animation-timing-function: cubic-bezier(0.42,0,0.58,1); } 10% { transform: translate(763.992437px,866.158584px) rotate(10deg) translate(-763.992437px,-866.158584px); animation-timing-function: cubic-bezier(0.42,0,0.58,1); } 20% { transform: translate(763.992437px,866.158584px) rotate(0deg) translate(-763.992437px,-866.158584px); animation-timing-function: cubic-bezier(0.42,0,0.58,1); } 30% { transform: translate(763.992437px,866.158584px) rotate(20deg) translate(-763.992437px,-866.158584px); animation-timing-function: cubic-bezier(0.42,0,0.58,1); } 60% { transform: translate(763.992437px,866.158584px) rotate(0deg) translate(-763.992437px,-866.158584px); animation-timing-function: cubic-bezier(0.42,0,0.58,1); } 100% { transform: translate(763.992437px,866.158584px) rotate(0deg) translate(-763.992437px,-866.158584px); } }
    </style>
    <title>illustration2</title>
    <g transform="translate(1492.51,890.474) translate(-90.3819,-172.137)" style="animation: 5s linear infinite both a0_t;">
        <path class="cls-1" d="M1473.21,919.55C1473.21,919.55,1473.21,901.8,1446.59,884.06C1419.97,866.32,1408.14,830.82,1437.71,830.82C1467.28,830.82,1399.26,810.11,1402.22,786.45C1405.18,762.79,1417.01,777.58,1419.97,765.74C1422.93,753.9,1399.26,700.67,1422.97,724.33C1446.68,747.99,1449.6,768.7,1458.47,748C1467.34,727.3,1485.09,736.17,1479.17,765.74C1473.25,795.31,1480,799.29,1494.38,785.47C1508.76,771.65,1550.16,765.74,1526.5,807.15C1502.84,848.56,1528.92,859.75,1509.96,883.74C1491,907.73,1473.21,890,1473.21,919.55Z" fill="#e6f5eb" transform="translate(-1402.13,-718.337)"/>
        <path class="cls-3" d="M1435.42,764.14C1435.42,764.14,1474.16,831,1474.8,860C1475.44,889,1475.59,901.44,1497.36,917" stroke-width="1.57px" stroke-linecap="round" stroke-linejoin="round" stroke="#66c485" fill="none" transform="translate(-1402.13,-718.337)"/>
        <path class="cls-3" d="M1459.76,779.52C1459.76,779.52,1458.7,801.52,1462.76,818.69C1462.76,818.69,1451.87,805.88,1444.99,801.49" stroke-width="1.57px" stroke-linecap="round" stroke-linejoin="round" stroke="#66c485" fill="none" transform="translate(-1402.13,-718.337)"/>
        <path class="cls-3" d="M1473.17,811.39C1473.17,811.39,1473.36,837.22,1474.51,856.07C1474.51,856.07,1461.69,835.07,1454.81,830.67" stroke-width="1.57px" stroke-linecap="round" stroke-linejoin="round" stroke="#66c485" fill="none" transform="translate(-1402.13,-718.337)"/>
    </g>
    <g transform="translate(1508.44,885.443) translate(-27.5789,-241.383)" style="animation: 5s linear infinite both a1_t;">
        <path class="cls-4" d="M1480.86,919.11C1480.86,919.11,1507.48,904.32,1498.61,851.11C1489.74,797.9,1505.96,738.41,1533.84,704.8C1566.35,665.59,1619.84,644.06,1619.84,644.06C1619.84,644.06,1646.46,715.06,1605.05,788.99C1563.64,862.92,1501.56,919.11,1480.86,919.11Z" fill="#99d7ad" transform="translate(-1480.86,-644.06)"/>
        <g transform="translate(25.902,234.675) translate(-25.902,-200.935)">
            <path class="cls-5" d="M1601.24,677.8C1601.24,677.8,1534.48,776.8,1529.77,823.87C1525.06,870.94,1518.33,896.54,1480.86,919.11" stroke="#4dba71" stroke-linejoin="round" stroke-width="1.57px" stroke-linecap="round" fill="none" transform="translate(-1480.86,-677.8)"/>
            <path class="cls-5" d="M1533.7,750.05C1533.7,750.05,1540.22,786.16,1531.34,813.66C1531.34,813.66,1549.4,790.1,1561.18,783.82" stroke="#4dba71" stroke-linejoin="round" stroke-width="1.57px" stroke-linecap="round" fill="none" transform="translate(-1480.86,-677.8)"/>
        </g>
    </g>
    <g>
        <path class="cls-6" d="M1611.18,771L1611.05,770.8C1611.05,770.8,1560.92,782.41,1530.48,803.56C1504.37,821.69,1489.17,853.75,1497.48,882.47C1502.22,898.86,1496.13,908.47,1490.03,913.74C1549.82,879.59,1606.9,778.62,1611.18,771Z" fill="#66c485"/>
        <path class="cls-7" d="M1597.2,848.91C1634.39,810.68,1613.01,773.91,1611.2,770.91C1606.92,778.58,1549.84,879.55,1490.05,913.65C1489.38,914.235,1488.68,914.79,1487.95,915.312C1487.23,915.834,1486.48,916.323,1485.71,916.777C1484.94,917.231,1484.15,917.65,1483.35,918.033C1482.54,918.416,1481.72,918.762,1480.88,919.07C1500.25,919.11,1558.42,888.8,1597.2,848.91Z" fill="#33b05c"/>
    </g>
    <rect class="cls-8" width="308.57" height="110.72" fill="#ccecd6" transform="translate(0,0) translate(1363.47,865.32)"/>
    <g>
        <rect class="cls-9" width="77.5" height="21.72" fill="#b3e1c2" transform="translate(0,0) translate(1402.22,942.54)"/>
        <rect class="cls-9" width="77.5" height="21.72" fill="#b3e1c2" transform="translate(0,0) translate(1440.97,910.37)"/>
        <rect class="cls-9" width="77.5" height="21.72" fill="#b3e1c2" transform="translate(0,0) translate(1402.22,878.46)"/>
        <rect class="cls-9" width="77.5" height="21.72" fill="#b3e1c2" transform="translate(0,0) translate(1494.22,942.54)"/>
        <rect class="cls-9" width="77.5" height="21.72" fill="#b3e1c2" transform="translate(0,0) translate(1532.97,910.37)"/>
        <rect class="cls-9" width="77.5" height="21.72" fill="#b3e1c2" transform="translate(0,0) translate(1494.22,878.46)"/>
    </g>
    <g>
        <rect class="cls-9" width="77.5" height="21.72" fill="#b3e1c2" transform="translate(0,0) translate(1583.59,942.54)"/>
        <rect class="cls-9" width="77.5" height="21.72" fill="#b3e1c2" transform="translate(0,0) translate(1583.59,878.46)"/>
    </g>
    <rect class="cls-10" width="846.96" height="109.63" fill="#ccebd6" transform="translate(0,0) translate(327.04,866.42)"/>
    <g>
        <rect class="cls-9" width="45.5" height="21.72" fill="#b3e1c2" transform="translate(0,0) translate(342.3,910.37)"/>
        <g>
            <rect class="cls-9" width="77.5" height="21.72" fill="#b3e1c2" transform="translate(0,0) translate(360.91,942.54)"/>
            <rect class="cls-9" width="77.5" height="21.72" fill="#b3e1c2" transform="translate(0,0) translate(399.66,910.37)"/>
            <rect class="cls-9" width="77.5" height="21.72" fill="#b3e1c2" transform="translate(0,0) translate(360.91,878.46)"/>
            <rect class="cls-9" width="77.5" height="21.72" fill="#b3e1c2" transform="translate(0,0) translate(452.91,942.54)"/>
            <rect class="cls-9" width="77.5" height="21.72" fill="#b3e1c2" transform="translate(0,0) translate(491.66,910.37)"/>
            <rect class="cls-9" width="77.5" height="21.72" fill="#b3e1c2" transform="translate(0,0) translate(452.91,878.46)"/>
        </g>
        <g>
            <rect class="cls-9" width="77.5" height="21.72" fill="#b3e1c2" transform="translate(0,0) translate(542.28,942.54)"/>
            <rect class="cls-9" width="77.5" height="21.72" fill="#b3e1c2" transform="translate(0,0) translate(581.03,910.37)"/>
            <rect class="cls-9" width="77.5" height="21.72" fill="#b3e1c2" transform="translate(0,0) translate(542.28,878.46)"/>
            <rect class="cls-9" width="77.5" height="21.72" fill="#b3e1c2" transform="translate(0,0) translate(634.28,942.54)"/>
            <rect class="cls-9" width="77.5" height="21.72" fill="#b3e1c2" transform="translate(0,0) translate(673.03,910.37)"/>
            <rect class="cls-9" width="77.5" height="21.72" fill="#b3e1c2" transform="translate(0,0) translate(634.28,878.46)"/>
        </g>
        <g>
            <rect class="cls-9" width="77.5" height="21.72" fill="#b3e1c2" transform="translate(0,0) translate(723.64,942.54)"/>
            <rect class="cls-9" width="77.5" height="21.72" fill="#b3e1c2" transform="translate(0,0) translate(762.39,910.37)"/>
            <rect class="cls-9" width="77.5" height="21.72" fill="#b3e1c2" transform="translate(0,0) translate(723.64,878.46)"/>
            <rect class="cls-9" width="77.5" height="21.72" fill="#b3e1c2" transform="translate(0,0) translate(815.64,942.54)"/>
            <rect class="cls-9" width="77.5" height="21.72" fill="#b3e1c2" transform="translate(0,0) translate(854.39,910.37)"/>
            <rect class="cls-9" width="77.5" height="21.72" fill="#b3e1c2" transform="translate(0,0) translate(815.64,878.46)"/>
        </g>
        <g>
            <rect class="cls-9" width="77.5" height="21.72" fill="#b3e1c2" transform="translate(0,0) translate(905.01,942.54)"/>
            <rect class="cls-9" width="77.5" height="21.72" fill="#b3e1c2" transform="translate(0,0) translate(943.76,910.37)"/>
            <rect class="cls-9" width="77.5" height="21.72" fill="#b3e1c2" transform="translate(0,0) translate(905.01,878.46)"/>
            <rect class="cls-9" width="77.5" height="21.72" fill="#b3e1c2" transform="translate(0,0) translate(997.01,942.54)"/>
            <rect class="cls-9" width="77.5" height="21.72" fill="#b3e1c2" transform="translate(0,0) translate(1035.76,910.37)"/>
            <rect class="cls-9" width="77.5" height="21.72" fill="#b3e1c2" transform="translate(0,0) translate(997.01,878.46)"/>
        </g>
    </g>
    <path class="cls-1" d="M1516,124.8C1515.62,124.8,1515.24,124.8,1514.86,124.86C1514.34,118.67,1512.28,112.709,1508.87,107.524C1505.45,102.338,1500.78,98.0938,1495.3,95.1804C1489.81,92.267,1483.68,90.7778,1477.47,90.8494C1471.26,90.921,1465.17,92.551,1459.75,95.59C1455.83,87.237,1449.29,80.3883,1441.13,76.0783C1432.97,71.7683,1423.62,70.2313,1414.51,71.6995C1405.4,73.1677,1397.02,77.5612,1390.62,84.2164C1384.23,90.8716,1380.17,99.427,1379.07,108.59C1374.29,106.168,1369.03,104.819,1363.67,104.639C1358.31,104.459,1352.98,105.451,1348.04,107.546C1343.11,109.641,1338.69,112.789,1335.09,116.769C1331.5,120.749,1328.82,125.466,1327.24,130.59C1326.96,130.527,1326.69,130.472,1326.41,130.424C1326.13,130.376,1325.85,130.336,1325.57,130.303C1325.28,130.271,1325,130.246,1324.72,130.229C1324.44,130.211,1324.15,130.202,1323.87,130.2C1315.66,130.2,1307.8,132.89,1307.26,140.96C1305.26,139.01,1300.68,135.96,1297.67,135.96C1291.55,135.96,1291.67,141.86,1279.21,143.82L1557.83,143.82C1538.6,138.51,1530.91,124.8,1516,124.8Z" fill="#e6f5eb" transform="translate(1418.52,107.489) translate(-1418.52,-107.489)" style="animation: 5s linear infinite both a2_t;"/>
    <path class="cls-1" d="M753.34,94.51C753.61,94.51,753.87,94.51,754.14,94.51C754.503,90.1839,755.946,86.0182,758.337,82.3944C760.727,78.7707,763.989,75.8049,767.823,73.7689C771.658,71.7329,775.942,70.6917,780.283,70.7408C784.624,70.7899,788.883,71.9278,792.67,74.05C795.418,68.2149,799.99,63.4318,805.694,60.4224C811.399,57.4129,817.928,56.3404,824.296,57.3665C830.664,58.3926,836.525,61.4617,840.996,66.1109C845.466,70.76,848.304,76.737,849.08,83.14C852.426,81.4497,856.1,80.5098,859.847,80.3857C863.594,80.2617,867.322,80.9566,870.773,82.4219C874.223,83.8872,877.312,86.0876,879.825,88.8697C882.337,91.6518,884.213,94.9486,885.32,98.53C885.513,98.4859,885.706,98.4472,885.901,98.4138C886.096,98.3804,886.291,98.3525,886.488,98.3299C886.684,98.3074,886.881,98.2903,887.078,98.2786C887.275,98.2669,887.472,98.2607,887.67,98.26C893.41,98.26,898.91,100.13,899.29,105.78C900.68,104.42,903.89,102.25,905.99,102.25C910.27,102.25,910.19,106.38,918.89,107.75L724.1,107.75C737.52,104.1,742.89,94.51,753.34,94.51Z" fill="#e6f5eb" transform="translate(821.495,82.3689) translate(-821.495,-82.3689)" style="animation: 5s linear infinite both a3_t;"/>
    <path class="cls-1" d="M217,249.85C217.21,249.85,217.4,249.85,217.6,249.85C217.871,246.612,218.95,243.493,220.74,240.78C222.529,238.067,224.971,235.847,227.841,234.324C230.712,232.8,233.919,232.021,237.168,232.059C240.418,232.097,243.606,232.95,246.44,234.54C248.496,230.172,251.917,226.591,256.187,224.338C260.456,222.084,265.343,221.281,270.109,222.049C274.876,222.816,279.263,225.113,282.609,228.593C285.956,232.073,288.079,236.547,288.66,241.34C291.164,240.076,293.914,239.373,296.718,239.281C299.521,239.189,302.312,239.71,304.893,240.806C307.475,241.903,309.787,243.55,311.667,245.631C313.547,247.713,314.951,250.18,315.78,252.86C315.924,252.827,316.069,252.797,316.215,252.772C316.361,252.747,316.507,252.726,316.654,252.71C316.801,252.693,316.949,252.681,317.096,252.672C317.244,252.664,317.392,252.66,317.54,252.66C321.83,252.66,325.95,254.06,326.23,258.29C327.23,257.29,329.67,255.65,331.23,255.65C334.43,255.65,334.37,258.74,340.88,259.76L195.1,259.76C205.14,257,209.16,249.85,217,249.85Z" fill="#e6f5eb" transform="translate(267.99,240.763) translate(-267.99,-240.763)" style="animation: 5s linear infinite both a4_t;"/>
    <path class="cls-1" d="M789.47,115.42C789.13,115.42,788.81,115.42,788.47,115.42C788.008,110.097,786.221,104.975,783.272,100.52C780.322,96.0655,776.305,92.42,771.585,89.9165C766.865,87.4129,761.594,86.1309,756.251,86.1875C750.909,86.244,745.666,87.6372,741,90.24C737.614,83.0422,731.978,77.1413,724.944,73.4283C717.909,69.7153,709.857,68.3917,702.004,69.6575C694.151,70.9232,686.923,74.7096,681.411,80.4448C675.899,86.1801,672.403,93.5528,671.45,101.45C667.323,99.3644,662.791,98.2049,658.17,98.0526C653.549,97.9003,648.95,98.7589,644.695,100.568C640.44,102.378,636.632,105.094,633.536,108.528C630.439,111.962,628.131,116.031,626.77,120.45C626.532,120.395,626.292,120.347,626.051,120.305C625.81,120.263,625.567,120.228,625.324,120.2C625.081,120.171,624.838,120.15,624.593,120.135C624.349,120.12,624.105,120.111,623.86,120.11C616.79,120.11,610.01,122.43,609.55,129.39C607.83,127.71,603.87,125.04,601.28,125.04C596.01,125.04,596.11,130.13,585.37,131.82L825.52,131.82C809,127.24,802.35,115.42,789.47,115.42Z" fill="#e6f5eb" transform="translate(705.445,100.505) translate(-705.445,-100.505)" style="animation: 5s linear infinite both a5_t;"/>
    <g transform="translate(-71.1481,0)">
        <g transform="translate(550.542,344.095) translate(-33.1362,-16.8833)" style="animation: 5s linear infinite both a6_t;">
            <path class="cls-1" d="M654.53,532.29L666.06,550.05C666.06,550.05,667.79,550.58,674.06,555.53C682.79,558.33,701.54,585.66,679.16,602.82C668.51,611,657,587.54,657,587.54C657,587.54,651.08,577.66,654.57,572.25L641.76,556Z" fill="#e6f5eb" transform="translate(-517.406,-327.211)"/>
            <path class="cls-11" d="M596.19,432.05C607.37,451.18,659.72,539.88,659.72,539.88L646.5,571.21C646.5,571.21,582.8,493.4,568.07,470.21C555.85,451,526.7,414.85,522.14,388.8C518.73,369.3,514.3,349.56,520.55,340.8C528.45,329.71,554.6,320.19,564.24,334.27C567.67,339.26,586.16,414.9,596.19,432.05Z" fill="url(#Gradient-0)" transform="translate(-517.406,-327.211)"/>
        </g>
        <path class="cls-12" d="M465.65,605.55C465.65,605.55,525.73,524.89,536.5,573.06C552.5,644.62,568.33,732.19,569.15,778.06C569.179,779.011,569.178,779.962,569.147,780.912C569.117,781.863,569.056,782.812,568.966,783.759C568.876,784.706,568.756,785.649,568.606,786.589C568.457,787.528,568.278,788.462,568.07,789.39L568.07,789.39C568.07,789.39,576.87,928.73,588.62,960.99L588.68,961.16C588.68,961.16,561.37,978.26,552.83,965.08C552.614,964.714,552.407,964.343,552.207,963.967C552.008,963.592,551.817,963.212,551.634,962.828C551.451,962.444,551.277,962.057,551.111,961.665C550.945,961.274,550.788,960.878,550.64,960.48C540.11,934.41,512,824.24,518.08,795.75C509.24,715.27,465.65,605.55,465.65,605.55Z" fill="#4dba71"/>
        <path class="cls-13" d="M550.64,960.46C550.788,960.858,550.945,961.254,551.111,961.645C551.277,962.037,551.451,962.424,551.634,962.808C551.817,963.192,552.008,963.572,552.207,963.947C552.407,964.323,552.614,964.694,552.83,965.06C561.37,978.24,588.68,961.14,588.68,961.14L588.62,960.97C588.807,961.078,588.989,961.194,589.167,961.317C589.344,961.44,589.517,961.57,589.684,961.706C589.852,961.842,590.014,961.985,590.17,962.135C590.326,962.284,590.476,962.439,590.62,962.6C595.51,968.6,611.93,977.83,616.37,976.6C616.37,976.6,627.63,978.27,639.92,978.77C652.21,979.27,639.14,998.77,622.66,999.95C606.18,1001.13,587.96,995.7,583.66,997.87C579.36,1000.04,560.31,1003.58,558.6,1001.13C556.797,998.727,555.203,996.174,553.837,993.498C552.47,990.823,551.335,988.035,550.445,985.166C549.554,982.297,548.912,979.357,548.524,976.378C548.136,973.398,548.004,970.392,548.13,967.39C548.134,966.763,548.191,966.138,548.301,965.521C548.411,964.904,548.574,964.298,548.787,963.709C549.001,963.119,549.264,962.549,549.575,962.005C549.885,961.461,550.242,960.944,550.64,960.46Z" fill="#009c33"/>
        <path class="cls-12" d="M408.43,607.57L406.18,555.82C428.29,559.05,500.07,569.94,501.89,621.27C501.89,621.27,452.52,790.91,451.12,794.08L451.12,794.08C451.12,794.08,436.12,874.94,428.75,976.94C428.3,983.2,405.16,983.7,400.89,980.94C384.62,970.43,391.25,964.24,391.25,964.24C390.81,963.24,387.13,819.03,398.76,791.04C405.1,707,408.43,607.57,408.43,607.57Z" fill="#4dba71"/>
        <path class="cls-13" d="M391.25,964.25C391.269,964.718,391.297,965.187,391.334,965.654C391.371,966.121,391.418,966.588,391.474,967.053C391.529,967.519,391.595,967.983,391.669,968.446C391.743,968.909,391.827,969.37,391.92,969.83C396.12,986.54,428.69,977.43,428.69,977.43C428.833,977.595,428.972,977.765,429.104,977.939C429.237,978.113,429.364,978.291,429.485,978.474C429.606,978.656,429.721,978.842,429.831,979.031C429.94,979.221,430.043,979.414,430.14,979.61C433.03,987.55,446.31,1002.61,451.14,1002.83C452.982,1003.76,454.835,1004.66,456.699,1005.54C458.563,1006.42,460.439,1007.28,462.324,1008.11C464.21,1008.95,466.106,1009.76,468.013,1010.54C469.919,1011.33,471.835,1012.09,473.76,1012.83C485.76,1017.37,466.51,1033.7,449.82,1029.54C433.13,1025.38,416.82,1013.69,411.91,1014.59C407,1015.49,386.91,1012.97,386.04,1009.82C385.032,1006.67,384.28,1003.44,383.794,1000.17C383.307,996.891,383.086,993.584,383.134,990.274C383.181,986.965,383.497,983.665,384.077,980.406C384.658,977.148,385.502,973.942,386.6,970.82C386.792,970.164,387.037,969.525,387.335,968.909C387.632,968.293,387.98,967.704,388.375,967.146C388.77,966.588,389.21,966.063,389.692,965.578C390.174,965.093,390.695,964.649,391.25,964.25Z" fill="#009c33"/>
        <path class="cls-14" d="M471.91,291.56C452.08,317.07,398.71,329.07,398.71,329.07C398.71,329.07,408.54,409.86,414.92,457.26C421.3,504.66,409.92,555.82,409.92,555.82C409.92,555.82,425.6,575.34,438.43,579.62C451.26,583.9,439.96,606.37,472.71,616.56C493.47,623,544.88,613,544.88,613C560.69,605.76,558.38,605.9,553.99,569.65C549.58,533.22,545.31,493.21,545.93,479.23C546.29,471.3,548.38,432.59,549.59,422.3C555.21,374.75,556.77,328.73,556.77,328.73C552.452,327.096,548.186,325.328,543.978,323.428C539.77,321.528,535.623,319.497,531.542,317.338C527.461,315.179,523.448,312.893,519.51,310.483C515.572,308.073,511.71,305.541,507.93,302.89Z" fill="url(#Gradient-1)"/>
        <path class="cls-15" d="M499.56,309.36L500.4,317.7C502.64,318.7,508.23,311.85,508.23,311.85L507.54,300.7C507.54,300.7,503.02,297.54,499.64,298.16C496.26,298.78,499.56,309.36,499.56,309.36Z" fill="#008c2e"/>
        <g>
            <path class="cls-1" d="M469,268.42L463.41,310.85C463.41,310.85,481.66,325.5,500.36,317.72C500.36,317.72,497.74,296.52,501.69,284.21C504.23,276.4,469,268.42,469,268.42Z" fill="#e6f5eb"/>
            <g class="cls-16" clip-path="url(#clip-path)">
                <path class="cls-10" d="M468.54,264.27C468.54,264.27,465.98,309.86,500.68,306.14C535.38,302.42,511.84,271.62,511.84,271.62C511.84,271.62,487.47,248.17,468.54,264.27Z" fill="#ccebd6"/>
            </g>
            <g transform="translate(469.939,276.789) translate(-18.3999,-86.6987)" style="animation: 5s linear infinite both a7_t;">
                <path class="cls-1" d="M486.62,199.2C506.87,196.64,525.62,213.11,528.52,235.98C528.713,237.49,528.831,239.008,528.875,240.53C528.918,242.052,528.887,243.574,528.78,245.093C528.674,246.611,528.492,248.124,528.237,249.624C527.981,251.125,527.652,252.612,527.25,254.08C526.25,261.54,524.67,272.89,517.99,282.73C514.64,287.67,514.61,289.06,513.13,291.94C509.21,299.58,508.59,297.58,492.59,291.94C491.145,291.448,489.719,290.9,488.316,290.296C486.914,289.693,485.535,289.036,484.184,288.325C482.832,287.615,481.509,286.852,480.217,286.038C478.925,285.225,477.665,284.362,476.44,283.45C467.37,276.3,460.89,268.06,458.37,257.31C457.97,256.345,457.603,255.367,457.269,254.377C456.936,253.388,456.635,252.387,456.368,251.377C456.102,250.368,455.869,249.349,455.671,248.324C455.473,247.298,455.309,246.266,455.18,245.23C452.29,222.36,466.37,201.75,486.62,199.2Z" fill="#e6f5eb" transform="translate(-451.539,-190.091)"/>
                <path class="cls-13" d="M451.85,242.66C450.09,228.66,456.38,209.88,456.38,209.88C456.38,209.88,457.1,196.53,469.68,195.88C494.73,194.49,509.58,195.74,514.31,192.88C530.43,183.25,518.31,202.13,526.06,196.13C537.38,187.31,528.36,205.05,535.06,196.13C541.76,187.21,538.19,213.74,529.18,218.58C534.18,228.27,528.57,247.23,528.57,247.23C528.65,237.23,527.01,228.17,525.12,223.53C521.42,226.53,512.12,230.44,480.27,227.02C480.27,227.02,485.84,245.88,479.35,247.8C479.35,247.8,478.76,259.91,477.35,260.38C475.94,260.85,471.11,247.63,471.11,247.63C470.4,248.08,472.27,258.3,471.62,262.25C470.81,267.25,469.46,275.82,471.4,279.18C462.88,276.87,453.35,254.58,451.85,242.66Z" fill="#009c33" transform="translate(-451.539,-190.091)"/>
                <path class="cls-1" d="M476.21,263C476.21,263,477.07,264.27,473.09,263.69C463.9,262.34,452.81,240.24,470.63,246.1Z" fill="#e6f5eb" transform="translate(-451.539,-190.091)"/>
            </g>
        </g>
        <path class="cls-6" d="M507.54,300.7C507.54,300.7,507.76,314.64,500.4,317.7C500.4,317.7,510.06,323.32,509.17,329.76C509.17,329.78,514.69,317.43,507.54,300.7Z" fill="#66c485"/>
        <path class="cls-6" d="M491.76,319.94L483.16,339.94L461.85,309.42C461.606,308.938,461.369,308.452,461.139,307.963C460.909,307.475,460.686,306.982,460.47,306.487C460.254,305.992,460.045,305.494,459.843,304.992C459.642,304.491,459.447,303.987,459.26,303.48C459.26,303.48,464.52,297.42,465.08,298.83C466.59,302.57,480.63,314.24,491.76,319.94Z" fill="#66c485"/>
        <g>
            <path class="cls-13" d="M462.91,268.66L463.49,269.55C463.437,269.479,463.386,269.407,463.335,269.334C463.285,269.261,463.235,269.188,463.187,269.113C463.139,269.039,463.091,268.964,463.045,268.889C462.999,268.813,462.954,268.737,462.91,268.66Z" fill="#009c33"/>
        </g>
        <path class="cls-1" d="M415.27,597.71L417.27,607.66C439.4,603.84,442.11,592.53,442.11,592.53C441.99,591.334,441.802,590.146,441.547,588.972C441.291,587.797,440.969,586.638,440.581,585.5C440.194,584.363,439.741,583.248,439.227,582.162C438.712,581.076,438.135,580.02,437.5,579Z" fill="#e6f5eb"/>
        <path class="cls-17" d="M398.71,329.07C379.71,335.35,372.11,385.77,361.39,438.97C360.16,445.04,354.86,474.78,354.86,474.78C354.86,474.78,377.55,536,397,575.08C412.54,606.36,412.09,605.55,412.09,605.55C412.09,605.55,446.33,591.27,442.26,583.24C424,547.42,402.54,482.74,396,470.61C401.26,458.3,438.07,407.67,437.48,381.61C437.48,381.61,421.25,333.33,406.67,329.09C406.029,328.879,405.372,328.719,404.706,328.612C404.04,328.504,403.366,328.449,402.692,328.448C402.017,328.446,401.343,328.497,400.676,328.602C400.01,328.706,399.352,328.862,398.71,329.07Z" fill="url(#Gradient-2)"/>
    </g>
    <g id="man2" style="animation: 5s linear infinite both man2_t;">
        <g transform="translate(1332.45,597.736) translate(-52.1529,-16.7259)" style="animation: 5s linear infinite both a8_t;">
            <path class="cls-24" d="M1384.19,966.25C1381.52,971.47,1354.32,964.85,1354.32,964.85L1354.32,964.85C1350.84,977.72,1344.64,998.01,1338.92,1003.54C1330.35,1011.82,1311.61,1029.33,1323.66,1036.33C1335.71,1043.33,1361.86,1042.06,1369.8,1026.78C1377.74,1011.5,1383.09,1014.05,1387.11,1008.32C1391.13,1002.59,1390.86,987.32,1387.11,982.85C1385.13,980.49,1384.42,972.89,1384.19,966.25Z" fill="#0b8735" transform="translate(-1280.3,-581.01)"/>
            <path class="cls-13" d="M1395.35,865.22C1393.17,827,1377.11,779.37,1377.11,779.37L1377.11,779.37C1395.72,685.27,1386.85,617.87,1389.03,581.01L1280.3,594.87C1280.3,594.87,1284.6,607.32,1301.92,656.99C1319.58,707.62,1329.67,776.75,1339.67,807.55L1339.67,807.55C1339.67,807.55,1355.56,948.21,1354.67,964.85L1354.67,964.85C1354.67,964.85,1381.87,971.47,1384.54,966.25L1384.54,966.25C1392.49,950.68,1397.11,895.92,1395.35,865.22Z" fill="#009c33" transform="translate(-1280.3,-581.01)"/>
        </g>
        <g transform="translate(1282.71,595.917) translate(-64.0427,-16.4816)" style="animation: 5s linear infinite both a9_t;">
            <path class="cls-13" d="M1311,599C1311,599,1293.58,567,1249.76,584.85C1247.17,654.85,1247.54,739.85,1254.76,783.04C1254.9,783.938,1255.07,784.83,1255.26,785.717C1255.46,786.605,1255.68,787.485,1255.93,788.358C1256.19,789.232,1256.46,790.097,1256.77,790.953C1257.07,791.808,1257.4,792.655,1257.76,793.49L1257.76,793.49C1257.76,793.49,1273.76,925.89,1268.3,958.23C1268.3,958.244,1268.3,958.258,1268.3,958.272C1268.3,958.287,1268.3,958.301,1268.3,958.315C1268.3,958.329,1268.3,958.343,1268.3,958.358C1268.3,958.372,1268.3,958.386,1268.3,958.4C1268.3,958.4,1296.92,969.71,1302.65,955.85C1302.79,955.467,1302.92,955.082,1303.04,954.694C1303.16,954.305,1303.27,953.915,1303.38,953.522C1303.48,953.129,1303.58,952.733,1303.67,952.336C1303.76,951.939,1303.84,951.54,1303.91,951.14C1309.26,924.85,1316.48,816.5,1305.85,790.79C1300.07,713.69,1311,599,1311,599Z" fill="#009c33" transform="translate(-1218.67,-579.435)"/>
            <path class="cls-24" d="M1303.3,951.16C1303.23,951.561,1303.15,951.96,1303.06,952.357C1302.98,952.754,1302.88,953.149,1302.78,953.542C1302.67,953.935,1302.56,954.326,1302.44,954.714C1302.32,955.102,1302.19,955.488,1302.05,955.87C1296.31,969.73,1267.69,958.42,1267.69,958.42L1267.69,958.25C1267.53,958.385,1267.38,958.525,1267.24,958.672C1267.09,958.818,1266.95,958.97,1266.82,959.127C1266.68,959.285,1266.55,959.447,1266.43,959.614C1266.31,959.782,1266.2,959.954,1266.09,960.13C1262.55,966.63,1248.73,978.13,1244.35,977.77C1244.35,977.77,1234.07,981.29,1222.61,983.89C1211.15,986.49,1226.82,1002.55,1242.49,1000.79C1258.16,999.03,1274.35,990.79,1278.73,992.06C1283.11,993.33,1301.65,993.36,1302.83,990.76C1304.11,988.191,1305.16,985.518,1305.99,982.769C1306.81,980.02,1307.39,977.205,1307.73,974.356C1308.07,971.507,1308.17,968.635,1308.02,965.769C1307.86,962.904,1307.47,960.057,1306.83,957.26C1306.72,956.671,1306.56,956.092,1306.35,955.53C1306.15,954.968,1305.89,954.425,1305.59,953.906C1305.29,953.387,1304.95,952.895,1304.56,952.435C1304.18,951.975,1303.76,951.548,1303.3,951.16Z" fill="#0b8735" transform="translate(-1218.67,-579.435)"/>
        </g>
        <g transform="translate(1261.04,338.765) translate(-1261.04,-338.765)" style="animation: 5s linear infinite both a10_t;">
            <path class="cls-25" d="M1223.8,438.08C1223.8,438.08,1240.97,341.46,1260.4,333.25C1279.83,325.04,1290.64,335.44,1285.56,372.74C1280.48,410.04,1263.09,438.43,1258.56,450.62C1251.65,469.44,1216.26,469.27,1223.8,438.08Z" fill="url(#Gradient-3)"/>
            <g transform="translate(1241.36,445.815) translate(-1241.36,-445.815)" style="animation: 5s linear infinite both a11_t;">
                <path class="cls-1" d="M1189.05,584.94C1189.05,584.94,1181.23,590.59,1179.83,592.37C1176.35,596.8,1172.36,593.23,1172.36,593.23C1172.36,593.23,1186.09,576.84,1193.41,572.23C1199.24,568.64,1189.05,584.94,1189.05,584.94Z" fill="#e6f5eb"/>
                <path class="cls-1" d="M1204.24,543.26C1204.24,543.26,1200.08,558.91,1198.32,562.93C1196.56,566.95,1187.32,582.6,1186.66,586.76C1186,590.92,1186.41,591.61,1185.79,594.19C1185.17,596.77,1181.89,608.41,1180.67,610.82C1180.67,610.82,1179.41,611.82,1181.09,612.68C1182.77,613.54,1183.66,612.24,1185.2,610.9C1186.74,609.56,1193.61,593.9,1193.61,593.9C1193.61,593.9,1189.95,605.67,1187.06,609.71C1185.3,612.16,1184.5,614.01,1189.76,613.32C1195.26,612.6,1206.76,616.92,1210.16,609.53C1213.56,602.14,1221.9,584.44,1218.92,573.77C1215.94,563.1,1220.02,548.77,1220.02,548.77Z" fill="#e6f5eb"/>
                <path class="cls-15" d="M1229.75,550.77C1229.75,550.77,1219.65,558.06,1218.32,557.56C1216.99,557.06,1202.32,554.48,1201.67,552.56C1201.02,550.64,1200.54,544.33,1200.54,544.33Z" fill="#008c2e"/>
                <path class="cls-26" d="M1218.49,458.62C1216.62,474.04,1200.49,544.32,1200.49,544.32C1200.49,544.32,1218.82,552.44,1229.7,550.77C1229.7,550.77,1267.42,458.16,1256.82,439.21C1251.15,429,1223.24,419.35,1218.49,458.62Z" fill="url(#Gradient-4)"/>
            </g>
        </g>
        <path class="cls-1" d="M1363.62,614L1354.62,630.46C1354.62,630.46,1345.14,634.46,1344.39,635.2C1343.9,635.69,1340.31,642.78,1337.92,648.47C1337.63,649.205,1337.42,649.972,1337.29,650.754C1337.17,651.537,1337.14,652.331,1337.2,653.121C1337.25,653.911,1337.4,654.692,1337.63,655.449C1337.87,656.206,1338.18,656.934,1338.58,657.62C1341.1,662.26,1335.87,669.34,1338.91,672.23C1347.01,679.96,1360.03,680.81,1363.27,677.07C1366.51,673.33,1378.73,651.43,1376.98,643.95C1375.23,636.47,1375.07,634.53,1375.32,634.12C1375.57,633.71,1378.74,622.48,1378.74,622.48Z" fill="#e6f5eb"/>
        <g>
            <path class="cls-15" d="M1314.1,302.4C1314.1,302.4,1323.32,295.47,1330.87,304.32C1338.42,313.17,1344.59,317.96,1349.08,320.87C1353.57,323.78,1356.43,326.87,1354.53,329.63C1352.63,332.39,1281.16,328.42,1274.61,331.74C1268.06,335.06,1280.32,303.56,1314.1,302.4Z" fill="#008c2e"/>
            <path class="cls-1" d="M1316.26,288.66L1322.58,326.66C1322.58,326.66,1306.58,340.41,1289.52,333.98C1289.52,333.98,1291.23,314.81,1287.3,303.84C1284.81,296.92,1316.26,288.66,1316.26,288.66Z" fill="#e6f5eb"/>
            <g class="cls-27" clip-path="url(#clip-path-2)">
                <path class="cls-10" d="M1316.57,284.91C1316.57,284.91,1320.27,325.91,1288.91,323.59C1257.55,321.27,1277.81,292.84,1277.81,292.84C1277.81,292.84,1299,271,1316.57,284.91Z" fill="#ccebd6"/>
            </g>
            <path class="cls-1" d="M1293.55,223.88C1275.16,223.88,1260.26,240.71,1260.26,261.48C1260.26,262.848,1260.32,264.216,1260.46,265.578C1260.59,266.94,1260.79,268.294,1261.05,269.637C1261.32,270.979,1261.65,272.307,1262.05,273.617C1262.45,274.927,1262.91,276.216,1263.43,277.48C1265.21,284.03,1267.86,294,1274.93,302.04C1278.49,306.04,1278.67,307.32,1280.31,309.73C1284.68,316.11,1285.01,314.25,1298.68,307.42C1299.92,306.817,1301.13,306.166,1302.31,305.469C1303.5,304.772,1304.66,304.028,1305.79,303.241C1306.92,302.453,1308.01,301.622,1309.08,300.75C1310.14,299.877,1311.17,298.963,1312.16,298.01C1319.45,290.6,1324.32,282.5,1325.36,272.61C1325.61,271.702,1325.83,270.786,1326.01,269.864C1326.2,268.941,1326.36,268.013,1326.48,267.08C1326.61,266.147,1326.7,265.21,1326.76,264.271C1326.82,263.332,1326.85,262.391,1326.85,261.45C1326.85,240.71,1311.94,223.88,1293.55,223.88Z" fill="#e6f5eb"/>
            <path class="cls-13" d="M1328,274.54C1329.16,261.9,1335.68,240.34,1311.75,223.88C1277.95,200.63,1239.65,223.88,1255.04,248.54C1255.07,250.026,1255.2,251.508,1255.45,252.974C1255.69,254.44,1256.04,255.886,1256.5,257.299C1256.96,258.713,1257.52,260.091,1258.19,261.422C1258.85,262.752,1259.61,264.032,1260.46,265.25C1260.02,256.25,1260.82,257,1261.08,252.93C1269.49,251.4,1286.41,248.7,1301.23,250.32C1301.23,250.32,1300.99,262.93,1307.23,264.49C1307.23,264.49,1307.48,275.82,1310.77,275.84C1312.17,275.84,1315.04,264.12,1315.04,264.12C1315.74,264.5,1314.34,273.76,1315.1,277.31C1316.05,281.76,1315.96,290.79,1318.17,300.4C1326.24,298.15,1327.05,285.32,1328,274.54Z" fill="#009c33"/>
            <path class="cls-1" d="M1310.05,279.7C1310.05,279.7,1309.42,280.92,1312.91,279.95C1320.98,277.71,1328.4,256.71,1313.13,263.95Z" fill="#e6f5eb"/>
            <path class="cls-28" d="M1378.08,443.67C1381.55,421.43,1396.17,361.67,1381.42,341.12C1368.65,323.3,1320.79,315.9,1320.79,315.9C1320.79,315.9,1321.92,322.59,1323.07,333.62C1312.3,330.35,1297.63,327.21,1285.38,326.54C1287.98,321.37,1289.73,318.24,1289.73,318.24C1260.26,322.42,1257.07,342.06,1257.07,342.06C1257.07,342.06,1247.16,383.51,1246.51,477.33C1246.28,510.33,1241.02,572.09,1239.72,589.47C1239.67,590.032,1239.67,590.598,1239.72,591.16C1239.77,591.723,1239.87,592.279,1240.03,592.822C1240.18,593.366,1240.38,593.894,1240.63,594.4C1240.89,594.906,1241.18,595.388,1241.52,595.84L1241.62,595.97C1241.79,596.19,1241.96,596.4,1242.15,596.61C1259.91,617.24,1367.67,609.1,1378.15,600.17C1386.63,592.96,1390.15,569.8,1390.15,557.27C1390.16,528.78,1374.6,465.91,1378.08,443.67Z" fill="url(#Gradient-5)"/>
            <g opacity="0" transform="translate(1281.95,572.664) translate(-31.839,-35.505)" style="animation: 5s linear infinite both a12_o;">
                <path fill="url(#Gradient-6)" stroke="none" d="M-10.9858,-41.7726C-10.9858,-38.3825,-13.031,-35.6342,-15.5539,-35.6342C-18.0768,-35.6342,-20.122,-38.3825,-20.122,-41.7726C-20.122,-45.1627,-18.0768,-47.911,-15.5539,-47.911C-13.031,-47.911,-10.9858,-45.1627,-10.9858,-41.7726ZM-4.84743,-35.9197C-3.34943,-35.9197,-2.13508,-37.5815,-2.13508,-39.6313C-2.13508,-41.6812,-3.34943,-43.3429,-4.84743,-43.3429C-6.34538,-43.3429,-7.55973,-41.6812,-7.55973,-39.6313C-7.55973,-37.5815,-6.34538,-35.9197,-4.84743,-35.9197ZM-26.1176,-33.9212C-24.3831,-33.9212,-22.9771,-35.6468,-22.9771,-37.7755C-22.9771,-39.9042,-24.3831,-41.6298,-26.1176,-41.6298C-27.8521,-41.6298,-29.2582,-39.9042,-29.2582,-37.7755C-29.2582,-35.6468,-27.8521,-33.9212,-26.1176,-33.9212ZM-13.7742,-11.5606C-7.58201,-11.5606,-2.56221,-16.4832,-2.56221,-22.5556C-2.56221,-28.628,-7.58201,-33.5507,-13.7742,-33.5507C-19.9665,-33.5507,-24.9862,-28.628,-24.9862,-22.5556C-24.9862,-16.4832,-19.9665,-11.5606,-13.7742,-11.5606Z" fill-rule="evenodd" transform="translate(29.2582,84.9983) translate(0,-2.42769)"/>
                <path fill="url(#Gradient-6)" stroke="none" d="M-10.9858,-41.7726C-10.9858,-38.3825,-13.031,-35.6342,-15.5539,-35.6342C-18.0768,-35.6342,-20.122,-38.3825,-20.122,-41.7726C-20.122,-45.1627,-18.0768,-47.911,-15.5539,-47.911C-13.031,-47.911,-10.9858,-45.1627,-10.9858,-41.7726ZM-4.84743,-35.9197C-3.34943,-35.9197,-2.13508,-37.5815,-2.13508,-39.6313C-2.13508,-41.6812,-3.34943,-43.3429,-4.84743,-43.3429C-6.34538,-43.3429,-7.55973,-41.6812,-7.55973,-39.6313C-7.55973,-37.5815,-6.34538,-35.9197,-4.84743,-35.9197ZM-26.1176,-33.9212C-24.3831,-33.9212,-22.9771,-35.6468,-22.9771,-37.7755C-22.9771,-39.9042,-24.3831,-41.6298,-26.1176,-41.6298C-27.8521,-41.6298,-29.2582,-39.9042,-29.2582,-37.7755C-29.2582,-35.6468,-27.8521,-33.9212,-26.1176,-33.9212ZM-13.7742,-11.5606C-7.58201,-11.5606,-2.56221,-16.4832,-2.56221,-22.5556C-2.56221,-28.628,-7.58201,-33.5507,-13.7742,-33.5507C-19.9665,-33.5507,-24.9862,-28.628,-24.9862,-22.5556C-24.9862,-16.4832,-19.9665,-11.5606,-13.7742,-11.5606Z" fill-rule="evenodd" transform="translate(65.8131,50.3387) translate(0,-2.42769)"/>
            </g>
            <path class="cls-15" d="M1289.73,318.24C1289.73,318.24,1283.59,328.24,1301.04,327.04C1321.18,325.66,1320.79,315.9,1320.79,315.9C1320.79,315.9,1330.05,314.59,1333.04,318.37C1336.03,322.15,1326.85,334.7,1312.52,339.81C1291.9,347.15,1285.02,339.81,1280.43,332.66C1278.34,329.4,1275.18,323.89,1277.13,321.44C1279.67,318.26,1289.73,318.24,1289.73,318.24Z" fill="#008c2e"/>
        </g>
        <path class="cls-29" d="M1430.12,467.16C1419.88,416.36,1393.37,344.01,1375.22,338.01C1374.61,337.811,1373.98,337.661,1373.34,337.561C1372.7,337.46,1372.06,337.41,1371.41,337.41C1370.77,337.41,1370.13,337.46,1369.49,337.561C1368.85,337.661,1368.22,337.811,1367.61,338.01C1353.68,342.06,1348.54,397.82,1348.54,397.82C1347.97,422.75,1385.14,474,1390.16,485.76C1385.22,486.51,1359.72,604.2,1354.67,613.99L1386.29,625.18C1386.29,625.18,1400.57,576.68,1411.5,545.18C1426.49,501.9,1431.29,473,1430.12,467.16Z" fill="url(#Gradient-7)"/>
        <path class="cls-31" d="M1354.67,613.97L1358.91,622.59L1377.92,630.54L1386.29,625.16L1354.67,613.97Z" fill="url(#Gradient-8)"/>
        <path class="cls-30" d="M1323.07,333.62C1323.07,333.62,1332.29,370.07,1316,389.02C1299.71,407.97,1309.29,440.56,1309.29,440.56" stroke="#b3e1c2" stroke-linejoin="round" stroke-width="2px" stroke-linecap="round" fill="none"/>
        <path class="cls-30" d="M1284.12,332C1284.12,332,1271.54,363.59,1275.91,389C1280.13,413.63,1269.19,440.54,1269.19,440.54" stroke="#b3e1c2" stroke-linejoin="round" stroke-width="2px" stroke-linecap="round" fill="none"/>
    </g>
    <g id="dog" style="animation: 5s linear infinite both a13_t;">
        <g transform="translate(680.633,852.723) translate(-759.901,-852.723)" style="animation: 5s linear infinite both dog_t;">
            <path class="cls-18" d="M968.084,868.875C968.084,868.875,988,898.71,992.47,935.68C994.47,952.09,995.33,978.94,996.97,983.68C1006.05,1009.68,1009.64,989.74,1015.15,1008.13C1011.15,1009.67,991,1006.59,991,1006.59C991,1006.59,978.13,981.3,975,967.25C971.87,953.2,947.11,916.98,933.71,899.25C917.58,877.93,943.974,853.885,968.084,868.875Z" fill="url(#Gradient-9)" transform="translate(941.327,874.121) translate(-948.082,-880.876)" style="animation: 5s linear infinite both a14_t;"/>
            <path class="cls-19" d="M827.67,890.89C827.67,890.89,813.05,937.37,792.61,946.89C778.18,953.59,771.23,974.56,771.03,979.38C769.95,1006.07,782.5,989.3,780.73,1007.84L755.62,1007.73C755.62,1007.73,751.14,970.62,753.62,956.82C756.1,943.02,764.42,923.26,757.15,902.54C749.88,881.82,770.955,857.714,770.955,857.714C770.955,857.714,789.999,840.786,810.455,849.955C830.911,859.124,827.67,890.89,827.67,890.89Z" fill="url(#Gradient-10)" transform="translate(800.58,871.115) translate(-800.58,-871.115)" style="animation: 5s linear infinite both a15_t;"/>
            <g id="dog_body" transform="translate(755.674,855.37) translate(-755.674,-855.37)" style="animation: 5s linear infinite both dog_body_t;">
                <path class="cls-15" d="M908,779.79C907.934,779.789,907.867,779.786,907.801,779.78C907.735,779.773,907.669,779.764,907.604,779.753C907.539,779.741,907.474,779.727,907.41,779.709C907.346,779.692,907.282,779.672,907.22,779.65C898.045,775.923,888.953,771.997,879.949,767.874C870.946,763.751,862.033,759.432,853.217,754.921C844.402,750.411,835.685,745.708,827.074,740.818C818.463,735.928,809.96,730.85,801.57,725.59C769.57,705.45,742.63,684.24,721.43,662.59C694.81,635.38,677.23,607.33,669.16,579.2C668.983,578.639,669.04,578.03,669.319,577.512C669.597,576.994,670.073,576.61,670.639,576.448C671.204,576.286,671.811,576.36,672.322,576.652C672.832,576.944,673.203,577.43,673.35,578C681.22,605.42,698.45,632.85,724.55,659.54C745.55,680.97,772.21,701.97,803.9,721.93C812.228,727.153,820.67,732.194,829.218,737.05C837.766,741.905,846.418,746.574,855.17,751.052C863.921,755.53,872.769,759.817,881.707,763.91C890.646,768.003,899.672,771.9,908.78,775.6C909.259,775.78,909.659,776.123,909.91,776.568C910.161,777.014,910.248,777.533,910.155,778.036C910.062,778.539,909.795,778.993,909.401,779.319C909.007,779.645,908.511,779.823,908,779.82Z" fill="#008c2e" transform="translate(907.752,778.346) translate(-907.752,-778.346)" style="animation: 5s linear infinite both a16_t;"/>
                <path class="cls-20" d="M762.34,816.45C762.34,816.45,734.4,817.32,719.66,840.53C704.92,863.74,679.54,877,664,873.86C664.225,874.283,664.484,874.687,664.777,875.067C665.069,875.447,665.393,875.801,665.745,876.127C666.097,876.452,666.475,876.747,666.876,877.009C667.278,877.271,667.7,877.499,668.14,877.69C668.14,877.69,651.4,881.37,642.04,877.36C642.04,877.36,653.04,906.42,689.04,903.93C688.87,904.289,688.684,904.64,688.483,904.982C688.281,905.324,688.065,905.658,687.835,905.981C687.605,906.304,687.36,906.618,687.102,906.919C686.844,907.221,686.573,907.512,686.29,907.79C686.29,907.79,715.29,906.27,727.96,883.11C741.65,858.04,757.1,848.11,757.1,848.11Z" fill="url(#Gradient-11)"/>
                <path class="cls-21" d="M778.34,811.18C833.46,803.25,900.64,793.18,911.92,767.76C916.08,758.38,925.69,717.76,952.05,704.76C978.41,691.76,990.25,716.76,997.9,716.76C1005.55,716.76,1013.44,715.76,1020.9,716.01C1020.9,716.01,1023.69,715.34,1024.99,719.01C1025.17,719.6,1025.3,720.204,1025.38,720.817C1025.46,721.43,1025.48,722.048,1025.45,722.665C1025.41,723.282,1025.32,723.894,1025.18,724.495C1025.04,725.096,1024.85,725.684,1024.6,726.25C1024.6,726.25,1025.96,731.89,1023.52,734.87C1022.52,736.06,1022.86,741.4,1018.4,745.77C1018.4,745.77,1021.88,752.01,1012.4,755.77C1001.84,759.95,986.98,763.77,985.48,780.4C985.48,780.4,1007.95,852.4,965.27,886.04C922.59,919.68,814.58,888.46,780.44,913.24C771.16,919.97,732.09,870.14,726.62,856.33C726.64,856.29,738.36,816.94,778.34,811.18Z" fill="url(#Gradient-12)"/>
                <path class="cls-15" d="M1025,726C1025,726,1018,726,1016,721C1014,716,1023,713,1025,716C1027,719,1025,726,1025,726Z" fill="#008c2e" transform="translate(1.93101e-05,4.04363e-07)"/>
                <path class="cls-15" d="M939.8,710.48C930.89,721.96,921.09,721.13,917.53,728.07C912.13,738.55,944.02,754.22,954.6,771.66C959.6,779.97,970.97,755.44,967.08,744.37C963.19,733.3,953.83,711.46,956.16,702.97C956.16,703,948.72,699,939.8,710.48Z" fill="#008c2e"/>
                <path class="cls-15" d="M946.23,716L947.32,716C947.32,716,950.1,715.33,951.41,719C951.592,719.59,951.721,720.195,951.796,720.808C951.872,721.421,951.892,722.039,951.858,722.656C951.824,723.272,951.735,723.885,951.593,724.486C951.451,725.086,951.256,725.674,951.01,726.24C951.01,726.24,944.93,725.69,942.19,721.7C938.38,716.14,946.2,716,946.23,716Z" fill="#008c2e"/>
                <path class="cls-15" d="M898.62,781.51C898.62,781.51,973.83,814.51,988.71,794.03L985.5,780.36C985.5,780.36,949.8,783.68,911.92,767.76C911.92,767.76,900.17,771.19,898.62,781.51Z" fill="#008c2e"/>
            </g>
            <path class="cls-22" d="M950.196,892.364C950.196,892.364,957.82,913.49,951.74,945.83C948.68,962.07,945.28,978.98,946.92,983.68C956,1009.68,959.59,989.74,965.1,1008.13C961.1,1009.67,940.95,1006.59,940.95,1006.59C940.95,1006.59,928.08,981.3,924.95,967.25C921.82,953.2,899,920.75,885.62,903C869.53,881.74,925.322,835.775,950.196,892.364Z" fill="url(#Gradient-13)" transform="translate(910.222,887.534) translate(-910.222,-887.534)" style="animation: 5s linear infinite both a17_t;"/>
            <path class="cls-23" d="M792.77,907.33C792.77,907.33,765.26,936,751.17,944C737.08,952,729.78,973.14,729.58,978.22C728.49,1006.31,741.04,988.66,739.27,1008.22L714.15,1008.1C714.15,1008.1,709.69,969.04,712.21,954.51C714.73,939.98,723.02,919.17,715.75,897.36C708.48,875.55,733.53,841.72,733.53,841.72C733.53,841.72,761.78,815.6,796.44,845.12C827.41,871.5,792.77,907.33,792.77,907.33Z" fill="url(#Gradient-14)" transform="translate(763.992,866.159) translate(-763.992,-866.159)" style="animation: 5s linear infinite both a18_t;"/>
        </g>
    </g>
</svg>
